<svg xmlns="http://www.w3.org/2000/svg" viewBox="0 0 1585 1323"><g stroke-width="2" fill="none"><path stroke="#4a969e" vector-effect="non-scaling-stroke" d="M843.55 218.75q.08.93-.59 2.73-.05.12.06.05.04-.03.09-.02.5.12.49.63-.01.46-.47.48-1.16.06-2.03-.57a1.19 1.18 58.8 00-.84-.21q-1.49.2-2.97.55-1.46.36-3.06.15-4.18-.54-7.5-.25-4.83.42-10.47 1.17-5.03.68-8.63 1.58-4.13 1.04-8.3 1.83c-1.31.25-2.5.92-3.76 1.16q-4.96.94-9.64 2.41-.87.27-1.66 1.26-.35.43-.88.56-.89.22-1.74.57-.92.38-1.33 1.36-.81 1.98-.98 3.67c-.22 2.19 1.22 3.94 1.75 5.97q.45 1.74 1.09 3.54.6 1.68.83 3.28.28 1.87.73 3.7.11.42-.22.69-.22.19-.21.47.02.51.3.96.77 1.19.62 2.54-.06.49.1.95.43 1.29.27 2.59a1.44 1.42 32.6 00.21.93q1.89 2.86 2.88 6.24.5 1.73 1.74 3.25.23.28.27.65.24 2.22 1.32 4.19.24.44.67.67.61.32.7.99.05.34.39.41.24.05.41-.12.32-.32.19.12-.04.13-.02.27.05.34.39.41l2.54.48q.49.09.97-.04 16.79-4.52 30.56-4.63 34.36-.28 63.9 11.31 11.73 4.61 23.46 12.13c4.07 2.61 7.69 5.88 11.71 8.59q.12.09.18.22t.03.27q-.04.27.13.47l3.99 4.71q.38.45.32 1.04-.26 2.27.66 4.6.12.28.36.48.99.82 1.16 2.04.29 2.05 1.29 3.72.97 1.61 1.83 3.18 2.34 4.25 4.91 8.38c.38.6 1 1.1 1.07 1.78q.05.49.35.87 1.93 2.4 1.86 5.46-.01.31.05.62.13.64-.53.92a.04.04 0 01-.04-.06q.18-.19.06-.45-.08-.18-.28-.23-.33-.08-.8.12"/><path stroke="#69b4b3" vector-effect="non-scaling-stroke" d="M943.49 346.54q-5.96-6.65-13.14-12.14-.58-.45-2.41-1.25m-21.02-12.7q.95-.88-2.21-2.29-26.95-12.06-54.97-15.98-9.75-1.36-19.55-1.29-17.02.12-34.49 3.31-18.72 3.42-32.19 10.67-17.03 9.17-30.94 23.62-5.74 5.98-8.36 13.76-.84 2.48-1.79 5.16-.75 2.12 1.02.73c5.67-4.45 10.51-9.78 16.45-14.03q21.48-15.39 45.2-20.87 21.5-4.97 41.86-5.69 9.42-.33 20.63 1.18 27.45 3.72 52.18 10.76 2.65.75 2.55-.33m12.7 5.76l26.35 14.51"/><path stroke="#4a969e" vector-effect="non-scaling-stroke" d="M941.36 349.43q-.1.52-.34.72-.33.28-.01.58.19.18.46.15.41-.04.27.35-.77 2.03-1.18 4.5-.78 4.78-.89 8.39-.13 4.57.38 9.14.06.53-.45.7-.15.04-.18.2-.06.32.12.62.55.89.68 2.04"/><path stroke="#69b4b3" vector-effect="non-scaling-stroke" d="M899.11 354.78q-18.4-5.39-37.47-8.49-8.26-1.34-17.3-1.51c-17.82-.32-34.91.78-52.33 4.58-14.42 3.15-27.08 9.97-39.33 18.25q-12.72 8.62-22.97 20.99-1.04 1.25.3.31 6.79-4.79 13.95-9.62 7.65-5.16 14.49-8.68 27.59-14.21 59.75-16.63 24.34-1.84 47.06 1.7 25.53 3.99 50.12 13.29"/><path stroke="#4a969e" vector-effect="non-scaling-stroke" d="M947.29 388.08q-2.12.53-3.13-.65-1.28-1.48-1.28.57v6.95q0 .51-.49.64-.67.19-1.35-.08-.51-.2-.92.15-.75.61-.97 1.44-.13.5-.6.28-.63-.28-1.18.03-.57.33.01.64.49.26 1.1.08.69-.22.17.28-.4.39-.88.12-.53-.31-.95.12-.48.48-1.16.51a.58.57-81.2 00-.53.39q-.29.82-.24 1.64.06.81-.75.88-1.01.09-2.03.56-.4.18-.82.02-.45-.16-.79.22-1.25.13-2.52.3-.74.1-1.46.02-.74-.09-1.37.37a1.12 1.11-58.1 01-.79.19l-2.86-.38q-.24-.03-.42.13-.13.11-.2.27-.38.82-.79.13l-.35-.61a.31.31 0 00-.49-.06q-.21.21-.16.47.17.82-.17.06-.11-.27-.35-.46-.26-.21-.59-.14-.17.03-.27.15-.21.24-.53.21l-3.82-.32q-.51-.04-.79.38-.96 1.44-2.75 1.02-.54-.13-.92.29-.89.97-1.3 2.16-.2.57-.54.08-.22-.32-.26-.67-.02-.14.11-.08.22.09.32-.18a.2.19-79.8 00-.18-.27q-1.92.04-3.3-1.36-.3-.31-.72-.2-.22.05-.43-.03-1.31-.54-2.74-1.01-.61-.19-.73.43-.2 1.03-1.15 1.33-.49.15-.58.65-.3 1.51 0 3.11.13.71-.35 1.2-.28.29-.34.69l-.61 4.71q-.12.91-.35.03-.05-.19-.08-.37-.13-.95-.35-.02-.15.68-.92.76-.69.07-.51.74.09.37.11.75.05 1.43-.64.2-.36-.64-1.28-.47"/><path stroke="#69b4b3" vector-effect="non-scaling-stroke" d="M892.08 417.07l-1.73-7.65"/><path stroke="#4a969e" vector-effect="non-scaling-stroke" d="M1019.44 639.87q-1.32-6.1-.89-12.32c.1-1.45-.61-2.74-.26-4.21"/><path stroke="#6bb8b7" vector-effect="non-scaling-stroke" d="M1018.29 623.34q2.01 2.43 2.83-2.38.47-2.72.83-5.3.38-2.67.4-5.12.11-10.2.29-19.61c.14-7.28-.69-13.66-3.56-20.38q-2.53-5.91-7.65-13.13c-7.99-11.26-17.94-20.15-27.69-30.17q-6.81-6.99-8.82-8.72-23.04-19.83-40.73-38.12-15.4-15.92-27.79-34.65-6.14-9.28-9.6-16.55-1.92-4.04-4.72-12.14m49.28-67.64q1.65.89 3.27.95.52.02.42-.5-.32-1.68-1.56-3.34"/><path stroke="#69b4b3" vector-effect="non-scaling-stroke" d="M1018.29 623.34q-1.6-11.75-3.02-15.86c-6.99-20.18-22.57-36.04-40.18-47.78q-9.77-6.52-19.61-12.99c-9.45-6.21-18.5-13.3-26.89-20.47q-14.34-12.26-26.03-28.64-9.13-12.78-13.73-21.44-5.71-10.72-9.76-27.27"/><path stroke="#6abbb4" vector-effect="non-scaling-stroke" d="M505.29 526.04q-16.33-16.13-38.7-29.1-14.6-8.46-25.67-12.15c-8.6-2.86-18.16-4.08-27.13-5.94q-1.57-.33-1.02 1.18.25.69 1.31 1.9c6.4 7.37 13.02 12.59 22.35 18.38q10.98 6.8 21.72 14.03.05.04 13.25 8.73 6.05 3.98 14.89 10.16 23.25 16.24 37.88 39.88"/><path stroke="#ecb5ad" vector-effect="non-scaling-stroke" d="M426.36 652.37q2.57-.37 4.36-2.66 1.65-2.12 3.1-4.37 1.66-2.6.46-3.2"/><path stroke="#765650" vector-effect="non-scaling-stroke" d="M654.04 1169.36q-16.42-.54-23.78-2.11c-4.71-1-8.58-5.3-9.2-10.47-.3-2.54-.85-4.96-.9-7.56-.13-6.18-.47-12.38-.51-18.29q-.57-73.76-2.54-137.94-.2-6.36-1.55-12.48c-.56-2.51-4.49-2.69-6.52-2.69q-9.89.03-20.64-.13-3.9-.05-7.62-.88c-.88-.2-1.32-.85-1.71-1.61"/><path stroke="#8c716b" vector-effect="non-scaling-stroke" d="M579.07 975.2q-2.29-16.72-1.5-33.7.1-2.09.73-8.13"/><path stroke="#181c1c" vector-effect="non-scaling-stroke" d="M579.07 975.2q-.15-.02-.39-.24-.28-.26-.36.12l-.27 1.32"/><path stroke="#765650" vector-effect="non-scaling-stroke" d="M802.81 1169.47c-2.84-.75-5.86-.41-8.38-.97-4.64-1.04-9.43-2.83-10.96-7.9q-1.22-4.01-1.28-7.35-.4-21.44-.26-49.01.05-10.31-.86-19.5-1.12-11.26-6.34-21.61-15.28-30.29-28.18-58.6c-7.28-15.98-16.48-30.91-23.85-46.7q-4.21-9.02-8.18-18.08-1.06-2.43-.33-4.53"/><path stroke="#8c716b" vector-effect="non-scaling-stroke" d="M407.86 1170.54q-1.58-1.24-4.39-1.39"/><path stroke="#765650" vector-effect="non-scaling-stroke" d="M403.47 1169.15c-5.64-2.65-7.34-8.32-8.21-13.4q-2.29-13.37-4.87-21.88-.64-2.1-2.71-4.02m-104.51 40.36q-7.74-4.02-7.13-10.46.64-6.75 2.91-14.5 5.6-19.13 10.36-38.49 13.33-54.24 25.69-108.51c3.98-17.46 7.23-34.9 10.72-52.31.66-3.31 1.68-6.45 3.24-9.46q1.86-3.59 5.54-3.84 2.45-.16 10.79-.27"/><path stroke="#8c716b" vector-effect="non-scaling-stroke" d="M345.29 932.37q.06.27.21.27 2.51-.02 5.04-.66"/><path stroke="#181c1c" vector-effect="non-scaling-stroke" d="M403.47 1169.15q.13.22-.2.42M346.2 932.05q-.1.31-.91.32"/><path stroke="#765650" vector-effect="non-scaling-stroke" d="M511.05 1171.39c-5.56-.41-11.13-.37-16.65-1.13q-2.55-.35-5.29-.41c-6.02-.13-10.16-7.44-10.83-12.58q-.65-5.02-.68-9.31c-.18-22.93-.19-45.92-1.27-68.97q-.77-16.31-1.18-45.55-.14-9.64-.61-20.2-.69-15.29-1.06-31.76a2.42 2.41-.5 00-2.41-2.36l-27.53-.1m0 0c-3.13-.84-6.16-1-7.17-4.86q-.98-3.75-1.15-6.09-.66-9.18-.82-23.57-.08-6.62 2.54-10.49m641.12 66.52q-5.1-7.64-12.5-14.1-10.85-9.47-24.76-7.79m-23.99 190.19q-25.71-8.7-45.78-29.36-8.64-8.9-13.69-17.45c-1.05-1.78-.45-3.04 1-4.2m97.15 3.23q10.12-5.88 9.71-18.31c-.42-13.16-9.7-20.02-20.48-25.12-14.74-6.98-30.49-12.23-44.81-20.36q-19.27-10.93-26.93-31c-2.54-6.64-5.02-14.37-5.36-21.11q-.63-12.35 2.62-23.57c3.2-11.05 9.19-20.13 17.51-27.84"/><path stroke="#8c716b" vector-effect="non-scaling-stroke" d="M987.75 953.74q1.46-1.15 1.79-2.38"/><path stroke="#181c1c" vector-effect="non-scaling-stroke" d="M987.75 953.74q-.53.09-.7-.03"/><path stroke="#765650" vector-effect="non-scaling-stroke" d="M170.81 1172.18l-14.29-.11m-9.6-1.04q-5.62-2.58-8.08-7.71-1.46-3.03-1.89-10.41-.6-10.19-.65-14.16-.6-46.23-.79-91.5c-.14-34.29-1.27-68.63-2.36-102.75-.12-3.85 0-6.93 3.92-8.7m1025.64 241.08c-5.98-1.16-13.08-2.29-14.77-9.39q-.94-3.95-.96-6.99-.47-61.59-2.16-103.75-1.89-47.1-2.57-70.41c-.31-10.71-.86-21.44-.91-31.87q-.02-4.12.66-7.46.34-1.69 2.51-4.7m275.42 236.46c-4.98-2.84-7.19-7.02-8.51-12.54q-1.65-6.83-2.9-13.74-1.44-7.96-4.3-14.91m-97.64 42.34c-5.75-1.28-10.51-2.05-13.25-7.86q-1-2.11-.78-5.22.25-3.47.74-5.35 8.74-33.71 17.01-67.55 2.44-10 4.93-19.38 7.65-28.82 14.14-58.83 6.67-30.86 13.52-62.99.63-2.95 3.67-8.62"/><path stroke="#69b4b3" vector-effect="non-scaling-stroke" d="M676.86 546.23q8.87-10 27.25-27.32 7.28-6.86 15.09-13.05c19.05-15.07 38.42-29.49 58.1-44.58 21.78-16.72 42.82-34.31 62.16-53.01q8.7-8.4 15.63-16.02a.42.42 0 00-.28-.7q-5.25-.37-10.3.76c-11 2.45-21.55 7.16-31.58 12.21-9.03 4.54-18.49 10.37-26.83 15.98q-26.93 18.12-50.18 37.04-16.14 13.14-30.78 28.49c-5.51 5.78-10.43 11.84-15.52 18.05-18.42 22.44-32.12 49.71-42.36 76.95-.92 2.45-3.13 8.5-1.72 10.67q.9 1.4 1.44-.17 2.88-8.31 7.58-15.95 8.53-13.83 22.3-29.35"/><path stroke="#77c6c5" vector-effect="non-scaling-stroke" d="M495.87 406.07q1.02.56 1.38.55.76 0 .74-.98"/><path stroke="#77c6c5" vector-effect="non-scaling-stroke" d="M499.14 404.39l-1.01 1.98q-.15.3-.49.3-.14 0-.27-.03-.95-.22-.26.47.81.81 1.41 1.66"/><path stroke="#96e4da" vector-effect="non-scaling-stroke" d="M498.52 408.77q2.07 1.88 3.71-.08.31-.38.79-.5l4.52-1.12"/><path stroke="#6bb8b7" vector-effect="non-scaling-stroke" d="M501.91 406.65q-1.01 2.15-3.39 2.12"/><path stroke="#6abbb4" vector-effect="non-scaling-stroke" d="M1155.33 428.54q-3.5 2.3-7.18 5.67-1.49 1.37-2.96 2.66-2.69 2.39-5.34 4.73-4.33 3.83-5.13 9.63a.45.45 0 00.65.46c5.45-2.84 9.23-7.15 13.51-11.39 4.8-4.77 10.56-8.68 15.89-12.57q3.1-2.27 5.36-4.6a.82.82 0 00-.5-1.39q-2.57-.29-4.6.85-4.45 2.5-9.7 5.95"/><path stroke="#765650" vector-effect="non-scaling-stroke" d="M349.2 1093.86l11.8.12m.42 0q9.75.76 19.6-.24.56-.06.51-.61-.63-7.33-1.73-12.64-3.93-19.05-8.85-39.99-2.06-8.77-4.19-19.55-2.16-10.9-4.57-22.68-.03-.14-.18-.11h0q-.15.03-.11.18.43 1.56-.32 2.99m-143.05 41.43q4.68-1.1 7.27-6.01c6.98-13.29 7.52-30.26.28-43.37q-6.17-11.16-19.66-12.45m1023.27 67.14q7.26-3.96 9.55-14.07 3.08-13.65.5-25.96-1.84-8.79-6.72-14.36-8.13-9.28-22.06-8.41"/><path stroke="#e9afaf" vector-effect="non-scaling-stroke" d="M1378.11 1007.21q-3.61 6.54-3.04 14.11"/><path stroke="#765650" vector-effect="non-scaling-stroke" d="M1395.73 1102.52l2.24.16q.66.05.57-.61-.97-6.78-2.08-12.11-3.62-17.19-7.22-34.46-1.62-7.79-3.47-18.1-1.65-9.18-3.97-18.04-1.6-6.12-2.3-10.23c-.21-1.25-.86-2.25-.93-3.5q-.06-1-.33-.03-.24.88-.13 1.61"/><path stroke="#755b60" vector-effect="non-scaling-stroke" d="M1379.05 1011.81q.3-2.29-.94-4.6"/></g><path fill="#f0b59a" d="M851.23 156.79c-3.2 6.45-6.01 13.39-9.22 19.76a.6.59-43.2 01-1.08-.03q-4.79-11.34-9.53-21.04-12.51-25.55-40.06-34.02-.83-.25.02-.41c.58-.11 1.42-.17 1.94-.39q8.84-3.62 18.97-9.93 23.12-14.38 29.14-40.6.27-1.14.63-.03 2.03 6.26 3.9 11.8c6.85 20.26 24.23 32.2 42.77 40.67q.53.24-.01.45c-16.37 6.37-29.68 18.03-37.47 33.77z"/><path fill="#60b6ae" d="M764.9 184.64c1.41 2.71 1.81 5.77-.37 8.27q-3.52 4.05-7.84 6.16a2.4 2.39 58.6 01-2.97-.72c-4.95-6.62-10.52-12.01-17.33-16.97q-7.77-5.66-15.83-11.79c-3.36-2.57-3.69-6.23-1.39-9.68q5.12-7.68 13.51-9.39c4.69-.96 11.49 6.54 14.42 9.62q11.13 11.7 17.8 24.5zm181.66-31.93c4.61 2.08 15.77 11.85 9.29 17.5q-2.21 1.93-4.4 3.47-17.6 12.43-29.84 25.92-2.5 2.76-5 2.14c-3.04-.76-5.81-4.76-7.71-7.23-1.65-2.15-.6-4.61.5-6.75 5.99-11.77 15-21.7 24.37-31.3 3.52-3.61 7.71-6.04 12.79-3.75z"/><path fill="#489199" d="M843.55 218.75q.08.93-.59 2.73-.05.12.06.05.04-.03.09-.02.5.12.49.63-.01.46-.47.48-1.16.06-2.03-.57a1.19 1.18 58.8 00-.84-.21q-1.49.2-2.97.55-1.46.36-3.06.15-4.18-.54-7.5-.25-4.83.42-10.47 1.17-5.03.68-8.63 1.58-4.13 1.04-8.3 1.83c-1.31.25-2.5.92-3.76 1.16q-4.96.94-9.64 2.41-.87.27-1.66 1.26-.35.43-.88.56-.89.22-1.74.57-.92.38-1.33 1.36-.81 1.98-.98 3.67c-.22 2.19 1.22 3.94 1.75 5.97q.45 1.74 1.09 3.54.6 1.68.83 3.28.28 1.87.73 3.7.11.42-.22.69-.22.19-.21.47.02.51.3.96.77 1.19.62 2.54-.06.49.1.95.43 1.29.27 2.59a1.44 1.42 32.6 00.21.93q1.89 2.86 2.88 6.24.5 1.73 1.74 3.25.23.28.27.65.24 2.22 1.32 4.19.24.44.67.67.61.32.7.99.05.34.39.41.24.05.41-.12.32-.32.19.12-.04.13-.02.27.05.34.39.41l2.54.48q.49.09.97-.04 16.79-4.52 30.56-4.63 34.36-.28 63.9 11.31 11.73 4.61 23.46 12.13c4.07 2.61 7.69 5.88 11.71 8.59q.12.09.18.22t.03.27q-.04.27.13.47l3.99 4.71q.38.45.32 1.04-.26 2.27.66 4.6.12.28.36.48.99.82 1.16 2.04.29 2.05 1.29 3.72.97 1.61 1.83 3.18 2.34 4.25 4.91 8.38c.38.6 1 1.1 1.07 1.78q.05.49.35.87 1.93 2.4 1.86 5.46-.01.31.05.62.13.64-.53.92a.04.04 0 01-.04-.06q.18-.19.06-.45-.08-.18-.28-.23-.33-.08-.8.12-5.96-6.65-13.14-12.14-.58-.45-2.41-1.25.15-.15.02-.65-.07-.3-.3-.55-2.59-2.78-7.77-5.82-7.21-4.24-12.97-5.68.95-.88-2.21-2.29-26.95-12.06-54.97-15.98-9.75-1.36-19.55-1.29-17.02.12-34.49 3.31-18.72 3.42-32.19 10.67-17.03 9.17-30.94 23.62-5.74 5.98-8.36 13.76-.84 2.48-1.79 5.16-.75 2.12 1.02.73c5.67-4.45 10.51-9.78 16.45-14.03q21.48-15.39 45.2-20.87 21.5-4.97 41.86-5.69 9.42-.33 20.63 1.18 27.45 3.72 52.18 10.76 2.65.75 2.55-.33l12.7 5.76 26.35 14.51q-.1.52-.34.72-.33.28-.01.58.19.18.46.15.41-.04.27.35-.77 2.03-1.18 4.5-.78 4.78-.89 8.39-.13 4.57.38 9.14.06.53-.45.7-.15.04-.18.2-.06.32.12.62.55.89.68 2.04-7.19-7.48-16.02-12.5-4.24-2.41-12.39-5.13-6.32-2.11-12.7-4.41-18.4-5.39-37.47-8.49-8.26-1.34-17.3-1.51c-17.82-.32-34.91.78-52.33 4.58-14.42 3.15-27.08 9.97-39.33 18.25q-12.72 8.62-22.97 20.99-1.04 1.25.3.31 6.79-4.79 13.95-9.62 7.65-5.16 14.49-8.68 27.59-14.21 59.75-16.63 24.34-1.84 47.06 1.7 25.53 3.99 50.12 13.29 7.46 4.5 18.75 10.15 6.8 3.42 13.16 8.96-2.12.53-3.13-.65-1.28-1.48-1.28.57v6.95q0 .51-.49.64-.67.19-1.35-.08-.51-.2-.92.15-.75.61-.97 1.44-.13.5-.6.28-.63-.28-1.18.03-.57.33.01.64.49.26 1.1.08.69-.22.17.28-.4.39-.88.12-.53-.31-.95.12-.48.48-1.16.51a.58.57-81.2 00-.53.39q-.29.82-.24 1.64.06.81-.75.88-1.01.09-2.03.56-.4.18-.82.02-.45-.16-.79.22-1.25.13-2.52.3-.74.1-1.46.02-.74-.09-1.37.37a1.12 1.11-58.1 01-.79.19l-2.86-.38q-.24-.03-.42.13-.13.11-.2.27-.38.82-.79.13l-.35-.61a.31.31 0 00-.49-.06q-.21.21-.16.47.17.82-.17.06-.11-.27-.35-.46-.26-.21-.59-.14-.17.03-.27.15-.21.24-.53.21l-3.82-.32q-.51-.04-.79.38-.96 1.44-2.75 1.02-.54-.13-.92.29-.89.97-1.3 2.16-.2.57-.54.08-.22-.32-.26-.67-.02-.14.11-.08.22.09.32-.18a.2.19-79.8 00-.18-.27q-1.92.04-3.3-1.36-.3-.31-.72-.2-.22.05-.43-.03-1.31-.54-2.74-1.01-.61-.19-.73.43-.2 1.03-1.15 1.33-.49.15-.58.65-.3 1.51 0 3.11.13.71-.35 1.2-.28.29-.34.69l-.61 4.71q-.12.91-.35.03-.05-.19-.08-.37-.13-.95-.35-.02-.15.68-.92.76-.69.07-.51.74.09.37.11.75.05 1.43-.64.2-.36-.64-1.28-.47l-1.73-7.65q.11-3.46.58-7.66.25-2.3-1.86-3.06-6.29-2.27-13.47-3.73a1.31 1.3 10.9 00-1.54 1.04q-.77 4.08-1.47 8.18-5.96 35-23.9 66.17-7.69 13.36-16.57 26.78c-6.7 10.13-14.24 18.38-22.9 27.14q-30.63 30.97-69 51.29-13.79 7.3-26.58 14.18-13.66 7.35-24.3 17.35c-9.75 9.17-15.74 19.89-18.12 33.09q-2.76 15.31-2.61 24.84.39 23.99 14.31 44.08 4.33 6.26 9.07 11.84 1.04 1.22-.5.8-4.12-1.1-7.7-3.24c-21.82-13.01-40.2-29.35-51.52-51.92q-9.86-19.65-14.1-39.93-1.11-5.32-2.23-13.91c-2.45-18.77-1.28-37.25 2.18-57.42q3.65-21.22 12.22-40.44c6.72-15.05 14.19-29.3 24.24-42.51q15.62-20.51 30.82-34.15c10.07-9.02 18.39-15.64 29.8-20.4a1.59 1.58-31.3 00.61-2.48c-6.55-7.85-10.72-18.93-13.99-29.37-6.78-21.63-4.63-42.87.48-65.26 7.56-33.17 27.21-61.37 55.36-80.86 23.43-16.23 51.8-23.29 80.35-21.76q2.47.13 5.54.65zM676.86 546.23q8.87-10 27.25-27.32 7.28-6.86 15.09-13.05c19.05-15.07 38.42-29.49 58.1-44.58 21.78-16.72 42.82-34.31 62.16-53.01q8.7-8.4 15.63-16.02a.42.42 0 00-.28-.7q-5.25-.37-10.3.76c-11 2.45-21.55 7.16-31.58 12.21-9.03 4.54-18.49 10.37-26.83 15.98q-26.93 18.12-50.18 37.04-16.14 13.14-30.78 28.49c-5.51 5.78-10.43 11.84-15.52 18.05-18.42 22.44-32.12 49.71-42.36 76.95-.92 2.45-3.13 8.5-1.72 10.67q.9 1.4 1.44-.17 2.88-8.31 7.58-15.95 8.53-13.83 22.3-29.35z"/><path fill="#4c9aa2" d="M843.55 218.75q9.99.79 23.68 4.73 17.59 5.07 30.33 13.11 36.16 22.84 53.08 61.08c6.44 14.56 10.97 29.04 12.64 44.97 1.32 12.58-.42 26.48-2.89 38.89q-2.75 13.79-10.19 28.16-4.35 8.41-10.68 14.62a1.1 1.09-50.8 00.17 1.7q14.41 9.4 25.53 20.36 23.01 22.69 38.84 50.94c7.63 13.6 13.55 28.25 17.2 43.66q4.88 20.58 6.57 40.78.44 5.31-.13 14.49-1.34 21.83-8.26 43.63-1.32-6.1-.89-12.32c.1-1.45-.61-2.74-.26-4.21q2.01 2.43 2.83-2.38.47-2.72.83-5.3.38-2.67.4-5.12.11-10.2.29-19.61c.14-7.28-.69-13.66-3.56-20.38q-2.53-5.91-7.65-13.13c-7.99-11.26-17.94-20.15-27.69-30.17q-6.81-6.99-8.82-8.72-23.04-19.83-40.73-38.12-15.4-15.92-27.79-34.65-6.14-9.28-9.6-16.55-1.92-4.04-4.72-12.14.92-.17 1.28.47.69 1.23.64-.2-.02-.38-.11-.75-.18-.67.51-.74.77-.08.92-.76.22-.93.35.02.03.18.08.37.23.88.35-.03l.61-4.71q.06-.4.34-.69.48-.49.35-1.2-.3-1.6 0-3.11.09-.5.58-.65.95-.3 1.15-1.33.12-.62.73-.43 1.43.47 2.74 1.01.21.08.43.03.42-.11.72.2 1.38 1.4 3.3 1.36a.2.19-79.8 01.18.27q-.1.27-.32.18-.13-.06-.11.08.04.35.26.67.34.49.54-.08.41-1.19 1.3-2.16.38-.42.92-.29 1.79.42 2.75-1.02.28-.42.79-.38l3.82.32q.32.03.53-.21.1-.12.27-.15.33-.07.59.14.24.19.35.46.34.76.17-.06-.05-.26.16-.47a.31.31 0 01.49.06l.35.61q.41.69.79-.13.07-.16.2-.27.18-.16.42-.13l2.86.38a1.12 1.11-58.1 00.79-.19q.63-.46 1.37-.37.72.08 1.46-.02 1.27-.17 2.52-.3.34-.38.79-.22.42.16.82-.02 1.02-.47 2.03-.56.81-.07.75-.88-.05-.82.24-1.64a.58.57-81.2 01.53-.39q.68-.03 1.16-.51.42-.43.95-.12.48.27.88-.12.52-.5-.17-.28-.61.18-1.1-.08-.58-.31-.01-.64.55-.31 1.18-.03.47.22.6-.28.22-.83.97-1.44.41-.35.92-.15.68.27 1.35.08.49-.13.49-.64V388q0-2.05 1.28-.57 1.01 1.18 3.13.65.76 1.42 2.22 1.59a.52.52 0 00.5-.8q-4.19-6.53-9.79-12.05-.13-1.15-.68-2.04-.18-.3-.12-.62.03-.16.18-.2.51-.17.45-.7-.51-4.57-.38-9.14.11-3.61.89-8.39.41-2.47 1.18-4.5.14-.39-.27-.35-.27.03-.46-.15-.32-.3.01-.58.24-.2.34-.72 1.65.89 3.27.95.52.02.42-.5-.32-1.68-1.56-3.34.47-.2.8-.12.2.05.28.23.12.26-.06.45a.04.04 0 00.04.06q.66-.28.53-.92-.06-.31-.05-.62.07-3.06-1.86-5.46-.3-.38-.35-.87c-.07-.68-.69-1.18-1.07-1.78q-2.57-4.13-4.91-8.38-.86-1.57-1.83-3.18-1-1.67-1.29-3.72-.17-1.22-1.16-2.04-.24-.2-.36-.48-.92-2.33-.66-4.6.06-.59-.32-1.04l-3.99-4.71q-.17-.2-.13-.47.03-.14-.03-.27t-.18-.22c-4.02-2.71-7.64-5.98-11.71-8.59q-11.73-7.52-23.46-12.13-29.54-11.59-63.9-11.31-13.77.11-30.56 4.63-.48.13-.97.04l-2.54-.48q-.34-.07-.39-.41-.02-.14.02-.27.13-.44-.19-.12-.17.17-.41.12-.34-.07-.39-.41-.09-.67-.7-.99-.43-.23-.67-.67-1.08-1.97-1.32-4.19-.04-.37-.27-.65-1.24-1.52-1.74-3.25-.99-3.38-2.88-6.24a1.44 1.42 32.6 01-.21-.93q.16-1.3-.27-2.59-.16-.46-.1-.95.15-1.35-.62-2.54-.28-.45-.3-.96-.01-.28.21-.47.33-.27.22-.69-.45-1.83-.73-3.7-.23-1.6-.83-3.28-.64-1.8-1.09-3.54c-.53-2.03-1.97-3.78-1.75-5.97q.17-1.69.98-3.67.41-.98 1.33-1.36.85-.35 1.74-.57.53-.13.88-.56.79-.99 1.66-1.26 4.68-1.47 9.64-2.41c1.26-.24 2.45-.91 3.76-1.16q4.17-.79 8.3-1.83 3.6-.9 8.63-1.58 5.64-.75 10.47-1.17 3.32-.29 7.5.25 1.6.21 3.06-.15 1.48-.35 2.97-.55a1.19 1.18 58.8 01.84.21q.87.63 2.03.57.46-.02.47-.48.01-.51-.49-.63-.05-.01-.09.02-.11.07-.06-.05.67-1.8.59-2.73z"/><path fill="#eaaa9e" d="M1043.96 279.83c-8.82-.06-17.33-5.21-22.46-12.27q-11.57-15.96-9.88-35.02.23-2.57 1.31-5.55c.44-1.22 1.48-1.77 2.71-1.91 13.46-1.62 27.87 4.47 36.85 14.37 6.07 6.68 11.5 16.11 9.5 25.12q-.93 4.2-3.94 7.21c-3.67 3.69-8.69 8.09-14.09 8.05zM643.94 265.7q-6.87 11.47-21.87 15.92c-2.27.67-4.93 1.14-7.1-.16-4.46-2.67-10.6-8.82-11.65-14.45q-1.38-7.34 1.79-13.82 5.3-10.83 14.03-16.99 10.51-7.42 23.08-9.81 2.15-.41 4.71-.08c1.75.23 2.5 1.87 2.88 3.39q2.77 10.85 1.09 19.16-1.59 7.87-6.96 16.84zm488.04-27.72c.13 9.61-4.13 23.06-11.16 30.68-5.8 6.29-15.59 13.55-24.48 15.48a1.94 1.92-39.8 01-1.07-.09q-2.53-1-4.61-2.79-6.92-5.96-14.43-12.64-1.25-1.11-1.03-2.66c1.02-7.27 3.8-13.7 9.09-19.14 10.37-10.63 26.08-16.81 40.79-15.09 3.93.45 6.84 1.72 6.9 6.25zM574 290.62c-20.81 1.43-35.95-17.42-41.06-35.45q-1.11-3.89-.87-7.86c.24-4.07 5.23-5.46 8.47-5.9 13.47-1.8 26.89 2.58 38.03 10.61q7.35 5.29 10.42 15.62c1.13 3.82-1.77 7.08-4.18 9.64-3.37 3.58-6.29 7.9-8.73 12.09q-.67 1.15-2.08 1.25z"/><path fill="#e9ab45" d="M1053.49 291.97c.37-7.14 7.63-13.07 13.54-15.99 5.75-2.84 13.7 4.79 16.68 9.15 2.22 3.25.8 8.18-.59 11.5-2 4.78-10.15 9.1-14.64 10.93a2.77 2.77 0 01-2.1 0c-5.14-2.1-13.19-9.68-12.89-15.59zm-440.39-.4c-.9 5.21-6.37 17.4-12.16 17.86q-1.59.12-3.17-.37c-4.37-1.37-13.22-4.85-14.77-9.12-2.09-5.74-.79-10.13 3.41-14.3q4.24-4.21 8.76-6.42 1.72-.84 3.47.14 6.14 3.41 12.94 9.21c.9.77 1.76 1.65 1.52 3z"/><path fill="#e8b4bf" d="M627.4 332.57c-8.14-3.11-18.87-12.46-14.32-22.3 2.61-5.66 6.4-11.02 9.43-16.74q1.16-2.17 3.61-2.49c13.59-1.77 27.41 3.37 35.42 14.47q5.83 8.09 6.67 16.49c.52 5.27-1.97 13.28-7.79 15.12q-3.21 1.01-7.67.68-14.44-1.07-25.35-5.23z"/><path fill="#eaaa9e" d="M1056.71 315.49c-4.04 9.53-9.23 16.99-17.98 22.2-8.94 5.33-19.73 8.74-30.23 8.9-1.7.03-3.41-.55-4.16-2.23-5.22-11.71-3.98-25.14 3.83-35.4q10.25-13.47 27.55-16.2c7.44-1.17 10.89 2.49 14.34 8.07q3.88 6.26 6.6 11.99.63 1.31.05 2.67z"/><path fill="#8ad6cc" d="M906.92 320.45q.84 7.02-5.61 6.82-2.71-.09-.29 1.12.14.07 1.29.77.1 1.08-2.55.33-24.73-7.04-52.18-10.76-11.21-1.51-20.63-1.18-20.36.72-41.86 5.69-23.72 5.48-45.2 20.87c-5.94 4.25-10.78 9.58-16.45 14.03q-1.77 1.39-1.02-.73.95-2.68 1.79-5.16 2.62-7.78 8.36-13.76 13.91-14.45 30.94-23.62 13.47-7.25 32.19-10.67 17.47-3.19 34.49-3.31 9.8-.07 19.55 1.29 28.02 3.92 54.97 15.98 3.16 1.41 2.21 2.29z"/><path fill="#eaaa9e" d="M1100.25 360.19c-15.75-7.22-28.09-17.43-31.38-35.28q-1.01-5.5 2.44-9.35c5.18-5.79 15.15-12.54 23.17-10.22 6.44 1.87 12.04 6.17 15.99 11.47q10.92 14.65 8.79 34.26c-.62 5.71-2.47 14.54-10.19 12.4q-4.25-1.19-8.82-3.28zm-502.51-21.64q-5.28 14.22-17.22 20.67-12.63 6.82-24.18 8.73-1.62.27-3.22-.38-.51-.21-.67-.74-.55-1.82-.76-3.75c-2.27-20.69 2.16-42.82 21.53-53.89 4.17-2.39 8.08-.45 11.73 1.71q5.2 3.08 10.96 6.16c9.17 4.91 4.57 14.14 1.83 21.49z"/><path fill="#8ad6cc" d="M927.94 333.15q1.83.8 2.41 1.25 7.18 5.49 13.14 12.14 1.24 1.66 1.56 3.34.1.52-.42.5-1.62-.06-3.27-.95l-26.35-14.51q3.18.51 5.74 1.04c1.47.3 3.09-1.2 4.34-1.65q1.45-.52 2.85-1.16zm-28.83 21.63q1.42 1.26 4.9 2.9 1.79.85 4.36 3.04 1.15.99 2.7 3.52 1.55 2.53 4.31 4.73-24.59-9.3-50.12-13.29-22.72-3.54-47.06-1.7-32.16 2.42-59.75 16.63-6.84 3.52-14.49 8.68-7.16 4.83-13.95 9.62-1.34.94-.3-.31 10.25-12.37 22.97-20.99c12.25-8.28 24.91-15.1 39.33-18.25 17.42-3.8 34.51-4.9 52.33-4.58q9.04.17 17.3 1.51 19.07 3.1 37.47 8.49z"/><path fill="#a2f1e8" d="M462.43 354.58q29.16 15.29 49.12 39.36 8.25 9.95 15.7 21.1 9.56 14.3 15.82 34.09 2.59 8.21 4.05 20.69 2.32 19.87-.29 41.16-2.17 17.69-4.87 30.58-.8 3.8-2.45 6.85-.6 1.1-.91-.11-6.8-26.63-18.66-51.53-5.5-11.53-18.62-28.11-14.42-18.23-32.67-33.3-6.48-5.34-13.27-10.96c-2.24-1.85-4.39-4.08-5.41-6.92q-3.09-8.56-4.47-20.23c-1.74-14.62-3.38-29.69-2.65-44.38q.09-1.62.51-3.19a1.12 1.1-82.9 011.04-.82c6.06-.14 12.43 2.79 18.03 5.72zm33.44 51.49q1.02.56 1.38.55.76 0 .74-.98l1.15-1.25-1.01 1.98q-.15.3-.49.3-.14 0-.27-.03-.95-.22-.26.47.81.81 1.41 1.66 2.07 1.88 3.71-.08.31-.38.79-.5l4.52-1.12q2.91 3.18 5.42 6.69.07.11.18.03h.01q.05-.04.02-.09-1.44-2.55-3.28-4.62-3.62-4.06-9.43-9.22c-5.62-4.99-14.16-11.27-21.37-6.62a.85.85 0 00-.02 1.42l16.8 11.41zm23.26 17.623a.53.53 0 00-.74-.122l-.065.047a.53.53 0 00-.12.74l2.205 3.07a.53.53 0 00.74.12l.065-.046a.53.53 0 00.12-.74l-2.205-3.07z"/><path fill="#4a9f9c" d="M1111.13 551.35q-2.37 6.51-4.76 13.77-.56 1.7-1.44.14-.33-.59-.5-1.26-6.33-25.29-5.65-50.31c.62-23.05 7.55-45.66 18.98-65.53q7.38-12.83 19.12-24.42 14.97-14.77 30.8-26.12 15.57-11.15 35.17-18.35 4.67-1.72 9.65-2.48a1.37 1.37 0 011.58 1.34c.09 16.67-2.63 33.51-7.2 50.89q-2.64 10.05-4.66 19.37a2.6 2.6 0 01-1.28 1.72c-16.38 9.09-31.28 19.92-44.43 33.31-13.75 14.01-25.84 27.52-34.38 44.18q-8.08 15.75-11 23.75zm44.2-122.81q-3.5 2.3-7.18 5.67-1.49 1.37-2.96 2.66-2.69 2.39-5.34 4.73-4.33 3.83-5.13 9.63a.45.45 0 00.65.46c5.45-2.84 9.23-7.15 13.51-11.39 4.8-4.77 10.56-8.68 15.89-12.57q3.1-2.27 5.36-4.6a.82.82 0 00-.5-1.39q-2.57-.29-4.6.85-4.45 2.5-9.7 5.95z"/><path fill="#f0b59a" d="M1064.39 404.17c-6.14 4.77-8.97 12.98-11.23 20.47q-.49 1.63-1.24.1c-4.55-9.29-12.5-14.2-21.5-18.66q-.72-.35.02-.64c13.08-5.17 18.19-15.14 21.53-27.9q.25-.96.62-.04c2.49 6.11 5.78 12.04 11.17 15.77q4.46 3.08 9.21 5.28.72.34.02.71c-2.87 1.54-6.02 2.9-8.6 4.91zm-445.5 21.7q-1.61 3.37-3.2 6.66a.48.48 0 01-.83.06c-4.65-7.02-9.52-13.26-16.96-16.76q-3.75-1.77-7.39-3.51-.84-.41-.04-.87c7.69-4.47 14.01-11.3 18.2-19.04 1.87-3.47 2.66-7.44 4.24-11.04a.48.48 0 01.84-.06c2.16 3.41 3.27 7.11 5.65 10.34 3.1 4.21 7.13 8.03 11.89 10.36q3.14 1.54 6.03 3.48.98.67.05 1.4c-2.8 2.22-6.03 3.79-8.77 6.13q-6.04 5.14-9.71 12.85z"/><path fill="#8ad6cc" d="M676.86 546.23q-13.77 15.52-22.3 29.35-4.7 7.64-7.58 15.95-.54 1.57-1.44.17c-1.41-2.17.8-8.22 1.72-10.67 10.24-27.24 23.94-54.51 42.36-76.95 5.09-6.21 10.01-12.27 15.52-18.05q14.64-15.35 30.78-28.49 23.25-18.92 50.18-37.04c8.34-5.61 17.8-11.44 26.83-15.98 10.03-5.05 20.58-9.76 31.58-12.21q5.05-1.13 10.3-.76a.42.42 0 01.28.7q-6.93 7.62-15.63 16.02c-19.34 18.7-40.38 36.29-62.16 53.01-19.68 15.09-39.05 29.51-58.1 44.58q-7.81 6.19-15.09 13.05-18.38 17.32-27.25 27.32z"/><path fill="#4c9aa2" d="M501.91 406.65q-1.01 2.15-3.39 2.12-.6-.85-1.41-1.66-.69-.69.26-.47.13.03.27.03.34 0 .49-.3l1.01-1.98q1.51-.42 4.61.99.26.12.42.34.31.44-.22.32l-.92-.22a.02.01 47.4 010-.03q.32-.04.52.2.43.5-.22.41-1.16-.15-1.42.25z"/><path fill="#4c9aa2" d="M497.99 405.64q.02.98-.74.98-.36.01-1.38-.55l2.12-.43z"/><path fill="#8ad6cc" d="M501.91 406.65q3.45-.29 5.63.42l-4.52 1.12q-.48.12-.79.5-1.64 1.96-3.71.08 2.38.03 3.39-2.12zm388.44 2.77l1.73 7.65q2.8 8.1 4.72 12.14 3.46 7.27 9.6 16.55 12.39 18.73 27.79 34.65 17.69 18.29 40.73 38.12 2.01 1.73 8.82 8.72c9.75 10.02 19.7 18.91 27.69 30.17q5.12 7.22 7.65 13.13c2.87 6.72 3.7 13.1 3.56 20.38q-.18 9.41-.29 19.61-.02 2.45-.4 5.12-.36 2.58-.83 5.3-.82 4.81-2.83 2.38-1.6-11.75-3.02-15.86c-6.99-20.18-22.57-36.04-40.18-47.78q-9.77-6.52-19.61-12.99c-9.45-6.21-18.5-13.3-26.89-20.47q-14.34-12.26-26.03-28.64-9.13-12.78-13.73-21.44-5.71-10.72-9.76-27.27 3.3-10.38 7.35-22.14 2.45-7.11 3.93-17.33z"/><path fill="#4a9f9c" d="M505.29 526.04q-16.33-16.13-38.7-29.1-14.6-8.46-25.67-12.15c-8.6-2.86-18.16-4.08-27.13-5.94q-1.57-.33-1.02 1.18.25.69 1.31 1.9c6.4 7.37 13.02 12.59 22.35 18.38q10.98 6.8 21.72 14.03.05.04 13.25 8.73 6.05 3.98 14.89 10.16 23.25 16.24 37.88 39.88 6.73 16.23 10.49 34.37.37 1.8.31 3.56-.05 1.49-1.31.7-15.51-9.78-33.39-17.34-10.59-4.48-22.24-9.69-29.09-12.99-52.16-35.32c-16.19-15.68-27.19-35.84-34.2-57.15q-2.9-8.83-4.65-19.53-3.5-21.28-3.02-42.02.14-5.89.89-12.05.14-1.13 1.26-.95c3.91.61 7.55 1.83 11.26 3.05q34.21 11.26 60.49 33.52 7.52 6.37 14.07 14.05 15.73 18.42 25.64 39.15 3.5 7.32 7.68 18.58z"/><path fill="#8ad6cc" d="M1155.33 428.54q5.25-3.45 9.7-5.95 2.03-1.14 4.6-.85a.82.82 0 01.5 1.39q-2.26 2.33-5.36 4.6c-5.33 3.89-11.09 7.8-15.89 12.57-4.28 4.24-8.06 8.55-13.51 11.39a.45.45 0 01-.65-.46q.8-5.8 5.13-9.63 2.65-2.34 5.34-4.73 1.47-1.29 2.96-2.66 3.68-3.37 7.18-5.67z"/><path fill="#489199" d="M879.07 448.89q4.05 16.55 9.76 27.27 4.6 8.66 13.73 21.44 11.69 16.38 26.03 28.64c8.39 7.17 17.44 14.26 26.89 20.47q9.84 6.47 19.61 12.99c17.61 11.74 33.19 27.6 40.18 47.78q1.42 4.11 3.02 15.86c-.35 1.47.36 2.76.26 4.21q-.43 6.22.89 12.32-2.85 10.97-8.31 22.06-6.75 13.73-17.68 24.52c-9.49 9.37-18.83 17.22-30.68 23.24q-8.66 4.39-16.63 7.8-1.24.53-2.67.63-.84.06-.32-.61 2.83-3.6 6-7.51 4.71-5.8 10.82-17.41c9.07-17.22 10.49-35.19 6.76-54.83-2.54-13.34-10.08-24.55-20.78-32.45-11.94-8.83-25.21-15.24-38.24-22.69q-19.93-11.39-36.8-30.01-14.4-15.88-22.93-37.52-.88-2.22-1.54-4.78c-.57-2.22.56-4.32 1.8-6.05q2.85-3.96 5.75-9.03 6.96-12.17 13.6-23.18 6.01-9.98 11.48-23.16z"/><path fill="#a2f1e8" d="M1225.69 510.41q-1.86-1.27-4.04-.89-11.26 1.98-23.22 4.34-20.89 4.14-39.07 14.33c-5.26 2.95-10.29 7.07-15.38 10.53q-.88.59-.39-.35c5.72-11.05 13.55-21.67 21.12-31.51q11.2-14.54 25.96-24.75 9.07-6.27 19.85-12.53 6.44-3.73 12.88-6.31 17.22-6.88 34.04-10.83c1.34-.32 3-.34 4.38-.42a1.07 1.07 0 011.12.94q.22 1.86.24 3.66.22 29.27-10.2 58.15c-3.32 9.18-7.91 17.69-12.86 26.06-14.13 23.89-36.92 42.68-62.06 53.2-4.33 1.81-8.6 3.74-12.93 5.35q-20.34 7.56-38.53 14.38-10.67 4-18.03 8.57-1.14.7-2.52.86a.38.38 0 01-.41-.47q2.2-8.83 5.16-17.58c7.69-22.76 26.08-42.79 46.07-54.92q7.78-4.72 16.96-9.38c11.79-5.99 24.64-10.12 35.98-16.81q6.59-3.89 12.55-8.09 2.24-1.58 3.68-3.8a1.26 1.25-56.5 00-.35-1.73z"/><path fill="#8ad6cc" d="M505.29 526.04q11.22 21.81 18.88 47.07-14.63-23.64-37.88-39.88-8.84-6.18-14.89-10.16-13.2-8.69-13.25-8.73-10.74-7.23-21.72-14.03c-9.33-5.79-15.95-11.01-22.35-18.38q-1.06-1.21-1.31-1.9-.55-1.51 1.02-1.18c8.97 1.86 18.53 3.08 27.13 5.94q11.07 3.69 25.67 12.15 22.37 12.97 38.7 29.1z"/><path fill="#e8b4bf" d="M328.99 590.79c2.83-15.83 20.47-24.65 34.39-28.21a1.58 1.57-17.5 011.86.96q.58 1.47.81 2.96 2.33 14.9-2.53 26.53c-3.96 9.47-16.93 16.27-25.95 18.39-5.31 1.25-8.88-5.75-9.21-9.96q-.39-4.96.63-10.67zm-40.79-24.56c12.19 2.88 23.43 8.97 28.63 19.91 3.4 7.16 4.93 17.54-2.55 22.51-3.83 2.55-7.9 4.33-12.31 2.63q-11.78-4.52-18.91-16.1c-3.93-6.38-6.73-13.66-6.52-21.2.21-7.89 4.72-9.38 11.66-7.75zm1064.18 29.7c-1.76 15.46-12.5 25.44-27.88 27.83-4.54.71-8.8-3.74-9.99-7.58q-1.07-3.48.03-8.57c3.72-17.17 18.61-27.74 35.45-30.22q2.14-.32 2.36 1.96.89 8.96.03 16.58zm-75.91-14.88c14.05 5.93 29.34 16.15 27.41 33.31q-1 8.85-10.17 9.02-4.96.09-11.98-2.57-4.46-1.68-8.08-5.93-10.09-11.8-9.31-27.87.13-2.77 1.12-5.52a2.98 2.98 0 012.74-1.96q4.48-.08 8.27 1.52z"/><path fill="#e9ab45" d="M323.07 613.42c3.84-.83 9.75 3.09 11.57 5.72 2.82 4.08 5.12 11.1 3.19 16.07-1.37 3.54-6.83 7.84-10.53 8.65q-1.78.39-3.64.05-13.05-2.37-14.57-15.63c-.82-7.17 7.99-13.56 13.98-14.86z"/><path fill="#60b6ae" d="M352.49 617.15c14.89-7.42 36.82-.55 48.36 10.39q1 .95-.05 1.84-.48.4-1.04.68-11.78 5.84-25.88 9.58c-8.31 2.2-15.81 1.07-23.1-3.31-2.18-1.31-3.91-2.83-4.14-5.61q-.29-3.45-2.87-6.64a1.4 1.39 53.3 01.29-2.02q3.78-2.59 8.43-4.91zm-75.24 26.81c-9.14-1.76-18.74-5.25-26.47-10.19q-1.57-1-2.85-2.55-.39-.48.03-.93.88-.97 1.95-1.7 10.38-7.02 21.12-11.02c9.19-3.42 20.69-2.42 28.55 3.86q1.44 1.14 1.32 3.13-.25 4.41-.13 9.09a2.13 2.12 72.4 01-.94 1.82q-4.78 3.19-9.14 6.14-5.69 3.84-13.44 2.35z"/><path fill="#e9ab45" d="M1295.07 633.03c1.6-3.5 4.57-5.06 8.01-6.21 3.32-1.11 6.37-1.17 9.37.89q7.97 5.49 5.45 15.38c-.72 2.82-1.34 5.68-3.62 7.75-5.1 4.63-11.44 3.69-17.15.89-2.19-1.08-2.51-3.38-3.04-5.46q-1.83-7.14.98-13.24z"/><path fill="#e8b4bf" d="M1367.82 634.66q8.4 3.78 13.13 7.74.51.42.15.98c-4.13 6.33-17.78 10.62-25.22 12q-8.57 1.58-15.06-.87-8.41-3.17-13.59-7.16c-2.58-1.99-2.04-7.03-2.11-10.11a2.53 2.53 0 011.53-2.37q6.86-2.97 12.93-5.16c8.72-3.14 19.41.98 28.24 4.95z"/><path fill="#60b6ae" d="M1260.72 656.34c-9.44-1.76-19.45-5.75-27.18-11.47a1.01 1 44 01-.03-1.59q13.45-10.89 31.22-13.65c6.52-1.01 14.46 1.4 21.02 3.33a.75.75 0 01.52.84q-.75 4.21-.42 7.98.19 2.12-1.63 3.92c-3.98 3.94-8.43 7.17-13.24 9.52q-4.49 2.19-10.26 1.12z"/><path fill="#2d3737" d="M755.34 663.38q-1.58.33-1.34 1.93.5 3.26 1.82 6.37c1.08 2.52.03 5.2-2.5 6.37-3.39 1.57-10.04 4.42-13.63 2.53q-.51-.26-.71-.8c-1.23-3.33-.13-8.64.42-12.11a1.37 1.37 0 00-.95-1.52q-6.05-1.9-12.11-4.28-1.61-.63-3.37-.88a2.68 2.67 19.8 00-2.68 1.26q-3.25 5.32-6.38 10.39-1.54 2.49-4.18 3.72-.48.22-.98.09c-3.99-1.02-7.19-4.68-9.33-8.03q-.27-.42-.16-.9.3-1.21 1.07-2.19 3.21-4.06 6.41-8.08c1.78-2.24 2.23-5.55 4.32-7.39q4.41-3.88 9.59-3.08c2.7.41 5.22 1.8 7.84 2.63q7.28 2.31 16.78 2.66c15.51.58 26.78-8.15 38.07-17.32q3.43-2.78 6.42.12 3.16 3.07 5.39 6.44.68 1.04.09 2.21c-.97 1.9-1.93 3.49-4.12 4.12-3.08.88-5.76 2.34-7.42 5.04q-1.29 2.1-3.57 3.48a.89.88 55.7 00-.24 1.29c1.9 2.52 3.7 7.7-1.89 7.41q-4.33-.22-8.4-1.88c-1.61-.65-2.88-1.66-4.72-1.36q-4.96.79-9.54 1.76z"/><path fill="#f0b59a" d="M538.58 641.4q1.55-3.86 4.3-6.75a.95.95 0 011.53.22c1.45 2.8 2.33 5.75 4.08 8.4 3.42 5.16 7.24 7.96 12.14 11.37a.6.6 0 01-.05 1.01c-3.68 2.1-7.97 2.85-10.71 6.6q-3.24 4.45-6.07 9.15-.46.76-1.17 1.19-.96.57-1.45-.43c-2.02-4.17-3.23-7.73-7.39-10.42q-4.13-2.67-8.56-5.14a.72.72 0 01-.06-1.22c5.4-3.75 10.89-7.71 13.41-13.98zm-112.22 10.97q2.57-.37 4.36-2.66 1.65-2.12 3.1-4.37 1.66-2.6.46-3.2l5.07-7.16q.42-.59.68.08c3.4 8.89 8.77 15.75 17.61 19.3q1.37.55 2.41 1.61.52.52-.14.85-3.89 1.95-7.91 3.57c-6.9 2.77-8.14 8.74-11.16 14.68a.52.51-49.6 01-.87.07q-1.67-2.24-2.92-4.91c-3.24-6.89-10.48-8.79-16.8-11.61a1.55 1.55 0 01-.9-1.65q.18-1.18 1.51-1.64 2.93-1.03 5.5-2.96z"/><path fill="#2d3737" d="M874.89 665.57c-4.23 2.7-7.27 6.64-12.96 5.34q-1.2-.28-1.55-1.27-1.81-5.24-2.18-10.29c-.15-2.14-1.36-3.47-2.94-4.72q-4.07-3.23-8.43-6.45c-1.26-.93-2.22-2.36-1.97-4 .68-4.49 5.22-12.47 10.66-7.83 6.85 5.85 14.27 13.18 23.13 15.77q18.12 5.3 35.17-1.62 4.96-2.01 9.8-4.6 1.72-.92 3.55-1.29.59-.12.7.48.63 3.41 1.17 6.75.55 3.42 3.33 7.71 3.99 6.17 7.83 10.84.81 1-.02 1.98c-2.8 3.34-7.09 4.64-11.02 6.23a.96.95-26.6 01-1.18-.39c-2.76-4.51-8.36-14.32-14.62-13.36q-4.42.68-8.84 1.97a3.07 3.06 76.5 00-2.15 3.52c.71 3.74 1.4 7.52.54 11.27q-.23 1.04-1.3 1.08-7.44.27-14.17-1.79a1.22 1.21 7 01-.86-1.09q-.51-7.58-5.39-13.53c-1.41-1.73-4.33-1.98-6.3-.71z"/><path fill="#e8b4bf" d="M434.28 642.14q1.2.6-.46 3.2-1.45 2.25-3.1 4.37-1.79 2.29-4.36 2.66c-1.53-.18-2.65.59-3.95.61q-2.16.02-4.32-.66-.5-.15-.78-.6-2.85-4.42-1.75-9.16c1-4.29 12.12-3.58 14.34-2.94q1.04.29 4.38 2.52zm672.02 8.98q4.27 1.67 8.28 4.21c3.02 1.92 2.48 6.92 1.37 9.71q-1.08 2.71-3.29 4.83-6.99 6.69-16.12 11.71-3.55 1.95-7.2 2.77-.44.1-.83-.13-2.05-1.21-3.38-3.08-7.79-10.91-10.4-22.18-1.14-4.93 2.48-8.73c2.39-2.5 12.97-11.6 17-10.24 2.29.77 6.08 6.22 7.65 8.11q1.59 1.91 4.44 3.02z"/><ellipse fill="#e8b4bf" transform="rotate(27.7 -748.856 2565.567)" rx="2.38" ry="1.55"/><path fill="#e8b4bf" d="M354.49 685.38c-11.98-4.54-19.33-13.66-23.19-25.76-1.13-3.55-2.12-7.51 1.15-10.31q4.03-3.46 9.96-5.88c2.23-.91 4.33.22 6.31 1.04q7.3 3 11.57 5.88c7.69 5.18 11.72 16.48 12.85 25.5q.85 6.71.47 13.21a1.12 1.12 0 01-1.16 1.05c-5.89-.22-12.5-2.65-17.96-4.73zm-66.55-20.71q4.91-13.49 17.73-17.74c4.78-1.59 11.13.73 15.43 3.41 1.08.67 1.86 1.77 1.92 3.08.41 9.32-.27 17.55-6.88 23.84q-12.42 11.83-30.31 13.48a2.13 2.13 0 01-2.32-2.12q-.03-11.69 4.43-23.95z"/><path fill="#f0b59a" d="M1188.14 675.23c-4.46-3.56-9.02-5.77-14.11-7.84q-.84-.34-.05-.78 2.19-1.22 4.44-2.41c4.58-2.42 8.84-6.45 12.06-10.39 1.55-1.88 2.7-4.19 4.14-6.24q1.31-1.86 1.92.33 2.73 9.75 8.89 14.1 4.48 3.17 9.79 5.92a.48.48 0 01.05.82q-1.57 1.1-3.44 1.63-4.96 1.41-7.52 3.96c-2.76 2.73-6.33 4.56-10.16 4.01q-2.58-.36-6.01-3.11z"/><path fill="#e8b4bf" d="M1293.78 690.77c-8.16 5.53-16.6 8.95-25.96 11.59a1.42 1.41 78.7 01-1.79-1.2q-1-8.49.75-16.91c2.8-13.45 6.73-23.06 21.06-26.5 4.85-1.16 11.91.8 16.7 2.01q.72.18.55.91-1.5 6.46-2.14 13.37c-.71 7.86-2.68 12.34-9.17 16.73zm38.18 5.26q-10.6-4.4-17.46-14.22-4.97-7.11-2.21-17.45c.91-3.44 6.54-5.56 9.53-6.68a4.02 3.99-44.2 012.88.03c10.36 4.13 17.96 10.23 21.28 21.18q3.05 10.02 2.5 20.13-.04.83-.32 1.61a.77.76-73.7 01-.89.49c-5.27-1.23-10.4-3.06-15.31-5.09z"/><path fill="#4c9aa2" d="M250.9 734.87c-22.33-3.11-42.49-11.29-60.9-24.04q-5.84-4.04-10.43-8.78-1.26-1.3.54-1.32 3.1-.04 6.54.62 14.49 2.76 28.06 3.99 14.74 1.34 31.78-.11 19.95-1.69 41.38-4.91c14.34-2.15 28.41-.56 41.74 2.12q7.43 1.49 17.37 5.41 12.73 5.01 23.68 10.75 11.57 6.07 25.21 6.65 9.35.4 19.38-3.55 12.76-5.03 24.98-9.51 12.61-4.62 28.38-6.45c16.58-1.92 35.3 1 50.2 9.64 10.93 6.34 21.83 14.93 27.05 26.1q.24.51.13 1.07-.12.65-.77.52-17.12-3.6-32.15-3.51-27.54.15-53.04 12.33-12.59 6.02-24.09 10.66c-15.4 6.22-33.71 10.55-50.31 8.63q-17.88-2.08-34.27-9.48-11.82-5.34-22.72-10.94-7.24-3.72-15.63-6.19-18.32-5.42-41.79-7.36-8.45-.69-20.32-2.34zm929.77 36.15c-21.96-11.82-43.32-22.49-68.27-23.48q-16.92-.67-33.86 4.42-1.52.46-1.44-1.14.04-.99.63-1.77 4.55-6.09 11.34-12.82c10.53-10.43 26.3-16.73 40.34-19.73q8.69-1.85 19.51-1.59 19.23.47 37.24 8.02 8 3.35 17.22 7.73 18.81 8.93 38.07 4.33 7.18-1.71 18.62-7.01 9.23-4.28 18.22-8.16 14.97-6.45 34.42-8.97c8.15-1.05 15.83-.94 24.13.19q18.02 2.43 36.66 4.78 33.66 4.23 65.15-3.26 6.75-1.6 13.38-3.14 1.36-.32.98 1.07-.08.29-.76 1.03-4.35 4.76-9.11 8.13c-23.84 16.86-50.88 26.07-79.89 28.66-12.74 1.14-26.6 2.13-38.56 4.69-19.37 4.16-37.67 13-56.02 20.74q-15.24 6.41-29.63 8.55c-20 2.97-40.83-1.84-58.37-11.27z"/><path fill="#e8b4bf" d="M620.81 723.69q10.29 4.13 8.74 15.16c-1.62 11.63-9.58 22.17-19.2 28.51-2.88 1.9-6.68-.79-9.13-2.33-9.13-5.75-25.9-18.44-22.36-30.79q1.68-5.89 8.85-6.64 7.27-.77 11.77 1.58c5.56 2.9 8.3-5.78 13.63-6.52q3.82-.53 7.7 1.03z"/><path fill="#60b6ae" d="M951.33 740.99q-8.3 19.58-26.06 32.44-10.39 7.53-20.07 14.16c-4.07 2.8-8.34 6.28-10.93 10.37-6.43 10.14-10.38 23.74-7.45 35.66q1.92 7.77 4.06 12.07 2.42 4.87 4.49 9.4a1.94 1.93-27.3 01-.79 2.47q-5.93 3.46-9.84.85-3.45-2.3-6.54-6.86-9.65-14.24-9.4-30.16c.34-22.06 11.41-37.75 29.39-49.41q13.6-8.81 22.06-15.47 4.77-3.76 9.4-9.6 6.98-8.81 11.99-17.61c2.09-3.66 9.89-5.08 13.64-5.04q1.46.01 1.13 1.43-1.69 7.31-5.08 15.3zM744.12 777.9c9.67 9.47 17.73 26.12 17 39.98-.53 10-3.9 22.11-9.18 30.77q-5.85 9.61-16.5 9.87-2.84.07-4.86-1.74a.94.94 0 01-.02-1.38c8.04-7.56 12.54-20.65 13.39-31.06.97-11.78-2.06-24.82-10.33-33.28q-4.08-4.18-10.32-8.46-7.34-5.06-14.18-9.97-9.63-6.91-18.86-19.56-8.38-11.48-10.63-25.52a.67.66-4.7 01.66-.77q7.01-.01 14.18 2.55c2.2.78 3.95 3.48 4.87 5.57q5.76 13.01 18.65 23.21 7.16 5.67 13.41 9.84 8.04 5.37 12.72 9.95z"/><path fill="#e8b4bf" d="M1048.76 745.52q2.42 4.23.9 8.27c-1.99 5.3-7.05 9.59-11.57 13.12q-7.45 5.8-15.34 10.55c-4.59 2.76-6.62.11-8.99-3.15-6.62-9.15-12.56-19.69-12.27-30.65q.17-6.82 6.24-9.13c5.45-2.08 14.91-1.46 17.63 4.9a2.41 2.4 66.8 003.16 1.27c2.27-.98 4.54-2.55 7.06-2.47q9.18.31 13.18 7.29z"/><path fill="#4c9aa2" d="M322.15 820.78c-22.22-11.56-46.77-19.31-71.03-23.79q-1.65-.31-3.2-1.26a.78.78 0 010-1.34q5.68-3.41 11.95-5.27 23.18-6.89 46.36-8.29 3.88-.23 7.98.03c11.16.73 22.92 1.89 33.37 4.45 16.59 4.07 32.1 11.42 47.76 18.35q10.6 4.69 21.23 7.06 24.36 5.41 47.83-4.08 14.69-5.93 28.55-11.41c22.27-8.79 45.87-12.33 69.6-10.06q27.76 2.67 53.48 13.68 7.22 3.09 15.08 8 23.49 14.67 37.36 28.04 8.95 8.63 18.2 17.85 1.33 1.32 2.35 2.69a.85.84 59.5 01-.33 1.28c-4.51 2.01-9.71 2.48-14.53 2.83q-18.95 1.37-33.94-2.61c-16.68-4.43-31.77-11.61-48.29-18.33q-7.64-3.1-19.17-5.66c-20.78-4.6-41.83-1.61-61.67 5.2q-14.3 4.92-29.98 10.67-14.54 5.34-31.97 8.36c-32.98 5.72-67.1-4.79-95.82-20.01q-16.79-8.9-31.17-16.38zm1049.31-21.52q3.04.99 5.06 3.56.37.48-.05.91-1.7 1.77-4.34 2.28-9.43 1.86-18.25 3.83-11.66 2.6-28.94 9.07-18.85 7.06-32.03 13.47c-17.67 8.6-36.1 19.22-55.61 26.69q-21.49 8.22-47.82 9.55-31.79 1.6-64.11-11.79-11.03-4.56-23.32-8.92-15.52-5.51-36.05-7.36-9.96-.89-19.82.78c-17.82 3.02-34 9.41-50.72 15.56q-27.43 10.09-55.34 6.3-2.2-.3-4.13-1.73a.65.65 0 01-.17-.87q1.06-1.7 2.45-3.1 15.96-16.15 30.7-28.33c13.35-11.03 30.04-20.03 44.7-25.8q20.37-8 48.01-10.36 10.28-.88 20.71.46 25.58 3.28 48.08 13.56 10.4 4.75 20.75 9c21.21 8.72 48.8 7.81 70.33-.76 11.2-4.45 21.89-10.63 33.24-14.91q17.55-6.62 40.23-9.66c5.97-.8 11.73-.43 17.66-.82 6.31-.42 13.45.57 20.17 1.12 12.83 1.06 25.65 4.08 38.61 8.27z"/><path fill="#e8b4bf" d="M175.94 816.4c3.24-2.93 4.74-6.14 6.1-10.14a.43.43 0 01.76-.1q1.88 2.82 3.71 6.1c2.05 3.67 7.42 7.65 11.14 10.58.51.4.98 1.1 1.3 1.66a1.26 1.25-27.8 01-.55 1.75c-5.91 2.87-9.44 6.69-13.75 11.16a1.57 1.56-49.4 01-2.08.16q-8-6.03-17.36-11.95a.69.69 0 01.01-1.17q5.55-3.38 10.72-8.05zm1258.51 4.9q.74-1.95 1.92-3.35a.54.53-33.7 01.92.18q1.03 3.3 2.15 6.75c1.49 4.56 10.26 8.07 13.9 10.65a.81.81 0 01-.05 1.36q-8.57 5.19-14.58 13.09-1.45 1.92-3.13.23c-2.94-2.93-5.9-5.88-9.41-8.1q-3.68-2.33-7.34-4.81-.99-.66.04-1.26c6.46-3.74 12.82-7.51 15.58-14.74z"/><path fill="#eaaa9e" d="M654.04 1169.36q-16.42-.54-23.78-2.11c-4.71-1-8.58-5.3-9.2-10.47-.3-2.54-.85-4.96-.9-7.56-.13-6.18-.47-12.38-.51-18.29q-.57-73.76-2.54-137.94-.2-6.36-1.55-12.48c-.56-2.51-4.49-2.69-6.52-2.69q-9.89.03-20.64-.13-3.9-.05-7.62-.88c-.88-.2-1.32-.85-1.71-1.61q-2.29-16.72-1.5-33.7.1-2.09.73-8.13 2.3-1.25 6.2-1.3 56.86-.69 113.74-.57c2.82.01 4.8-.53 5.85 2.75q2.95 9.21 3.17 18.73c.13 5.33.98 23.85-6.08 25.27q-2.69.55-5.38.67-12.19.56-23.91.71a.57.56-1 00-.56.57c.24 12 .85 24.15 1.12 35.74q1.49 63.98 2.95 122.19.21 8.48-.19 17.61c-.14 2.99-.82 7.7-3.02 9.89-4.04 4-12.86 4.18-18.15 3.73zm148.77.11c-2.84-.75-5.86-.41-8.38-.97-4.64-1.04-9.43-2.83-10.96-7.9q-1.22-4.01-1.28-7.35-.4-21.44-.26-49.01.05-10.31-.86-19.5-1.12-11.26-6.34-21.61-15.28-30.29-28.18-58.6c-7.28-15.98-16.48-30.91-23.85-46.7q-4.21-9.02-8.18-18.08-1.06-2.43-.33-4.53 3.07-2.98 7.31-3.18 14.97-.73 33.25-.62 6.3.04 11.84 1.26c5.9 1.3 9.49 9.41 11.87 14.76q9.43 21.22 17.8 40.37 4.27 9.78 8.19 21.59a.94.93-36.2 001.64.25q1.52-2.09 2.64-4.39c8.31-17.04 15.19-35.02 22.07-52.74 1.72-4.44 5.17-12.7 9.51-15.03q4.4-2.37 9.81-2.69 12.58-.75 28.52-.05 5.32.24 9.96 1.39c5.53 1.37 4.43 7.54 3.15 11.57q-2.64 8.3-6.26 16.02-19.75 42.1-40.03 85.46-3.54 7.55-6.88 15.16-3.93 8.96-3.72 19.12.47 22.21 1.49 51.15.42 11.88 0 22.62-.09 2.35-.72 5.25c-1 4.57-5.42 6.79-9.63 7.09q-11.61.8-23.19-.11zm-394.95 1.07q-1.58-1.24-4.39-1.39c-5.64-2.65-7.34-8.32-8.21-13.4q-2.29-13.37-4.87-21.88-.64-2.1-2.71-4.02-5.79-.15-11.17.12-18.91.94-39.96.27a.73.72-85.7 00-.74.64q-1.11 10.02-2.79 19.96-1.2 7.07-3.69 12.77-3.02 6.9-10.58 7.8-18.55 2.23-35.58-1.2-7.74-4.02-7.13-10.46.64-6.75 2.91-14.5 5.6-19.13 10.36-38.49 13.33-54.24 25.69-108.51c3.98-17.46 7.23-34.9 10.72-52.31.66-3.31 1.68-6.45 3.24-9.46q1.86-3.59 5.54-3.84 2.45-.16 10.79-.27.06.27.21.27 2.51-.02 5.04-.66 22.51-.58 37.46-.08 1.48.05 3.05.89c2.5 1.32 4.46 6.31 4.97 8.49q2.05 8.91 4.48 16.87 2.73 8.9 4.78 16.79 10.26 39.35 15.05 56.55c4.67 16.81 8.81 34.02 13.39 50.86q9.27 34.11 16.94 65.37c1.34 5.45 2.32 10.85.97 16.47-1.47 6.15-8.92 6.95-14.12 7.22q-14.98.8-29.65-.87zm-46.28-169.21q-2.08-.14-2.56 1.92-2.76 11.88-4.58 24c-2.51 16.81-5.23 33.62-8.33 50.34q-1.34 7.26-2.05 14.86a1.15 1.15 0 001.1 1.25l4.04.16 11.8.12q.22.05.42 0 9.75.76 19.6-.24.56-.06.51-.61-.63-7.33-1.73-12.64-3.93-19.05-8.85-39.99-2.06-8.77-4.19-19.55-2.16-10.9-4.57-22.68-.03-.14-.18-.11-.15.03-.11.18.43 1.56-.32 2.99z"/><path fill="#020101" d="M346.2 932.05q-.1.31-.91.32-8.34.11-10.79.27-3.68.25-5.54 3.84c-1.56 3.01-2.58 6.15-3.24 9.46-3.49 17.41-6.74 34.85-10.72 52.31q-12.36 54.27-25.69 108.51-4.76 19.36-10.36 38.49-2.27 7.75-2.91 14.5-.61 6.44 7.13 10.46c-10.27-3.87-8.68-12.18-6.49-20.99 2.76-11.04 5.85-21.73 8.56-32.67q9.98-40.18 17.61-73.33 4.8-20.87 9.55-40.99 4.57-19.31 10.17-47.73 1.56-7.91 4.01-14.96 1.17-3.4 3.73-5.7 1.51-1.36 4.67-1.58 5.64-.4 11.22-.21z"/><path fill="#2d3737" d="M346.2 932.05l4.34-.07q-2.53.64-5.04.66-.15 0-.21-.27.81-.01.91-.32z"/><path fill="#eaaa9e" d="M511.05 1171.39c-5.56-.41-11.13-.37-16.65-1.13q-2.55-.35-5.29-.41c-6.02-.13-10.16-7.44-10.83-12.58q-.65-5.02-.68-9.31c-.18-22.93-.19-45.92-1.27-68.97q-.77-16.31-1.18-45.55-.14-9.64-.61-20.2-.69-15.29-1.06-31.76a2.42 2.41-.5 00-2.41-2.36l-27.53-.1c-3.13-.84-6.16-1-7.17-4.86q-.98-3.75-1.15-6.09-.66-9.18-.82-23.57-.08-6.62 2.54-10.49 5.36-1.22 11.07-1.37 14.72-.38 26.75-.44 36.91-.19 69.99.01 7.08.05 15.5.31c1.34.04 2.6.36 3.01 1.81q.83 2.9 1.2 5.8 1.42 11.18 1.23 24.26-.08 5.21-.88 9.86-.26 1.55-1.56 2.13-2.72 1.23-6.81 1.46-14.49.8-27.62 1.9-.54.04-.52.59 3.44 84.66 4.33 170.67.06 6.32-1.3 12.48-1.51 6.85-9.32 7.56-7.18.65-10.96.35zm567.01-170.86q-5.1-7.64-12.5-14.1-10.85-9.47-24.76-7.79c-9.71 1.11-17.28 9.72-17.86 19.37q-.87 14.72 12.01 21.73 7.17 3.9 12.49 5.7 11.81 3.99 23.1 8.13c16.86 6.17 32.58 17.5 41.49 32.92q4.78 8.26 7.09 18.59 6.01 26.83-7.06 52.25c-8.22 15.99-24.94 27.64-41.65 32.18-17.69 4.8-35.83 4.36-53.6-.68q-25.71-8.7-45.78-29.36-8.64-8.9-13.69-17.45c-1.05-1.78-.45-3.04 1-4.2 11.35-10.17 22.77-18.06 33.99-26.21q1.36-.99 2.78-1.47a1.99 1.98 65.9 012.36.91q7.16 12.59 16.13 22.93 2.7 3.1 7.92 6.67c10.56 7.19 23.48 8.09 33.97.4q10.12-5.88 9.71-18.31c-.42-13.16-9.7-20.02-20.48-25.12-14.74-6.98-30.49-12.23-44.81-20.36q-19.27-10.93-26.93-31c-2.54-6.64-5.02-14.37-5.36-21.11q-.63-12.35 2.62-23.57c3.2-11.05 9.19-20.13 17.51-27.84q1.46-1.15 1.79-2.38 12.86-11.28 29.07-15.54c11.55-3.03 24.65-4.57 37.02-2.76 13.4 1.96 27.9 6.06 39.07 14.22 9.44 6.89 18.93 15.25 24.62 25.24a3.01 3.01 0 01-.28 3.39q-2.41 2.96-5.25 5.63-13.73 12.94-29.58 24.13-1.42 1.01-2.49-.38l-3.66-4.76z"/><path fill="#2d3737" d="M578.3 933.37q-.63 6.04-.73 8.13-.79 16.98 1.5 33.7-.15-.02-.39-.24-.28-.26-.36.12l-.27 1.32q-1.36-1.79-1.7-3.96c-1.48-9.37-1.19-19.54-1.31-32.93q-.04-4.24 3.26-6.14z"/><path fill="#020101" d="M436.94 934.01q-2.62 3.87-2.54 10.49.16 14.39.82 23.57.17 2.34 1.15 6.09c1.01 3.86 4.04 4.02 7.17 4.86q-4.03.18-7.37-2.02-.44-.29-.63-.77-1.26-3.16-1.7-6.6-1.35-10.29-1.11-21.58c.09-3.93.12-8.16 1.44-11.55q.75-1.92 2.77-2.49z"/><path fill="#eaaa9e" d="M170.81 1172.18l-14.29-.11-9.6-1.04q-5.62-2.58-8.08-7.71-1.46-3.03-1.89-10.41-.6-10.19-.65-14.16-.6-46.23-.79-91.5c-.14-34.29-1.27-68.63-2.36-102.75-.12-3.85 0-6.93 3.92-8.7q2.94-.97 4.43-1.01 30.25-.93 60.5-.11 16.41.44 31.46 4.64 35 9.76 47.87 43.74c10.09 26.65 7.03 60.34-12.58 82.59-12.82 14.54-29.34 20.95-48.22 22.23q-13.62.93-29.08.46a1.04 1.03.3 00-1.07 1.05q.76 38.26.8 64.36.01 8.06-1.72 12.27c-2.59 6.3-12.44 6.63-18.65 6.16zm47.72-129.42q4.68-1.1 7.27-6.01c6.98-13.29 7.52-30.26.28-43.37q-6.17-11.16-19.66-12.45l-17.53-.87a.77.76.7 00-.8.77q0 6.9.06 13.85.02 3.21.41 6.65.32 2.85.42 6.4.52 18.05.7 36.12a2.04 2.04 0 001.86 2.01q6.37.58 13.21.4 5.64-.14 13.78-3.5z"/><path fill="#020101" d="M714.19 935.22q-.73 2.1.33 4.53 3.97 9.06 8.18 18.08c7.37 15.79 16.57 30.72 23.85 46.7q12.9 28.31 28.18 58.6 5.22 10.35 6.34 21.61.91 9.19.86 19.5-.14 27.57.26 49.01.06 3.34 1.28 7.35c1.53 5.07 6.32 6.86 10.96 7.9 2.52.56 5.54.22 8.38.97q-8.29.17-13.32-1.76c-7.59-2.89-8.87-10.67-8.92-17.91q-.15-23.12-.18-43.72-.02-11.1-.81-21.08c-.93-11.61-6.73-22.48-11.94-32.86q-11.68-23.32-21.58-44.62c-5.72-12.29-11.92-23.8-18.2-35.57-4.93-9.23-9.21-18.8-13.29-28.73q-1.21-2.95-1.59-5.21-.26-1.61 1.21-2.79zm-577.12.58c-3.92 1.77-4.04 4.85-3.92 8.7 1.09 34.12 2.22 68.46 2.36 102.75q.19 45.27.79 91.5.05 3.97.65 14.16.43 7.38 1.89 10.41 2.46 5.13 8.08 7.71-9.64-2.44-11.13-12.03-.61-3.89-.72-16.5c-.24-27.66-.97-55.34-1.04-83q-.12-45.31-1.49-90.6c-.27-9.02-.85-18.5-.54-27.41q.16-4.7 5.07-5.69z"/><path fill="#eaaa9e" d="M1162.71 1176.88c-5.98-1.16-13.08-2.29-14.77-9.39q-.94-3.95-.96-6.99-.47-61.59-2.16-103.75-1.89-47.1-2.57-70.41c-.31-10.71-.86-21.44-.91-31.87q-.02-4.12.66-7.46.34-1.69 2.51-4.7 7.71-2.12 16.45-2.63 1.57-.09 16.59-.24 15-.15 35.7.07c15.51.17 32.74 2.8 46.09 10.14 25.07 13.79 36.37 39.86 37.56 67.66q.44 10.37-.58 18.81-.92 7.61-4.62 17.1-4.88 12.49-14.99 21.63-20.53 18.54-49.27 19.45-13.43.43-26.93.39a1.18 1.17-.7 00-1.18 1.2q.75 29.73 1.34 59.11.19 9.49-.65 15.67c-.74 5.44-8.26 6.68-12.91 6.87q-12.18.51-24.4-.66zm66.98-128.81q7.26-3.96 9.55-14.07 3.08-13.65.5-25.96-1.84-8.79-6.72-14.36-8.13-9.28-22.06-8.41l-13.65.12a.54.54 0 00-.53.53q-.1 4.49.08 8.29 1.23 25.42 2.9 55.42.12 2.08.57 3.84.13.52.66.53 12.22.34 22.43-3.1c2.17-.74 4.11-1.9 6.27-2.83zm190.24 130.7c-4.98-2.84-7.19-7.02-8.51-12.54q-1.65-6.83-2.9-13.74-1.44-7.96-4.3-14.91-25.33 2.17-49.3 1.09-1.78-.08-2.41 1.58c-2.86 7.52-3.97 15.83-5.41 23.76q-1.07 5.84-3.4 11.02-2.06 4.58-7.21 5.06-15.01 1.38-29.91-.17c-5.75-1.28-10.51-2.05-13.25-7.86q-1-2.11-.78-5.22.25-3.47.74-5.35 8.74-33.71 17.01-67.55 2.44-10 4.93-19.38 7.65-28.82 14.14-58.83 6.67-30.86 13.52-62.99.63-2.95 3.67-8.62 6.52-2.42 14.94-2.59 20.02-.39 41-.24 2.93.02 5.59.36c4.13.54 6.6 7.11 7.6 10.6 3.62 12.6 6.13 26.03 9.2 38.32q6.76 27.05 13.43 53.97c3.48 14.08 6.59 28.2 10.29 42.83 3.54 14.02 7.05 30.54 10.87 45.58q3.53 13.84 6.88 27.64 1.35 5.52 1.13 11.6c-.24 6.59-11.52 8.01-16.4 8.24-10.58.48-21.14.56-31.16-1.66zm-41.82-171.56q-3.61 6.54-3.04 14.11-2.42 9.31-3.37 14.43-4.42 23.91-9.34 47.73-1.78 8.58-4.19 17.26-.31 1.11.84 1.13l36.72.65 2.24.16q.66.05.57-.61-.97-6.78-2.08-12.11-3.62-17.19-7.22-34.46-1.62-7.79-3.47-18.1-1.65-9.18-3.97-18.04-1.6-6.12-2.3-10.23c-.21-1.25-.86-2.25-.93-3.5q-.06-1-.33-.03-.24.88-.13 1.61z"/><path fill="#020101" d="M1144.51 942.31q-2.17 3.01-2.51 4.7-.68 3.34-.66 7.46c.05 10.43.6 21.16.91 31.87q.68 23.31 2.57 70.41 1.69 42.16 2.16 103.75.02 3.04.96 6.99c1.69 7.1 8.79 8.23 14.77 9.39-5.88-.01-13.14-2.19-15.56-8.27q-1.41-3.54-1.56-11.11-.51-25.35-.76-48.25-.35-31.49-1.47-62.75c-.87-24.29-1.72-48.65-2.41-73.15q-.09-3.1-.22-6.16-.26-6.29-.09-16.92.08-4.45 3.87-7.96zm202.05 1.81q-3.04 5.67-3.67 8.62-6.85 32.13-13.52 62.99-6.49 30.01-14.14 58.83-2.49 9.38-4.93 19.38-8.27 33.84-17.01 67.55-.49 1.88-.74 5.35-.22 3.11.78 5.22c2.74 5.81 7.5 6.58 13.25 7.86-5.74.12-13.56-2.28-15.15-8.34q-.83-3.16.36-8.3 2.37-10.34 5.5-22.2 4.53-17.15 10.59-42.85c5-21.16 10.44-42.07 15.4-63.48q12.28-53 17.66-78 1.69-7.84 5.62-12.63z"/><path fill="#2d3737" d="M989.54 951.36q-.33 1.23-1.79 2.38-.53.09-.7-.03.98-1.32 2.49-2.35z"/><path fill="#020101" d="M987.05 953.71q.17.12.7.03c-8.32 7.71-14.31 16.79-17.51 27.84q-3.25 11.22-2.62 23.57c.34 6.74 2.82 14.47 5.36 21.11q7.66 20.07 26.93 31c14.32 8.13 30.07 13.38 44.81 20.36 10.78 5.1 20.06 11.96 20.48 25.12q.41 12.43-9.71 18.31 6.62-5.03 8-12.02 2.5-12.58-6.17-22.06-2.46-2.7-8.89-6.29c-10.9-6.08-23.48-10.69-33.6-14.85q-16.21-6.65-28.13-16.48c-9.37-7.72-14.75-18.42-18.26-30.02q-4.01-13.21-2.13-26.47c2.26-15.86 8.5-28.68 20.74-39.15zM579.07 975.2c.39.76.83 1.41 1.71 1.61q3.72.83 7.62.88 10.75.16 20.64.13c2.03 0 5.96.18 6.52 2.69q1.35 6.12 1.55 12.48 1.97 64.18 2.54 137.94c.04 5.91.38 12.11.51 18.29.05 2.6.6 5.02.9 7.56.62 5.17 4.49 9.47 9.2 10.47q7.36 1.57 23.78 2.11-12.61.36-25.01-2.01-6.02-1.15-8.32-5.84-1.58-3.22-1.84-8.76c-.35-7.47-.64-15.14-.67-22.7q-.19-67.6-2.56-137.18c-.14-3.98-.75-8.03-1.36-11.92a2.99 2.99 0 00-3.01-2.53q-13.08.27-25.68-.29-3.46-.16-6.75-1.13-.24-.07-.42-.24-.24-.24-.37-.36l.27-1.32q.08-.38.36-.12.24.22.39.24zm498.99 25.33q-3.37-4.09-6.92-7.92-7.03-7.56-13.79-11.02-6.87-3.52-16.55-2.95 13.91-1.68 24.76 7.79 7.4 6.46 12.5 14.1zm-634.52-21.51l27.53.1a2.42 2.41-.5 012.41 2.36q.37 16.47 1.06 31.76.47 10.56.61 20.2.41 29.24 1.18 45.55c1.08 23.05 1.09 46.04 1.27 68.97q.03 4.29.68 9.31c.67 5.14 4.81 12.45 10.83 12.58q2.74.06 5.29.41c5.52.76 11.09.72 16.65 1.13q-7.7-.09-20.8-1.01-4.26-.3-6.64-1.8c-5.33-3.37-6.73-8.01-7.32-14.27q-.55-5.73-.56-10.35-.11-40-1.35-78.21-.31-9.41-.44-20c-.28-21.83-1.43-43.43-1.91-65.44a.82.82 0 00-.83-.81c-9.21.09-18.48.65-27.66-.48zm-237.12 1.91q13.49 1.29 19.66 12.45c7.24 13.11 6.7 30.08-.28 43.37q-2.59 4.91-7.27 6.01 4.84-2.53 7.09-8.54 2.53-6.72 2.98-10.68c1.52-13.47.21-32.31-13.37-39.47q-1.85-.98-8.81-3.14zm1004.54 4.34q13.93-.87 22.06 8.41 4.88 5.57 6.72 14.36 2.58 12.31-.5 25.96-2.29 10.11-9.55 14.07 4.89-4 7.06-9.69 1.5-3.93 2.42-11.42c1.34-10.96.16-24.39-7.23-33.02q-5.38-6.28-13.96-7.61-3.41-.53-7.02-1.06zm-849.54 108.71l17.38-.32a1.36 1.36 0 001.32-1.58q-1.81-11.13-4.4-22.27-7.91-34.06-14.14-68.48.75-1.43.32-2.99-.04-.15.11-.18t.18.11q2.41 11.78 4.57 22.68 2.13 10.78 4.19 19.55 4.92 20.94 8.85 39.99 1.1 5.31 1.73 12.64.05.55-.51.61-9.85 1-19.6.24zm1034.31 8.54l.88-.43q.47-.23.39-.75-2.7-17.06-3.77-21.86-6.3-28.39-10.24-49.74-1.17-6.34-3.94-17.93.3-2.29-.94-4.6-.11-.73.13-1.61.27-.97.33.03c.07 1.25.72 2.25.93 3.5q.7 4.11 2.3 10.23 2.32 8.86 3.97 18.04 1.85 10.31 3.47 18.1 3.6 17.27 7.22 34.46 1.11 5.33 2.08 12.11.09.66-.57.61l-2.24-.16z"/><path fill="#e8b4bf" d="M1378.11 1007.21q1.24 2.31.94 4.6-1.32 5.04-3.98 9.51-.57-7.57 3.04-14.11z"/><path fill="#020101" d="M349.2 1093.86l11.8.12-11.8-.12zm609.14 23.96c-1.45 1.16-2.05 2.42-1 4.2q5.05 8.55 13.69 17.45 20.07 20.66 45.78 29.36-1.8-.2-4.61-1.23c-22.47-8.2-43.69-23.82-55.68-44.84q-1.98-3.47 1.82-4.94zm-570.66 12.03q2.07 1.92 2.71 4.02 2.58 8.51 4.87 21.88c.87 5.08 2.57 10.75 8.21 13.4q.13.22-.2.42-6.72-2.52-8.7-9.37-1.79-6.17-4.48-20.99-.43-2.34-1.11-4.7-.65-2.28-1.3-4.66zm1032.25 48.92c-7.12-2.55-9.77-11.67-11-18.27q-1.28-6.87-2.8-13.7-.01-.07-1.27-4.24-.73-2.45-.64-4.98 2.86 6.95 4.3 14.91 1.25 6.91 2.9 13.74c1.32 5.52 3.53 9.7 8.51 12.54z"/><path fill="#2d3737" d="M403.47 1169.15q2.81.15 4.39 1.39l-4.59-.97q.33-.2.2-.42z"/><path fill="#020101" d="M170.81 1172.18l-14.29-.11 14.29.11z"/></svg>