<?xml version="1.0" encoding="UTF-8" standalone="no"?>
<!DOCTYPE svg PUBLIC "-//W3C//DTD SVG 1.1//EN" "http://www.w3.org/Graphics/SVG/1.1/DTD/svg11.dtd">
<svg xmlns="http://www.w3.org/2000/svg" version="1.1" viewBox="0.00 0.00 1585.00 1323.00">
<g stroke-width="2.00" fill="none" stroke-linecap="butt">
<path stroke="#4a969e" vector-effect="non-scaling-stroke" d="
  M 843.55 218.75
  Q 843.63 219.68 842.96 221.48
  Q 842.91 221.60 843.02 221.53
  Q 843.06 221.50 843.11 221.51
  Q 843.61 221.63 843.60 222.14
  Q 843.59 222.60 843.13 222.62
  Q 841.97 222.68 841.10 222.05
  A 1.19 1.18 58.8 0 0 840.26 221.84
  Q 838.77 222.04 837.29 222.39
  Q 835.83 222.75 834.23 222.54
  Q 830.05 222.00 826.73 222.29
  Q 821.90 222.71 816.26 223.46
  Q 811.23 224.14 807.63 225.04
  Q 803.50 226.08 799.33 226.87
  C 798.02 227.12 796.83 227.79 795.57 228.03
  Q 790.61 228.97 785.93 230.44
  Q 785.06 230.71 784.27 231.70
  Q 783.92 232.13 783.39 232.26
  Q 782.50 232.48 781.65 232.83
  Q 780.73 233.21 780.32 234.19
  Q 779.51 236.17 779.34 237.86
  C 779.12 240.05 780.56 241.80 781.09 243.83
  Q 781.54 245.57 782.18 247.37
  Q 782.78 249.05 783.01 250.65
  Q 783.29 252.52 783.74 254.35
  Q 783.85 254.77 783.52 255.04
  Q 783.30 255.23 783.31 255.51
  Q 783.33 256.02 783.61 256.47
  Q 784.38 257.66 784.23 259.01
  Q 784.17 259.50 784.33 259.96
  Q 784.76 261.25 784.60 262.55
  A 1.44 1.42 32.6 0 0 784.81 263.48
  Q 786.70 266.34 787.69 269.72
  Q 788.19 271.45 789.43 272.97
  Q 789.66 273.25 789.70 273.62
  Q 789.94 275.84 791.02 277.81
  Q 791.26 278.25 791.69 278.48
  Q 792.30 278.80 792.39 279.47
  Q 792.44 279.81 792.78 279.88
  Q 793.02 279.93 793.19 279.76
  Q 793.51 279.44 793.38 279.88
  Q 793.34 280.01 793.36 280.15
  Q 793.41 280.49 793.75 280.56
  L 796.29 281.04
  Q 796.78 281.13 797.26 281.00
  Q 814.05 276.48 827.82 276.37
  Q 862.18 276.09 891.72 287.68
  Q 903.45 292.29 915.18 299.81
  C 919.25 302.42 922.87 305.69 926.89 308.40
  Q 927.01 308.49 927.07 308.62
  Q 927.13 308.75 927.10 308.89
  Q 927.06 309.16 927.23 309.36
  L 931.22 314.07
  Q 931.60 314.52 931.54 315.11
  Q 931.28 317.38 932.20 319.71
  Q 932.32 319.99 932.56 320.19
  Q 933.55 321.01 933.72 322.23
  Q 934.01 324.28 935.01 325.95
  Q 935.98 327.56 936.84 329.13
  Q 939.18 333.38 941.75 337.51
  C 942.13 338.11 942.75 338.61 942.82 339.29
  Q 942.87 339.78 943.17 340.16
  Q 945.10 342.56 945.03 345.62
  Q 945.02 345.93 945.08 346.24
  Q 945.21 346.88 944.55 347.16
  A 0.04 0.04 0.0 0 1 944.51 347.10
  Q 944.69 346.91 944.57 346.65
  Q 944.49 346.47 944.29 346.42
  Q 943.96 346.34 943.49 346.54"
/>
<path stroke="#69b4b3" vector-effect="non-scaling-stroke" d="
  M 943.49 346.54
  Q 937.53 339.89 930.35 334.40
  Q 929.77 333.95 927.94 333.15"
/>
<path stroke="#69b4b3" vector-effect="non-scaling-stroke" d="
  M 906.92 320.45
  Q 907.87 319.57 904.71 318.16
  Q 877.76 306.10 849.74 302.18
  Q 839.99 300.82 830.19 300.89
  Q 813.17 301.01 795.70 304.20
  Q 776.98 307.62 763.51 314.87
  Q 746.48 324.04 732.57 338.49
  Q 726.83 344.47 724.21 352.25
  Q 723.37 354.73 722.42 357.41
  Q 721.67 359.53 723.44 358.14
  C 729.11 353.69 733.95 348.36 739.89 344.11
  Q 761.37 328.72 785.09 323.24
  Q 806.59 318.27 826.95 317.55
  Q 836.37 317.22 847.58 318.73
  Q 875.03 322.45 899.76 329.49
  Q 902.41 330.24 902.31 329.16"
/>
<path stroke="#69b4b3" vector-effect="non-scaling-stroke" d="
  M 915.01 334.92
  L 941.36 349.43"
/>
<path stroke="#4a969e" vector-effect="non-scaling-stroke" d="
  M 941.36 349.43
  Q 941.26 349.95 941.02 350.15
  Q 940.69 350.43 941.01 350.73
  Q 941.20 350.91 941.47 350.88
  Q 941.88 350.84 941.74 351.23
  Q 940.97 353.26 940.56 355.73
  Q 939.78 360.51 939.67 364.12
  Q 939.54 368.69 940.05 373.26
  Q 940.11 373.79 939.60 373.96
  Q 939.45 374.00 939.42 374.16
  Q 939.36 374.48 939.54 374.78
  Q 940.09 375.67 940.22 376.82"
/>
<path stroke="#69b4b3" vector-effect="non-scaling-stroke" d="
  M 899.11 354.78
  Q 880.71 349.39 861.64 346.29
  Q 853.38 344.95 844.34 344.78
  C 826.52 344.46 809.43 345.56 792.01 349.36
  C 777.59 352.51 764.93 359.33 752.68 367.61
  Q 739.96 376.23 729.71 388.60
  Q 728.67 389.85 730.01 388.91
  Q 736.80 384.12 743.96 379.29
  Q 751.61 374.13 758.45 370.61
  Q 786.04 356.40 818.20 353.98
  Q 842.54 352.14 865.26 355.68
  Q 890.79 359.67 915.38 368.97"
/>
<path stroke="#4a969e" vector-effect="non-scaling-stroke" d="
  M 947.29 388.08
  Q 945.17 388.61 944.16 387.43
  Q 942.88 385.95 942.88 388.00
  L 942.88 394.95
  Q 942.88 395.46 942.39 395.59
  Q 941.72 395.78 941.04 395.51
  Q 940.53 395.31 940.12 395.66
  Q 939.37 396.27 939.15 397.10
  Q 939.02 397.60 938.55 397.38
  Q 937.92 397.10 937.37 397.41
  Q 936.80 397.74 937.38 398.05
  Q 937.87 398.31 938.48 398.13
  Q 939.17 397.91 938.65 398.41
  Q 938.25 398.80 937.77 398.53
  Q 937.24 398.22 936.82 398.65
  Q 936.34 399.13 935.66 399.16
  A 0.58 0.57 -81.2 0 0 935.13 399.55
  Q 934.84 400.37 934.89 401.19
  Q 934.95 402.00 934.14 402.07
  Q 933.13 402.16 932.11 402.63
  Q 931.71 402.81 931.29 402.65
  Q 930.84 402.49 930.50 402.87
  Q 929.25 403.00 927.98 403.17
  Q 927.24 403.27 926.52 403.19
  Q 925.78 403.10 925.15 403.56
  A 1.12 1.11 -58.1 0 1 924.36 403.75
  L 921.50 403.37
  Q 921.26 403.34 921.08 403.50
  Q 920.95 403.61 920.88 403.77
  Q 920.50 404.59 920.09 403.90
  L 919.74 403.29
  A 0.31 0.31 0.0 0 0 919.25 403.23
  Q 919.04 403.44 919.09 403.70
  Q 919.26 404.52 918.92 403.76
  Q 918.81 403.49 918.57 403.30
  Q 918.31 403.09 917.98 403.16
  Q 917.81 403.19 917.71 403.31
  Q 917.50 403.55 917.18 403.52
  L 913.36 403.20
  Q 912.85 403.16 912.57 403.58
  Q 911.61 405.02 909.82 404.60
  Q 909.28 404.47 908.90 404.89
  Q 908.01 405.86 907.60 407.05
  Q 907.40 407.62 907.06 407.13
  Q 906.84 406.81 906.80 406.46
  Q 906.78 406.32 906.91 406.38
  Q 907.13 406.47 907.23 406.20
  A 0.20 0.19 -79.8 0 0 907.05 405.93
  Q 905.13 405.97 903.75 404.57
  Q 903.45 404.26 903.03 404.37
  Q 902.81 404.42 902.60 404.34
  Q 901.29 403.80 899.86 403.33
  Q 899.25 403.14 899.13 403.76
  Q 898.93 404.79 897.98 405.09
  Q 897.49 405.24 897.40 405.74
  Q 897.10 407.25 897.40 408.85
  Q 897.53 409.56 897.05 410.05
  Q 896.77 410.34 896.71 410.74
  L 896.10 415.45
  Q 895.98 416.36 895.75 415.48
  Q 895.70 415.29 895.67 415.11
  Q 895.54 414.16 895.32 415.09
  Q 895.17 415.77 894.40 415.85
  Q 893.71 415.92 893.89 416.59
  Q 893.98 416.96 894.00 417.34
  Q 894.05 418.77 893.36 417.54
  Q 893.00 416.90 892.08 417.07"
/>
<path stroke="#69b4b3" vector-effect="non-scaling-stroke" d="
  M 892.08 417.07
  L 890.35 409.42"
/>
<path stroke="#4a969e" vector-effect="non-scaling-stroke" d="
  M 1019.44 639.87
  Q 1018.12 633.77 1018.55 627.55
  C 1018.65 626.10 1017.94 624.81 1018.29 623.34"
/>
<path stroke="#6bb8b7" vector-effect="non-scaling-stroke" d="
  M 1018.29 623.34
  Q 1020.30 625.77 1021.12 620.96
  Q 1021.59 618.24 1021.95 615.66
  Q 1022.33 612.99 1022.35 610.54
  Q 1022.46 600.34 1022.64 590.93
  C 1022.78 583.65 1021.95 577.27 1019.08 570.55
  Q 1016.55 564.64 1011.43 557.42
  C 1003.44 546.16 993.49 537.27 983.74 527.25
  Q 976.93 520.26 974.92 518.53
  Q 951.88 498.70 934.19 480.41
  Q 918.79 464.49 906.40 445.76
  Q 900.26 436.48 896.80 429.21
  Q 894.88 425.17 892.08 417.07"
/>
<path stroke="#6bb8b7" vector-effect="non-scaling-stroke" d="
  M 941.36 349.43
  Q 943.01 350.32 944.63 350.38
  Q 945.15 350.40 945.05 349.88
  Q 944.73 348.20 943.49 346.54"
/>
<path stroke="#69b4b3" vector-effect="non-scaling-stroke" d="
  M 1018.29 623.34
  Q 1016.69 611.59 1015.27 607.48
  C 1008.28 587.30 992.70 571.44 975.09 559.70
  Q 965.32 553.18 955.48 546.71
  C 946.03 540.50 936.98 533.41 928.59 526.24
  Q 914.25 513.98 902.56 497.60
  Q 893.43 484.82 888.83 476.16
  Q 883.12 465.44 879.07 448.89"
/>
<path stroke="#6abbb4" vector-effect="non-scaling-stroke" d="
  M 505.29 526.04
  Q 488.96 509.91 466.59 496.94
  Q 451.99 488.48 440.92 484.79
  C 432.32 481.93 422.76 480.71 413.79 478.85
  Q 412.22 478.52 412.77 480.03
  Q 413.02 480.72 414.08 481.93
  C 420.48 489.30 427.10 494.52 436.43 500.31
  Q 447.41 507.11 458.15 514.34
  Q 458.20 514.38 471.40 523.07
  Q 477.45 527.05 486.29 533.23
  Q 509.54 549.47 524.17 573.11"
/>
<path stroke="#ecb5ad" vector-effect="non-scaling-stroke" d="
  M 426.36 652.37
  Q 428.93 652.00 430.72 649.71
  Q 432.37 647.59 433.82 645.34
  Q 435.48 642.74 434.28 642.14"
/>
<path stroke="#765650" vector-effect="non-scaling-stroke" d="
  M 654.04 1169.36
  Q 637.62 1168.82 630.26 1167.25
  C 625.55 1166.25 621.68 1161.95 621.06 1156.78
  C 620.76 1154.24 620.21 1151.82 620.16 1149.22
  C 620.03 1143.04 619.69 1136.84 619.65 1130.93
  Q 619.08 1057.17 617.11 992.99
  Q 616.91 986.63 615.56 980.51
  C 615.00 978.00 611.07 977.82 609.04 977.82
  Q 599.15 977.85 588.40 977.69
  Q 584.50 977.64 580.78 976.81
  C 579.90 976.61 579.46 975.96 579.07 975.20"
/>
<path stroke="#8c716b" vector-effect="non-scaling-stroke" d="
  M 579.07 975.20
  Q 576.78 958.48 577.57 941.50
  Q 577.67 939.41 578.30 933.37"
/>
<path stroke="#181c1c" vector-effect="non-scaling-stroke" d="
  M 579.07 975.20
  Q 578.92 975.18 578.68 974.96
  Q 578.40 974.70 578.32 975.08
  L 578.05 976.40"
/>
<path stroke="#765650" vector-effect="non-scaling-stroke" d="
  M 802.81 1169.47
  C 799.97 1168.72 796.95 1169.06 794.43 1168.50
  C 789.79 1167.46 785.00 1165.67 783.47 1160.60
  Q 782.25 1156.59 782.19 1153.25
  Q 781.79 1131.81 781.93 1104.24
  Q 781.98 1093.93 781.07 1084.74
  Q 779.95 1073.48 774.73 1063.13
  Q 759.45 1032.84 746.55 1004.53
  C 739.27 988.55 730.07 973.62 722.70 957.83
  Q 718.49 948.81 714.52 939.75
  Q 713.46 937.32 714.19 935.22"
/>
<path stroke="#8c716b" vector-effect="non-scaling-stroke" d="
  M 407.86 1170.54
  Q 406.28 1169.30 403.47 1169.15"
/>
<path stroke="#765650" vector-effect="non-scaling-stroke" d="
  M 403.47 1169.15
  C 397.83 1166.50 396.13 1160.83 395.26 1155.75
  Q 392.97 1142.38 390.39 1133.87
  Q 389.75 1131.77 387.68 1129.85"
/>
<path stroke="#765650" vector-effect="non-scaling-stroke" d="
  M 283.17 1170.21
  Q 275.43 1166.19 276.04 1159.75
  Q 276.68 1153.00 278.95 1145.25
  Q 284.55 1126.12 289.31 1106.76
  Q 302.64 1052.52 315.00 998.25
  C 318.98 980.79 322.23 963.35 325.72 945.94
  C 326.38 942.63 327.40 939.49 328.96 936.48
  Q 330.82 932.89 334.50 932.64
  Q 336.95 932.48 345.29 932.37"
/>
<path stroke="#8c716b" vector-effect="non-scaling-stroke" d="
  M 345.29 932.37
  Q 345.35 932.64 345.50 932.64
  Q 348.01 932.62 350.54 931.98"
/>
<path stroke="#181c1c" vector-effect="non-scaling-stroke" d="
  M 403.47 1169.15
  Q 403.60 1169.37 403.27 1169.57"
/>
<path stroke="#181c1c" vector-effect="non-scaling-stroke" d="
  M 346.20 932.05
  Q 346.10 932.36 345.29 932.37"
/>
<path stroke="#765650" vector-effect="non-scaling-stroke" d="
  M 511.05 1171.39
  C 505.49 1170.98 499.92 1171.02 494.40 1170.26
  Q 491.85 1169.91 489.11 1169.85
  C 483.09 1169.72 478.95 1162.41 478.28 1157.27
  Q 477.63 1152.25 477.60 1147.96
  C 477.42 1125.03 477.41 1102.04 476.33 1078.99
  Q 475.56 1062.68 475.15 1033.44
  Q 475.01 1023.80 474.54 1013.24
  Q 473.85 997.95 473.48 981.48
  A 2.42 2.41 -0.5 0 0 471.07 979.12
  L 443.54 979.02"
/>
<path stroke="#765650" vector-effect="non-scaling-stroke" d="
  M 443.54 979.02
  C 440.41 978.18 437.38 978.02 436.37 974.16
  Q 435.39 970.41 435.22 968.07
  Q 434.56 958.89 434.40 944.50
  Q 434.32 937.88 436.94 934.01"
/>
<path stroke="#765650" vector-effect="non-scaling-stroke" d="
  M 1078.06 1000.53
  Q 1072.96 992.89 1065.56 986.43
  Q 1054.71 976.96 1040.80 978.64"
/>
<path stroke="#765650" vector-effect="non-scaling-stroke" d="
  M 1016.81 1168.83
  Q 991.10 1160.13 971.03 1139.47
  Q 962.39 1130.57 957.34 1122.02
  C 956.29 1120.24 956.89 1118.98 958.34 1117.82"
/>
<path stroke="#765650" vector-effect="non-scaling-stroke" d="
  M 1055.49 1121.05
  Q 1065.61 1115.17 1065.20 1102.74
  C 1064.78 1089.58 1055.50 1082.72 1044.72 1077.62
  C 1029.98 1070.64 1014.23 1065.39 999.91 1057.26
  Q 980.64 1046.33 972.98 1026.26
  C 970.44 1019.62 967.96 1011.89 967.62 1005.15
  Q 966.99 992.80 970.24 981.58
  C 973.44 970.53 979.43 961.45 987.75 953.74"
/>
<path stroke="#8c716b" vector-effect="non-scaling-stroke" d="
  M 987.75 953.74
  Q 989.21 952.59 989.54 951.36"
/>
<path stroke="#181c1c" vector-effect="non-scaling-stroke" d="
  M 987.75 953.74
  Q 987.22 953.83 987.05 953.71"
/>
<path stroke="#765650" vector-effect="non-scaling-stroke" d="
  M 170.81 1172.18
  L 156.52 1172.07"
/>
<path stroke="#765650" vector-effect="non-scaling-stroke" d="
  M 146.92 1171.03
  Q 141.30 1168.45 138.84 1163.32
  Q 137.38 1160.29 136.95 1152.91
  Q 136.35 1142.72 136.30 1138.75
  Q 135.70 1092.52 135.51 1047.25
  C 135.37 1012.96 134.24 978.62 133.15 944.50
  C 133.03 940.65 133.15 937.57 137.07 935.80"
/>
<path stroke="#765650" vector-effect="non-scaling-stroke" d="
  M 1162.71 1176.88
  C 1156.73 1175.72 1149.63 1174.59 1147.94 1167.49
  Q 1147.00 1163.54 1146.98 1160.50
  Q 1146.51 1098.91 1144.82 1056.75
  Q 1142.93 1009.65 1142.25 986.34
  C 1141.94 975.63 1141.39 964.90 1141.34 954.47
  Q 1141.32 950.35 1142.00 947.01
  Q 1142.34 945.32 1144.51 942.31"
/>
<path stroke="#765650" vector-effect="non-scaling-stroke" d="
  M 1419.93 1178.77
  C 1414.95 1175.93 1412.74 1171.75 1411.42 1166.23
  Q 1409.77 1159.40 1408.52 1152.49
  Q 1407.08 1144.53 1404.22 1137.58"
/>
<path stroke="#765650" vector-effect="non-scaling-stroke" d="
  M 1306.58 1179.92
  C 1300.83 1178.64 1296.07 1177.87 1293.33 1172.06
  Q 1292.33 1169.95 1292.55 1166.84
  Q 1292.80 1163.37 1293.29 1161.49
  Q 1302.03 1127.78 1310.30 1093.94
  Q 1312.74 1083.94 1315.23 1074.56
  Q 1322.88 1045.74 1329.37 1015.73
  Q 1336.04 984.87 1342.89 952.74
  Q 1343.52 949.79 1346.56 944.12"
/>
<path stroke="#69b4b3" vector-effect="non-scaling-stroke" d="
  M 676.86 546.23
  Q 685.73 536.23 704.11 518.91
  Q 711.39 512.05 719.20 505.86
  C 738.25 490.79 757.62 476.37 777.30 461.28
  C 799.08 444.56 820.12 426.97 839.46 408.27
  Q 848.16 399.87 855.09 392.25
  A 0.42 0.42 0.0 0 0 854.81 391.55
  Q 849.56 391.18 844.51 392.31
  C 833.51 394.76 822.96 399.47 812.93 404.52
  C 803.90 409.06 794.44 414.89 786.10 420.50
  Q 759.17 438.62 735.92 457.54
  Q 719.78 470.68 705.14 486.03
  C 699.63 491.81 694.71 497.87 689.62 504.08
  C 671.20 526.52 657.50 553.79 647.26 581.03
  C 646.34 583.48 644.13 589.53 645.54 591.70
  Q 646.44 593.10 646.98 591.53
  Q 649.86 583.22 654.56 575.58
  Q 663.09 561.75 676.86 546.23"
/>
<path stroke="#77c6c5" vector-effect="non-scaling-stroke" d="
  M 495.87 406.07
  Q 496.89 406.63 497.25 406.62
  Q 498.01 406.62 497.99 405.64"
/>
<path stroke="#77c6c5" vector-effect="non-scaling-stroke" d="
  M 499.14 404.39
  L 498.13 406.37
  Q 497.98 406.67 497.64 406.67
  Q 497.50 406.67 497.37 406.64
  Q 496.42 406.42 497.11 407.11
  Q 497.92 407.92 498.52 408.77"
/>
<path stroke="#96e4da" vector-effect="non-scaling-stroke" d="
  M 498.52 408.77
  Q 500.59 410.65 502.23 408.69
  Q 502.54 408.31 503.02 408.19
  L 507.54 407.07"
/>
<path stroke="#6bb8b7" vector-effect="non-scaling-stroke" d="
  M 501.91 406.65
  Q 500.90 408.80 498.52 408.77"
/>
<path stroke="#6abbb4" vector-effect="non-scaling-stroke" d="
  M 1155.33 428.54
  Q 1151.83 430.84 1148.15 434.21
  Q 1146.66 435.58 1145.19 436.87
  Q 1142.50 439.26 1139.85 441.60
  Q 1135.52 445.43 1134.72 451.23
  A 0.45 0.45 0.0 0 0 1135.37 451.69
  C 1140.82 448.85 1144.60 444.54 1148.88 440.30
  C 1153.68 435.53 1159.44 431.62 1164.77 427.73
  Q 1167.87 425.46 1170.13 423.13
  A 0.82 0.82 0.0 0 0 1169.63 421.74
  Q 1167.06 421.45 1165.03 422.59
  Q 1160.58 425.09 1155.33 428.54"
/>
<path stroke="#765650" vector-effect="non-scaling-stroke" d="
  M 349.20 1093.86
  L 361.00 1093.98"
/>
<path stroke="#765650" vector-effect="non-scaling-stroke" d="
  M 361.42 1093.98
  Q 371.17 1094.74 381.02 1093.74
  Q 381.58 1093.68 381.53 1093.13
  Q 380.90 1085.80 379.80 1080.49
  Q 375.87 1061.44 370.95 1040.50
  Q 368.89 1031.73 366.76 1020.95
  Q 364.60 1010.05 362.19 998.27
  Q 362.16 998.13 362.01 998.16
  L 362.01 998.16
  Q 361.86 998.19 361.90 998.34
  Q 362.33 999.90 361.58 1001.33"
/>
<path stroke="#765650" vector-effect="non-scaling-stroke" d="
  M 218.53 1042.76
  Q 223.21 1041.66 225.80 1036.75
  C 232.78 1023.46 233.32 1006.49 226.08 993.38
  Q 219.91 982.22 206.42 980.93"
/>
<path stroke="#765650" vector-effect="non-scaling-stroke" d="
  M 1229.69 1048.07
  Q 1236.95 1044.11 1239.24 1034.00
  Q 1242.32 1020.35 1239.74 1008.04
  Q 1237.90 999.25 1233.02 993.68
  Q 1224.89 984.40 1210.96 985.27"
/>
<path stroke="#e9afaf" vector-effect="non-scaling-stroke" d="
  M 1378.11 1007.21
  Q 1374.50 1013.75 1375.07 1021.32"
/>
<path stroke="#765650" vector-effect="non-scaling-stroke" d="
  M 1395.73 1102.52
  L 1397.97 1102.68
  Q 1398.63 1102.73 1398.54 1102.07
  Q 1397.57 1095.29 1396.46 1089.96
  Q 1392.84 1072.77 1389.24 1055.50
  Q 1387.62 1047.71 1385.77 1037.40
  Q 1384.12 1028.22 1381.80 1019.36
  Q 1380.20 1013.24 1379.50 1009.13
  C 1379.29 1007.88 1378.64 1006.88 1378.57 1005.63
  Q 1378.51 1004.63 1378.24 1005.60
  Q 1378.00 1006.48 1378.11 1007.21"
/>
<path stroke="#755b60" vector-effect="non-scaling-stroke" d="
  M 1379.05 1011.81
  Q 1379.35 1009.52 1378.11 1007.21"
/>
</g>
<path fill="#f0b59a" d="
  M 851.23 156.79
  C 848.03 163.24 845.22 170.18 842.01 176.55
  A 0.60 0.59 -43.2 0 1 840.93 176.52
  Q 836.14 165.18 831.40 155.48
  Q 818.89 129.93 791.34 121.46
  Q 790.51 121.21 791.36 121.05
  C 791.94 120.94 792.78 120.88 793.30 120.66
  Q 802.14 117.04 812.27 110.73
  Q 835.39 96.35 841.41 70.13
  Q 841.68 68.99 842.04 70.10
  Q 844.07 76.36 845.94 81.90
  C 852.79 102.16 870.17 114.10 888.71 122.57
  Q 889.24 122.81 888.70 123.02
  C 872.33 129.39 859.02 141.05 851.23 156.79
  Z"
/>
<path fill="#60b6ae" d="
  M 764.90 184.64
  C 766.31 187.35 766.71 190.41 764.53 192.91
  Q 761.01 196.96 756.69 199.07
  A 2.40 2.39 58.6 0 1 753.72 198.35
  C 748.77 191.73 743.20 186.34 736.39 181.38
  Q 728.62 175.72 720.56 169.59
  C 717.20 167.02 716.87 163.36 719.17 159.91
  Q 724.29 152.23 732.68 150.52
  C 737.37 149.56 744.17 157.06 747.10 160.14
  Q 758.23 171.84 764.90 184.64
  Z"
/>
<path fill="#60b6ae" d="
  M 946.56 152.71
  C 951.17 154.79 962.33 164.56 955.85 170.21
  Q 953.64 172.14 951.45 173.68
  Q 933.85 186.11 921.61 199.60
  Q 919.11 202.36 916.61 201.74
  C 913.57 200.98 910.80 196.98 908.90 194.51
  C 907.25 192.36 908.30 189.90 909.40 187.76
  C 915.39 175.99 924.40 166.06 933.77 156.46
  C 937.29 152.85 941.48 150.42 946.56 152.71
  Z"
/>
<path fill="#489199" d="
  M 843.55 218.75
  Q 843.63 219.68 842.96 221.48
  Q 842.91 221.60 843.02 221.53
  Q 843.06 221.50 843.11 221.51
  Q 843.61 221.63 843.60 222.14
  Q 843.59 222.60 843.13 222.62
  Q 841.97 222.68 841.10 222.05
  A 1.19 1.18 58.8 0 0 840.26 221.84
  Q 838.77 222.04 837.29 222.39
  Q 835.83 222.75 834.23 222.54
  Q 830.05 222.00 826.73 222.29
  Q 821.90 222.71 816.26 223.46
  Q 811.23 224.14 807.63 225.04
  Q 803.50 226.08 799.33 226.87
  C 798.02 227.12 796.83 227.79 795.57 228.03
  Q 790.61 228.97 785.93 230.44
  Q 785.06 230.71 784.27 231.70
  Q 783.92 232.13 783.39 232.26
  Q 782.50 232.48 781.65 232.83
  Q 780.73 233.21 780.32 234.19
  Q 779.51 236.17 779.34 237.86
  C 779.12 240.05 780.56 241.80 781.09 243.83
  Q 781.54 245.57 782.18 247.37
  Q 782.78 249.05 783.01 250.65
  Q 783.29 252.52 783.74 254.35
  Q 783.85 254.77 783.52 255.04
  Q 783.30 255.23 783.31 255.51
  Q 783.33 256.02 783.61 256.47
  Q 784.38 257.66 784.23 259.01
  Q 784.17 259.50 784.33 259.96
  Q 784.76 261.25 784.60 262.55
  A 1.44 1.42 32.6 0 0 784.81 263.48
  Q 786.70 266.34 787.69 269.72
  Q 788.19 271.45 789.43 272.97
  Q 789.66 273.25 789.70 273.62
  Q 789.94 275.84 791.02 277.81
  Q 791.26 278.25 791.69 278.48
  Q 792.30 278.80 792.39 279.47
  Q 792.44 279.81 792.78 279.88
  Q 793.02 279.93 793.19 279.76
  Q 793.51 279.44 793.38 279.88
  Q 793.34 280.01 793.36 280.15
  Q 793.41 280.49 793.75 280.56
  L 796.29 281.04
  Q 796.78 281.13 797.26 281.00
  Q 814.05 276.48 827.82 276.37
  Q 862.18 276.09 891.72 287.68
  Q 903.45 292.29 915.18 299.81
  C 919.25 302.42 922.87 305.69 926.89 308.40
  Q 927.01 308.49 927.07 308.62
  Q 927.13 308.75 927.10 308.89
  Q 927.06 309.16 927.23 309.36
  L 931.22 314.07
  Q 931.60 314.52 931.54 315.11
  Q 931.28 317.38 932.20 319.71
  Q 932.32 319.99 932.56 320.19
  Q 933.55 321.01 933.72 322.23
  Q 934.01 324.28 935.01 325.95
  Q 935.98 327.56 936.84 329.13
  Q 939.18 333.38 941.75 337.51
  C 942.13 338.11 942.75 338.61 942.82 339.29
  Q 942.87 339.78 943.17 340.16
  Q 945.10 342.56 945.03 345.62
  Q 945.02 345.93 945.08 346.24
  Q 945.21 346.88 944.55 347.16
  A 0.04 0.04 0.0 0 1 944.51 347.10
  Q 944.69 346.91 944.57 346.65
  Q 944.49 346.47 944.29 346.42
  Q 943.96 346.34 943.49 346.54
  Q 937.53 339.89 930.35 334.40
  Q 929.77 333.95 927.94 333.15
  Q 928.09 333.00 927.96 332.50
  Q 927.89 332.20 927.66 331.95
  Q 925.07 329.17 919.89 326.13
  Q 912.68 321.89 906.92 320.45
  Q 907.87 319.57 904.71 318.16
  Q 877.76 306.10 849.74 302.18
  Q 839.99 300.82 830.19 300.89
  Q 813.17 301.01 795.70 304.20
  Q 776.98 307.62 763.51 314.87
  Q 746.48 324.04 732.57 338.49
  Q 726.83 344.47 724.21 352.25
  Q 723.37 354.73 722.42 357.41
  Q 721.67 359.53 723.44 358.14
  C 729.11 353.69 733.95 348.36 739.89 344.11
  Q 761.37 328.72 785.09 323.24
  Q 806.59 318.27 826.95 317.55
  Q 836.37 317.22 847.58 318.73
  Q 875.03 322.45 899.76 329.49
  Q 902.41 330.24 902.31 329.16
  L 915.01 334.92
  L 941.36 349.43
  Q 941.26 349.95 941.02 350.15
  Q 940.69 350.43 941.01 350.73
  Q 941.20 350.91 941.47 350.88
  Q 941.88 350.84 941.74 351.23
  Q 940.97 353.26 940.56 355.73
  Q 939.78 360.51 939.67 364.12
  Q 939.54 368.69 940.05 373.26
  Q 940.11 373.79 939.60 373.96
  Q 939.45 374.00 939.42 374.16
  Q 939.36 374.48 939.54 374.78
  Q 940.09 375.67 940.22 376.82
  Q 933.03 369.34 924.20 364.32
  Q 919.96 361.91 911.81 359.19
  Q 905.49 357.08 899.11 354.78
  Q 880.71 349.39 861.64 346.29
  Q 853.38 344.95 844.34 344.78
  C 826.52 344.46 809.43 345.56 792.01 349.36
  C 777.59 352.51 764.93 359.33 752.68 367.61
  Q 739.96 376.23 729.71 388.60
  Q 728.67 389.85 730.01 388.91
  Q 736.80 384.12 743.96 379.29
  Q 751.61 374.13 758.45 370.61
  Q 786.04 356.40 818.20 353.98
  Q 842.54 352.14 865.26 355.68
  Q 890.79 359.67 915.38 368.97
  Q 922.84 373.47 934.13 379.12
  Q 940.93 382.54 947.29 388.08
  Q 945.17 388.61 944.16 387.43
  Q 942.88 385.95 942.88 388.00
  L 942.88 394.95
  Q 942.88 395.46 942.39 395.59
  Q 941.72 395.78 941.04 395.51
  Q 940.53 395.31 940.12 395.66
  Q 939.37 396.27 939.15 397.10
  Q 939.02 397.60 938.55 397.38
  Q 937.92 397.10 937.37 397.41
  Q 936.80 397.74 937.38 398.05
  Q 937.87 398.31 938.48 398.13
  Q 939.17 397.91 938.65 398.41
  Q 938.25 398.80 937.77 398.53
  Q 937.24 398.22 936.82 398.65
  Q 936.34 399.13 935.66 399.16
  A 0.58 0.57 -81.2 0 0 935.13 399.55
  Q 934.84 400.37 934.89 401.19
  Q 934.95 402.00 934.14 402.07
  Q 933.13 402.16 932.11 402.63
  Q 931.71 402.81 931.29 402.65
  Q 930.84 402.49 930.50 402.87
  Q 929.25 403.00 927.98 403.17
  Q 927.24 403.27 926.52 403.19
  Q 925.78 403.10 925.15 403.56
  A 1.12 1.11 -58.1 0 1 924.36 403.75
  L 921.50 403.37
  Q 921.26 403.34 921.08 403.50
  Q 920.95 403.61 920.88 403.77
  Q 920.50 404.59 920.09 403.90
  L 919.74 403.29
  A 0.31 0.31 0.0 0 0 919.25 403.23
  Q 919.04 403.44 919.09 403.70
  Q 919.26 404.52 918.92 403.76
  Q 918.81 403.49 918.57 403.30
  Q 918.31 403.09 917.98 403.16
  Q 917.81 403.19 917.71 403.31
  Q 917.50 403.55 917.18 403.52
  L 913.36 403.20
  Q 912.85 403.16 912.57 403.58
  Q 911.61 405.02 909.82 404.60
  Q 909.28 404.47 908.90 404.89
  Q 908.01 405.86 907.60 407.05
  Q 907.40 407.62 907.06 407.13
  Q 906.84 406.81 906.80 406.46
  Q 906.78 406.32 906.91 406.38
  Q 907.13 406.47 907.23 406.20
  A 0.20 0.19 -79.8 0 0 907.05 405.93
  Q 905.13 405.97 903.75 404.57
  Q 903.45 404.26 903.03 404.37
  Q 902.81 404.42 902.60 404.34
  Q 901.29 403.80 899.86 403.33
  Q 899.25 403.14 899.13 403.76
  Q 898.93 404.79 897.98 405.09
  Q 897.49 405.24 897.40 405.74
  Q 897.10 407.25 897.40 408.85
  Q 897.53 409.56 897.05 410.05
  Q 896.77 410.34 896.71 410.74
  L 896.10 415.45
  Q 895.98 416.36 895.75 415.48
  Q 895.70 415.29 895.67 415.11
  Q 895.54 414.16 895.32 415.09
  Q 895.17 415.77 894.40 415.85
  Q 893.71 415.92 893.89 416.59
  Q 893.98 416.96 894.00 417.34
  Q 894.05 418.77 893.36 417.54
  Q 893.00 416.90 892.08 417.07
  L 890.35 409.42
  Q 890.46 405.96 890.93 401.76
  Q 891.18 399.46 889.07 398.70
  Q 882.78 396.43 875.60 394.97
  A 1.31 1.30 10.9 0 0 874.06 396.01
  Q 873.29 400.09 872.59 404.19
  Q 866.63 439.19 848.69 470.36
  Q 841.00 483.72 832.12 497.14
  C 825.42 507.27 817.88 515.52 809.22 524.28
  Q 778.59 555.25 740.22 575.57
  Q 726.43 582.87 713.64 589.75
  Q 699.98 597.10 689.34 607.10
  C 679.59 616.27 673.60 626.99 671.22 640.19
  Q 668.46 655.50 668.61 665.03
  Q 669.00 689.02 682.92 709.11
  Q 687.25 715.37 691.99 720.95
  Q 693.03 722.17 691.49 721.75
  Q 687.37 720.65 683.79 718.51
  C 661.97 705.50 643.59 689.16 632.27 666.59
  Q 622.41 646.94 618.17 626.66
  Q 617.06 621.34 615.94 612.75
  C 613.49 593.98 614.66 575.50 618.12 555.33
  Q 621.77 534.11 630.34 514.89
  C 637.06 499.84 644.53 485.59 654.58 472.38
  Q 670.20 451.87 685.40 438.23
  C 695.47 429.21 703.79 422.59 715.20 417.83
  A 1.59 1.58 -31.3 0 0 715.81 415.35
  C 709.26 407.50 705.09 396.42 701.82 385.98
  C 695.04 364.35 697.19 343.11 702.30 320.72
  C 709.86 287.55 729.51 259.35 757.66 239.86
  C 781.09 223.63 809.46 216.57 838.01 218.10
  Q 840.48 218.23 843.55 218.75
  Z
  M 676.86 546.23
  Q 685.73 536.23 704.11 518.91
  Q 711.39 512.05 719.20 505.86
  C 738.25 490.79 757.62 476.37 777.30 461.28
  C 799.08 444.56 820.12 426.97 839.46 408.27
  Q 848.16 399.87 855.09 392.25
  A 0.42 0.42 0.0 0 0 854.81 391.55
  Q 849.56 391.18 844.51 392.31
  C 833.51 394.76 822.96 399.47 812.93 404.52
  C 803.90 409.06 794.44 414.89 786.10 420.50
  Q 759.17 438.62 735.92 457.54
  Q 719.78 470.68 705.14 486.03
  C 699.63 491.81 694.71 497.87 689.62 504.08
  C 671.20 526.52 657.50 553.79 647.26 581.03
  C 646.34 583.48 644.13 589.53 645.54 591.70
  Q 646.44 593.10 646.98 591.53
  Q 649.86 583.22 654.56 575.58
  Q 663.09 561.75 676.86 546.23
  Z"
/>
<path fill="#4c9aa2" d="
  M 843.55 218.75
  Q 853.54 219.54 867.23 223.48
  Q 884.82 228.55 897.56 236.59
  Q 933.72 259.43 950.64 297.67
  C 957.08 312.23 961.61 326.71 963.28 342.64
  C 964.60 355.22 962.86 369.12 960.39 381.53
  Q 957.64 395.32 950.20 409.69
  Q 945.85 418.10 939.52 424.31
  A 1.10 1.09 -50.8 0 0 939.69 426.01
  Q 954.10 435.41 965.22 446.37
  Q 988.23 469.06 1004.06 497.31
  C 1011.69 510.91 1017.61 525.56 1021.26 540.97
  Q 1026.14 561.55 1027.83 581.75
  Q 1028.27 587.06 1027.70 596.24
  Q 1026.36 618.07 1019.44 639.87
  Q 1018.12 633.77 1018.55 627.55
  C 1018.65 626.10 1017.94 624.81 1018.29 623.34
  Q 1020.30 625.77 1021.12 620.96
  Q 1021.59 618.24 1021.95 615.66
  Q 1022.33 612.99 1022.35 610.54
  Q 1022.46 600.34 1022.64 590.93
  C 1022.78 583.65 1021.95 577.27 1019.08 570.55
  Q 1016.55 564.64 1011.43 557.42
  C 1003.44 546.16 993.49 537.27 983.74 527.25
  Q 976.93 520.26 974.92 518.53
  Q 951.88 498.70 934.19 480.41
  Q 918.79 464.49 906.40 445.76
  Q 900.26 436.48 896.80 429.21
  Q 894.88 425.17 892.08 417.07
  Q 893.00 416.90 893.36 417.54
  Q 894.05 418.77 894.00 417.34
  Q 893.98 416.96 893.89 416.59
  Q 893.71 415.92 894.40 415.85
  Q 895.17 415.77 895.32 415.09
  Q 895.54 414.16 895.67 415.11
  Q 895.70 415.29 895.75 415.48
  Q 895.98 416.36 896.10 415.45
  L 896.71 410.74
  Q 896.77 410.34 897.05 410.05
  Q 897.53 409.56 897.40 408.85
  Q 897.10 407.25 897.40 405.74
  Q 897.49 405.24 897.98 405.09
  Q 898.93 404.79 899.13 403.76
  Q 899.25 403.14 899.86 403.33
  Q 901.29 403.80 902.60 404.34
  Q 902.81 404.42 903.03 404.37
  Q 903.45 404.26 903.75 404.57
  Q 905.13 405.97 907.05 405.93
  A 0.20 0.19 -79.8 0 1 907.23 406.20
  Q 907.13 406.47 906.91 406.38
  Q 906.78 406.32 906.80 406.46
  Q 906.84 406.81 907.06 407.13
  Q 907.40 407.62 907.60 407.05
  Q 908.01 405.86 908.90 404.89
  Q 909.28 404.47 909.82 404.60
  Q 911.61 405.02 912.57 403.58
  Q 912.85 403.16 913.36 403.20
  L 917.18 403.52
  Q 917.50 403.55 917.71 403.31
  Q 917.81 403.19 917.98 403.16
  Q 918.31 403.09 918.57 403.30
  Q 918.81 403.49 918.92 403.76
  Q 919.26 404.52 919.09 403.70
  Q 919.04 403.44 919.25 403.23
  A 0.31 0.31 0.0 0 1 919.74 403.29
  L 920.09 403.90
  Q 920.50 404.59 920.88 403.77
  Q 920.95 403.61 921.08 403.50
  Q 921.26 403.34 921.50 403.37
  L 924.36 403.75
  A 1.12 1.11 -58.1 0 0 925.15 403.56
  Q 925.78 403.10 926.52 403.19
  Q 927.24 403.27 927.98 403.17
  Q 929.25 403.00 930.50 402.87
  Q 930.84 402.49 931.29 402.65
  Q 931.71 402.81 932.11 402.63
  Q 933.13 402.16 934.14 402.07
  Q 934.95 402.00 934.89 401.19
  Q 934.84 400.37 935.13 399.55
  A 0.58 0.57 -81.2 0 1 935.66 399.16
  Q 936.34 399.13 936.82 398.65
  Q 937.24 398.22 937.77 398.53
  Q 938.25 398.80 938.65 398.41
  Q 939.17 397.91 938.48 398.13
  Q 937.87 398.31 937.38 398.05
  Q 936.80 397.74 937.37 397.41
  Q 937.92 397.10 938.55 397.38
  Q 939.02 397.60 939.15 397.10
  Q 939.37 396.27 940.12 395.66
  Q 940.53 395.31 941.04 395.51
  Q 941.72 395.78 942.39 395.59
  Q 942.88 395.46 942.88 394.95
  L 942.88 388.00
  Q 942.88 385.95 944.16 387.43
  Q 945.17 388.61 947.29 388.08
  Q 948.05 389.50 949.51 389.67
  A 0.52 0.52 0.0 0 0 950.01 388.87
  Q 945.82 382.34 940.22 376.82
  Q 940.09 375.67 939.54 374.78
  Q 939.36 374.48 939.42 374.16
  Q 939.45 374.00 939.60 373.96
  Q 940.11 373.79 940.05 373.26
  Q 939.54 368.69 939.67 364.12
  Q 939.78 360.51 940.56 355.73
  Q 940.97 353.26 941.74 351.23
  Q 941.88 350.84 941.47 350.88
  Q 941.20 350.91 941.01 350.73
  Q 940.69 350.43 941.02 350.15
  Q 941.26 349.95 941.36 349.43
  Q 943.01 350.32 944.63 350.38
  Q 945.15 350.40 945.05 349.88
  Q 944.73 348.20 943.49 346.54
  Q 943.96 346.34 944.29 346.42
  Q 944.49 346.47 944.57 346.65
  Q 944.69 346.91 944.51 347.10
  A 0.04 0.04 0.0 0 0 944.55 347.16
  Q 945.21 346.88 945.08 346.24
  Q 945.02 345.93 945.03 345.62
  Q 945.10 342.56 943.17 340.16
  Q 942.87 339.78 942.82 339.29
  C 942.75 338.61 942.13 338.11 941.75 337.51
  Q 939.18 333.38 936.84 329.13
  Q 935.98 327.56 935.01 325.95
  Q 934.01 324.28 933.72 322.23
  Q 933.55 321.01 932.56 320.19
  Q 932.32 319.99 932.20 319.71
  Q 931.28 317.38 931.54 315.11
  Q 931.60 314.52 931.22 314.07
  L 927.23 309.36
  Q 927.06 309.16 927.10 308.89
  Q 927.13 308.75 927.07 308.62
  Q 927.01 308.49 926.89 308.40
  C 922.87 305.69 919.25 302.42 915.18 299.81
  Q 903.45 292.29 891.72 287.68
  Q 862.18 276.09 827.82 276.37
  Q 814.05 276.48 797.26 281.00
  Q 796.78 281.13 796.29 281.04
  L 793.75 280.56
  Q 793.41 280.49 793.36 280.15
  Q 793.34 280.01 793.38 279.88
  Q 793.51 279.44 793.19 279.76
  Q 793.02 279.93 792.78 279.88
  Q 792.44 279.81 792.39 279.47
  Q 792.30 278.80 791.69 278.48
  Q 791.26 278.25 791.02 277.81
  Q 789.94 275.84 789.70 273.62
  Q 789.66 273.25 789.43 272.97
  Q 788.19 271.45 787.69 269.72
  Q 786.70 266.34 784.81 263.48
  A 1.44 1.42 32.6 0 1 784.60 262.55
  Q 784.76 261.25 784.33 259.96
  Q 784.17 259.50 784.23 259.01
  Q 784.38 257.66 783.61 256.47
  Q 783.33 256.02 783.31 255.51
  Q 783.30 255.23 783.52 255.04
  Q 783.85 254.77 783.74 254.35
  Q 783.29 252.52 783.01 250.65
  Q 782.78 249.05 782.18 247.37
  Q 781.54 245.57 781.09 243.83
  C 780.56 241.80 779.12 240.05 779.34 237.86
  Q 779.51 236.17 780.32 234.19
  Q 780.73 233.21 781.65 232.83
  Q 782.50 232.48 783.39 232.26
  Q 783.92 232.13 784.27 231.70
  Q 785.06 230.71 785.93 230.44
  Q 790.61 228.97 795.57 228.03
  C 796.83 227.79 798.02 227.12 799.33 226.87
  Q 803.50 226.08 807.63 225.04
  Q 811.23 224.14 816.26 223.46
  Q 821.90 222.71 826.73 222.29
  Q 830.05 222.00 834.23 222.54
  Q 835.83 222.75 837.29 222.39
  Q 838.77 222.04 840.26 221.84
  A 1.19 1.18 58.8 0 1 841.10 222.05
  Q 841.97 222.68 843.13 222.62
  Q 843.59 222.60 843.60 222.14
  Q 843.61 221.63 843.11 221.51
  Q 843.06 221.50 843.02 221.53
  Q 842.91 221.60 842.96 221.48
  Q 843.63 219.68 843.55 218.75
  Z"
/>
<path fill="#eaaa9e" d="
  M 1043.96 279.83
  C 1035.14 279.77 1026.63 274.62 1021.50 267.56
  Q 1009.93 251.60 1011.62 232.54
  Q 1011.85 229.97 1012.93 226.99
  C 1013.37 225.77 1014.41 225.22 1015.64 225.08
  C 1029.10 223.46 1043.51 229.55 1052.49 239.45
  C 1058.56 246.13 1063.99 255.56 1061.99 264.57
  Q 1061.06 268.77 1058.05 271.78
  C 1054.38 275.47 1049.36 279.87 1043.96 279.83
  Z"
/>
<path fill="#eaaa9e" d="
  M 643.94 265.70
  Q 637.07 277.17 622.07 281.62
  C 619.80 282.29 617.14 282.76 614.97 281.46
  C 610.51 278.79 604.37 272.64 603.32 267.01
  Q 601.94 259.67 605.11 253.19
  Q 610.41 242.36 619.14 236.20
  Q 629.65 228.78 642.22 226.39
  Q 644.37 225.98 646.93 226.31
  C 648.68 226.54 649.43 228.18 649.81 229.70
  Q 652.58 240.55 650.90 248.86
  Q 649.31 256.73 643.94 265.70
  Z"
/>
<path fill="#eaaa9e" d="
  M 1131.98 237.98
  C 1132.11 247.59 1127.85 261.04 1120.82 268.66
  C 1115.02 274.95 1105.23 282.21 1096.34 284.14
  A 1.94 1.92 -39.8 0 1 1095.27 284.05
  Q 1092.74 283.05 1090.66 281.26
  Q 1083.74 275.30 1076.23 268.62
  Q 1074.98 267.51 1075.20 265.96
  C 1076.22 258.69 1079.00 252.26 1084.29 246.82
  C 1094.66 236.19 1110.37 230.01 1125.08 231.73
  C 1129.01 232.18 1131.92 233.45 1131.98 237.98
  Z"
/>
<path fill="#eaaa9e" d="
  M 574.00 290.62
  C 553.19 292.05 538.05 273.20 532.94 255.17
  Q 531.83 251.28 532.07 247.31
  C 532.31 243.24 537.30 241.85 540.54 241.41
  C 554.01 239.61 567.43 243.99 578.57 252.02
  Q 585.92 257.31 588.99 267.64
  C 590.12 271.46 587.22 274.72 584.81 277.28
  C 581.44 280.86 578.52 285.18 576.08 289.37
  Q 575.41 290.52 574.00 290.62
  Z"
/>
<path fill="#e9ab45" d="
  M 1053.49 291.97
  C 1053.86 284.83 1061.12 278.90 1067.03 275.98
  C 1072.78 273.14 1080.73 280.77 1083.71 285.13
  C 1085.93 288.38 1084.51 293.31 1083.12 296.63
  C 1081.12 301.41 1072.97 305.73 1068.48 307.56
  A 2.77 2.77 0.0 0 1 1066.38 307.56
  C 1061.24 305.46 1053.19 297.88 1053.49 291.97
  Z"
/>
<path fill="#e9ab45" d="
  M 613.10 291.57
  C 612.20 296.78 606.73 308.97 600.94 309.43
  Q 599.35 309.55 597.77 309.06
  C 593.40 307.69 584.55 304.21 583.00 299.94
  C 580.91 294.20 582.21 289.81 586.41 285.64
  Q 590.65 281.43 595.17 279.22
  Q 596.89 278.38 598.64 279.36
  Q 604.78 282.77 611.58 288.57
  C 612.48 289.34 613.34 290.22 613.10 291.57
  Z"
/>
<path fill="#e8b4bf" d="
  M 627.40 332.57
  C 619.26 329.46 608.53 320.11 613.08 310.27
  C 615.69 304.61 619.48 299.25 622.51 293.53
  Q 623.67 291.36 626.12 291.04
  C 639.71 289.27 653.53 294.41 661.54 305.51
  Q 667.37 313.60 668.21 322.00
  C 668.73 327.27 666.24 335.28 660.42 337.12
  Q 657.21 338.13 652.75 337.80
  Q 638.31 336.73 627.40 332.57
  Z"
/>
<path fill="#eaaa9e" d="
  M 1056.71 315.49
  C 1052.67 325.02 1047.48 332.48 1038.73 337.69
  C 1029.79 343.02 1019.00 346.43 1008.50 346.59
  C 1006.80 346.62 1005.09 346.04 1004.34 344.36
  C 999.12 332.65 1000.36 319.22 1008.17 308.96
  Q 1018.42 295.49 1035.72 292.76
  C 1043.16 291.59 1046.61 295.25 1050.06 300.83
  Q 1053.94 307.09 1056.66 312.82
  Q 1057.29 314.13 1056.71 315.49
  Z"
/>
<path fill="#8ad6cc" d="
  M 906.92 320.45
  Q 907.76 327.47 901.31 327.27
  Q 898.60 327.18 901.02 328.39
  Q 901.16 328.46 902.31 329.16
  Q 902.41 330.24 899.76 329.49
  Q 875.03 322.45 847.58 318.73
  Q 836.37 317.22 826.95 317.55
  Q 806.59 318.27 785.09 323.24
  Q 761.37 328.72 739.89 344.11
  C 733.95 348.36 729.11 353.69 723.44 358.14
  Q 721.67 359.53 722.42 357.41
  Q 723.37 354.73 724.21 352.25
  Q 726.83 344.47 732.57 338.49
  Q 746.48 324.04 763.51 314.87
  Q 776.98 307.62 795.70 304.20
  Q 813.17 301.01 830.19 300.89
  Q 839.99 300.82 849.74 302.18
  Q 877.76 306.10 904.71 318.16
  Q 907.87 319.57 906.92 320.45
  Z"
/>
<path fill="#eaaa9e" d="
  M 1100.25 360.19
  C 1084.50 352.97 1072.16 342.76 1068.87 324.91
  Q 1067.86 319.41 1071.31 315.56
  C 1076.49 309.77 1086.46 303.02 1094.48 305.34
  C 1100.92 307.21 1106.52 311.51 1110.47 316.81
  Q 1121.39 331.46 1119.26 351.07
  C 1118.64 356.78 1116.79 365.61 1109.07 363.47
  Q 1104.82 362.28 1100.25 360.19
  Z"
/>
<path fill="#eaaa9e" d="
  M 597.74 338.55
  Q 592.46 352.77 580.52 359.22
  Q 567.89 366.04 556.34 367.95
  Q 554.72 368.22 553.12 367.57
  Q 552.61 367.36 552.45 366.83
  Q 551.90 365.01 551.69 363.08
  C 549.42 342.39 553.85 320.26 573.22 309.19
  C 577.39 306.80 581.30 308.74 584.95 310.90
  Q 590.15 313.98 595.91 317.06
  C 605.08 321.97 600.48 331.20 597.74 338.55
  Z"
/>
<path fill="#8ad6cc" d="
  M 927.94 333.15
  Q 929.77 333.95 930.35 334.40
  Q 937.53 339.89 943.49 346.54
  Q 944.73 348.20 945.05 349.88
  Q 945.15 350.40 944.63 350.38
  Q 943.01 350.32 941.36 349.43
  L 915.01 334.92
  Q 918.19 335.43 920.75 335.96
  C 922.22 336.26 923.84 334.76 925.09 334.31
  Q 926.54 333.79 927.94 333.15
  Z"
/>
<path fill="#8ad6cc" d="
  M 899.11 354.78
  Q 900.53 356.04 904.01 357.68
  Q 905.80 358.53 908.37 360.72
  Q 909.52 361.71 911.07 364.24
  Q 912.62 366.77 915.38 368.97
  Q 890.79 359.67 865.26 355.68
  Q 842.54 352.14 818.20 353.98
  Q 786.04 356.40 758.45 370.61
  Q 751.61 374.13 743.96 379.29
  Q 736.80 384.12 730.01 388.91
  Q 728.67 389.85 729.71 388.60
  Q 739.96 376.23 752.68 367.61
  C 764.93 359.33 777.59 352.51 792.01 349.36
  C 809.43 345.56 826.52 344.46 844.34 344.78
  Q 853.38 344.95 861.64 346.29
  Q 880.71 349.39 899.11 354.78
  Z"
/>
<path fill="#a2f1e8" d="
  M 462.43 354.58
  Q 491.59 369.87 511.55 393.94
  Q 519.80 403.89 527.25 415.04
  Q 536.81 429.34 543.07 449.13
  Q 545.66 457.34 547.12 469.82
  Q 549.44 489.69 546.83 510.98
  Q 544.66 528.67 541.96 541.56
  Q 541.16 545.36 539.51 548.41
  Q 538.91 549.51 538.60 548.30
  Q 531.80 521.67 519.94 496.77
  Q 514.44 485.24 501.32 468.66
  Q 486.90 450.43 468.65 435.36
  Q 462.17 430.02 455.38 424.40
  C 453.14 422.55 450.99 420.32 449.97 417.48
  Q 446.88 408.92 445.50 397.25
  C 443.76 382.63 442.12 367.56 442.85 352.87
  Q 442.94 351.25 443.36 349.68
  A 1.12 1.10 -82.9 0 1 444.40 348.86
  C 450.46 348.72 456.83 351.65 462.43 354.58
  Z
  M 495.87 406.07
  Q 496.89 406.63 497.25 406.62
  Q 498.01 406.62 497.99 405.64
  L 499.14 404.39
  L 498.13 406.37
  Q 497.98 406.67 497.64 406.67
  Q 497.50 406.67 497.37 406.64
  Q 496.42 406.42 497.11 407.11
  Q 497.92 407.92 498.52 408.77
  Q 500.59 410.65 502.23 408.69
  Q 502.54 408.31 503.02 408.19
  L 507.54 407.07
  Q 510.45 410.25 512.96 413.76
  Q 513.03 413.87 513.14 413.79
  L 513.15 413.79
  Q 513.20 413.75 513.17 413.70
  Q 511.73 411.15 509.89 409.08
  Q 506.27 405.02 500.46 399.86
  C 494.84 394.87 486.30 388.59 479.09 393.24
  A 0.85 0.85 0.0 0 0 479.07 394.66
  L 495.87 406.07
  Z
  M 519.1300 423.6925
  A 0.53 0.53 0.0 0 0 518.3903 423.5714
  L 518.3253 423.6181
  A 0.53 0.53 0.0 0 0 518.2042 424.3578
  L 520.4100 427.4275
  A 0.53 0.53 0.0 0 0 521.1497 427.5486
  L 521.2147 427.5019
  A 0.53 0.53 0.0 0 0 521.3358 426.7622
  L 519.1300 423.6925
  Z"
/>
<path fill="#4a9f9c" d="
  M 1111.13 551.35
  Q 1108.76 557.86 1106.37 565.12
  Q 1105.81 566.82 1104.93 565.26
  Q 1104.60 564.67 1104.43 564.00
  Q 1098.10 538.71 1098.78 513.69
  C 1099.40 490.64 1106.33 468.03 1117.76 448.16
  Q 1125.14 435.33 1136.88 423.74
  Q 1151.85 408.97 1167.68 397.62
  Q 1183.25 386.47 1202.85 379.27
  Q 1207.52 377.55 1212.50 376.79
  A 1.37 1.37 0.0 0 1 1214.08 378.13
  C 1214.17 394.80 1211.45 411.64 1206.88 429.02
  Q 1204.24 439.07 1202.22 448.39
  A 2.60 2.60 0.0 0 1 1200.94 450.11
  C 1184.56 459.20 1169.66 470.03 1156.51 483.42
  C 1142.76 497.43 1130.67 510.94 1122.13 527.60
  Q 1114.05 543.35 1111.13 551.35
  Z
  M 1155.33 428.54
  Q 1151.83 430.84 1148.15 434.21
  Q 1146.66 435.58 1145.19 436.87
  Q 1142.50 439.26 1139.85 441.60
  Q 1135.52 445.43 1134.72 451.23
  A 0.45 0.45 0.0 0 0 1135.37 451.69
  C 1140.82 448.85 1144.60 444.54 1148.88 440.30
  C 1153.68 435.53 1159.44 431.62 1164.77 427.73
  Q 1167.87 425.46 1170.13 423.13
  A 0.82 0.82 0.0 0 0 1169.63 421.74
  Q 1167.06 421.45 1165.03 422.59
  Q 1160.58 425.09 1155.33 428.54
  Z"
/>
<path fill="#f0b59a" d="
  M 1064.39 404.17
  C 1058.25 408.94 1055.42 417.15 1053.16 424.64
  Q 1052.67 426.27 1051.92 424.74
  C 1047.37 415.45 1039.42 410.54 1030.42 406.08
  Q 1029.70 405.73 1030.44 405.44
  C 1043.52 400.27 1048.63 390.30 1051.97 377.54
  Q 1052.22 376.58 1052.59 377.50
  C 1055.08 383.61 1058.37 389.54 1063.76 393.27
  Q 1068.22 396.35 1072.97 398.55
  Q 1073.69 398.89 1072.99 399.26
  C 1070.12 400.80 1066.97 402.16 1064.39 404.17
  Z"
/>
<path fill="#f0b59a" d="
  M 618.89 425.87
  Q 617.28 429.24 615.69 432.53
  A 0.48 0.48 0.0 0 1 614.86 432.59
  C 610.21 425.57 605.34 419.33 597.90 415.83
  Q 594.15 414.06 590.51 412.32
  Q 589.67 411.91 590.47 411.45
  C 598.16 406.98 604.48 400.15 608.67 392.41
  C 610.54 388.94 611.33 384.97 612.91 381.37
  A 0.48 0.48 0.0 0 1 613.75 381.31
  C 615.91 384.72 617.02 388.42 619.40 391.65
  C 622.50 395.86 626.53 399.68 631.29 402.01
  Q 634.43 403.55 637.32 405.49
  Q 638.30 406.16 637.37 406.89
  C 634.57 409.11 631.34 410.68 628.60 413.02
  Q 622.56 418.16 618.89 425.87
  Z"
/>
<path fill="#8ad6cc" d="
  M 676.86 546.23
  Q 663.09 561.75 654.56 575.58
  Q 649.86 583.22 646.98 591.53
  Q 646.44 593.10 645.54 591.70
  C 644.13 589.53 646.34 583.48 647.26 581.03
  C 657.50 553.79 671.20 526.52 689.62 504.08
  C 694.71 497.87 699.63 491.81 705.14 486.03
  Q 719.78 470.68 735.92 457.54
  Q 759.17 438.62 786.10 420.50
  C 794.44 414.89 803.90 409.06 812.93 404.52
  C 822.96 399.47 833.51 394.76 844.51 392.31
  Q 849.56 391.18 854.81 391.55
  A 0.42 0.42 0.0 0 1 855.09 392.25
  Q 848.16 399.87 839.46 408.27
  C 820.12 426.97 799.08 444.56 777.30 461.28
  C 757.62 476.37 738.25 490.79 719.20 505.86
  Q 711.39 512.05 704.11 518.91
  Q 685.73 536.23 676.86 546.23
  Z"
/>
<path fill="#4c9aa2" d="
  M 501.91 406.65
  Q 500.90 408.80 498.52 408.77
  Q 497.92 407.92 497.11 407.11
  Q 496.42 406.42 497.37 406.64
  Q 497.50 406.67 497.64 406.67
  Q 497.98 406.67 498.13 406.37
  L 499.14 404.39
  Q 500.65 403.97 503.75 405.38
  Q 504.01 405.50 504.17 405.72
  Q 504.48 406.16 503.95 406.04
  L 503.03 405.82
  A 0.02 0.01 47.4 0 1 503.03 405.79
  Q 503.35 405.75 503.55 405.99
  Q 503.98 406.49 503.33 406.40
  Q 502.17 406.25 501.91 406.65
  Z"
/>
<path fill="#4c9aa2" d="
  M 497.99 405.64
  Q 498.01 406.62 497.25 406.62
  Q 496.89 406.63 495.87 406.07
  L 497.99 405.64
  Z"
/>
<path fill="#8ad6cc" d="
  M 501.91 406.65
  Q 505.36 406.36 507.54 407.07
  L 503.02 408.19
  Q 502.54 408.31 502.23 408.69
  Q 500.59 410.65 498.52 408.77
  Q 500.90 408.80 501.91 406.65
  Z"
/>
<path fill="#8ad6cc" d="
  M 890.35 409.42
  L 892.08 417.07
  Q 894.88 425.17 896.80 429.21
  Q 900.26 436.48 906.40 445.76
  Q 918.79 464.49 934.19 480.41
  Q 951.88 498.70 974.92 518.53
  Q 976.93 520.26 983.74 527.25
  C 993.49 537.27 1003.44 546.16 1011.43 557.42
  Q 1016.55 564.64 1019.08 570.55
  C 1021.95 577.27 1022.78 583.65 1022.64 590.93
  Q 1022.46 600.34 1022.35 610.54
  Q 1022.33 612.99 1021.95 615.66
  Q 1021.59 618.24 1021.12 620.96
  Q 1020.30 625.77 1018.29 623.34
  Q 1016.69 611.59 1015.27 607.48
  C 1008.28 587.30 992.70 571.44 975.09 559.70
  Q 965.32 553.18 955.48 546.71
  C 946.03 540.50 936.98 533.41 928.59 526.24
  Q 914.25 513.98 902.56 497.60
  Q 893.43 484.82 888.83 476.16
  Q 883.12 465.44 879.07 448.89
  Q 882.37 438.51 886.42 426.75
  Q 888.87 419.64 890.35 409.42
  Z"
/>
<path fill="#4a9f9c" d="
  M 505.29 526.04
  Q 488.96 509.91 466.59 496.94
  Q 451.99 488.48 440.92 484.79
  C 432.32 481.93 422.76 480.71 413.79 478.85
  Q 412.22 478.52 412.77 480.03
  Q 413.02 480.72 414.08 481.93
  C 420.48 489.30 427.10 494.52 436.43 500.31
  Q 447.41 507.11 458.15 514.34
  Q 458.20 514.38 471.40 523.07
  Q 477.45 527.05 486.29 533.23
  Q 509.54 549.47 524.17 573.11
  Q 530.90 589.34 534.66 607.48
  Q 535.03 609.28 534.97 611.04
  Q 534.92 612.53 533.66 611.74
  Q 518.15 601.96 500.27 594.40
  Q 489.68 589.92 478.03 584.71
  Q 448.94 571.72 425.87 549.39
  C 409.68 533.71 398.68 513.55 391.67 492.24
  Q 388.77 483.41 387.02 472.71
  Q 383.52 451.43 384.00 430.69
  Q 384.14 424.80 384.89 418.64
  Q 385.03 417.51 386.15 417.69
  C 390.06 418.30 393.70 419.52 397.41 420.74
  Q 431.62 432.00 457.90 454.26
  Q 465.42 460.63 471.97 468.31
  Q 487.70 486.73 497.61 507.46
  Q 501.11 514.78 505.29 526.04
  Z"
/>
<path fill="#8ad6cc" d="
  M 1155.33 428.54
  Q 1160.58 425.09 1165.03 422.59
  Q 1167.06 421.45 1169.63 421.74
  A 0.82 0.82 0.0 0 1 1170.13 423.13
  Q 1167.87 425.46 1164.77 427.73
  C 1159.44 431.62 1153.68 435.53 1148.88 440.30
  C 1144.60 444.54 1140.82 448.85 1135.37 451.69
  A 0.45 0.45 0.0 0 1 1134.72 451.23
  Q 1135.52 445.43 1139.85 441.60
  Q 1142.50 439.26 1145.19 436.87
  Q 1146.66 435.58 1148.15 434.21
  Q 1151.83 430.84 1155.33 428.54
  Z"
/>
<path fill="#489199" d="
  M 879.07 448.89
  Q 883.12 465.44 888.83 476.16
  Q 893.43 484.82 902.56 497.60
  Q 914.25 513.98 928.59 526.24
  C 936.98 533.41 946.03 540.50 955.48 546.71
  Q 965.32 553.18 975.09 559.70
  C 992.70 571.44 1008.28 587.30 1015.27 607.48
  Q 1016.69 611.59 1018.29 623.34
  C 1017.94 624.81 1018.65 626.10 1018.55 627.55
  Q 1018.12 633.77 1019.44 639.87
  Q 1016.59 650.84 1011.13 661.93
  Q 1004.38 675.66 993.45 686.45
  C 983.96 695.82 974.62 703.67 962.77 709.69
  Q 954.11 714.08 946.14 717.49
  Q 944.90 718.02 943.47 718.12
  Q 942.63 718.18 943.15 717.51
  Q 945.98 713.91 949.15 710.00
  Q 953.86 704.20 959.97 692.59
  C 969.04 675.37 970.46 657.40 966.73 637.76
  C 964.19 624.42 956.65 613.21 945.95 605.31
  C 934.01 596.48 920.74 590.07 907.71 582.62
  Q 887.78 571.23 870.91 552.61
  Q 856.51 536.73 847.98 515.09
  Q 847.10 512.87 846.44 510.31
  C 845.87 508.09 847.00 505.99 848.24 504.26
  Q 851.09 500.30 853.99 495.23
  Q 860.95 483.06 867.59 472.05
  Q 873.60 462.07 879.07 448.89
  Z"
/>
<path fill="#a2f1e8" d="
  M 1225.69 510.41
  Q 1223.83 509.14 1221.65 509.52
  Q 1210.39 511.50 1198.43 513.86
  Q 1177.54 518.00 1159.36 528.19
  C 1154.10 531.14 1149.07 535.26 1143.98 538.72
  Q 1143.10 539.31 1143.59 538.37
  C 1149.31 527.32 1157.14 516.70 1164.71 506.86
  Q 1175.91 492.32 1190.67 482.11
  Q 1199.74 475.84 1210.52 469.58
  Q 1216.96 465.85 1223.40 463.27
  Q 1240.62 456.39 1257.44 452.44
  C 1258.78 452.12 1260.44 452.10 1261.82 452.02
  A 1.07 1.07 0.0 0 1 1262.94 452.96
  Q 1263.16 454.82 1263.18 456.62
  Q 1263.40 485.89 1252.98 514.77
  C 1249.66 523.95 1245.07 532.46 1240.12 540.83
  C 1225.99 564.72 1203.20 583.51 1178.06 594.03
  C 1173.73 595.84 1169.46 597.77 1165.13 599.38
  Q 1144.79 606.94 1126.60 613.76
  Q 1115.93 617.76 1108.57 622.33
  Q 1107.43 623.03 1106.05 623.19
  A 0.38 0.38 0.0 0 1 1105.64 622.72
  Q 1107.84 613.89 1110.80 605.14
  C 1118.49 582.38 1136.88 562.35 1156.87 550.22
  Q 1164.65 545.50 1173.83 540.84
  C 1185.62 534.85 1198.47 530.72 1209.81 524.03
  Q 1216.40 520.14 1222.36 515.94
  Q 1224.60 514.36 1226.04 512.14
  A 1.26 1.25 -56.5 0 0 1225.69 510.41
  Z"
/>
<path fill="#8ad6cc" d="
  M 505.29 526.04
  Q 516.51 547.85 524.17 573.11
  Q 509.54 549.47 486.29 533.23
  Q 477.45 527.05 471.40 523.07
  Q 458.20 514.38 458.15 514.34
  Q 447.41 507.11 436.43 500.31
  C 427.10 494.52 420.48 489.30 414.08 481.93
  Q 413.02 480.72 412.77 480.03
  Q 412.22 478.52 413.79 478.85
  C 422.76 480.71 432.32 481.93 440.92 484.79
  Q 451.99 488.48 466.59 496.94
  Q 488.96 509.91 505.29 526.04
  Z"
/>
<path fill="#e8b4bf" d="
  M 328.99 590.79
  C 331.82 574.96 349.46 566.14 363.38 562.58
  A 1.58 1.57 -17.5 0 1 365.24 563.54
  Q 365.82 565.01 366.05 566.50
  Q 368.38 581.40 363.52 593.03
  C 359.56 602.50 346.59 609.30 337.57 611.42
  C 332.26 612.67 328.69 605.67 328.36 601.46
  Q 327.97 596.50 328.99 590.79
  Z"
/>
<path fill="#e8b4bf" d="
  M 288.20 566.23
  C 300.39 569.11 311.63 575.20 316.83 586.14
  C 320.23 593.30 321.76 603.68 314.28 608.65
  C 310.45 611.20 306.38 612.98 301.97 611.28
  Q 290.19 606.76 283.06 595.18
  C 279.13 588.80 276.33 581.52 276.54 573.98
  C 276.75 566.09 281.26 564.60 288.20 566.23
  Z"
/>
<path fill="#e8b4bf" d="
  M 1352.38 595.93
  C 1350.62 611.39 1339.88 621.37 1324.50 623.76
  C 1319.96 624.47 1315.70 620.02 1314.51 616.18
  Q 1313.44 612.70 1314.54 607.61
  C 1318.26 590.44 1333.15 579.87 1349.99 577.39
  Q 1352.13 577.07 1352.35 579.35
  Q 1353.24 588.31 1352.38 595.93
  Z"
/>
<path fill="#e8b4bf" d="
  M 1276.47 581.05
  C 1290.52 586.98 1305.81 597.20 1303.88 614.36
  Q 1302.88 623.21 1293.71 623.38
  Q 1288.75 623.47 1281.73 620.81
  Q 1277.27 619.13 1273.65 614.88
  Q 1263.56 603.08 1264.34 587.01
  Q 1264.47 584.24 1265.46 581.49
  A 2.98 2.98 0.0 0 1 1268.20 579.53
  Q 1272.68 579.45 1276.47 581.05
  Z"
/>
<path fill="#e9ab45" d="
  M 323.07 613.42
  C 326.91 612.59 332.82 616.51 334.64 619.14
  C 337.46 623.22 339.76 630.24 337.83 635.21
  C 336.46 638.75 331.00 643.05 327.30 643.86
  Q 325.52 644.25 323.66 643.91
  Q 310.61 641.54 309.09 628.28
  C 308.27 621.11 317.08 614.72 323.07 613.42
  Z"
/>
<path fill="#60b6ae" d="
  M 352.49 617.15
  C 367.38 609.73 389.31 616.60 400.85 627.54
  Q 401.85 628.49 400.80 629.38
  Q 400.32 629.78 399.76 630.06
  Q 387.98 635.90 373.88 639.64
  C 365.57 641.84 358.07 640.71 350.78 636.33
  C 348.60 635.02 346.87 633.50 346.64 630.72
  Q 346.35 627.27 343.77 624.08
  A 1.40 1.39 53.3 0 1 344.06 622.06
  Q 347.84 619.47 352.49 617.15
  Z"
/>
<path fill="#60b6ae" d="
  M 277.25 643.96
  C 268.11 642.20 258.51 638.71 250.78 633.77
  Q 249.21 632.77 247.93 631.22
  Q 247.54 630.74 247.96 630.29
  Q 248.84 629.32 249.91 628.59
  Q 260.29 621.57 271.03 617.57
  C 280.22 614.15 291.72 615.15 299.58 621.43
  Q 301.02 622.57 300.90 624.56
  Q 300.65 628.97 300.77 633.65
  A 2.13 2.12 72.4 0 1 299.83 635.47
  Q 295.05 638.66 290.69 641.61
  Q 285.00 645.45 277.25 643.96
  Z"
/>
<path fill="#e9ab45" d="
  M 1295.07 633.03
  C 1296.67 629.53 1299.64 627.97 1303.08 626.82
  C 1306.40 625.71 1309.45 625.65 1312.45 627.71
  Q 1320.42 633.20 1317.90 643.09
  C 1317.18 645.91 1316.56 648.77 1314.28 650.84
  C 1309.18 655.47 1302.84 654.53 1297.13 651.73
  C 1294.94 650.65 1294.62 648.35 1294.09 646.27
  Q 1292.26 639.13 1295.07 633.03
  Z"
/>
<path fill="#e8b4bf" d="
  M 1367.82 634.66
  Q 1376.22 638.44 1380.95 642.40
  Q 1381.46 642.82 1381.10 643.38
  C 1376.97 649.71 1363.32 654.00 1355.88 655.38
  Q 1347.31 656.96 1340.82 654.51
  Q 1332.41 651.34 1327.23 647.35
  C 1324.65 645.36 1325.19 640.32 1325.12 637.24
  A 2.53 2.53 0.0 0 1 1326.65 634.87
  Q 1333.51 631.90 1339.58 629.71
  C 1348.30 626.57 1358.99 630.69 1367.82 634.66
  Z"
/>
<path fill="#60b6ae" d="
  M 1260.72 656.34
  C 1251.28 654.58 1241.27 650.59 1233.54 644.87
  A 1.01 1.00 44.0 0 1 1233.51 643.28
  Q 1246.96 632.39 1264.73 629.63
  C 1271.25 628.62 1279.19 631.03 1285.75 632.96
  A 0.75 0.75 0.0 0 1 1286.27 633.80
  Q 1285.52 638.01 1285.85 641.78
  Q 1286.04 643.90 1284.22 645.70
  C 1280.24 649.64 1275.79 652.87 1270.98 655.22
  Q 1266.49 657.41 1260.72 656.34
  Z"
/>
<path fill="#2d3737" d="
  M 755.34 663.38
  Q 753.76 663.71 754.00 665.31
  Q 754.50 668.57 755.82 671.68
  C 756.90 674.20 755.85 676.88 753.32 678.05
  C 749.93 679.62 743.28 682.47 739.69 680.58
  Q 739.18 680.32 738.98 679.78
  C 737.75 676.45 738.85 671.14 739.40 667.67
  A 1.37 1.37 0.0 0 0 738.45 666.15
  Q 732.40 664.25 726.34 661.87
  Q 724.73 661.24 722.97 660.99
  A 2.68 2.67 19.8 0 0 720.29 662.25
  Q 717.04 667.57 713.91 672.64
  Q 712.37 675.13 709.73 676.36
  Q 709.25 676.58 708.75 676.45
  C 704.76 675.43 701.56 671.77 699.42 668.42
  Q 699.15 668.00 699.26 667.52
  Q 699.56 666.31 700.33 665.33
  Q 703.54 661.27 706.74 657.25
  C 708.52 655.01 708.97 651.70 711.06 649.86
  Q 715.47 645.98 720.65 646.78
  C 723.35 647.19 725.87 648.58 728.49 649.41
  Q 735.77 651.72 745.27 652.07
  C 760.78 652.65 772.05 643.92 783.34 634.75
  Q 786.77 631.97 789.76 634.87
  Q 792.92 637.94 795.15 641.31
  Q 795.83 642.35 795.24 643.52
  C 794.27 645.42 793.31 647.01 791.12 647.64
  C 788.04 648.52 785.36 649.98 783.70 652.68
  Q 782.41 654.78 780.13 656.16
  A 0.89 0.88 55.7 0 0 779.89 657.45
  C 781.79 659.97 783.59 665.15 778.00 664.86
  Q 773.67 664.64 769.60 662.98
  C 767.99 662.33 766.72 661.32 764.88 661.62
  Q 759.92 662.41 755.34 663.38
  Z"
/>
<path fill="#f0b59a" d="
  M 538.58 641.40
  Q 540.13 637.54 542.88 634.65
  A 0.95 0.95 0.0 0 1 544.41 634.87
  C 545.86 637.67 546.74 640.62 548.49 643.27
  C 551.91 648.43 555.73 651.23 560.63 654.64
  A 0.60 0.60 0.0 0 1 560.58 655.65
  C 556.90 657.75 552.61 658.50 549.87 662.25
  Q 546.63 666.70 543.80 671.40
  Q 543.34 672.16 542.63 672.59
  Q 541.67 673.16 541.18 672.16
  C 539.16 667.99 537.95 664.43 533.79 661.74
  Q 529.66 659.07 525.23 656.60
  A 0.72 0.72 0.0 0 1 525.17 655.38
  C 530.57 651.63 536.06 647.67 538.58 641.40
  Z"
/>
<path fill="#f0b59a" d="
  M 426.36 652.37
  Q 428.93 652.00 430.72 649.71
  Q 432.37 647.59 433.82 645.34
  Q 435.48 642.74 434.28 642.14
  L 439.35 634.98
  Q 439.77 634.39 440.03 635.06
  C 443.43 643.95 448.80 650.81 457.64 654.36
  Q 459.01 654.91 460.05 655.97
  Q 460.57 656.49 459.91 656.82
  Q 456.02 658.77 452.00 660.39
  C 445.10 663.16 443.86 669.13 440.84 675.07
  A 0.52 0.51 -49.6 0 1 439.97 675.14
  Q 438.30 672.90 437.05 670.23
  C 433.81 663.34 426.57 661.44 420.25 658.62
  A 1.55 1.55 0.0 0 1 419.35 656.97
  Q 419.53 655.79 420.86 655.33
  Q 423.79 654.30 426.36 652.37
  Z"
/>
<path fill="#2d3737" d="
  M 874.89 665.57
  C 870.66 668.27 867.62 672.21 861.93 670.91
  Q 860.73 670.63 860.38 669.64
  Q 858.57 664.40 858.20 659.35
  C 858.05 657.21 856.84 655.88 855.26 654.63
  Q 851.19 651.40 846.83 648.18
  C 845.57 647.25 844.61 645.82 844.86 644.18
  C 845.54 639.69 850.08 631.71 855.52 636.35
  C 862.37 642.20 869.79 649.53 878.65 652.12
  Q 896.77 657.42 913.82 650.50
  Q 918.78 648.49 923.62 645.90
  Q 925.34 644.98 927.17 644.61
  Q 927.76 644.49 927.87 645.09
  Q 928.50 648.50 929.04 651.84
  Q 929.59 655.26 932.37 659.55
  Q 936.36 665.72 940.20 670.39
  Q 941.01 671.39 940.18 672.37
  C 937.38 675.71 933.09 677.01 929.16 678.60
  A 0.96 0.95 -26.6 0 1 927.98 678.21
  C 925.22 673.70 919.62 663.89 913.36 664.85
  Q 908.94 665.53 904.52 666.82
  A 3.07 3.06 76.5 0 0 902.37 670.34
  C 903.08 674.08 903.77 677.86 902.91 681.61
  Q 902.68 682.65 901.61 682.69
  Q 894.17 682.96 887.44 680.90
  A 1.22 1.21 7.0 0 1 886.58 679.81
  Q 886.07 672.23 881.19 666.28
  C 879.78 664.55 876.86 664.30 874.89 665.57
  Z"
/>
<path fill="#e8b4bf" d="
  M 434.28 642.14
  Q 435.48 642.74 433.82 645.34
  Q 432.37 647.59 430.72 649.71
  Q 428.93 652.00 426.36 652.37
  C 424.83 652.19 423.71 652.96 422.41 652.98
  Q 420.25 653.00 418.09 652.32
  Q 417.59 652.17 417.31 651.72
  Q 414.46 647.30 415.56 642.56
  C 416.56 638.27 427.68 638.98 429.90 639.62
  Q 430.94 639.91 434.28 642.14
  Z"
/>
<path fill="#e8b4bf" d="
  M 1106.30 651.12
  Q 1110.57 652.79 1114.58 655.33
  C 1117.60 657.25 1117.06 662.25 1115.95 665.04
  Q 1114.87 667.75 1112.66 669.87
  Q 1105.67 676.56 1096.54 681.58
  Q 1092.99 683.53 1089.34 684.35
  Q 1088.90 684.45 1088.51 684.22
  Q 1086.46 683.01 1085.13 681.14
  Q 1077.34 670.23 1074.73 658.96
  Q 1073.59 654.03 1077.21 650.23
  C 1079.60 647.73 1090.18 638.63 1094.21 639.99
  C 1096.50 640.76 1100.29 646.21 1101.86 648.10
  Q 1103.45 650.01 1106.30 651.12
  Z"
/>
<ellipse fill="#e8b4bf" cx="0.00" cy="0.00" transform="translate(1106.76,642.13) rotate(27.7)" rx="2.38" ry="1.55"/>
<path fill="#e8b4bf" d="
  M 354.49 685.38
  C 342.51 680.84 335.16 671.72 331.30 659.62
  C 330.17 656.07 329.18 652.11 332.45 649.31
  Q 336.48 645.85 342.41 643.43
  C 344.64 642.52 346.74 643.65 348.72 644.47
  Q 356.02 647.47 360.29 650.35
  C 367.98 655.53 372.01 666.83 373.14 675.85
  Q 373.99 682.56 373.61 689.06
  A 1.12 1.12 0.0 0 1 372.45 690.11
  C 366.56 689.89 359.95 687.46 354.49 685.38
  Z"
/>
<path fill="#e8b4bf" d="
  M 287.94 664.67
  Q 292.85 651.18 305.67 646.93
  C 310.45 645.34 316.80 647.66 321.10 650.34
  C 322.18 651.01 322.96 652.11 323.02 653.42
  C 323.43 662.74 322.75 670.97 316.14 677.26
  Q 303.72 689.09 285.83 690.74
  A 2.13 2.13 0.0 0 1 283.51 688.62
  Q 283.48 676.93 287.94 664.67
  Z"
/>
<path fill="#f0b59a" d="
  M 1188.14 675.23
  C 1183.68 671.67 1179.12 669.46 1174.03 667.39
  Q 1173.19 667.05 1173.98 666.61
  Q 1176.17 665.39 1178.42 664.20
  C 1183.00 661.78 1187.26 657.75 1190.48 653.81
  C 1192.03 651.93 1193.18 649.62 1194.62 647.57
  Q 1195.93 645.71 1196.54 647.90
  Q 1199.27 657.65 1205.43 662.00
  Q 1209.91 665.17 1215.22 667.92
  A 0.48 0.48 0.0 0 1 1215.27 668.74
  Q 1213.70 669.84 1211.83 670.37
  Q 1206.87 671.78 1204.31 674.33
  C 1201.55 677.06 1197.98 678.89 1194.15 678.34
  Q 1191.57 677.98 1188.14 675.23
  Z"
/>
<path fill="#e8b4bf" d="
  M 1293.78 690.77
  C 1285.62 696.30 1277.18 699.72 1267.82 702.36
  A 1.42 1.41 78.7 0 1 1266.03 701.16
  Q 1265.03 692.67 1266.78 684.25
  C 1269.58 670.80 1273.51 661.19 1287.84 657.75
  C 1292.69 656.59 1299.75 658.55 1304.54 659.76
  Q 1305.26 659.94 1305.09 660.67
  Q 1303.59 667.13 1302.95 674.04
  C 1302.24 681.90 1300.27 686.38 1293.78 690.77
  Z"
/>
<path fill="#e8b4bf" d="
  M 1331.96 696.03
  Q 1321.36 691.63 1314.50 681.81
  Q 1309.53 674.70 1312.29 664.36
  C 1313.20 660.92 1318.83 658.80 1321.82 657.68
  A 4.02 3.99 -44.2 0 1 1324.70 657.71
  C 1335.06 661.84 1342.66 667.94 1345.98 678.89
  Q 1349.03 688.91 1348.48 699.02
  Q 1348.44 699.85 1348.16 700.63
  A 0.77 0.76 -73.7 0 1 1347.27 701.12
  C 1342.00 699.89 1336.87 698.06 1331.96 696.03
  Z"
/>
<path fill="#4c9aa2" d="
  M 250.90 734.87
  C 228.57 731.76 208.41 723.58 190.00 710.83
  Q 184.16 706.79 179.57 702.05
  Q 178.31 700.75 180.11 700.73
  Q 183.21 700.69 186.65 701.35
  Q 201.14 704.11 214.71 705.34
  Q 229.45 706.68 246.49 705.23
  Q 266.44 703.54 287.87 700.32
  C 302.21 698.17 316.28 699.76 329.61 702.44
  Q 337.04 703.93 346.98 707.85
  Q 359.71 712.86 370.66 718.60
  Q 382.23 724.67 395.87 725.25
  Q 405.22 725.65 415.25 721.70
  Q 428.01 716.67 440.23 712.19
  Q 452.84 707.57 468.61 705.74
  C 485.19 703.82 503.91 706.74 518.81 715.38
  C 529.74 721.72 540.64 730.31 545.86 741.48
  Q 546.10 741.99 545.99 742.55
  Q 545.87 743.20 545.22 743.07
  Q 528.10 739.47 513.07 739.56
  Q 485.53 739.71 460.03 751.89
  Q 447.44 757.91 435.94 762.55
  C 420.54 768.77 402.23 773.10 385.63 771.18
  Q 367.75 769.10 351.36 761.70
  Q 339.54 756.36 328.64 750.76
  Q 321.40 747.04 313.01 744.57
  Q 294.69 739.15 271.22 737.21
  Q 262.77 736.52 250.90 734.87
  Z"
/>
<path fill="#4c9aa2" d="
  M 1180.67 771.02
  C 1158.71 759.20 1137.35 748.53 1112.40 747.54
  Q 1095.48 746.87 1078.54 751.96
  Q 1077.02 752.42 1077.10 750.82
  Q 1077.14 749.83 1077.73 749.05
  Q 1082.28 742.96 1089.07 736.23
  C 1099.60 725.80 1115.37 719.50 1129.41 716.50
  Q 1138.10 714.65 1148.92 714.91
  Q 1168.15 715.38 1186.16 722.93
  Q 1194.16 726.28 1203.38 730.66
  Q 1222.19 739.59 1241.45 734.99
  Q 1248.63 733.28 1260.07 727.98
  Q 1269.30 723.70 1278.29 719.82
  Q 1293.26 713.37 1312.71 710.85
  C 1320.86 709.80 1328.54 709.91 1336.84 711.04
  Q 1354.86 713.47 1373.50 715.82
  Q 1407.16 720.05 1438.65 712.56
  Q 1445.40 710.96 1452.03 709.42
  Q 1453.39 709.10 1453.01 710.49
  Q 1452.93 710.78 1452.25 711.52
  Q 1447.90 716.28 1443.14 719.65
  C 1419.30 736.51 1392.26 745.72 1363.25 748.31
  C 1350.51 749.45 1336.65 750.44 1324.69 753.00
  C 1305.32 757.16 1287.02 766.00 1268.67 773.74
  Q 1253.43 780.15 1239.04 782.29
  C 1219.04 785.26 1198.21 780.45 1180.67 771.02
  Z"
/>
<path fill="#e8b4bf" d="
  M 620.81 723.69
  Q 631.10 727.82 629.55 738.85
  C 627.93 750.48 619.97 761.02 610.35 767.36
  C 607.47 769.26 603.67 766.57 601.22 765.03
  C 592.09 759.28 575.32 746.59 578.86 734.24
  Q 580.54 728.35 587.71 727.60
  Q 594.98 726.83 599.48 729.18
  C 605.04 732.08 607.78 723.40 613.11 722.66
  Q 616.93 722.13 620.81 723.69
  Z"
/>
<path fill="#60b6ae" d="
  M 951.33 740.99
  Q 943.03 760.57 925.27 773.43
  Q 914.88 780.96 905.20 787.59
  C 901.13 790.39 896.86 793.87 894.27 797.96
  C 887.84 808.10 883.89 821.70 886.82 833.62
  Q 888.74 841.39 890.88 845.69
  Q 893.30 850.56 895.37 855.09
  A 1.94 1.93 -27.3 0 1 894.58 857.56
  Q 888.65 861.02 884.74 858.41
  Q 881.29 856.11 878.20 851.55
  Q 868.55 837.31 868.80 821.39
  C 869.14 799.33 880.21 783.64 898.19 771.98
  Q 911.79 763.17 920.25 756.51
  Q 925.02 752.75 929.65 746.91
  Q 936.63 738.10 941.64 729.30
  C 943.73 725.64 951.53 724.22 955.28 724.26
  Q 956.74 724.27 956.41 725.69
  Q 954.72 733.00 951.33 740.99
  Z"
/>
<path fill="#60b6ae" d="
  M 744.12 777.90
  C 753.79 787.37 761.85 804.02 761.12 817.88
  C 760.59 827.88 757.22 839.99 751.94 848.65
  Q 746.09 858.26 735.44 858.52
  Q 732.60 858.59 730.58 856.78
  A 0.94 0.94 0.0 0 1 730.56 855.40
  C 738.60 847.84 743.10 834.75 743.95 824.34
  C 744.92 812.56 741.89 799.52 733.62 791.06
  Q 729.54 786.88 723.30 782.60
  Q 715.96 777.54 709.12 772.63
  Q 699.49 765.72 690.26 753.07
  Q 681.88 741.59 679.63 727.55
  A 0.67 0.66 -4.7 0 1 680.29 726.78
  Q 687.30 726.77 694.47 729.33
  C 696.67 730.11 698.42 732.81 699.34 734.90
  Q 705.10 747.91 717.99 758.11
  Q 725.15 763.78 731.40 767.95
  Q 739.44 773.32 744.12 777.90
  Z"
/>
<path fill="#e8b4bf" d="
  M 1048.76 745.52
  Q 1051.18 749.75 1049.66 753.79
  C 1047.67 759.09 1042.61 763.38 1038.09 766.91
  Q 1030.64 772.71 1022.75 777.46
  C 1018.16 780.22 1016.13 777.57 1013.76 774.31
  C 1007.14 765.16 1001.20 754.62 1001.49 743.66
  Q 1001.66 736.84 1007.73 734.53
  C 1013.18 732.45 1022.64 733.07 1025.36 739.43
  A 2.41 2.40 66.8 0 0 1028.52 740.70
  C 1030.79 739.72 1033.06 738.15 1035.58 738.23
  Q 1044.76 738.54 1048.76 745.52
  Z"
/>
<path fill="#4c9aa2" d="
  M 322.15 820.78
  C 299.93 809.22 275.38 801.47 251.12 796.99
  Q 249.47 796.68 247.92 795.73
  A 0.78 0.78 0.0 0 1 247.92 794.39
  Q 253.60 790.98 259.87 789.12
  Q 283.05 782.23 306.23 780.83
  Q 310.11 780.60 314.21 780.86
  C 325.37 781.59 337.13 782.75 347.58 785.31
  C 364.17 789.38 379.68 796.73 395.34 803.66
  Q 405.94 808.35 416.57 810.72
  Q 440.93 816.13 464.40 806.64
  Q 479.09 800.71 492.95 795.23
  C 515.22 786.44 538.82 782.90 562.55 785.17
  Q 590.31 787.84 616.03 798.85
  Q 623.25 801.94 631.11 806.85
  Q 654.60 821.52 668.47 834.89
  Q 677.42 843.52 686.67 852.74
  Q 688.00 854.06 689.02 855.43
  A 0.85 0.84 59.5 0 1 688.69 856.71
  C 684.18 858.72 678.98 859.19 674.16 859.54
  Q 655.21 860.91 640.22 856.93
  C 623.54 852.50 608.45 845.32 591.93 838.60
  Q 584.29 835.50 572.76 832.94
  C 551.98 828.34 530.93 831.33 511.09 838.14
  Q 496.79 843.06 481.11 848.81
  Q 466.57 854.15 449.14 857.17
  C 416.16 862.89 382.04 852.38 353.32 837.16
  Q 336.53 828.26 322.15 820.78
  Z"
/>
<path fill="#4c9aa2" d="
  M 1371.46 799.26
  Q 1374.50 800.25 1376.52 802.82
  Q 1376.89 803.30 1376.47 803.73
  Q 1374.77 805.50 1372.13 806.01
  Q 1362.70 807.87 1353.88 809.84
  Q 1342.22 812.44 1324.94 818.91
  Q 1306.09 825.97 1292.91 832.38
  C 1275.24 840.98 1256.81 851.60 1237.30 859.07
  Q 1215.81 867.29 1189.48 868.62
  Q 1157.69 870.22 1125.37 856.83
  Q 1114.34 852.27 1102.05 847.91
  Q 1086.53 842.40 1066.00 840.55
  Q 1056.04 839.66 1046.18 841.33
  C 1028.36 844.35 1012.18 850.74 995.46 856.89
  Q 968.03 866.98 940.12 863.19
  Q 937.92 862.89 935.99 861.46
  A 0.65 0.65 0.0 0 1 935.82 860.59
  Q 936.88 858.89 938.27 857.49
  Q 954.23 841.34 968.97 829.16
  C 982.32 818.13 999.01 809.13 1013.67 803.36
  Q 1034.04 795.36 1061.68 793.00
  Q 1071.96 792.12 1082.39 793.46
  Q 1107.97 796.74 1130.47 807.02
  Q 1140.87 811.77 1151.22 816.02
  C 1172.43 824.74 1200.02 823.83 1221.55 815.26
  C 1232.75 810.81 1243.44 804.63 1254.79 800.35
  Q 1272.34 793.73 1295.02 790.69
  C 1300.99 789.89 1306.75 790.26 1312.68 789.87
  C 1318.99 789.45 1326.13 790.44 1332.85 790.99
  C 1345.68 792.05 1358.50 795.07 1371.46 799.26
  Z"
/>
<path fill="#e8b4bf" d="
  M 175.94 816.40
  C 179.18 813.47 180.68 810.26 182.04 806.26
  A 0.43 0.43 0.0 0 1 182.80 806.16
  Q 184.68 808.98 186.51 812.26
  C 188.56 815.93 193.93 819.91 197.65 822.84
  C 198.16 823.24 198.63 823.94 198.95 824.50
  A 1.26 1.25 -27.8 0 1 198.40 826.25
  C 192.49 829.12 188.96 832.94 184.65 837.41
  A 1.57 1.56 -49.4 0 1 182.57 837.57
  Q 174.57 831.54 165.21 825.62
  A 0.69 0.69 0.0 0 1 165.22 824.45
  Q 170.77 821.07 175.94 816.40
  Z"
/>
<path fill="#e8b4bf" d="
  M 1434.45 821.30
  Q 1435.19 819.35 1436.37 817.95
  A 0.54 0.53 -33.7 0 1 1437.29 818.13
  Q 1438.32 821.43 1439.44 824.88
  C 1440.93 829.44 1449.70 832.95 1453.34 835.53
  A 0.81 0.81 0.0 0 1 1453.29 836.89
  Q 1444.72 842.08 1438.71 849.98
  Q 1437.26 851.90 1435.58 850.21
  C 1432.64 847.28 1429.68 844.33 1426.17 842.11
  Q 1422.49 839.78 1418.83 837.30
  Q 1417.84 836.64 1418.87 836.04
  C 1425.33 832.30 1431.69 828.53 1434.45 821.30
  Z"
/>
<path fill="#eaaa9e" d="
  M 654.04 1169.36
  Q 637.62 1168.82 630.26 1167.25
  C 625.55 1166.25 621.68 1161.95 621.06 1156.78
  C 620.76 1154.24 620.21 1151.82 620.16 1149.22
  C 620.03 1143.04 619.69 1136.84 619.65 1130.93
  Q 619.08 1057.17 617.11 992.99
  Q 616.91 986.63 615.56 980.51
  C 615.00 978.00 611.07 977.82 609.04 977.82
  Q 599.15 977.85 588.40 977.69
  Q 584.50 977.64 580.78 976.81
  C 579.90 976.61 579.46 975.96 579.07 975.20
  Q 576.78 958.48 577.57 941.50
  Q 577.67 939.41 578.30 933.37
  Q 580.60 932.12 584.50 932.07
  Q 641.36 931.38 698.24 931.50
  C 701.06 931.51 703.04 930.97 704.09 934.25
  Q 707.04 943.46 707.26 952.98
  C 707.39 958.31 708.24 976.83 701.18 978.25
  Q 698.49 978.80 695.80 978.92
  Q 683.61 979.48 671.89 979.63
  A 0.57 0.56 -1.0 0 0 671.33 980.20
  C 671.57 992.20 672.18 1004.35 672.45 1015.94
  Q 673.94 1079.92 675.40 1138.13
  Q 675.61 1146.61 675.21 1155.74
  C 675.07 1158.73 674.39 1163.44 672.19 1165.63
  C 668.15 1169.63 659.33 1169.81 654.04 1169.36
  Z"
/>
<path fill="#eaaa9e" d="
  M 802.81 1169.47
  C 799.97 1168.72 796.95 1169.06 794.43 1168.50
  C 789.79 1167.46 785.00 1165.67 783.47 1160.60
  Q 782.25 1156.59 782.19 1153.25
  Q 781.79 1131.81 781.93 1104.24
  Q 781.98 1093.93 781.07 1084.74
  Q 779.95 1073.48 774.73 1063.13
  Q 759.45 1032.84 746.55 1004.53
  C 739.27 988.55 730.07 973.62 722.70 957.83
  Q 718.49 948.81 714.52 939.75
  Q 713.46 937.32 714.19 935.22
  Q 717.26 932.24 721.50 932.04
  Q 736.47 931.31 754.75 931.42
  Q 761.05 931.46 766.59 932.68
  C 772.49 933.98 776.08 942.09 778.46 947.44
  Q 787.89 968.66 796.26 987.81
  Q 800.53 997.59 804.45 1009.40
  A 0.94 0.93 -36.2 0 0 806.09 1009.65
  Q 807.61 1007.56 808.73 1005.26
  C 817.04 988.22 823.92 970.24 830.80 952.52
  C 832.52 948.08 835.97 939.82 840.31 937.49
  Q 844.71 935.12 850.12 934.80
  Q 862.70 934.05 878.64 934.75
  Q 883.96 934.99 888.60 936.14
  C 894.13 937.51 893.03 943.68 891.75 947.71
  Q 889.11 956.01 885.49 963.73
  Q 865.74 1005.83 845.46 1049.19
  Q 841.92 1056.74 838.58 1064.35
  Q 834.65 1073.31 834.86 1083.47
  Q 835.33 1105.68 836.35 1134.62
  Q 836.77 1146.50 836.35 1157.24
  Q 836.26 1159.59 835.63 1162.49
  C 834.63 1167.06 830.21 1169.28 826.00 1169.58
  Q 814.39 1170.38 802.81 1169.47
  Z"
/>
<path fill="#eaaa9e" d="
  M 407.86 1170.54
  Q 406.28 1169.30 403.47 1169.15
  C 397.83 1166.50 396.13 1160.83 395.26 1155.75
  Q 392.97 1142.38 390.39 1133.87
  Q 389.75 1131.77 387.68 1129.85
  Q 381.89 1129.70 376.51 1129.97
  Q 357.60 1130.91 336.55 1130.24
  A 0.73 0.72 -85.7 0 0 335.81 1130.88
  Q 334.70 1140.90 333.02 1150.84
  Q 331.82 1157.91 329.33 1163.61
  Q 326.31 1170.51 318.75 1171.41
  Q 300.20 1173.64 283.17 1170.21
  Q 275.43 1166.19 276.04 1159.75
  Q 276.68 1153.00 278.95 1145.25
  Q 284.55 1126.12 289.31 1106.76
  Q 302.64 1052.52 315.00 998.25
  C 318.98 980.79 322.23 963.35 325.72 945.94
  C 326.38 942.63 327.40 939.49 328.96 936.48
  Q 330.82 932.89 334.50 932.64
  Q 336.95 932.48 345.29 932.37
  Q 345.35 932.64 345.50 932.64
  Q 348.01 932.62 350.54 931.98
  Q 373.05 931.40 388.00 931.90
  Q 389.48 931.95 391.05 932.79
  C 393.55 934.11 395.51 939.10 396.02 941.28
  Q 398.07 950.19 400.50 958.15
  Q 403.23 967.05 405.28 974.94
  Q 415.54 1014.29 420.33 1031.49
  C 425.00 1048.30 429.14 1065.51 433.72 1082.35
  Q 442.99 1116.46 450.66 1147.72
  C 452.00 1153.17 452.98 1158.57 451.63 1164.19
  C 450.16 1170.34 442.71 1171.14 437.51 1171.41
  Q 422.53 1172.21 407.86 1170.54
  Z
  M 361.58 1001.33
  Q 359.50 1001.19 359.02 1003.25
  Q 356.26 1015.13 354.44 1027.25
  C 351.93 1044.06 349.21 1060.87 346.11 1077.59
  Q 344.77 1084.85 344.06 1092.45
  A 1.15 1.15 0.0 0 0 345.16 1093.70
  L 349.20 1093.86
  L 361.00 1093.98
  Q 361.22 1094.03 361.42 1093.98
  Q 371.17 1094.74 381.02 1093.74
  Q 381.58 1093.68 381.53 1093.13
  Q 380.90 1085.80 379.80 1080.49
  Q 375.87 1061.44 370.95 1040.50
  Q 368.89 1031.73 366.76 1020.95
  Q 364.60 1010.05 362.19 998.27
  Q 362.16 998.13 362.01 998.16
  L 362.01 998.16
  Q 361.86 998.19 361.90 998.34
  Q 362.33 999.90 361.58 1001.33
  Z"
/>
<path fill="#020101" d="
  M 346.20 932.05
  Q 346.10 932.36 345.29 932.37
  Q 336.95 932.48 334.50 932.64
  Q 330.82 932.89 328.96 936.48
  C 327.40 939.49 326.38 942.63 325.72 945.94
  C 322.23 963.35 318.98 980.79 315.00 998.25
  Q 302.64 1052.52 289.31 1106.76
  Q 284.55 1126.12 278.95 1145.25
  Q 276.68 1153.00 276.04 1159.75
  Q 275.43 1166.19 283.17 1170.21
  C 272.90 1166.34 274.49 1158.03 276.68 1149.22
  C 279.44 1138.18 282.53 1127.49 285.24 1116.55
  Q 295.22 1076.37 302.85 1043.22
  Q 307.65 1022.35 312.40 1002.23
  Q 316.97 982.92 322.57 954.50
  Q 324.13 946.59 326.58 939.54
  Q 327.75 936.14 330.31 933.84
  Q 331.82 932.48 334.98 932.26
  Q 340.62 931.86 346.20 932.05
  Z"
/>
<path fill="#2d3737" d="
  M 346.20 932.05
  L 350.54 931.98
  Q 348.01 932.62 345.50 932.64
  Q 345.35 932.64 345.29 932.37
  Q 346.10 932.36 346.20 932.05
  Z"
/>
<path fill="#eaaa9e" d="
  M 511.05 1171.39
  C 505.49 1170.98 499.92 1171.02 494.40 1170.26
  Q 491.85 1169.91 489.11 1169.85
  C 483.09 1169.72 478.95 1162.41 478.28 1157.27
  Q 477.63 1152.25 477.60 1147.96
  C 477.42 1125.03 477.41 1102.04 476.33 1078.99
  Q 475.56 1062.68 475.15 1033.44
  Q 475.01 1023.80 474.54 1013.24
  Q 473.85 997.95 473.48 981.48
  A 2.42 2.41 -0.5 0 0 471.07 979.12
  L 443.54 979.02
  C 440.41 978.18 437.38 978.02 436.37 974.16
  Q 435.39 970.41 435.22 968.07
  Q 434.56 958.89 434.40 944.50
  Q 434.32 937.88 436.94 934.01
  Q 442.30 932.79 448.01 932.64
  Q 462.73 932.26 474.76 932.20
  Q 511.67 932.01 544.75 932.21
  Q 551.83 932.26 560.25 932.52
  C 561.59 932.56 562.85 932.88 563.26 934.33
  Q 564.09 937.23 564.46 940.13
  Q 565.88 951.31 565.69 964.39
  Q 565.61 969.60 564.81 974.25
  Q 564.55 975.80 563.25 976.38
  Q 560.53 977.61 556.44 977.84
  Q 541.95 978.64 528.82 979.74
  Q 528.28 979.78 528.30 980.33
  Q 531.74 1064.99 532.63 1151.00
  Q 532.69 1157.32 531.33 1163.48
  Q 529.82 1170.33 522.01 1171.04
  Q 514.83 1171.69 511.05 1171.39
  Z"
/>
<path fill="#eaaa9e" d="
  M 1078.06 1000.53
  Q 1072.96 992.89 1065.56 986.43
  Q 1054.71 976.96 1040.80 978.64
  C 1031.09 979.75 1023.52 988.36 1022.94 998.01
  Q 1022.07 1012.73 1034.95 1019.74
  Q 1042.12 1023.64 1047.44 1025.44
  Q 1059.25 1029.43 1070.54 1033.57
  C 1087.40 1039.74 1103.12 1051.07 1112.03 1066.49
  Q 1116.81 1074.75 1119.12 1085.08
  Q 1125.13 1111.91 1112.06 1137.33
  C 1103.84 1153.32 1087.12 1164.97 1070.41 1169.51
  C 1052.72 1174.31 1034.58 1173.87 1016.81 1168.83
  Q 991.10 1160.13 971.03 1139.47
  Q 962.39 1130.57 957.34 1122.02
  C 956.29 1120.24 956.89 1118.98 958.34 1117.82
  C 969.69 1107.65 981.11 1099.76 992.33 1091.61
  Q 993.69 1090.62 995.11 1090.14
  A 1.99 1.98 65.9 0 1 997.47 1091.05
  Q 1004.63 1103.64 1013.60 1113.98
  Q 1016.30 1117.08 1021.52 1120.65
  C 1032.08 1127.84 1045.00 1128.74 1055.49 1121.05
  Q 1065.61 1115.17 1065.20 1102.74
  C 1064.78 1089.58 1055.50 1082.72 1044.72 1077.62
  C 1029.98 1070.64 1014.23 1065.39 999.91 1057.26
  Q 980.64 1046.33 972.98 1026.26
  C 970.44 1019.62 967.96 1011.89 967.62 1005.15
  Q 966.99 992.80 970.24 981.58
  C 973.44 970.53 979.43 961.45 987.75 953.74
  Q 989.21 952.59 989.54 951.36
  Q 1002.40 940.08 1018.61 935.82
  C 1030.16 932.79 1043.26 931.25 1055.63 933.06
  C 1069.03 935.02 1083.53 939.12 1094.70 947.28
  C 1104.14 954.17 1113.63 962.53 1119.32 972.52
  A 3.01 3.01 0.0 0 1 1119.04 975.91
  Q 1116.63 978.87 1113.79 981.54
  Q 1100.06 994.48 1084.21 1005.67
  Q 1082.79 1006.68 1081.72 1005.29
  L 1078.06 1000.53
  Z"
/>
<path fill="#2d3737" d="
  M 578.30 933.37
  Q 577.67 939.41 577.57 941.50
  Q 576.78 958.48 579.07 975.20
  Q 578.92 975.18 578.68 974.96
  Q 578.40 974.70 578.32 975.08
  L 578.05 976.40
  Q 576.69 974.61 576.35 972.44
  C 574.87 963.07 575.16 952.90 575.04 939.51
  Q 575.00 935.27 578.30 933.37
  Z"
/>
<path fill="#020101" d="
  M 436.94 934.01
  Q 434.32 937.88 434.40 944.50
  Q 434.56 958.89 435.22 968.07
  Q 435.39 970.41 436.37 974.16
  C 437.38 978.02 440.41 978.18 443.54 979.02
  Q 439.51 979.20 436.17 977.00
  Q 435.73 976.71 435.54 976.23
  Q 434.28 973.07 433.84 969.63
  Q 432.49 959.34 432.73 948.05
  C 432.82 944.12 432.85 939.89 434.17 936.50
  Q 434.92 934.58 436.94 934.01
  Z"
/>
<path fill="#eaaa9e" d="
  M 170.81 1172.18
  L 156.52 1172.07
  L 146.92 1171.03
  Q 141.30 1168.45 138.84 1163.32
  Q 137.38 1160.29 136.95 1152.91
  Q 136.35 1142.72 136.30 1138.75
  Q 135.70 1092.52 135.51 1047.25
  C 135.37 1012.96 134.24 978.62 133.15 944.50
  C 133.03 940.65 133.15 937.57 137.07 935.80
  Q 140.01 934.83 141.50 934.79
  Q 171.75 933.86 202.00 934.68
  Q 218.41 935.12 233.46 939.32
  Q 268.46 949.08 281.33 983.06
  C 291.42 1009.71 288.36 1043.40 268.75 1065.65
  C 255.93 1080.19 239.41 1086.60 220.53 1087.88
  Q 206.91 1088.81 191.45 1088.34
  A 1.04 1.03 0.3 0 0 190.38 1089.39
  Q 191.14 1127.65 191.18 1153.75
  Q 191.19 1161.81 189.46 1166.02
  C 186.87 1172.32 177.02 1172.65 170.81 1172.18
  Z
  M 218.53 1042.76
  Q 223.21 1041.66 225.80 1036.75
  C 232.78 1023.46 233.32 1006.49 226.08 993.38
  Q 219.91 982.22 206.42 980.93
  L 188.89 980.06
  A 0.77 0.76 0.7 0 0 188.09 980.83
  Q 188.09 987.73 188.15 994.68
  Q 188.17 997.89 188.56 1001.33
  Q 188.88 1004.18 188.98 1007.73
  Q 189.50 1025.78 189.68 1043.85
  A 2.04 2.04 0.0 0 0 191.54 1045.86
  Q 197.91 1046.44 204.75 1046.26
  Q 210.39 1046.12 218.53 1042.76
  Z"
/>
<path fill="#020101" d="
  M 714.19 935.22
  Q 713.46 937.32 714.52 939.75
  Q 718.49 948.81 722.70 957.83
  C 730.07 973.62 739.27 988.55 746.55 1004.53
  Q 759.45 1032.84 774.73 1063.13
  Q 779.95 1073.48 781.07 1084.74
  Q 781.98 1093.93 781.93 1104.24
  Q 781.79 1131.81 782.19 1153.25
  Q 782.25 1156.59 783.47 1160.60
  C 785.00 1165.67 789.79 1167.46 794.43 1168.50
  C 796.95 1169.06 799.97 1168.72 802.81 1169.47
  Q 794.52 1169.64 789.49 1167.71
  C 781.90 1164.82 780.62 1157.04 780.57 1149.80
  Q 780.42 1126.68 780.39 1106.08
  Q 780.37 1094.98 779.58 1085.00
  C 778.65 1073.39 772.85 1062.52 767.64 1052.14
  Q 755.96 1028.82 746.06 1007.52
  C 740.34 995.23 734.14 983.72 727.86 971.95
  C 722.93 962.72 718.65 953.15 714.57 943.22
  Q 713.36 940.27 712.98 938.01
  Q 712.72 936.40 714.19 935.22
  Z"
/>
<path fill="#020101" d="
  M 137.07 935.80
  C 133.15 937.57 133.03 940.65 133.15 944.50
  C 134.24 978.62 135.37 1012.96 135.51 1047.25
  Q 135.70 1092.52 136.30 1138.75
  Q 136.35 1142.72 136.95 1152.91
  Q 137.38 1160.29 138.84 1163.32
  Q 141.30 1168.45 146.92 1171.03
  Q 137.28 1168.59 135.79 1159.00
  Q 135.18 1155.11 135.07 1142.50
  C 134.83 1114.84 134.10 1087.16 134.03 1059.50
  Q 133.91 1014.19 132.54 968.90
  C 132.27 959.88 131.69 950.40 132.00 941.49
  Q 132.16 936.79 137.07 935.80
  Z"
/>
<path fill="#eaaa9e" d="
  M 1162.71 1176.88
  C 1156.73 1175.72 1149.63 1174.59 1147.94 1167.49
  Q 1147.00 1163.54 1146.98 1160.50
  Q 1146.51 1098.91 1144.82 1056.75
  Q 1142.93 1009.65 1142.25 986.34
  C 1141.94 975.63 1141.39 964.90 1141.34 954.47
  Q 1141.32 950.35 1142.00 947.01
  Q 1142.34 945.32 1144.51 942.31
  Q 1152.22 940.19 1160.96 939.68
  Q 1162.53 939.59 1177.55 939.44
  Q 1192.55 939.29 1213.25 939.51
  C 1228.76 939.68 1245.99 942.31 1259.34 949.65
  C 1284.41 963.44 1295.71 989.51 1296.90 1017.31
  Q 1297.34 1027.68 1296.32 1036.12
  Q 1295.40 1043.73 1291.70 1053.22
  Q 1286.82 1065.71 1276.71 1074.85
  Q 1256.18 1093.39 1227.44 1094.30
  Q 1214.01 1094.73 1200.51 1094.69
  A 1.18 1.17 -0.7 0 0 1199.33 1095.89
  Q 1200.08 1125.62 1200.67 1155.00
  Q 1200.86 1164.49 1200.02 1170.67
  C 1199.28 1176.11 1191.76 1177.35 1187.11 1177.54
  Q 1174.93 1178.05 1162.71 1176.88
  Z
  M 1229.69 1048.07
  Q 1236.95 1044.11 1239.24 1034.00
  Q 1242.32 1020.35 1239.74 1008.04
  Q 1237.90 999.25 1233.02 993.68
  Q 1224.89 984.40 1210.96 985.27
  L 1197.31 985.39
  A 0.54 0.54 0.0 0 0 1196.78 985.92
  Q 1196.68 990.41 1196.86 994.21
  Q 1198.09 1019.63 1199.76 1049.63
  Q 1199.88 1051.71 1200.33 1053.47
  Q 1200.46 1053.99 1200.99 1054.00
  Q 1213.21 1054.34 1223.42 1050.90
  C 1225.59 1050.16 1227.53 1049.00 1229.69 1048.07
  Z"
/>
<path fill="#eaaa9e" d="
  M 1419.93 1178.77
  C 1414.95 1175.93 1412.74 1171.75 1411.42 1166.23
  Q 1409.77 1159.40 1408.52 1152.49
  Q 1407.08 1144.53 1404.22 1137.58
  Q 1378.89 1139.75 1354.92 1138.67
  Q 1353.14 1138.59 1352.51 1140.25
  C 1349.65 1147.77 1348.54 1156.08 1347.10 1164.01
  Q 1346.03 1169.85 1343.70 1175.03
  Q 1341.64 1179.61 1336.49 1180.09
  Q 1321.48 1181.47 1306.58 1179.92
  C 1300.83 1178.64 1296.07 1177.87 1293.33 1172.06
  Q 1292.33 1169.95 1292.55 1166.84
  Q 1292.80 1163.37 1293.29 1161.49
  Q 1302.03 1127.78 1310.30 1093.94
  Q 1312.74 1083.94 1315.23 1074.56
  Q 1322.88 1045.74 1329.37 1015.73
  Q 1336.04 984.87 1342.89 952.74
  Q 1343.52 949.79 1346.56 944.12
  Q 1353.08 941.70 1361.50 941.53
  Q 1381.52 941.14 1402.50 941.29
  Q 1405.43 941.31 1408.09 941.65
  C 1412.22 942.19 1414.69 948.76 1415.69 952.25
  C 1419.31 964.85 1421.82 978.28 1424.89 990.57
  Q 1431.65 1017.62 1438.32 1044.54
  C 1441.80 1058.62 1444.91 1072.74 1448.61 1087.37
  C 1452.15 1101.39 1455.66 1117.91 1459.48 1132.95
  Q 1463.01 1146.79 1466.36 1160.59
  Q 1467.71 1166.11 1467.49 1172.19
  C 1467.25 1178.78 1455.97 1180.20 1451.09 1180.43
  C 1440.51 1180.91 1429.95 1180.99 1419.93 1178.77
  Z
  M 1378.11 1007.21
  Q 1374.50 1013.75 1375.07 1021.32
  Q 1372.65 1030.63 1371.70 1035.75
  Q 1367.28 1059.66 1362.36 1083.48
  Q 1360.58 1092.06 1358.17 1100.74
  Q 1357.86 1101.85 1359.01 1101.87
  L 1395.73 1102.52
  L 1397.97 1102.68
  Q 1398.63 1102.73 1398.54 1102.07
  Q 1397.57 1095.29 1396.46 1089.96
  Q 1392.84 1072.77 1389.24 1055.50
  Q 1387.62 1047.71 1385.77 1037.40
  Q 1384.12 1028.22 1381.80 1019.36
  Q 1380.20 1013.24 1379.50 1009.13
  C 1379.29 1007.88 1378.64 1006.88 1378.57 1005.63
  Q 1378.51 1004.63 1378.24 1005.60
  Q 1378.00 1006.48 1378.11 1007.21
  Z"
/>
<path fill="#020101" d="
  M 1144.51 942.31
  Q 1142.34 945.32 1142.00 947.01
  Q 1141.32 950.35 1141.34 954.47
  C 1141.39 964.90 1141.94 975.63 1142.25 986.34
  Q 1142.93 1009.65 1144.82 1056.75
  Q 1146.51 1098.91 1146.98 1160.50
  Q 1147.00 1163.54 1147.94 1167.49
  C 1149.63 1174.59 1156.73 1175.72 1162.71 1176.88
  C 1156.83 1176.87 1149.57 1174.69 1147.15 1168.61
  Q 1145.74 1165.07 1145.59 1157.50
  Q 1145.08 1132.15 1144.83 1109.25
  Q 1144.48 1077.76 1143.36 1046.50
  C 1142.49 1022.21 1141.64 997.85 1140.95 973.35
  Q 1140.86 970.25 1140.73 967.19
  Q 1140.47 960.90 1140.64 950.27
  Q 1140.72 945.82 1144.51 942.31
  Z"
/>
<path fill="#020101" d="
  M 1346.56 944.12
  Q 1343.52 949.79 1342.89 952.74
  Q 1336.04 984.87 1329.37 1015.73
  Q 1322.88 1045.74 1315.23 1074.56
  Q 1312.74 1083.94 1310.30 1093.94
  Q 1302.03 1127.78 1293.29 1161.49
  Q 1292.80 1163.37 1292.55 1166.84
  Q 1292.33 1169.95 1293.33 1172.06
  C 1296.07 1177.87 1300.83 1178.64 1306.58 1179.92
  C 1300.84 1180.04 1293.02 1177.64 1291.43 1171.58
  Q 1290.60 1168.42 1291.79 1163.28
  Q 1294.16 1152.94 1297.29 1141.08
  Q 1301.82 1123.93 1307.88 1098.23
  C 1312.88 1077.07 1318.32 1056.16 1323.28 1034.75
  Q 1335.56 981.75 1340.94 956.75
  Q 1342.63 948.91 1346.56 944.12
  Z"
/>
<path fill="#2d3737" d="
  M 989.54 951.36
  Q 989.21 952.59 987.75 953.74
  Q 987.22 953.83 987.05 953.71
  Q 988.03 952.39 989.54 951.36
  Z"
/>
<path fill="#020101" d="
  M 987.05 953.71
  Q 987.22 953.83 987.75 953.74
  C 979.43 961.45 973.44 970.53 970.24 981.58
  Q 966.99 992.80 967.62 1005.15
  C 967.96 1011.89 970.44 1019.62 972.98 1026.26
  Q 980.64 1046.33 999.91 1057.26
  C 1014.23 1065.39 1029.98 1070.64 1044.72 1077.62
  C 1055.50 1082.72 1064.78 1089.58 1065.20 1102.74
  Q 1065.61 1115.17 1055.49 1121.05
  Q 1062.11 1116.02 1063.49 1109.03
  Q 1065.99 1096.45 1057.32 1086.97
  Q 1054.86 1084.27 1048.43 1080.68
  C 1037.53 1074.60 1024.95 1069.99 1014.83 1065.83
  Q 998.62 1059.18 986.70 1049.35
  C 977.33 1041.63 971.95 1030.93 968.44 1019.33
  Q 964.43 1006.12 966.31 992.86
  C 968.57 977.00 974.81 964.18 987.05 953.71
  Z"
/>
<path fill="#020101" d="
  M 579.07 975.20
  C 579.46 975.96 579.90 976.61 580.78 976.81
  Q 584.50 977.64 588.40 977.69
  Q 599.15 977.85 609.04 977.82
  C 611.07 977.82 615.00 978.00 615.56 980.51
  Q 616.91 986.63 617.11 992.99
  Q 619.08 1057.17 619.65 1130.93
  C 619.69 1136.84 620.03 1143.04 620.16 1149.22
  C 620.21 1151.82 620.76 1154.24 621.06 1156.78
  C 621.68 1161.95 625.55 1166.25 630.26 1167.25
  Q 637.62 1168.82 654.04 1169.36
  Q 641.43 1169.72 629.03 1167.35
  Q 623.01 1166.20 620.71 1161.51
  Q 619.13 1158.29 618.87 1152.75
  C 618.52 1145.28 618.23 1137.61 618.20 1130.05
  Q 618.01 1062.45 615.64 992.87
  C 615.50 988.89 614.89 984.84 614.28 980.95
  A 2.99 2.99 0.0 0 0 611.27 978.42
  Q 598.19 978.69 585.59 978.13
  Q 582.13 977.97 578.84 977.00
  Q 578.60 976.93 578.42 976.76
  Q 578.18 976.52 578.05 976.40
  L 578.32 975.08
  Q 578.40 974.70 578.68 974.96
  Q 578.92 975.18 579.07 975.20
  Z"
/>
<path fill="#020101" d="
  M 1078.06 1000.53
  Q 1074.69 996.44 1071.14 992.61
  Q 1064.11 985.05 1057.35 981.59
  Q 1050.48 978.07 1040.80 978.64
  Q 1054.71 976.96 1065.56 986.43
  Q 1072.96 992.89 1078.06 1000.53
  Z"
/>
<path fill="#020101" d="
  M 443.54 979.02
  L 471.07 979.12
  A 2.42 2.41 -0.5 0 1 473.48 981.48
  Q 473.85 997.95 474.54 1013.24
  Q 475.01 1023.80 475.15 1033.44
  Q 475.56 1062.68 476.33 1078.99
  C 477.41 1102.04 477.42 1125.03 477.60 1147.96
  Q 477.63 1152.25 478.28 1157.27
  C 478.95 1162.41 483.09 1169.72 489.11 1169.85
  Q 491.85 1169.91 494.40 1170.26
  C 499.92 1171.02 505.49 1170.98 511.05 1171.39
  Q 503.35 1171.30 490.25 1170.38
  Q 485.99 1170.08 483.61 1168.58
  C 478.28 1165.21 476.88 1160.57 476.29 1154.31
  Q 475.74 1148.58 475.73 1143.96
  Q 475.62 1103.96 474.38 1065.75
  Q 474.07 1056.34 473.94 1045.75
  C 473.66 1023.92 472.51 1002.32 472.03 980.31
  A 0.82 0.82 0.0 0 0 471.20 979.50
  C 461.99 979.59 452.72 980.15 443.54 979.02
  Z"
/>
<path fill="#020101" d="
  M 206.42 980.93
  Q 219.91 982.22 226.08 993.38
  C 233.32 1006.49 232.78 1023.46 225.80 1036.75
  Q 223.21 1041.66 218.53 1042.76
  Q 223.37 1040.23 225.62 1034.22
  Q 228.15 1027.50 228.60 1023.54
  C 230.12 1010.07 228.81 991.23 215.23 984.07
  Q 213.38 983.09 206.42 980.93
  Z"
/>
<path fill="#020101" d="
  M 1210.96 985.27
  Q 1224.89 984.40 1233.02 993.68
  Q 1237.90 999.25 1239.74 1008.04
  Q 1242.32 1020.35 1239.24 1034.00
  Q 1236.95 1044.11 1229.69 1048.07
  Q 1234.58 1044.07 1236.75 1038.38
  Q 1238.25 1034.45 1239.17 1026.96
  C 1240.51 1016.00 1239.33 1002.57 1231.94 993.94
  Q 1226.56 987.66 1217.98 986.33
  Q 1214.57 985.80 1210.96 985.27
  Z"
/>
<path fill="#020101" d="
  M 361.42 1093.98
  L 378.80 1093.66
  A 1.36 1.36 0.0 0 0 380.12 1092.08
  Q 378.31 1080.95 375.72 1069.81
  Q 367.81 1035.75 361.58 1001.33
  Q 362.33 999.90 361.90 998.34
  Q 361.86 998.19 362.01 998.16
  L 362.01 998.16
  Q 362.16 998.13 362.19 998.27
  Q 364.60 1010.05 366.76 1020.95
  Q 368.89 1031.73 370.95 1040.50
  Q 375.87 1061.44 379.80 1080.49
  Q 380.90 1085.80 381.53 1093.13
  Q 381.58 1093.68 381.02 1093.74
  Q 371.17 1094.74 361.42 1093.98
  Z"
/>
<path fill="#020101" d="
  M 1395.73 1102.52
  L 1396.61 1102.09
  Q 1397.08 1101.86 1397.00 1101.34
  Q 1394.30 1084.28 1393.23 1079.48
  Q 1386.93 1051.09 1382.99 1029.74
  Q 1381.82 1023.40 1379.05 1011.81
  Q 1379.35 1009.52 1378.11 1007.21
  Q 1378.00 1006.48 1378.24 1005.60
  Q 1378.51 1004.63 1378.57 1005.63
  C 1378.64 1006.88 1379.29 1007.88 1379.50 1009.13
  Q 1380.20 1013.24 1381.80 1019.36
  Q 1384.12 1028.22 1385.77 1037.40
  Q 1387.62 1047.71 1389.24 1055.50
  Q 1392.84 1072.77 1396.46 1089.96
  Q 1397.57 1095.29 1398.54 1102.07
  Q 1398.63 1102.73 1397.97 1102.68
  L 1395.73 1102.52
  Z"
/>
<path fill="#e8b4bf" d="
  M 1378.11 1007.21
  Q 1379.35 1009.52 1379.05 1011.81
  Q 1377.73 1016.85 1375.07 1021.32
  Q 1374.50 1013.75 1378.11 1007.21
  Z"
/>
<path fill="#020101" d="
  M 349.20 1093.86
  L 361.00 1093.98
  L 349.20 1093.86
  Z"
/>
<path fill="#020101" d="
  M 958.34 1117.82
  C 956.89 1118.98 956.29 1120.24 957.34 1122.02
  Q 962.39 1130.57 971.03 1139.47
  Q 991.10 1160.13 1016.81 1168.83
  Q 1015.01 1168.63 1012.20 1167.60
  C 989.73 1159.40 968.51 1143.78 956.52 1122.76
  Q 954.54 1119.29 958.34 1117.82
  Z"
/>
<path fill="#020101" d="
  M 387.68 1129.85
  Q 389.75 1131.77 390.39 1133.87
  Q 392.97 1142.38 395.26 1155.75
  C 396.13 1160.83 397.83 1166.50 403.47 1169.15
  Q 403.60 1169.37 403.27 1169.57
  Q 396.55 1167.05 394.57 1160.20
  Q 392.78 1154.03 390.09 1139.21
  Q 389.66 1136.87 388.98 1134.51
  Q 388.33 1132.23 387.68 1129.85
  Z"
/>
<path fill="#020101" d="
  M 1419.93 1178.77
  C 1412.81 1176.22 1410.16 1167.10 1408.93 1160.50
  Q 1407.65 1153.63 1406.13 1146.80
  Q 1406.12 1146.73 1404.86 1142.56
  Q 1404.13 1140.11 1404.22 1137.58
  Q 1407.08 1144.53 1408.52 1152.49
  Q 1409.77 1159.40 1411.42 1166.23
  C 1412.74 1171.75 1414.95 1175.93 1419.93 1178.77
  Z"
/>
<path fill="#2d3737" d="
  M 403.47 1169.15
  Q 406.28 1169.30 407.86 1170.54
  L 403.27 1169.57
  Q 403.60 1169.37 403.47 1169.15
  Z"
/>
<path fill="#020101" d="
  M 170.81 1172.18
  L 156.52 1172.07
  L 170.81 1172.18
  Z"
/>
</svg>
