<?xml version="1.0" encoding="UTF-8" standalone="no"?>
<!DOCTYPE svg PUBLIC "-//W3C//DTD SVG 1.1//EN" "http://www.w3.org/Graphics/SVG/1.1/DTD/svg11.dtd">
<svg xmlns="http://www.w3.org/2000/svg" version="1.1" viewBox="0.00 0.00 1920.00 1080.00">
<g stroke-width="2.00" fill="none" stroke-linecap="butt">
<path stroke="#157c6d" vector-effect="non-scaling-stroke" d="
  M 683.47 200.06
  Q 683.33 200.74 682.42 200.24
  Q 681.85 199.92 681.55 199.82
  Q 587.02 167.10 488.75 187.63
  Q 488.47 187.69 488.26 187.84"
/>
<path stroke="#1d9183" vector-effect="non-scaling-stroke" d="
  M 488.26 187.84
  Q 487.85 187.75 487.51 187.82
  Q 405.05 206.24 339.78 259.46"
/>
<path stroke="#23a193" vector-effect="non-scaling-stroke" d="
  M 339.78 259.46
  Q 309.66 284.03 285.73 314.47
  Q 285.46 314.82 285.17 314.49
  C 282.73 311.69 279.74 309.48 276.90 307.13
  C 276.23 306.58 275.62 306.55 274.86 306.17
  A 0.64 0.63 -66.8 0 1 274.55 305.38
  Q 274.86 304.58 274.75 303.73"
/>
<path stroke="#23a193" vector-effect="non-scaling-stroke" d="
  M 282.07 397.36
  Q 281.65 396.62 281.91 395.93
  Q 282.08 395.48 281.74 395.15
  L 253.68 367.07
  Q 252.34 365.73 251.45 367.40
  Q 226.11 415.14 216.23 468.46"
/>
<path stroke="#19897a" vector-effect="non-scaling-stroke" d="
  M 216.23 468.46
  Q 214.89 469.30 214.49 468.91
  Q 205.77 460.36 197.53 451.59"
/>
<path stroke="#19897a" vector-effect="non-scaling-stroke" d="
  M 366.05 285.55
  L 339.78 259.46"
/>
<path stroke="#157c6d" vector-effect="non-scaling-stroke" d="
  M 771.05 248.08
  Q 759.56 256.51 752.99 269.40"
/>
<path stroke="#0b6454" vector-effect="non-scaling-stroke" d="
  M 516.06 215.27
  Q 516.58 214.79 515.14 214.15
  Q 514.45 213.84 514.01 213.40
  Q 502.07 201.44 490.16 189.46
  Q 489.27 188.57 488.26 187.84"
/>
<path stroke="#157c6d" vector-effect="non-scaling-stroke" d="
  M 259.96 469.09
  Q 250.20 522.50 259.03 576.38
  Q 260.24 583.76 261.75 592.97"
/>
<path stroke="#5cbeb0" vector-effect="non-scaling-stroke" d="
  M 261.75 592.97
  Q 230.01 561.87 212.25 543.75
  Q 211.46 542.96 210.64 543.21"
/>
<path stroke="#1d9183" vector-effect="non-scaling-stroke" d="
  M 210.64 543.21
  Q 209.41 505.53 216.23 468.46"
/>
<path stroke="#52a697" vector-effect="non-scaling-stroke" d="
  M 210.64 543.21
  Q 213.71 638.46 263.97 719.62"
/>
<path stroke="#1d9183" vector-effect="non-scaling-stroke" d="
  M 263.97 719.62
  Q 253.41 730.50 247.01 745.13"
/>
<path stroke="#23a193" vector-effect="non-scaling-stroke" d="
  M 806.35 236.74
  L 813.62 246.29
  Q 813.94 246.71 813.88 247.23
  Q 813.82 247.79 814.26 247.87
  Q 814.62 247.93 814.77 248.28
  L 816.83 253.19
  Q 817.05 253.70 816.92 254.24
  Q 816.52 255.93 817.62 257.13
  A 1.54 1.50 22.9 0 1 818.01 258.06
  C 818.27 262.86 819.89 266.49 818.63 271.42
  Q 818.50 271.91 818.63 272.40
  Q 818.77 272.99 818.45 273.18
  Q 818.10 273.40 818.14 273.81
  Q 818.26 274.94 817.93 276.02
  Q 815.96 282.66 812.33 288.48
  C 809.98 292.25 806.42 295.40 803.15 298.65
  Q 802.84 298.96 802.43 299.08
  C 800.54 299.64 798.50 301.57 796.42 302.59
  Q 794.64 303.47 791.67 304.24
  C 789.18 304.89 786.88 305.84 784.38 306.01
  Q 778.87 306.40 773.37 305.79
  C 771.89 305.62 770.81 304.76 769.06 304.83
  A 1.05 1.04 68.2 0 1 768.23 304.47
  Q 767.10 303.16 765.41 303.03
  Q 764.95 303.00 764.55 302.77
  L 760.19 300.25
  Q 759.77 300.01 759.42 299.68
  Q 758.73 299.02 757.79 298.85
  Q 757.35 298.77 757.06 298.43
  Q 756.48 297.76 755.62 297.60
  A 0.90 0.89 -89.6 0 1 754.89 296.85
  Q 754.76 295.94 753.81 295.89
  Q 753.32 295.86 752.98 295.52
  L 748.78 291.27
  A 0.60 0.58 -62.3 0 1 748.62 290.74
  Q 748.68 290.45 748.47 290.22
  A 0.32 0.32 0.0 0 0 747.92 290.42
  Q 747.83 291.57 746.90 291.43"
/>
<path stroke="#23a193" vector-effect="non-scaling-stroke" d="
  M 754.01 699.08
  L 740.42 686.03"
/>
<path stroke="#1d9183" vector-effect="non-scaling-stroke" d="
  M 707.44 854.82
  C 659.32 876.33 605.39 887.41 552.28 885.19"
/>
<path stroke="#5cbeb0" vector-effect="non-scaling-stroke" d="
  M 554.04 331.75
  L 566.82 343.92
  Q 566.95 344.05 567.12 344.11
  Q 567.41 344.22 567.54 344.55
  Q 567.57 344.62 567.49 344.63
  Q 567.22 344.66 567.24 344.92"
/>
<path stroke="#1d9183" vector-effect="non-scaling-stroke" d="
  M 567.24 344.92
  Q 498.99 330.54 433.78 352.21"
/>
<path stroke="#23a193" vector-effect="non-scaling-stroke" d="
  M 433.78 352.21
  Q 428.86 345.92 422.82 340.30
  Q 422.16 339.68 421.56 338.95
  Q 421.14 338.44 421.75 337.75"
/>
<path stroke="#19897a" vector-effect="non-scaling-stroke" d="
  M 433.78 352.21
  Q 393.73 366.14 360.65 391.80
  A 0.77 0.76 -32.3 0 0 360.43 392.75
  Q 361.30 394.51 363.11 395.17
  Q 363.57 395.34 363.97 395.63
  Q 365.91 397.06 365.74 398.79"
/>
<path stroke="#23a193" vector-effect="non-scaling-stroke" d="
  M 287.04 501.31
  Q 286.77 500.69 286.86 499.94
  A 1.05 1.04 24.4 0 0 286.52 499.05
  L 284.81 497.51
  Q 284.49 497.23 284.08 497.13
  L 282.66 496.79"
/>
<path stroke="#117464" vector-effect="non-scaling-stroke" d="
  M 282.66 496.79
  Q 289.81 478.31 300.17 460.82"
/>
<path stroke="#19897a" vector-effect="non-scaling-stroke" d="
  M 300.17 460.82
  Q 305.30 452.39 311.39 443.79
  Q 330.18 417.23 354.87 396.74
  A 0.97 0.97 0.0 0 0 354.94 395.31
  L 339.74 380.13
  Q 339.41 379.80 339.83 379.57
  Q 340.30 379.31 340.08 378.67
  Q 340.07 378.62 340.12 378.62
  Q 340.36 378.61 340.53 378.75
  A 0.21 0.21 0.0 0 0 340.87 378.52
  Q 340.77 378.23 340.44 377.86"
/>
<path stroke="#157c6d" vector-effect="non-scaling-stroke" d="
  M 282.66 496.79
  Q 261.40 552.18 267.04 612.21"
/>
<path stroke="#4a9181" vector-effect="non-scaling-stroke" d="
  M 267.04 612.21
  L 261.75 592.97"
/>
<path stroke="#19897a" vector-effect="non-scaling-stroke" d="
  M 836.45 756.05
  L 809.83 729.90"
/>
<path stroke="#157c6d" vector-effect="non-scaling-stroke" d="
  M 642.01 832.52
  Q 574.74 848.11 509.40 835.05
  Q 504.27 834.02 509.50 834.28
  Q 516.75 834.62 525.25 834.20
  Q 576.78 831.66 622.98 808.98"
/>
<path stroke="#0b6454" vector-effect="non-scaling-stroke" d="
  M 657.70 821.97
  L 637.33 801.33"
/>
<path stroke="#19897a" vector-effect="non-scaling-stroke" d="
  M 718.55 762.68
  L 704.86 749.19
  Q 704.48 748.81 703.97 748.64
  Q 703.22 748.39 703.15 747.54
  A 0.56 0.56 0.0 0 0 702.17 747.22
  Q 674.69 779.38 637.33 801.33"
/>
<path stroke="#117464" vector-effect="non-scaling-stroke" d="
  M 637.33 801.33
  L 622.98 808.98"
/>
<path stroke="#23a193" vector-effect="non-scaling-stroke" d="
  M 622.98 808.98
  Q 623.04 807.98 622.43 807.63
  Q 622.06 807.42 622.14 807.00
  Q 622.27 806.33 621.72 806.00
  Q 621.40 805.80 621.25 805.45
  Q 620.74 804.29 619.74 803.46
  Q 619.64 803.37 619.52 803.37
  Q 619.39 803.37 619.25 803.37
  Q 619.15 803.37 619.22 803.45
  Q 619.29 803.54 619.26 803.70
  Q 619.23 803.79 619.15 803.83
  Q 618.59 804.07 617.73 803.21"
/>
<path stroke="#0b6454" vector-effect="non-scaling-stroke" d="
  M 853.26 332.49
  Q 843.95 344.01 831.35 350.02"
/>
<path stroke="#19897a" vector-effect="non-scaling-stroke" d="
  M 776.05 572.39
  L 778.77 581.62
  Q 778.90 582.07 778.91 582.53
  C 778.95 584.46 779.70 586.53 779.85 588.01
  Q 780.66 596.15 778.09 603.94
  Q 778.27 604.25 778.07 604.78
  Q 777.16 607.23 776.20 609.69
  C 775.80 610.73 775.15 611.59 774.73 612.77
  C 772.50 618.98 767.54 623.08 763.49 626.33
  C 761.00 628.32 758.65 629.59 755.90 630.91
  C 755.03 631.32 754.28 631.07 753.40 631.37
  Q 750.39 632.38 747.32 633.18
  C 743.22 634.23 739.08 633.94 734.81 633.91
  C 732.72 633.90 730.80 633.16 728.69 632.86
  C 724.71 632.29 721.73 630.92 718.26 629.38
  Q 717.48 629.03 717.30 628.50
  Q 717.14 628.02 716.65 628.14
  L 716.25 628.25"
/>
<path stroke="#23a193" vector-effect="non-scaling-stroke" d="
  M 713.73 603.67
  Q 714.64 606.51 716.95 608.57
  Q 717.12 608.72 717.12 608.96
  Q 717.12 609.09 717.13 609.23
  Q 717.13 609.56 717.38 609.79
  C 719.00 611.31 720.44 613.00 722.26 614.15
  C 728.55 618.12 735.73 620.12 743.18 618.90
  Q 758.54 616.40 763.87 601.27
  Q 765.66 596.17 765.10 589.22
  C 764.70 584.29 762.09 578.18 758.36 574.86
  Q 758.23 574.75 758.19 574.62
  Q 758.12 574.43 758.11 574.23
  A 1.33 1.28 24.8 0 0 757.81 573.46
  Q 755.13 570.11 751.83 568.18"
/>
<path stroke="#0b6454" vector-effect="non-scaling-stroke" d="
  M 300.17 460.82
  L 288.08 448.65
  Q 287.93 448.49 287.92 448.27
  L 287.92 447.92
  Q 287.91 447.46 287.58 447.15
  C 286.69 446.33 285.54 444.72 284.32 444.48
  Q 283.84 444.39 283.47 444.07
  L 278.53 439.81"
/>
<path stroke="#0b6454" vector-effect="non-scaling-stroke" d="
  M 898.82 421.14
  Q 898.27 422.26 899.58 424.96"
/>
<path stroke="#157c6d" vector-effect="non-scaling-stroke" d="
  M 899.58 424.96
  Q 924.54 504.59 911.96 587.51"
/>
<path stroke="#0b6454" vector-effect="non-scaling-stroke" d="
  M 911.96 587.51
  Q 911.47 587.39 911.68 586.50
  Q 911.89 585.61 911.73 584.69
  Q 911.65 584.21 911.30 583.86
  L 883.59 556.13"
/>
<path stroke="#19897a" vector-effect="non-scaling-stroke" d="
  M 720.78 868.86
  L 707.44 854.82"
/>
<path stroke="#23a193" vector-effect="non-scaling-stroke" d="
  M 707.44 854.82
  L 733.79 841.52
  A 0.59 0.58 -36.2 0 0 733.94 840.59
  L 704.11 810.89"
/>
<path stroke="#1d9183" vector-effect="non-scaling-stroke" d="
  M 767.29 654.23
  C 761.09 655.53 756.89 655.64 752.12 655.21
  Q 751.54 655.16 751.38 655.72
  Q 746.71 671.87 740.42 686.03"
/>
<path stroke="#19897a" vector-effect="non-scaling-stroke" d="
  M 740.42 686.03
  Q 732.27 704.18 722.24 719.87
  Q 721.92 720.37 721.37 720.15
  C 719.82 719.55 718.84 718.01 717.53 717.45
  Q 715.88 716.75 714.12 716.57
  Q 713.90 716.54 713.78 716.36
  Q 713.65 716.17 713.46 716.13
  Q 713.25 716.09 713.11 716.24
  Q 712.57 716.85 712.21 716.36"
/>
<path stroke="#58b6a7" vector-effect="non-scaling-stroke" d="
  M 771.41 570.27
  L 760.46 567.96"
/>
<path stroke="#52a697" vector-effect="non-scaling-stroke" d="
  M 760.46 567.96
  C 752.06 458.35 673.46 369.34 567.24 344.92"
/>
<path stroke="#19897a" vector-effect="non-scaling-stroke" d="
  M 828.73 241.09
  Q 830.57 245.47 831.87 250.13
  C 832.22 251.38 832.12 252.48 832.12 253.77
  Q 832.12 253.88 832.23 253.88
  Q 832.36 253.88 832.49 253.88
  Q 832.71 253.88 832.76 254.09
  C 834.99 263.00 835.50 271.77 832.51 280.76
  Q 831.90 282.58 832.16 285.04
  Q 832.22 285.60 831.71 285.83
  Q 830.85 286.22 831.13 287.19
  Q 831.20 287.44 831.06 287.66
  Q 830.96 287.81 830.83 287.92
  Q 830.61 288.10 830.48 288.35
  L 827.20 294.73
  Q 827.12 294.89 827.12 295.06
  L 827.12 295.48
  A 0.49 0.47 -11.0 0 1 826.81 295.92
  Q 825.64 296.39 825.51 297.59
  Q 825.46 298.14 825.08 298.53
  Q 822.82 300.87 820.63 303.27
  Q 808.01 317.07 789.63 320.91
  C 784.02 322.09 775.74 321.38 771.26 320.96
  Q 767.16 320.57 759.78 317.62
  C 756.50 316.31 752.70 314.09 748.99 312.55"
/>
<path stroke="#5cbeb0" vector-effect="non-scaling-stroke" d="
  M 305.15 696.69
  Q 281.27 702.14 263.97 719.62"
/>
<path stroke="#23a193" vector-effect="non-scaling-stroke" d="
  M 326.44 694.87
  Q 327.02 695.96 328.35 695.90
  A 0.02 0.01 45.7 0 0 328.35 695.87
  Q 328.16 695.86 328.01 696.00
  Q 327.77 696.22 328.01 696.43
  Q 329.72 697.91 331.17 699.60
  C 331.91 700.46 332.18 701.71 333.15 702.66
  Q 333.50 703.01 333.75 703.44
  L 336.68 708.51
  Q 336.84 708.78 336.89 709.10
  Q 336.98 709.65 337.48 709.98
  A 0.88 0.88 0.0 0 1 337.88 710.72
  L 337.88 711.50
  A 0.59 0.59 0.0 0 0 338.40 712.09
  Q 339.01 712.17 338.91 712.76
  Q 338.65 714.31 339.57 715.12
  Q 339.90 715.42 339.87 715.86
  Q 339.78 717.20 340.68 718.21
  Q 341.02 718.59 340.89 719.09
  Q 340.53 720.45 341.61 721.26
  Q 341.88 721.46 341.88 721.80
  L 341.88 724.92
  Q 341.88 725.37 342.20 725.69
  L 342.56 726.05
  Q 342.88 726.37 342.88 726.83
  L 342.88 741.26
  Q 342.88 741.74 342.43 741.91
  Q 342.25 741.97 342.13 742.13
  A 1.14 0.71 -36.3 0 0 341.88 742.75
  L 341.88 746.26
  Q 341.88 746.74 341.42 746.91
  Q 341.25 746.97 341.13 747.13
  A 1.14 0.71 -36.3 0 0 340.88 747.75
  L 340.88 751.95
  Q 340.88 752.37 340.65 752.72
  Q 339.64 754.32 339.42 755.13
  Q 338.51 758.42 336.75 761.33
  Q 336.51 761.74 336.10 761.99
  Q 334.95 762.73 334.85 764.14
  Q 334.81 764.63 334.53 765.02
  Q 329.87 771.50 323.00 777.26
  Q 321.97 778.12 320.99 778.43
  Q 320.94 778.45 320.29 778.99
  Q 320.00 779.23 319.58 779.13
  A 0.71 0.70 -57.6 0 0 319.00 779.26
  L 315.43 781.95
  Q 315.06 782.23 314.61 782.14
  Q 313.84 782.01 313.32 782.43
  C 312.27 783.29 311.22 783.80 309.93 784.26
  Q 309.49 784.41 309.12 784.70
  C 307.04 786.29 305.31 785.81 303.10 786.61
  Q 301.91 787.04 300.67 787.29
  C 299.83 787.46 298.90 787.04 297.99 787.82
  Q 297.65 788.11 297.19 788.10
  Q 295.29 788.05 291.51 788.53
  Q 285.30 789.34 275.56 786.43
  Q 272.81 785.61 270.09 784.69
  C 266.33 783.41 262.92 781.28 259.41 779.33
  Q 254.69 776.73 248.60 770.03
  Q 247.86 769.22 245.72 765.81
  Q 244.23 763.44 241.98 762.01"
/>
<path stroke="#5cbeb0" vector-effect="non-scaling-stroke" d="
  M 481.76 827.80
  Q 492.80 832.04 504.30 833.99
  Q 504.74 834.07 504.53 834.46
  Q 504.34 834.84 504.10 834.77
  Q 502.92 834.43 503.74 835.26
  L 552.72 884.21
  Q 553.09 884.59 552.67 884.90
  L 552.28 885.19"
/>
<path stroke="#52a697" vector-effect="non-scaling-stroke" d="
  M 552.28 885.19
  L 523.27 883.15"
/>
<path stroke="#19897a" vector-effect="non-scaling-stroke" d="
  M 760.46 567.96
  L 751.83 568.18"
/>
<path stroke="#1d9183" vector-effect="non-scaling-stroke" d="
  M 751.83 568.18
  L 747.38 568.73"
/>
<path stroke="#5cbeb0" vector-effect="non-scaling-stroke" d="
  M 273.40 631.00
  Q 268.85 621.76 267.04 612.21"
/>
<path stroke="#23a193" vector-effect="non-scaling-stroke" d="
  M 809.59 804.57
  Q 809.50 804.39 809.52 804.20
  Q 809.54 803.91 809.25 803.85
  Q 809.06 803.81 808.97 803.99
  A 0.31 0.31 0.0 0 1 808.47 804.08
  L 800.20 795.79
  A 1.08 1.07 46.4 0 1 800.23 794.24
  Q 820.43 775.77 836.45 756.05"
/>
<path stroke="#1d9183" vector-effect="non-scaling-stroke" d="
  M 836.45 756.05
  Q 896.99 681.37 911.96 587.51"
/>
<path stroke="#1d9183" vector-effect="non-scaling-stroke" d="
  M 900.00 424.48
  Q 899.85 424.45 899.73 424.41
  Q 899.45 424.33 899.51 424.61
  L 899.58 424.96"
/>
<path stroke="#19897a" vector-effect="non-scaling-stroke" d="
  M 365.31 706.43
  Q 365.02 707.09 365.07 707.83
  Q 365.11 708.39 365.49 708.82
  L 366.82 710.31
  A 0.93 0.92 -59.8 0 1 367.03 711.12
  Q 366.76 712.34 367.60 713.18
  Q 367.96 713.53 367.98 714.03
  L 368.07 716.63
  Q 368.08 716.75 368.19 716.81
  L 368.61 717.04
  Q 368.97 717.23 368.98 717.63
  L 369.07 721.62
  Q 369.07 721.75 369.18 721.81
  L 369.67 722.07
  Q 370.04 722.27 370.04 722.70
  L 370.00 748.03
  Q 370.00 748.55 369.63 748.93
  L 369.31 749.24
  A 0.93 0.90 -22.3 0 0 369.04 749.86
  L 368.93 753.14
  Q 368.92 753.51 368.63 753.75
  Q 367.58 754.63 367.97 756.04
  A 0.81 0.80 65.7 0 1 367.64 756.93
  Q 367.04 757.32 366.96 757.99
  Q 366.91 758.36 366.68 758.64
  Q 365.69 759.85 366.02 761.42
  A 0.44 0.43 -19.0 0 1 365.78 761.90
  L 365.30 762.14
  A 0.03 0.03 0.0 0 0 365.31 762.20
  L 365.78 762.29
  A 0.23 0.23 0.0 0 1 365.87 762.70
  Q 364.61 763.58 364.95 765.21
  A 0.80 0.80 0.0 0 1 364.61 766.04
  Q 362.74 767.25 362.93 769.48
  Q 362.98 769.96 362.54 770.16
  Q 362.02 770.39 362.18 770.99
  Q 362.32 771.53 361.89 771.89
  Q 361.03 772.64 361.10 773.79
  Q 361.13 774.28 360.82 774.65
  L 358.41 777.48
  Q 358.15 777.79 358.15 778.20
  Q 358.15 779.58 357.14 780.34
  Q 356.74 780.64 356.49 781.09
  C 353.22 786.78 348.23 791.60 343.49 796.07
  Q 342.40 797.10 340.85 798.21
  C 338.52 799.87 336.16 801.89 333.96 803.22
  Q 325.80 808.16 316.88 811.52
  C 314.73 812.33 311.95 812.72 310.14 813.39
  Q 306.75 814.63 303.18 815.03
  C 300.94 815.28 298.70 816.01 296.50 816.11
  Q 288.88 816.45 280.37 815.84
  C 278.27 815.69 275.80 814.68 273.31 814.67
  Q 272.83 814.67 272.40 814.47
  C 270.94 813.78 269.05 813.69 267.85 813.30
  Q 263.91 812.04 259.99 810.70
  C 259.03 810.38 256.57 809.16 256.34 809.16
  Q 256.06 809.16 255.96 809.33
  Q 255.82 809.59 255.54 809.50
  Q 252.55 808.54 250.13 806.57
  Q 248.91 805.58 248.10 805.30
  Q 246.14 804.63 245.59 805.80"
/>
<path stroke="#52a697" vector-effect="non-scaling-stroke" d="
  M 403.93 793.68
  C 400.23 809.58 393.44 823.19 382.02 834.87
  Q 381.70 835.20 382.10 835.44
  C 425.66 861.46 472.81 877.06 523.27 883.15"
/>
<path stroke="#13796a" vector-effect="non-scaling-stroke" d="
  M 523.27 883.15
  Q 523.15 883.63 523.49 883.77
  Q 523.74 883.86 523.51 883.98
  Q 523.38 884.05 523.25 884.02
  Q 523.04 883.98 522.51 884.01
  Q 522.28 884.02 522.18 884.20
  Q 522.01 884.51 522.26 884.76
  L 543.63 906.14
  Q 544.00 906.50 544.00 907.03
  L 543.99 909.39"
/>
</g>
<path fill="#27a99c" d="
  M 683.47 200.06
  Q 683.33 200.74 682.42 200.24
  Q 681.85 199.92 681.55 199.82
  Q 587.02 167.10 488.75 187.63
  Q 488.47 187.69 488.26 187.84
  Q 487.85 187.75 487.51 187.82
  Q 405.05 206.24 339.78 259.46
  Q 309.66 284.03 285.73 314.47
  Q 285.46 314.82 285.17 314.49
  C 282.73 311.69 279.74 309.48 276.90 307.13
  C 276.23 306.58 275.62 306.55 274.86 306.17
  A 0.64 0.63 -66.8 0 1 274.55 305.38
  Q 274.86 304.58 274.75 303.73
  C 375.80 186.69 538.37 145.15 683.47 200.06
  Z"
/>
<path fill="#024f3e" d="
  M 683.47 200.06
  Q 730.48 218.03 771.05 248.08
  Q 759.56 256.51 752.99 269.40
  C 683.36 220.37 600.11 201.12 516.06 215.27
  Q 516.58 214.79 515.14 214.15
  Q 514.45 213.84 514.01 213.40
  Q 502.07 201.44 490.16 189.46
  Q 489.27 188.57 488.26 187.84
  Q 488.47 187.69 488.75 187.63
  Q 587.02 167.10 681.55 199.82
  Q 681.85 199.92 682.42 200.24
  Q 683.33 200.74 683.47 200.06
  Z"
/>
<path fill="#13796a" d="
  M 488.26 187.84
  Q 489.27 188.57 490.16 189.46
  Q 502.07 201.44 514.01 213.40
  Q 514.45 213.84 515.14 214.15
  Q 516.58 214.79 516.06 215.27
  Q 431.81 230.21 366.05 285.55
  L 339.78 259.46
  Q 405.05 206.24 487.51 187.82
  Q 487.85 187.75 488.26 187.84
  Z"
/>
<path fill="#000000" d="
  M 1177.57 367.28
  C 1209.32 373.94 1231.86 398.08 1233.84 430.92
  C 1237.52 491.93 1190.19 521.54 1135.73 524.88
  C 1100.71 527.03 1064.18 521.13 1032.29 506.16
  A 0.59 0.58 21.6 0 1 1031.98 505.45
  L 1046.25 460.26
  Q 1046.40 459.78 1046.86 459.99
  C 1071.04 471.03 1096.52 477.39 1123.24 476.69
  C 1148.24 476.04 1172.86 464.61 1173.84 436.47
  C 1174.61 414.13 1159.43 402.25 1139.25 397.73
  C 1117.29 392.80 1094.15 393.84 1071.77 394.04
  A 0.51 0.51 0.0 0 1 1071.25 393.53
  L 1071.25 346.01
  Q 1071.25 345.50 1071.76 345.50
  C 1090.42 345.50 1109.84 346.67 1128.25 343.53
  C 1145.38 340.61 1162.31 331.90 1165.84 313.27
  C 1169.18 295.65 1161.36 279.34 1144.22 273.03
  Q 1133.38 269.04 1121.75 268.93
  C 1098.52 268.72 1076.11 274.59 1055.32 284.85
  A 0.66 0.66 0.0 0 1 1054.41 284.46
  L 1039.87 238.80
  A 0.76 0.76 0.0 0 1 1040.28 237.87
  Q 1065.73 226.38 1093.75 222.73
  C 1120.33 219.27 1145.99 219.06 1171.19 226.63
  C 1200.34 235.38 1222.22 255.58 1226.29 286.74
  C 1231.09 323.48 1213.49 354.89 1177.51 366.05
  Q 1175.16 366.78 1177.57 367.28
  Z"
/>
<path fill="#000000" d="
  M 1324.68 348.66
  C 1344.46 328.26 1372.86 321.14 1400.61 324.42
  C 1455.19 330.87 1484.09 372.78 1481.98 426.00
  C 1479.09 499.17 1414.91 535.94 1347.49 522.79
  C 1292.88 512.13 1269.79 463.01 1264.82 412.49
  C 1257.21 335.27 1279.40 236.83 1370.76 222.26
  C 1397.65 217.97 1426.72 221.29 1452.87 228.96
  A 0.45 0.44 14.4 0 1 1453.18 229.47
  L 1443.81 276.75
  Q 1443.71 277.30 1443.18 277.11
  C 1408.79 264.58 1365.95 263.21 1342.08 296.05
  C 1331.40 310.73 1325.86 330.38 1324.14 348.41
  Q 1324.06 349.30 1324.68 348.66
  Z
  M 1360.04 371.84
  C 1341.41 376.96 1325.53 392.82 1324.54 413.00
  C 1323.16 441.00 1337.36 473.08 1368.74 476.83
  C 1407.88 481.51 1427.37 446.33 1422.49 412.01
  C 1417.92 379.90 1391.27 363.26 1360.04 371.84
  Z"
/>
<path fill="#000000" d="
  M 1641.02 221.93
  C 1701.37 231.02 1725.88 286.23 1731.68 340.25
  C 1738.60 404.65 1729.99 504.80 1649.25 522.42
  Q 1622.46 528.26 1594.79 522.51
  C 1537.03 510.50 1515.42 455.75 1511.05 403.29
  C 1505.36 335.08 1516.62 234.54 1603.02 221.86
  Q 1622.03 219.07 1641.02 221.93
  Z
  M 1617.88 269.29
  C 1580.21 272.32 1572.29 323.33 1570.77 352.00
  C 1568.96 386.12 1566.60 475.57 1620.07 476.83
  C 1666.37 477.93 1672.56 416.71 1673.29 384.25
  C 1674.06 350.03 1672.27 264.91 1617.88 269.29
  Z"
/>
<path fill="#27a99c" d="
  M 806.35 236.74
  L 813.62 246.29
  Q 813.94 246.71 813.88 247.23
  Q 813.82 247.79 814.26 247.87
  Q 814.62 247.93 814.77 248.28
  L 816.83 253.19
  Q 817.05 253.70 816.92 254.24
  Q 816.52 255.93 817.62 257.13
  A 1.54 1.50 22.9 0 1 818.01 258.06
  C 818.27 262.86 819.89 266.49 818.63 271.42
  Q 818.50 271.91 818.63 272.40
  Q 818.77 272.99 818.45 273.18
  Q 818.10 273.40 818.14 273.81
  Q 818.26 274.94 817.93 276.02
  Q 815.96 282.66 812.33 288.48
  C 809.98 292.25 806.42 295.40 803.15 298.65
  Q 802.84 298.96 802.43 299.08
  C 800.54 299.64 798.50 301.57 796.42 302.59
  Q 794.64 303.47 791.67 304.24
  C 789.18 304.89 786.88 305.84 784.38 306.01
  Q 778.87 306.40 773.37 305.79
  C 771.89 305.62 770.81 304.76 769.06 304.83
  A 1.05 1.04 68.2 0 1 768.23 304.47
  Q 767.10 303.16 765.41 303.03
  Q 764.95 303.00 764.55 302.77
  L 760.19 300.25
  Q 759.77 300.01 759.42 299.68
  Q 758.73 299.02 757.79 298.85
  Q 757.35 298.77 757.06 298.43
  Q 756.48 297.76 755.62 297.60
  A 0.90 0.89 -89.6 0 1 754.89 296.85
  Q 754.76 295.94 753.81 295.89
  Q 753.32 295.86 752.98 295.52
  L 748.78 291.27
  A 0.60 0.58 -62.3 0 1 748.62 290.74
  Q 748.68 290.45 748.47 290.22
  A 0.32 0.32 0.0 0 0 747.92 290.42
  Q 747.83 291.57 746.90 291.43
  Q 747.84 279.71 752.99 269.40
  Q 759.56 256.51 771.05 248.08
  Q 787.23 236.56 806.35 236.74
  Z"
/>
<path fill="#1f988a" d="
  M 806.35 236.74
  Q 818.30 236.71 828.73 241.09
  Q 830.57 245.47 831.87 250.13
  C 832.22 251.38 832.12 252.48 832.12 253.77
  Q 832.12 253.88 832.23 253.88
  Q 832.36 253.88 832.49 253.88
  Q 832.71 253.88 832.76 254.09
  C 834.99 263.00 835.50 271.77 832.51 280.76
  Q 831.90 282.58 832.16 285.04
  Q 832.22 285.60 831.71 285.83
  Q 830.85 286.22 831.13 287.19
  Q 831.20 287.44 831.06 287.66
  Q 830.96 287.81 830.83 287.92
  Q 830.61 288.10 830.48 288.35
  L 827.20 294.73
  Q 827.12 294.89 827.12 295.06
  L 827.12 295.48
  A 0.49 0.47 -11.0 0 1 826.81 295.92
  Q 825.64 296.39 825.51 297.59
  Q 825.46 298.14 825.08 298.53
  Q 822.82 300.87 820.63 303.27
  Q 808.01 317.07 789.63 320.91
  C 784.02 322.09 775.74 321.38 771.26 320.96
  Q 767.16 320.57 759.78 317.62
  C 756.50 316.31 752.70 314.09 748.99 312.55
  Q 746.05 302.21 746.90 291.43
  Q 747.83 291.57 747.92 290.42
  A 0.32 0.32 0.0 0 1 748.47 290.22
  Q 748.68 290.45 748.62 290.74
  A 0.60 0.58 -62.3 0 0 748.78 291.27
  L 752.98 295.52
  Q 753.32 295.86 753.81 295.89
  Q 754.76 295.94 754.89 296.85
  A 0.90 0.89 -89.6 0 0 755.62 297.60
  Q 756.48 297.76 757.06 298.43
  Q 757.35 298.77 757.79 298.85
  Q 758.73 299.02 759.42 299.68
  Q 759.77 300.01 760.19 300.25
  L 764.55 302.77
  Q 764.95 303.00 765.41 303.03
  Q 767.10 303.16 768.23 304.47
  A 1.05 1.04 68.2 0 0 769.06 304.83
  C 770.81 304.76 771.89 305.62 773.37 305.79
  Q 778.87 306.40 784.38 306.01
  C 786.88 305.84 789.18 304.89 791.67 304.24
  Q 794.64 303.47 796.42 302.59
  C 798.50 301.57 800.54 299.64 802.43 299.08
  Q 802.84 298.96 803.15 298.65
  C 806.42 295.40 809.98 292.25 812.33 288.48
  Q 815.96 282.66 817.93 276.02
  Q 818.26 274.94 818.14 273.81
  Q 818.10 273.40 818.45 273.18
  Q 818.77 272.99 818.63 272.40
  Q 818.50 271.91 818.63 271.42
  C 819.89 266.49 818.27 262.86 818.01 258.06
  A 1.54 1.50 22.9 0 0 817.62 257.13
  Q 816.52 255.93 816.92 254.24
  Q 817.05 253.70 816.83 253.19
  L 814.77 248.28
  Q 814.62 247.93 814.26 247.87
  Q 813.82 247.79 813.88 247.23
  Q 813.94 246.71 813.62 246.29
  L 806.35 236.74
  Z"
/>
<path fill="#13796a" d="
  M 828.73 241.09
  C 865.58 255.89 876.69 301.75 853.26 332.49
  Q 843.95 344.01 831.35 350.02
  C 798.09 365.33 759.09 347.79 748.99 312.55
  C 752.70 314.09 756.50 316.31 759.78 317.62
  Q 767.16 320.57 771.26 320.96
  C 775.74 321.38 784.02 322.09 789.63 320.91
  Q 808.01 317.07 820.63 303.27
  Q 822.82 300.87 825.08 298.53
  Q 825.46 298.14 825.51 297.59
  Q 825.64 296.39 826.81 295.92
  A 0.49 0.47 -11.0 0 0 827.12 295.48
  L 827.12 295.06
  Q 827.12 294.89 827.20 294.73
  L 830.48 288.35
  Q 830.61 288.10 830.83 287.92
  Q 830.96 287.81 831.06 287.66
  Q 831.20 287.44 831.13 287.19
  Q 830.85 286.22 831.71 285.83
  Q 832.22 285.60 832.16 285.04
  Q 831.90 282.58 832.51 280.76
  C 835.50 271.77 834.99 263.00 832.76 254.09
  Q 832.71 253.88 832.49 253.88
  Q 832.36 253.88 832.23 253.88
  Q 832.12 253.88 832.12 253.77
  C 832.12 252.48 832.22 251.38 831.87 250.13
  Q 830.57 245.47 828.73 241.09
  Z"
/>
<path fill="#1f988a" d="
  M 339.78 259.46
  L 366.05 285.55
  Q 318.36 326.11 289.38 382.32
  Q 285.57 389.72 282.07 397.36
  Q 281.65 396.62 281.91 395.93
  Q 282.08 395.48 281.74 395.15
  L 253.68 367.07
  Q 252.34 365.73 251.45 367.40
  Q 226.11 415.14 216.23 468.46
  Q 214.89 469.30 214.49 468.91
  Q 205.77 460.36 197.53 451.59
  Q 219.17 368.54 274.75 303.73
  Q 274.86 304.58 274.55 305.38
  A 0.64 0.63 -66.8 0 0 274.86 306.17
  C 275.62 306.55 276.23 306.58 276.90 307.13
  C 279.74 309.48 282.73 311.69 285.17 314.49
  Q 285.46 314.82 285.73 314.47
  Q 309.66 284.03 339.78 259.46
  Z"
/>
<path fill="#27a99c" d="
  M 554.04 331.75
  L 566.82 343.92
  Q 566.95 344.05 567.12 344.11
  Q 567.41 344.22 567.54 344.55
  Q 567.57 344.62 567.49 344.63
  Q 567.22 344.66 567.24 344.92
  Q 498.99 330.54 433.78 352.21
  Q 428.86 345.92 422.82 340.30
  Q 422.16 339.68 421.56 338.95
  Q 421.14 338.44 421.75 337.75
  Q 487.31 318.57 554.04 331.75
  Z"
/>
<path fill="#91d3c3" d="
  M 554.04 331.75
  C 671.45 355.66 757.93 451.55 771.41 570.27
  L 760.46 567.96
  C 752.06 458.35 673.46 369.34 567.24 344.92
  Q 567.22 344.66 567.49 344.63
  Q 567.57 344.62 567.54 344.55
  Q 567.41 344.22 567.12 344.11
  Q 566.95 344.05 566.82 343.92
  L 554.04 331.75
  Z"
/>
<path fill="#024f3e" d="
  M 853.26 332.49
  Q 882.27 373.95 898.82 421.14
  Q 898.27 422.26 899.58 424.96
  Q 924.54 504.59 911.96 587.51
  Q 911.47 587.39 911.68 586.50
  Q 911.89 585.61 911.73 584.69
  Q 911.65 584.21 911.30 583.86
  L 883.59 556.13
  C 890.10 482.76 872.34 411.30 831.35 350.02
  Q 843.95 344.01 853.26 332.49
  Z"
/>
<path fill="#1f988a" d="
  M 421.75 337.75
  Q 421.14 338.44 421.56 338.95
  Q 422.16 339.68 422.82 340.30
  Q 428.86 345.92 433.78 352.21
  Q 393.73 366.14 360.65 391.80
  A 0.77 0.76 -32.3 0 0 360.43 392.75
  Q 361.30 394.51 363.11 395.17
  Q 363.57 395.34 363.97 395.63
  Q 365.91 397.06 365.74 398.79
  Q 312.42 439.22 287.04 501.31
  Q 286.77 500.69 286.86 499.94
  A 1.05 1.04 24.4 0 0 286.52 499.05
  L 284.81 497.51
  Q 284.49 497.23 284.08 497.13
  L 282.66 496.79
  Q 289.81 478.31 300.17 460.82
  Q 305.30 452.39 311.39 443.79
  Q 330.18 417.23 354.87 396.74
  A 0.97 0.97 0.0 0 0 354.94 395.31
  L 339.74 380.13
  Q 339.41 379.80 339.83 379.57
  Q 340.30 379.31 340.08 378.67
  Q 340.07 378.62 340.12 378.62
  Q 340.36 378.61 340.53 378.75
  A 0.21 0.21 0.0 0 0 340.87 378.52
  Q 340.77 378.23 340.44 377.86
  C 365.74 360.14 392.10 346.69 421.75 337.75
  Z"
/>
<path fill="#13796a" d="
  M 567.24 344.92
  C 673.46 369.34 752.06 458.35 760.46 567.96
  L 751.83 568.18
  L 747.38 568.73
  Q 739.68 491.44 689.37 433.37
  C 606.96 338.22 466.24 324.12 365.74 398.79
  Q 365.91 397.06 363.97 395.63
  Q 363.57 395.34 363.11 395.17
  Q 361.30 394.51 360.43 392.75
  A 0.77 0.76 -32.3 0 1 360.65 391.80
  Q 393.73 366.14 433.78 352.21
  Q 498.99 330.54 567.24 344.92
  Z"
/>
<path fill="#27a99c" d="
  M 282.07 397.36
  C 271.94 420.45 264.41 444.17 259.96 469.09
  Q 250.20 522.50 259.03 576.38
  Q 260.24 583.76 261.75 592.97
  Q 230.01 561.87 212.25 543.75
  Q 211.46 542.96 210.64 543.21
  Q 209.41 505.53 216.23 468.46
  Q 226.11 415.14 251.45 367.40
  Q 252.34 365.73 253.68 367.07
  L 281.74 395.15
  Q 282.08 395.48 281.91 395.93
  Q 281.65 396.62 282.07 397.36
  Z"
/>
<path fill="#13796a" d="
  M 340.44 377.86
  Q 340.77 378.23 340.87 378.52
  A 0.21 0.21 0.0 0 1 340.53 378.75
  Q 340.36 378.61 340.12 378.62
  Q 340.07 378.62 340.08 378.67
  Q 340.30 379.31 339.83 379.57
  Q 339.41 379.80 339.74 380.13
  L 354.94 395.31
  A 0.97 0.97 0.0 0 1 354.87 396.74
  Q 330.18 417.23 311.39 443.79
  Q 305.30 452.39 300.17 460.82
  L 288.08 448.65
  Q 287.93 448.49 287.92 448.27
  L 287.92 447.92
  Q 287.91 447.46 287.58 447.15
  C 286.69 446.33 285.54 444.72 284.32 444.48
  Q 283.84 444.39 283.47 444.07
  L 278.53 439.81
  Q 304.42 403.96 340.44 377.86
  Z"
/>
<path fill="#13796a" d="
  M 898.82 421.14
  L 900.00 424.48
  Q 899.85 424.45 899.73 424.41
  Q 899.45 424.33 899.51 424.61
  L 899.58 424.96
  Q 898.27 422.26 898.82 421.14
  Z"
/>
<path fill="#27a99c" d="
  M 900.00 424.48
  C 945.25 558.45 910.29 705.53 809.59 804.57
  Q 809.50 804.39 809.52 804.20
  Q 809.54 803.91 809.25 803.85
  Q 809.06 803.81 808.97 803.99
  A 0.31 0.31 0.0 0 1 808.47 804.08
  L 800.20 795.79
  A 1.08 1.07 46.4 0 1 800.23 794.24
  Q 820.43 775.77 836.45 756.05
  Q 896.99 681.37 911.96 587.51
  Q 924.54 504.59 899.58 424.96
  L 899.51 424.61
  Q 899.45 424.33 899.73 424.41
  Q 899.85 424.45 900.00 424.48
  Z"
/>
<path fill="#024f3e" d="
  M 278.53 439.81
  L 283.47 444.07
  Q 283.84 444.39 284.32 444.48
  C 285.54 444.72 286.69 446.33 287.58 447.15
  Q 287.91 447.46 287.92 447.92
  L 287.92 448.27
  Q 287.93 448.49 288.08 448.65
  L 300.17 460.82
  Q 289.81 478.31 282.66 496.79
  Q 261.40 552.18 267.04 612.21
  L 261.75 592.97
  Q 260.24 583.76 259.03 576.38
  Q 250.20 522.50 259.96 469.09
  Q 268.49 453.92 278.53 439.81
  Z"
/>
<path fill="#13796a" d="
  M 197.53 451.59
  Q 205.77 460.36 214.49 468.91
  Q 214.89 469.30 216.23 468.46
  Q 209.41 505.53 210.64 543.21
  Q 213.71 638.46 263.97 719.62
  Q 253.41 730.50 247.01 745.13
  Q 243.62 740.16 240.66 735.34
  C 188.43 650.17 173.01 548.48 197.53 451.59
  Z"
/>
<path fill="#27a99c" d="
  M 282.66 496.79
  L 284.08 497.13
  Q 284.49 497.23 284.81 497.51
  L 286.52 499.05
  A 1.05 1.04 24.4 0 1 286.86 499.94
  Q 286.77 500.69 287.04 501.31
  Q 262.44 563.78 273.40 631.00
  Q 268.85 621.76 267.04 612.21
  Q 261.40 552.18 282.66 496.79
  Z"
/>
<path fill="#91d3c3" d="
  M 210.64 543.21
  Q 211.46 542.96 212.25 543.75
  Q 230.01 561.87 261.75 592.97
  L 267.04 612.21
  Q 268.85 621.76 273.40 631.00
  C 273.82 632.75 274.09 634.55 274.74 636.28
  Q 286.57 667.90 305.15 696.69
  Q 281.27 702.14 263.97 719.62
  Q 213.71 638.46 210.64 543.21
  Z"
/>
<path fill="#13796a" d="
  M 883.59 556.13
  L 911.30 583.86
  Q 911.65 584.21 911.73 584.69
  Q 911.89 585.61 911.68 586.50
  Q 911.47 587.39 911.96 587.51
  Q 896.99 681.37 836.45 756.05
  L 809.83 729.90
  Q 873.08 655.14 883.59 556.13
  Z"
/>
<path fill="#1f988a" d="
  M 760.46 567.96
  L 771.41 570.27
  L 776.05 572.39
  L 778.77 581.62
  Q 778.90 582.07 778.91 582.53
  C 778.95 584.46 779.70 586.53 779.85 588.01
  Q 780.66 596.15 778.09 603.94
  Q 778.27 604.25 778.07 604.78
  Q 777.16 607.23 776.20 609.69
  C 775.80 610.73 775.15 611.59 774.73 612.77
  C 772.50 618.98 767.54 623.08 763.49 626.33
  C 761.00 628.32 758.65 629.59 755.90 630.91
  C 755.03 631.32 754.28 631.07 753.40 631.37
  Q 750.39 632.38 747.32 633.18
  C 743.22 634.23 739.08 633.94 734.81 633.91
  C 732.72 633.90 730.80 633.16 728.69 632.86
  C 724.71 632.29 721.73 630.92 718.26 629.38
  Q 717.48 629.03 717.30 628.50
  Q 717.14 628.02 716.65 628.14
  L 716.25 628.25
  Q 711.39 616.38 713.73 603.67
  Q 714.64 606.51 716.95 608.57
  Q 717.12 608.72 717.12 608.96
  Q 717.12 609.09 717.13 609.23
  Q 717.13 609.56 717.38 609.79
  C 719.00 611.31 720.44 613.00 722.26 614.15
  C 728.55 618.12 735.73 620.12 743.18 618.90
  Q 758.54 616.40 763.87 601.27
  Q 765.66 596.17 765.10 589.22
  C 764.70 584.29 762.09 578.18 758.36 574.86
  Q 758.23 574.75 758.19 574.62
  Q 758.12 574.43 758.11 574.23
  A 1.33 1.28 24.8 0 0 757.81 573.46
  Q 755.13 570.11 751.83 568.18
  L 760.46 567.96
  Z"
/>
<path fill="#27a99c" d="
  M 751.83 568.18
  Q 755.13 570.11 757.81 573.46
  A 1.33 1.28 24.8 0 1 758.11 574.23
  Q 758.12 574.43 758.19 574.62
  Q 758.23 574.75 758.36 574.86
  C 762.09 578.18 764.70 584.29 765.10 589.22
  Q 765.66 596.17 763.87 601.27
  Q 758.54 616.40 743.18 618.90
  C 735.73 620.12 728.55 618.12 722.26 614.15
  C 720.44 613.00 719.00 611.31 717.38 609.79
  Q 717.13 609.56 717.13 609.23
  Q 717.12 609.09 717.12 608.96
  Q 717.12 608.72 716.95 608.57
  Q 714.64 606.51 713.73 603.67
  C 717.19 585.62 729.92 573.33 747.38 568.73
  L 751.83 568.18
  Z"
/>
<path fill="#13796a" d="
  M 776.05 572.39
  C 799.25 583.76 807.31 612.30 794.20 634.26
  Q 785.30 649.19 767.29 654.23
  C 761.09 655.53 756.89 655.64 752.12 655.21
  Q 751.54 655.16 751.38 655.72
  Q 746.71 671.87 740.42 686.03
  Q 732.27 704.18 722.24 719.87
  Q 721.92 720.37 721.37 720.15
  C 719.82 719.55 718.84 718.01 717.53 717.45
  Q 715.88 716.75 714.12 716.57
  Q 713.90 716.54 713.78 716.36
  Q 713.65 716.17 713.46 716.13
  Q 713.25 716.09 713.11 716.24
  Q 712.57 716.85 712.21 716.36
  Q 730.67 686.54 740.00 652.57
  Q 740.11 652.16 739.72 652.00
  C 729.43 647.66 720.22 638.92 716.25 628.25
  L 716.65 628.14
  Q 717.14 628.02 717.30 628.50
  Q 717.48 629.03 718.26 629.38
  C 721.73 630.92 724.71 632.29 728.69 632.86
  C 730.80 633.16 732.72 633.90 734.81 633.91
  C 739.08 633.94 743.22 634.23 747.32 633.18
  Q 750.39 632.38 753.40 631.37
  C 754.28 631.07 755.03 631.32 755.90 630.91
  C 758.65 629.59 761.00 628.32 763.49 626.33
  C 767.54 623.08 772.50 618.98 774.73 612.77
  C 775.15 611.59 775.80 610.73 776.20 609.69
  Q 777.16 607.23 778.07 604.78
  Q 778.27 604.25 778.09 603.94
  Q 780.66 596.15 779.85 588.01
  C 779.70 586.53 778.95 584.46 778.91 582.53
  Q 778.90 582.07 778.77 581.62
  L 776.05 572.39
  Z"
/>
<path fill="#000000" d="
  M 1108.37 639.96
  Q 1108.03 640.07 1108.36 640.22
  C 1115.84 643.58 1118.64 648.75 1121.03 656.75
  Q 1126.77 675.95 1132.42 695.19
  Q 1132.58 695.75 1131.99 695.75
  L 1108.05 695.75
  Q 1107.59 695.75 1107.48 695.31
  Q 1103.73 680.61 1099.97 666.01
  C 1098.11 658.78 1095.24 652.18 1086.49 651.05
  Q 1078.81 650.06 1067.89 650.64
  Q 1067.50 650.66 1067.50 651.05
  L 1067.50 695.37
  A 0.38 0.37 -90.0 0 1 1067.13 695.75
  L 1044.75 695.75
  Q 1044.25 695.75 1044.25 695.25
  L 1044.25 583.77
  Q 1044.25 583.29 1044.73 583.29
  Q 1067.05 583.18 1089.24 583.22
  C 1109.40 583.25 1128.38 592.43 1127.05 615.80
  C 1126.38 627.56 1119.77 636.25 1108.37 639.96
  Z
  M 1067.52 602.24
  L 1067.46 631.58
  A 0.25 0.25 0.0 0 0 1067.71 631.83
  L 1087.01 631.86
  A 16.73 13.38 0.1 0 0 1103.77 618.51
  L 1103.77 615.43
  A 16.73 13.38 0.1 0 0 1087.07 602.02
  L 1067.77 601.99
  A 0.25 0.25 0.0 0 0 1067.52 602.24
  Z"
/>
<path fill="#000000" d="
  M 1175.25 648.14
  L 1175.25 676.86
  A 0.39 0.39 0.0 0 0 1175.64 677.25
  L 1220.86 677.25
  A 0.39 0.39 0.0 0 1 1221.25 677.64
  L 1221.25 695.36
  A 0.39 0.39 0.0 0 1 1220.86 695.75
  L 1152.39 695.75
  A 0.39 0.39 0.0 0 1 1152.00 695.36
  L 1152.00 583.64
  A 0.39 0.39 0.0 0 1 1152.39 583.25
  L 1219.61 583.25
  A 0.39 0.39 0.0 0 1 1220.00 583.64
  L 1220.00 601.61
  A 0.39 0.39 0.0 0 1 1219.61 602.00
  L 1175.64 602.00
  A 0.39 0.39 0.0 0 0 1175.25 602.39
  L 1175.25 628.61
  A 0.39 0.39 0.0 0 0 1175.64 629.00
  L 1215.86 629.00
  A 0.39 0.39 0.0 0 1 1216.25 629.39
  L 1216.25 647.36
  A 0.39 0.39 0.0 0 1 1215.86 647.75
  L 1175.64 647.75
  A 0.39 0.39 0.0 0 0 1175.25 648.14
  Z"
/>
<path fill="#000000" d="
  M 1315.89 668.50
  L 1273.33 668.50
  A 0.36 0.36 0.0 0 0 1272.99 668.74
  L 1263.49 695.51
  A 0.36 0.36 0.0 0 1 1263.15 695.75
  L 1239.17 695.75
  A 0.36 0.36 0.0 0 1 1238.83 695.27
  L 1279.05 583.49
  A 0.36 0.36 0.0 0 1 1279.39 583.25
  L 1310.62 583.25
  A 0.36 0.36 0.0 0 1 1310.96 583.49
  L 1351.02 695.27
  A 0.36 0.36 0.0 0 1 1350.68 695.75
  L 1326.40 695.75
  A 0.36 0.36 0.0 0 1 1326.06 695.51
  L 1316.23 668.74
  A 0.36 0.36 0.0 0 0 1315.89 668.50
  Z
  M 1278.65 649.30
  A 0.32 0.32 0.0 0 0 1278.95 649.72
  L 1310.27 649.77
  A 0.32 0.32 0.0 0 0 1310.58 649.35
  L 1295.00 602.66
  A 0.32 0.32 0.0 0 0 1294.39 602.66
  L 1278.65 649.30
  Z"
/>
<path fill="#000000" d="
  M 1393.38 677.25
  L 1437.37 677.25
  A 0.38 0.38 0.0 0 1 1437.75 677.63
  L 1437.75 695.37
  A 0.38 0.38 0.0 0 1 1437.37 695.75
  L 1370.13 695.75
  A 0.38 0.38 0.0 0 1 1369.75 695.37
  L 1369.75 583.63
  A 0.38 0.38 0.0 0 1 1370.13 583.25
  L 1392.62 583.25
  A 0.38 0.38 0.0 0 1 1393.00 583.63
  L 1393.00 676.87
  A 0.38 0.38 0.0 0 0 1393.38 677.25
  Z"
/>
<rect fill="#000000" x="1458.75" y="583.25" width="23.24" height="112.50" rx="0.34"/>
<path fill="#000000" d="
  M 1557.25 602.41
  L 1557.25 695.34
  A 0.41 0.41 0.0 0 1 1556.84 695.75
  L 1534.41 695.75
  A 0.41 0.41 0.0 0 1 1534.00 695.34
  L 1534.00 602.41
  A 0.41 0.41 0.0 0 0 1533.59 602.00
  L 1504.41 602.00
  A 0.41 0.41 0.0 0 1 1504.00 601.59
  L 1504.00 583.66
  A 0.41 0.41 0.0 0 1 1504.41 583.25
  L 1586.09 583.25
  A 0.41 0.41 0.0 0 1 1586.50 583.66
  L 1586.50 601.59
  A 0.41 0.41 0.0 0 1 1586.09 602.00
  L 1557.66 602.00
  A 0.41 0.41 0.0 0 0 1557.25 602.41
  Z"
/>
<path fill="#000000" d="
  M 1681.84 583.25
  L 1707.70 583.25
  A 0.35 0.35 0.0 0 1 1708.00 583.78
  L 1667.05 652.86
  A 0.35 0.35 0.0 0 0 1667.00 653.04
  L 1667.00 695.40
  A 0.35 0.35 0.0 0 1 1666.65 695.75
  L 1644.10 695.75
  A 0.35 0.35 0.0 0 1 1643.75 695.40
  L 1643.75 653.22
  A 0.35 0.35 0.0 0 0 1643.70 653.04
  L 1602.47 583.78
  A 0.35 0.35 0.0 0 1 1602.78 583.25
  L 1629.27 583.25
  A 0.35 0.35 0.0 0 1 1629.58 583.43
  L 1655.18 630.29
  A 0.35 0.35 0.0 0 0 1655.80 630.29
  L 1681.53 583.43
  A 0.35 0.35 0.0 0 1 1681.84 583.25
  Z"
/>
<path fill="#27a99c" d="
  M 767.29 654.23
  Q 762.77 676.88 754.01 699.08
  L 740.42 686.03
  Q 746.71 671.87 751.38 655.72
  Q 751.54 655.16 752.12 655.21
  C 756.89 655.64 761.09 655.53 767.29 654.23
  Z"
/>
<path fill="#1f988a" d="
  M 740.42 686.03
  L 754.01 699.08
  Q 741.09 732.34 718.55 762.68
  L 704.86 749.19
  Q 704.48 748.81 703.97 748.64
  Q 703.22 748.39 703.15 747.54
  A 0.56 0.56 0.0 0 0 702.17 747.22
  Q 674.69 779.38 637.33 801.33
  L 622.98 808.98
  Q 623.04 807.98 622.43 807.63
  Q 622.06 807.42 622.14 807.00
  Q 622.27 806.33 621.72 806.00
  Q 621.40 805.80 621.25 805.45
  Q 620.74 804.29 619.74 803.46
  Q 619.64 803.37 619.52 803.37
  Q 619.39 803.37 619.25 803.37
  Q 619.15 803.37 619.22 803.45
  Q 619.29 803.54 619.26 803.70
  Q 619.23 803.79 619.15 803.83
  Q 618.59 804.07 617.73 803.21
  Q 676.79 772.56 712.21 716.36
  Q 712.57 716.85 713.11 716.24
  Q 713.25 716.09 713.46 716.13
  Q 713.65 716.17 713.78 716.36
  Q 713.90 716.54 714.12 716.57
  Q 715.88 716.75 717.53 717.45
  C 718.84 718.01 719.82 719.55 721.37 720.15
  Q 721.92 720.37 722.24 719.87
  Q 732.27 704.18 740.42 686.03
  Z"
/>
<path fill="#27a99c" d="
  M 326.44 694.87
  Q 327.02 695.96 328.35 695.90
  A 0.02 0.01 45.7 0 0 328.35 695.87
  Q 328.16 695.86 328.01 696.00
  Q 327.77 696.22 328.01 696.43
  Q 329.72 697.91 331.17 699.60
  C 331.91 700.46 332.18 701.71 333.15 702.66
  Q 333.50 703.01 333.75 703.44
  L 336.68 708.51
  Q 336.84 708.78 336.89 709.10
  Q 336.98 709.65 337.48 709.98
  A 0.88 0.88 0.0 0 1 337.88 710.72
  L 337.88 711.50
  A 0.59 0.59 0.0 0 0 338.40 712.09
  Q 339.01 712.17 338.91 712.76
  Q 338.65 714.31 339.57 715.12
  Q 339.90 715.42 339.87 715.86
  Q 339.78 717.20 340.68 718.21
  Q 341.02 718.59 340.89 719.09
  Q 340.53 720.45 341.61 721.26
  Q 341.88 721.46 341.88 721.80
  L 341.88 724.92
  Q 341.88 725.37 342.20 725.69
  L 342.56 726.05
  Q 342.88 726.37 342.88 726.83
  L 342.88 741.26
  Q 342.88 741.74 342.43 741.91
  Q 342.25 741.97 342.13 742.13
  A 1.14 0.71 -36.3 0 0 341.88 742.75
  L 341.88 746.26
  Q 341.88 746.74 341.42 746.91
  Q 341.25 746.97 341.13 747.13
  A 1.14 0.71 -36.3 0 0 340.88 747.75
  L 340.88 751.95
  Q 340.88 752.37 340.65 752.72
  Q 339.64 754.32 339.42 755.13
  Q 338.51 758.42 336.75 761.33
  Q 336.51 761.74 336.10 761.99
  Q 334.95 762.73 334.85 764.14
  Q 334.81 764.63 334.53 765.02
  Q 329.87 771.50 323.00 777.26
  Q 321.97 778.12 320.99 778.43
  Q 320.94 778.45 320.29 778.99
  Q 320.00 779.23 319.58 779.13
  A 0.71 0.70 -57.6 0 0 319.00 779.26
  L 315.43 781.95
  Q 315.06 782.23 314.61 782.14
  Q 313.84 782.01 313.32 782.43
  C 312.27 783.29 311.22 783.80 309.93 784.26
  Q 309.49 784.41 309.12 784.70
  C 307.04 786.29 305.31 785.81 303.10 786.61
  Q 301.91 787.04 300.67 787.29
  C 299.83 787.46 298.90 787.04 297.99 787.82
  Q 297.65 788.11 297.19 788.10
  Q 295.29 788.05 291.51 788.53
  Q 285.30 789.34 275.56 786.43
  Q 272.81 785.61 270.09 784.69
  C 266.33 783.41 262.92 781.28 259.41 779.33
  Q 254.69 776.73 248.60 770.03
  Q 247.86 769.22 245.72 765.81
  Q 244.23 763.44 241.98 762.01
  Q 243.60 753.37 247.01 745.13
  Q 253.41 730.50 263.97 719.62
  Q 281.27 702.14 305.15 696.69
  C 312.14 695.30 319.32 694.53 326.44 694.87
  Z"
/>
<path fill="#1f988a" d="
  M 326.44 694.87
  Q 347.42 695.82 365.31 706.43
  Q 365.02 707.09 365.07 707.83
  Q 365.11 708.39 365.49 708.82
  L 366.82 710.31
  A 0.93 0.92 -59.8 0 1 367.03 711.12
  Q 366.76 712.34 367.60 713.18
  Q 367.96 713.53 367.98 714.03
  L 368.07 716.63
  Q 368.08 716.75 368.19 716.81
  L 368.61 717.04
  Q 368.97 717.23 368.98 717.63
  L 369.07 721.62
  Q 369.07 721.75 369.18 721.81
  L 369.67 722.07
  Q 370.04 722.27 370.04 722.70
  L 370.00 748.03
  Q 370.00 748.55 369.63 748.93
  L 369.31 749.24
  A 0.93 0.90 -22.3 0 0 369.04 749.86
  L 368.93 753.14
  Q 368.92 753.51 368.63 753.75
  Q 367.58 754.63 367.97 756.04
  A 0.81 0.80 65.7 0 1 367.64 756.93
  Q 367.04 757.32 366.96 757.99
  Q 366.91 758.36 366.68 758.64
  Q 365.69 759.85 366.02 761.42
  A 0.44 0.43 -19.0 0 1 365.78 761.90
  L 365.30 762.14
  A 0.03 0.03 0.0 0 0 365.31 762.20
  L 365.78 762.29
  A 0.23 0.23 0.0 0 1 365.87 762.70
  Q 364.61 763.58 364.95 765.21
  A 0.80 0.80 0.0 0 1 364.61 766.04
  Q 362.74 767.25 362.93 769.48
  Q 362.98 769.96 362.54 770.16
  Q 362.02 770.39 362.18 770.99
  Q 362.32 771.53 361.89 771.89
  Q 361.03 772.64 361.10 773.79
  Q 361.13 774.28 360.82 774.65
  L 358.41 777.48
  Q 358.15 777.79 358.15 778.20
  Q 358.15 779.58 357.14 780.34
  Q 356.74 780.64 356.49 781.09
  C 353.22 786.78 348.23 791.60 343.49 796.07
  Q 342.40 797.10 340.85 798.21
  C 338.52 799.87 336.16 801.89 333.96 803.22
  Q 325.80 808.16 316.88 811.52
  C 314.73 812.33 311.95 812.72 310.14 813.39
  Q 306.75 814.63 303.18 815.03
  C 300.94 815.28 298.70 816.01 296.50 816.11
  Q 288.88 816.45 280.37 815.84
  C 278.27 815.69 275.80 814.68 273.31 814.67
  Q 272.83 814.67 272.40 814.47
  C 270.94 813.78 269.05 813.69 267.85 813.30
  Q 263.91 812.04 259.99 810.70
  C 259.03 810.38 256.57 809.16 256.34 809.16
  Q 256.06 809.16 255.96 809.33
  Q 255.82 809.59 255.54 809.50
  Q 252.55 808.54 250.13 806.57
  Q 248.91 805.58 248.10 805.30
  Q 246.14 804.63 245.59 805.80
  Q 237.92 784.46 241.98 762.01
  Q 244.23 763.44 245.72 765.81
  Q 247.86 769.22 248.60 770.03
  Q 254.69 776.73 259.41 779.33
  C 262.92 781.28 266.33 783.41 270.09 784.69
  Q 272.81 785.61 275.56 786.43
  Q 285.30 789.34 291.51 788.53
  Q 295.29 788.05 297.19 788.10
  Q 297.65 788.11 297.99 787.82
  C 298.90 787.04 299.83 787.46 300.67 787.29
  Q 301.91 787.04 303.10 786.61
  C 305.31 785.81 307.04 786.29 309.12 784.70
  Q 309.49 784.41 309.93 784.26
  C 311.22 783.80 312.27 783.29 313.32 782.43
  Q 313.84 782.01 314.61 782.14
  Q 315.06 782.23 315.43 781.95
  L 319.00 779.26
  A 0.71 0.70 -57.6 0 1 319.58 779.13
  Q 320.00 779.23 320.29 778.99
  Q 320.94 778.45 320.99 778.43
  Q 321.97 778.12 323.00 777.26
  Q 329.87 771.50 334.53 765.02
  Q 334.81 764.63 334.85 764.14
  Q 334.95 762.73 336.10 761.99
  Q 336.51 761.74 336.75 761.33
  Q 338.51 758.42 339.42 755.13
  Q 339.64 754.32 340.65 752.72
  Q 340.88 752.37 340.88 751.95
  L 340.88 747.75
  A 1.14 0.71 -36.3 0 1 341.13 747.13
  Q 341.25 746.97 341.42 746.91
  Q 341.88 746.74 341.88 746.26
  L 341.88 742.75
  A 1.14 0.71 -36.3 0 1 342.13 742.13
  Q 342.25 741.97 342.43 741.91
  Q 342.88 741.74 342.88 741.26
  L 342.88 726.83
  Q 342.88 726.37 342.56 726.05
  L 342.20 725.69
  Q 341.88 725.37 341.88 724.92
  L 341.88 721.80
  Q 341.88 721.46 341.61 721.26
  Q 340.53 720.45 340.89 719.09
  Q 341.02 718.59 340.68 718.21
  Q 339.78 717.20 339.87 715.86
  Q 339.90 715.42 339.57 715.12
  Q 338.65 714.31 338.91 712.76
  Q 339.01 712.17 338.40 712.09
  A 0.59 0.59 0.0 0 1 337.88 711.50
  L 337.88 710.72
  A 0.88 0.88 0.0 0 0 337.48 709.98
  Q 336.98 709.65 336.89 709.10
  Q 336.84 708.78 336.68 708.51
  L 333.75 703.44
  Q 333.50 703.01 333.15 702.66
  C 332.18 701.71 331.91 700.46 331.17 699.60
  Q 329.72 697.91 328.01 696.43
  Q 327.77 696.22 328.01 696.00
  Q 328.16 695.86 328.35 695.87
  A 0.02 0.01 45.7 0 1 328.35 695.90
  Q 327.02 695.96 326.44 694.87
  Z"
/>
<path fill="#13796a" d="
  M 365.31 706.43
  Q 378.74 714.51 387.70 726.06
  Q 407.58 751.71 404.98 784.49
  Q 404.60 789.22 403.93 793.68
  C 400.23 809.58 393.44 823.19 382.02 834.87
  Q 381.70 835.20 382.10 835.44
  C 425.66 861.46 472.81 877.06 523.27 883.15
  Q 523.15 883.63 523.49 883.77
  Q 523.74 883.86 523.51 883.98
  Q 523.38 884.05 523.25 884.02
  Q 523.04 883.98 522.51 884.01
  Q 522.28 884.02 522.18 884.20
  Q 522.01 884.51 522.26 884.76
  L 543.63 906.14
  Q 544.00 906.50 544.00 907.03
  L 543.99 909.39
  Q 538.08 909.15 532.08 908.80
  Q 437.13 903.20 356.87 852.88
  Q 356.44 852.61 355.97 852.81
  C 311.43 871.46 262.97 850.62 245.59 805.80
  Q 246.14 804.63 248.10 805.30
  Q 248.91 805.58 250.13 806.57
  Q 252.55 808.54 255.54 809.50
  Q 255.82 809.59 255.96 809.33
  Q 256.06 809.16 256.34 809.16
  C 256.57 809.16 259.03 810.38 259.99 810.70
  Q 263.91 812.04 267.85 813.30
  C 269.05 813.69 270.94 813.78 272.40 814.47
  Q 272.83 814.67 273.31 814.67
  C 275.80 814.68 278.27 815.69 280.37 815.84
  Q 288.88 816.45 296.50 816.11
  C 298.70 816.01 300.94 815.28 303.18 815.03
  Q 306.75 814.63 310.14 813.39
  C 311.95 812.72 314.73 812.33 316.88 811.52
  Q 325.80 808.16 333.96 803.22
  C 336.16 801.89 338.52 799.87 340.85 798.21
  Q 342.40 797.10 343.49 796.07
  C 348.23 791.60 353.22 786.78 356.49 781.09
  Q 356.74 780.64 357.14 780.34
  Q 358.15 779.58 358.15 778.20
  Q 358.15 777.79 358.41 777.48
  L 360.82 774.65
  Q 361.13 774.28 361.10 773.79
  Q 361.03 772.64 361.89 771.89
  Q 362.32 771.53 362.18 770.99
  Q 362.02 770.39 362.54 770.16
  Q 362.98 769.96 362.93 769.48
  Q 362.74 767.25 364.61 766.04
  A 0.80 0.80 0.0 0 0 364.95 765.21
  Q 364.61 763.58 365.87 762.70
  A 0.23 0.23 0.0 0 0 365.78 762.29
  L 365.31 762.20
  A 0.03 0.03 0.0 0 1 365.30 762.14
  L 365.78 761.90
  A 0.44 0.43 -19.0 0 0 366.02 761.42
  Q 365.69 759.85 366.68 758.64
  Q 366.91 758.36 366.96 757.99
  Q 367.04 757.32 367.64 756.93
  A 0.81 0.80 65.7 0 0 367.97 756.04
  Q 367.58 754.63 368.63 753.75
  Q 368.92 753.51 368.93 753.14
  L 369.04 749.86
  A 0.93 0.90 -22.3 0 1 369.31 749.24
  L 369.63 748.93
  Q 370.00 748.55 370.00 748.03
  L 370.04 722.70
  Q 370.04 722.27 369.67 722.07
  L 369.18 721.81
  Q 369.07 721.75 369.07 721.62
  L 368.98 717.63
  Q 368.97 717.23 368.61 717.04
  L 368.19 716.81
  Q 368.08 716.75 368.07 716.63
  L 367.98 714.03
  Q 367.96 713.53 367.60 713.18
  Q 366.76 712.34 367.03 711.12
  A 0.93 0.92 -59.8 0 0 366.82 710.31
  L 365.49 708.82
  Q 365.11 708.39 365.07 707.83
  Q 365.02 707.09 365.31 706.43
  Z"
/>
<path fill="#1f988a" d="
  M 809.83 729.90
  L 836.45 756.05
  Q 820.43 775.77 800.23 794.24
  A 1.08 1.07 46.4 0 0 800.20 795.79
  L 808.47 804.08
  A 0.31 0.31 0.0 0 0 808.97 803.99
  Q 809.06 803.81 809.25 803.85
  Q 809.54 803.91 809.52 804.20
  Q 809.50 804.39 809.59 804.57
  Q 770.05 843.31 720.78 868.86
  L 707.44 854.82
  L 733.79 841.52
  A 0.59 0.58 -36.2 0 0 733.94 840.59
  L 704.11 810.89
  C 744.95 791.52 780.17 764.28 809.83 729.90
  Z"
/>
<path fill="#000000" d="
  M 1662.99 861.02
  C 1628.72 865.07 1604.68 843.69 1602.63 809.83
  C 1600.73 778.57 1613.86 748.56 1648.94 745.44
  C 1693.56 741.46 1713.32 777.37 1706.98 817.00
  C 1703.15 840.92 1687.83 858.09 1662.99 861.02
  Z
  M 1659.77 842.48
  C 1677.32 840.07 1683.81 823.81 1684.67 807.75
  C 1685.48 792.35 1682.33 772.99 1666.46 766.04
  C 1658.15 762.40 1647.93 763.07 1640.29 767.98
  C 1624.38 778.22 1623.65 804.52 1627.89 820.22
  C 1632.00 835.46 1643.67 844.70 1659.77 842.48
  Z"
/>
<path fill="#000000" d="
  M 1070.83 832.51
  L 1061.33 859.24
  A 0.39 0.39 0.0 0 1 1060.96 859.50
  L 1037.05 859.50
  A 0.39 0.39 0.0 0 1 1036.69 858.98
  L 1076.91 747.26
  A 0.39 0.39 0.0 0 1 1077.27 747.00
  L 1108.44 747.00
  A 0.39 0.39 0.0 0 1 1108.80 747.26
  L 1148.85 858.98
  A 0.39 0.39 0.0 0 1 1148.49 859.50
  L 1124.28 859.50
  A 0.39 0.39 0.0 0 1 1123.92 859.24
  L 1114.08 832.51
  A 0.39 0.39 0.0 0 0 1113.72 832.25
  L 1071.20 832.25
  A 0.39 0.39 0.0 0 0 1070.83 832.51
  Z
  M 1076.50 813.02
  A 0.34 0.34 0.0 0 0 1076.82 813.47
  L 1108.08 813.53
  A 0.34 0.34 0.0 0 0 1108.41 813.08
  L 1092.86 766.49
  A 0.34 0.34 0.0 0 0 1092.21 766.49
  L 1076.50 813.02
  Z"
/>
<path fill="#000000" d="
  M 1260.74 860.37
  C 1240.28 864.02 1211.28 859.71 1204.31 836.48
  Q 1202.77 831.34 1202.76 818.83
  Q 1202.74 783.01 1202.75 747.26
  A 0.26 0.26 0.0 0 1 1203.01 747.00
  L 1225.74 747.00
  A 0.25 0.25 0.0 0 1 1225.99 747.25
  Q 1226.00 784.97 1226.04 822.75
  C 1226.06 839.90 1240.10 845.39 1254.75 842.04
  Q 1264.70 839.76 1268.06 831.46
  Q 1269.52 827.88 1269.51 819.85
  Q 1269.47 783.59 1269.50 747.47
  Q 1269.51 747.00 1269.98 747.00
  L 1292.23 747.00
  Q 1292.75 747.00 1292.75 747.52
  Q 1292.74 784.19 1292.77 820.82
  Q 1292.78 831.66 1291.31 836.53
  C 1287.13 850.40 1274.54 857.91 1260.74 860.37
  Z"
/>
<path fill="#000000" d="
  M 1400.99 747.03
  C 1424.17 747.10 1444.98 757.60 1452.48 780.76
  Q 1457.84 797.28 1454.76 815.27
  C 1449.75 844.50 1429.52 859.40 1400.16 859.48
  Q 1380.71 859.53 1361.22 859.49
  Q 1360.50 859.48 1360.50 858.76
  L 1360.50 747.48
  A 0.47 0.46 -90.0 0 1 1360.96 747.01
  Q 1380.91 746.96 1400.99 747.03
  Z
  M 1404.48 840.27
  C 1427.26 836.44 1434.07 817.28 1432.02 796.75
  C 1431.09 787.38 1427.57 778.79 1420.23 772.94
  C 1409.95 764.75 1397.02 765.62 1384.22 765.79
  Q 1383.75 765.79 1383.75 766.27
  L 1383.75 840.44
  Q 1383.75 840.81 1384.11 840.83
  Q 1396.88 841.55 1404.48 840.27
  Z"
/>
<rect fill="#000000" x="1516.01" y="747.00" width="23.24" height="112.50" rx="0.47"/>
<path fill="#13796a" d="
  M 718.55 762.68
  Q 692.99 796.80 657.70 821.97
  L 637.33 801.33
  Q 674.69 779.38 702.17 747.22
  A 0.56 0.56 0.0 0 1 703.15 747.54
  Q 703.22 748.39 703.97 748.64
  Q 704.48 748.81 704.86 749.19
  L 718.55 762.68
  Z"
/>
<path fill="#91d3c3" d="
  M 403.93 793.68
  Q 437.65 814.48 475.14 826.42
  C 477.34 827.12 479.54 827.42 481.76 827.80
  Q 492.80 832.04 504.30 833.99
  Q 504.74 834.07 504.53 834.46
  Q 504.34 834.84 504.10 834.77
  Q 502.92 834.43 503.74 835.26
  L 552.72 884.21
  Q 553.09 884.59 552.67 884.90
  L 552.28 885.19
  L 523.27 883.15
  C 472.81 877.06 425.66 861.46 382.10 835.44
  Q 381.70 835.20 382.02 834.87
  C 393.44 823.19 400.23 809.58 403.93 793.68
  Z"
/>
<path fill="#024f3e" d="
  M 637.33 801.33
  L 657.70 821.97
  L 642.01 832.52
  Q 574.74 848.11 509.40 835.05
  Q 504.27 834.02 509.50 834.28
  Q 516.75 834.62 525.25 834.20
  Q 576.78 831.66 622.98 808.98
  L 637.33 801.33
  Z"
/>
<path fill="#27a99c" d="
  M 617.73 803.21
  Q 618.59 804.07 619.15 803.83
  Q 619.23 803.79 619.26 803.70
  Q 619.29 803.54 619.22 803.45
  Q 619.15 803.37 619.25 803.37
  Q 619.39 803.37 619.52 803.37
  Q 619.64 803.37 619.74 803.46
  Q 620.74 804.29 621.25 805.45
  Q 621.40 805.80 621.72 806.00
  Q 622.27 806.33 622.14 807.00
  Q 622.06 807.42 622.43 807.63
  Q 623.04 807.98 622.98 808.98
  Q 576.78 831.66 525.25 834.20
  Q 516.75 834.62 509.50 834.28
  Q 504.27 834.02 509.40 835.05
  Q 574.74 848.11 642.01 832.52
  Q 674.00 825.07 704.11 810.89
  L 733.94 840.59
  A 0.59 0.58 -36.2 0 1 733.79 841.52
  L 707.44 854.82
  C 659.32 876.33 605.39 887.41 552.28 885.19
  L 552.67 884.90
  Q 553.09 884.59 552.72 884.21
  L 503.74 835.26
  Q 502.92 834.43 504.10 834.77
  Q 504.34 834.84 504.53 834.46
  Q 504.74 834.07 504.30 833.99
  Q 492.80 832.04 481.76 827.80
  Q 553.94 835.33 617.73 803.21
  Z"
/>
<path fill="#13796a" d="
  M 707.44 854.82
  L 720.78 868.86
  Q 637.83 911.30 543.99 909.39
  L 544.00 907.03
  Q 544.00 906.50 543.63 906.14
  L 522.26 884.76
  Q 522.01 884.51 522.18 884.20
  Q 522.28 884.02 522.51 884.01
  Q 523.04 883.98 523.25 884.02
  Q 523.38 884.05 523.51 883.98
  Q 523.74 883.86 523.49 883.77
  Q 523.15 883.63 523.27 883.15
  L 552.28 885.19
  C 605.39 887.41 659.32 876.33 707.44 854.82
  Z"
/>
</svg>
