<?xml version="1.0" encoding="UTF-8" standalone="no"?>
<!DOCTYPE svg PUBLIC "-//W3C//DTD SVG 1.1//EN" "http://www.w3.org/Graphics/SVG/1.1/DTD/svg11.dtd">
<svg xmlns="http://www.w3.org/2000/svg" version="1.1" viewBox="0.00 0.00 270.00 270.00">
<g stroke-width="2.00" fill="none" stroke-linecap="butt">
<path stroke="#f3d15c" vector-effect="non-scaling-stroke" d="
  M 263.51 83.95
  Q 262.07 84.08 261.58 83.43
  C 224.94 34.70 163.69 11.02 103.99 24.47
  Q 47.37 37.24 11.55 85.80"
/>
<path stroke="#e9bc41" vector-effect="non-scaling-stroke" d="
  M 255.22 234.47
  Q 252.52 199.32 231.47 173.64
  C 230.06 171.93 230.06 170.60 230.76 168.63
  C 231.40 166.82 231.51 164.48 232.29 162.35
  C 232.84 160.86 232.61 158.84 232.87 157.59
  Q 234.46 149.94 234.19 139.50
  Q 234.14 137.70 233.92 136.66
  C 233.35 134.00 232.85 131.12 232.81 128.38
  Q 232.69 121.49 230.01 115.15
  Q 229.81 114.68 229.87 114.17
  C 230.15 111.86 228.68 110.32 228.10 108.82
  Q 226.23 103.96 223.01 99.85
  Q 222.71 99.46 222.64 98.98
  Q 222.37 96.97 220.50 96.49
  A 0.90 0.90 0.0 0 1 219.85 95.88
  Q 219.46 94.62 218.40 93.87
  Q 217.99 93.58 217.93 93.08
  Q 217.82 92.01 216.72 92.07"
/>
<path stroke="#deb23e" vector-effect="non-scaling-stroke" d="
  M 54.61 102.66
  Q 53.07 105.67 51.75 108.80
  C 51.36 109.71 51.39 111.14 51.02 111.75
  Q 49.87 113.66 49.49 115.37
  Q 48.82 118.39 48.77 118.58
  C 48.20 120.51 48.50 123.23 47.67 124.92
  Q 47.47 125.33 47.43 125.78
  Q 47.14 129.17 46.38 132.45
  Q 45.75 135.22 45.74 137.59
  Q 45.74 140.21 45.66 142.82
  C 45.62 144.00 46.19 144.83 46.26 145.99
  Q 46.49 149.79 47.27 153.52
  Q 48.87 161.13 48.53 168.44"
/>
<path stroke="#e9bc41" vector-effect="non-scaling-stroke" d="
  M 48.53 168.44
  Q 47.67 168.69 47.32 169.08
  Q 32.12 185.94 24.93 207.49
  Q 21.20 218.68 19.81 234.74"
/>
<path stroke="#d5a838" vector-effect="non-scaling-stroke" d="
  M 174.62 185.70
  Q 172.49 185.27 173.38 189.65"
/>
<path stroke="#d5a838" vector-effect="non-scaling-stroke" d="
  M 195.89 261.35
  Q 192.29 235.16 172.02 220.42
  C 136.14 194.33 83.78 216.40 79.37 261.36"
/>
<path stroke="#d5a838" vector-effect="non-scaling-stroke" d="
  M 48.53 168.44
  L 49.22 167.01
  Q 49.39 166.67 49.53 167.03
  Q 49.66 167.38 49.44 167.76
  Q 49.25 168.08 49.23 168.45
  C 49.03 171.80 49.89 175.09 52.02 179.26
  C 53.19 181.56 53.46 184.06 54.61 186.32
  Q 57.71 192.42 58.97 194.27
  Q 64.97 203.06 75.20 211.55
  Q 75.33 211.66 75.36 211.81
  Q 75.40 212.03 75.60 212.14
  C 77.02 212.89 78.24 213.75 79.93 213.58
  C 84.04 213.17 87.94 211.23 91.37 209.03
  C 93.15 207.88 96.30 206.47 98.30 204.37
  Q 98.67 203.98 99.18 203.80
  Q 100.62 203.32 101.19 202.00
  Q 101.36 201.60 101.70 201.33
  C 105.26 198.50 105.73 192.76 104.58 188.75
  Q 104.50 188.47 104.46 187.79
  Q 104.43 187.27 104.14 186.81
  C 103.40 185.65 103.21 184.83 103.35 183.59
  Q 103.40 183.13 103.17 182.74
  Q 100.26 177.89 95.85 174.79"
/>
<path stroke="#e9bc41" vector-effect="non-scaling-stroke" d="
  M 184.35 89.04
  C 183.06 87.21 180.85 86.19 179.28 84.84
  C 177.62 83.41 175.45 82.68 173.90 81.72
  Q 171.85 80.44 169.76 79.27
  Q 169.31 79.03 169.16 78.59
  Q 168.98 78.08 169.45 78.34
  L 176.47 82.25
  A 0.93 0.90 3.6 0 1 176.85 82.67
  Q 177.21 83.47 178.07 83.46
  Q 178.59 83.45 179.01 83.76
  Q 189.14 91.20 196.77 101.14
  Q 197.05 101.51 197.10 101.96
  Q 197.17 102.60 197.71 102.90
  Q 199.25 103.75 199.97 105.27
  C 201.55 108.64 203.60 112.47 205.40 115.32
  Q 205.62 115.68 205.70 116.09
  Q 205.81 116.70 206.18 117.19
  Q 206.72 117.91 206.60 117.01
  Q 206.36 115.36 205.25 113.75
  Q 203.82 111.66 202.65 108.41
  C 202.25 107.30 201.43 106.72 200.87 105.63
  C 199.84 103.63 198.34 102.22 197.11 100.40
  C 195.69 98.31 193.98 96.53 192.23 94.41
  Q 188.25 89.58 179.27 83.12
  Q 178.85 82.82 178.34 82.74
  Q 177.65 82.63 177.36 81.98
  A 1.29 1.29 0.0 0 0 176.53 81.27
  C 174.90 80.84 173.81 79.77 172.67 79.17
  Q 156.53 70.81 138.24 71.19
  Q 137.78 71.20 137.35 71.02
  C 135.96 70.44 134.26 71.40 133.00 71.42
  Q 129.49 71.48 126.00 71.86
  Q 125.72 71.89 125.65 72.09
  Q 125.55 72.33 125.29 72.34
  C 123.58 72.39 121.53 72.74 120.04 73.62
  Q 119.60 73.89 119.09 73.78
  Q 118.64 73.70 118.21 73.85
  Q 116.27 74.55 111.75 75.89
  Q 107.88 77.04 102.62 80.38
  Q 102.24 80.62 101.79 80.59
  Q 100.61 80.51 99.94 81.52
  Q 99.62 82.00 99.15 82.33
  L 90.18 88.60
  A 0.59 0.57 -15.8 0 0 89.95 88.99
  Q 89.86 90.16 88.97 90.43
  Q 88.60 90.55 88.32 90.81
  L 84.78 94.21
  Q 84.33 94.64 84.77 95.07
  Q 85.11 95.42 85.49 94.99
  Q 87.62 92.62 89.21 91.31
  C 90.15 90.53 90.88 88.90 91.64 88.39
  Q 95.95 85.50 100.18 82.50
  Q 101.21 81.77 102.77 81.09
  C 105.09 80.07 107.31 78.43 109.30 77.64
  Q 112.15 76.51 115.10 75.70
  A 0.03 0.03 0.0 0 1 115.13 75.76
  Q 113.66 76.88 111.83 76.92
  A 0.83 0.76 26.7 0 0 111.48 77.02
  C 110.02 77.91 108.12 78.27 106.28 79.60
  C 104.76 80.70 102.82 81.26 101.24 82.40
  C 99.04 83.98 96.67 85.20 95.11 86.37
  Q 88.95 91.02 81.03 100.50
  Q 77.90 104.26 75.65 108.84
  C 73.79 112.63 71.56 116.71 70.50 120.79
  C 69.93 123.00 68.54 124.87 68.00 127.25
  C 67.79 128.18 68.08 129.35 67.71 130.29
  C 66.94 132.29 66.86 133.06 66.80 134.91
  Q 66.79 135.01 66.87 135.07
  Q 66.91 135.09 66.95 135.11
  Q 67.03 135.14 67.03 135.24
  L 66.69 140.46
  Q 66.65 140.97 66.96 141.38
  Q 67.36 141.92 67.38 142.46
  Q 67.40 143.02 67.95 142.88
  C 69.98 142.34 72.69 141.23 74.59 141.38
  Q 76.70 141.56 77.50 143.14
  A 2.03 2.02 63.3 0 0 80.21 144.04
  Q 109.76 129.28 142.50 130.53
  Q 169.22 131.55 193.13 143.29
  C 194.42 143.92 195.03 145.00 196.94 144.56
  Q 197.45 144.44 197.76 144.02
  Q 199.02 142.29 200.83 141.13
  Q 201.23 140.87 201.70 140.87
  L 205.50 140.87
  Q 205.96 140.87 206.28 141.19
  Q 207.66 142.56 209.53 143.12
  A 0.64 0.63 -81.1 0 0 210.35 142.52
  C 210.38 140.73 210.75 139.37 210.37 137.53
  C 209.92 135.29 210.02 133.02 209.45 130.86
  Q 208.77 128.34 208.28 125.77
  C 208.09 124.75 207.50 124.32 207.31 123.25
  C 206.47 118.45 203.92 113.46 201.50 109.25
  C 200.14 106.90 200.10 105.10 197.63 103.36
  Q 196.88 102.82 196.85 101.82
  Q 196.84 101.36 196.44 101.13
  Q 195.54 100.64 194.76 99.49
  C 192.67 96.39 188.56 92.00 185.01 89.68
  Q 184.62 89.42 184.35 89.04"
/>
</g>
<path fill="#f5dc70" d="
  M 263.51 83.95
  Q 262.07 84.08 261.58 83.43
  C 224.94 34.70 163.69 11.02 103.99 24.47
  Q 47.37 37.24 11.55 85.80
  C 11.36 72.69 11.32 65.55 12.71 56.14
  C 17.17 26.05 41.89 9.86 71.00 9.81
  Q 137.25 9.71 203.50 9.70
  C 235.54 9.70 259.58 27.94 263.03 61.18
  C 263.80 68.63 263.56 76.39 263.51 83.95
  Z"
/>
<path fill="#f1c647" d="
  M 263.51 83.95
  Q 263.60 144.86 263.48 205.75
  Q 263.47 210.26 261.28 220.25
  Q 259.80 226.97 255.22 234.47
  Q 252.52 199.32 231.47 173.64
  C 230.06 171.93 230.06 170.60 230.76 168.63
  C 231.40 166.82 231.51 164.48 232.29 162.35
  C 232.84 160.86 232.61 158.84 232.87 157.59
  Q 234.46 149.94 234.19 139.50
  Q 234.14 137.70 233.92 136.66
  C 233.35 134.00 232.85 131.12 232.81 128.38
  Q 232.69 121.49 230.01 115.15
  Q 229.81 114.68 229.87 114.17
  C 230.15 111.86 228.68 110.32 228.10 108.82
  Q 226.23 103.96 223.01 99.85
  Q 222.71 99.46 222.64 98.98
  Q 222.37 96.97 220.50 96.49
  A 0.90 0.90 0.0 0 1 219.85 95.88
  Q 219.46 94.62 218.40 93.87
  Q 217.99 93.58 217.93 93.08
  Q 217.82 92.01 216.72 92.07
  C 177.88 27.19 85.00 34.49 54.61 102.66
  Q 53.07 105.67 51.75 108.80
  C 51.36 109.71 51.39 111.14 51.02 111.75
  Q 49.87 113.66 49.49 115.37
  Q 48.82 118.39 48.77 118.58
  C 48.20 120.51 48.50 123.23 47.67 124.92
  Q 47.47 125.33 47.43 125.78
  Q 47.14 129.17 46.38 132.45
  Q 45.75 135.22 45.74 137.59
  Q 45.74 140.21 45.66 142.82
  C 45.62 144.00 46.19 144.83 46.26 145.99
  Q 46.49 149.79 47.27 153.52
  Q 48.87 161.13 48.53 168.44
  Q 47.67 168.69 47.32 169.08
  Q 32.12 185.94 24.93 207.49
  Q 21.20 218.68 19.81 234.74
  C 13.90 224.78 11.82 214.65 11.75 203.50
  Q 11.38 143.91 11.55 85.80
  Q 47.37 37.24 103.99 24.47
  C 163.69 11.02 224.94 34.70 261.58 83.43
  Q 262.07 84.08 263.51 83.95
  Z"
/>
<path fill="#e0b13a" d="
  M 174.62 185.70
  Q 172.49 185.27 173.38 189.65
  Q 173.91 192.14 175.31 192.97
  Q 186.36 199.45 197.56 205.84
  Q 197.96 206.07 198.31 205.76
  C 230.99 176.61 238.47 130.08 216.72 92.07
  Q 217.82 92.01 217.93 93.08
  Q 217.99 93.58 218.40 93.87
  Q 219.46 94.62 219.85 95.88
  A 0.90 0.90 0.0 0 0 220.50 96.49
  Q 222.37 96.97 222.64 98.98
  Q 222.71 99.46 223.01 99.85
  Q 226.23 103.96 228.10 108.82
  C 228.68 110.32 230.15 111.86 229.87 114.17
  Q 229.81 114.68 230.01 115.15
  Q 232.69 121.49 232.81 128.38
  C 232.85 131.12 233.35 134.00 233.92 136.66
  Q 234.14 137.70 234.19 139.50
  Q 234.46 149.94 232.87 157.59
  C 232.61 158.84 232.84 160.86 232.29 162.35
  C 231.51 164.48 231.40 166.82 230.76 168.63
  C 230.06 170.60 230.06 171.93 231.47 173.64
  Q 252.52 199.32 255.22 234.47
  Q 242.70 256.16 215.75 260.29
  Q 206.83 261.65 195.89 261.35
  Q 192.29 235.16 172.02 220.42
  C 136.14 194.33 83.78 216.40 79.37 261.36
  Q 68.67 261.73 59.00 260.27
  Q 32.76 256.29 19.81 234.74
  Q 21.20 218.68 24.93 207.49
  Q 32.12 185.94 47.32 169.08
  Q 47.67 168.69 48.53 168.44
  L 49.22 167.01
  Q 49.39 166.67 49.53 167.03
  Q 49.66 167.38 49.44 167.76
  Q 49.25 168.08 49.23 168.45
  C 49.03 171.80 49.89 175.09 52.02 179.26
  C 53.19 181.56 53.46 184.06 54.61 186.32
  Q 57.71 192.42 58.97 194.27
  Q 64.97 203.06 75.20 211.55
  Q 75.33 211.66 75.36 211.81
  Q 75.40 212.03 75.60 212.14
  C 77.02 212.89 78.24 213.75 79.93 213.58
  C 84.04 213.17 87.94 211.23 91.37 209.03
  C 93.15 207.88 96.30 206.47 98.30 204.37
  Q 98.67 203.98 99.18 203.80
  Q 100.62 203.32 101.19 202.00
  Q 101.36 201.60 101.70 201.33
  C 105.26 198.50 105.73 192.76 104.58 188.75
  Q 104.50 188.47 104.46 187.79
  Q 104.43 187.27 104.14 186.81
  C 103.40 185.65 103.21 184.83 103.35 183.59
  Q 103.40 183.13 103.17 182.74
  Q 100.26 177.89 95.85 174.79
  Q 87.00 159.88 78.17 144.34
  C 76.37 141.17 72.99 141.71 70.10 143.35
  Q 65.46 145.97 60.87 148.67
  A 0.44 0.43 71.6 0 1 60.22 148.34
  C 54.00 98.22 94.49 55.60 144.74 59.45
  C 189.50 62.88 222.31 103.67 216.43 148.39
  A 0.38 0.38 0.0 0 1 215.87 148.67
  Q 211.40 146.12 206.96 143.54
  C 204.00 141.83 200.46 140.94 198.54 144.28
  Q 186.57 165.09 174.62 185.70
  Z
  M 184.35 89.04
  C 183.06 87.21 180.85 86.19 179.28 84.84
  C 177.62 83.41 175.45 82.68 173.90 81.72
  Q 171.85 80.44 169.76 79.27
  Q 169.31 79.03 169.16 78.59
  Q 168.98 78.08 169.45 78.34
  L 176.47 82.25
  A 0.93 0.90 3.6 0 1 176.85 82.67
  Q 177.21 83.47 178.07 83.46
  Q 178.59 83.45 179.01 83.76
  Q 189.14 91.20 196.77 101.14
  Q 197.05 101.51 197.10 101.96
  Q 197.17 102.60 197.71 102.90
  Q 199.25 103.75 199.97 105.27
  C 201.55 108.64 203.60 112.47 205.40 115.32
  Q 205.62 115.68 205.70 116.09
  Q 205.81 116.70 206.18 117.19
  Q 206.72 117.91 206.60 117.01
  Q 206.36 115.36 205.25 113.75
  Q 203.82 111.66 202.65 108.41
  C 202.25 107.30 201.43 106.72 200.87 105.63
  C 199.84 103.63 198.34 102.22 197.11 100.40
  C 195.69 98.31 193.98 96.53 192.23 94.41
  Q 188.25 89.58 179.27 83.12
  Q 178.85 82.82 178.34 82.74
  Q 177.65 82.63 177.36 81.98
  A 1.29 1.29 0.0 0 0 176.53 81.27
  C 174.90 80.84 173.81 79.77 172.67 79.17
  Q 156.53 70.81 138.24 71.19
  Q 137.78 71.20 137.35 71.02
  C 135.96 70.44 134.26 71.40 133.00 71.42
  Q 129.49 71.48 126.00 71.86
  Q 125.72 71.89 125.65 72.09
  Q 125.55 72.33 125.29 72.34
  C 123.58 72.39 121.53 72.74 120.04 73.62
  Q 119.60 73.89 119.09 73.78
  Q 118.64 73.70 118.21 73.85
  Q 116.27 74.55 111.75 75.89
  Q 107.88 77.04 102.62 80.38
  Q 102.24 80.62 101.79 80.59
  Q 100.61 80.51 99.94 81.52
  Q 99.62 82.00 99.15 82.33
  L 90.18 88.60
  A 0.59 0.57 -15.8 0 0 89.95 88.99
  Q 89.86 90.16 88.97 90.43
  Q 88.60 90.55 88.32 90.81
  L 84.78 94.21
  Q 84.33 94.64 84.77 95.07
  Q 85.11 95.42 85.49 94.99
  Q 87.62 92.62 89.21 91.31
  C 90.15 90.53 90.88 88.90 91.64 88.39
  Q 95.95 85.50 100.18 82.50
  Q 101.21 81.77 102.77 81.09
  C 105.09 80.07 107.31 78.43 109.30 77.64
  Q 112.15 76.51 115.10 75.70
  A 0.03 0.03 0.0 0 1 115.13 75.76
  Q 113.66 76.88 111.83 76.92
  A 0.83 0.76 26.7 0 0 111.48 77.02
  C 110.02 77.91 108.12 78.27 106.28 79.60
  C 104.76 80.70 102.82 81.26 101.24 82.40
  C 99.04 83.98 96.67 85.20 95.11 86.37
  Q 88.95 91.02 81.03 100.50
  Q 77.90 104.26 75.65 108.84
  C 73.79 112.63 71.56 116.71 70.50 120.79
  C 69.93 123.00 68.54 124.87 68.00 127.25
  C 67.79 128.18 68.08 129.35 67.71 130.29
  C 66.94 132.29 66.86 133.06 66.80 134.91
  Q 66.79 135.01 66.87 135.07
  Q 66.91 135.09 66.95 135.11
  Q 67.03 135.14 67.03 135.24
  L 66.69 140.46
  Q 66.65 140.97 66.96 141.38
  Q 67.36 141.92 67.38 142.46
  Q 67.40 143.02 67.95 142.88
  C 69.98 142.34 72.69 141.23 74.59 141.38
  Q 76.70 141.56 77.50 143.14
  A 2.03 2.02 63.3 0 0 80.21 144.04
  Q 109.76 129.28 142.50 130.53
  Q 169.22 131.55 193.13 143.29
  C 194.42 143.92 195.03 145.00 196.94 144.56
  Q 197.45 144.44 197.76 144.02
  Q 199.02 142.29 200.83 141.13
  Q 201.23 140.87 201.70 140.87
  L 205.50 140.87
  Q 205.96 140.87 206.28 141.19
  Q 207.66 142.56 209.53 143.12
  A 0.64 0.63 -81.1 0 0 210.35 142.52
  C 210.38 140.73 210.75 139.37 210.37 137.53
  C 209.92 135.29 210.02 133.02 209.45 130.86
  Q 208.77 128.34 208.28 125.77
  C 208.09 124.75 207.50 124.32 207.31 123.25
  C 206.47 118.45 203.92 113.46 201.50 109.25
  C 200.14 106.90 200.10 105.10 197.63 103.36
  Q 196.88 102.82 196.85 101.82
  Q 196.84 101.36 196.44 101.13
  Q 195.54 100.64 194.76 99.49
  C 192.67 96.39 188.56 92.00 185.01 89.68
  Q 184.62 89.42 184.35 89.04
  Z"
/>
<path fill="#f1c647" d="
  M 185.01 89.68
  C 188.56 92.00 192.67 96.39 194.76 99.49
  Q 195.54 100.64 196.44 101.13
  Q 196.84 101.36 196.85 101.82
  Q 196.88 102.82 197.63 103.36
  C 200.10 105.10 200.14 106.90 201.50 109.25
  C 203.92 113.46 206.47 118.45 207.31 123.25
  C 207.50 124.32 208.09 124.75 208.28 125.77
  Q 208.77 128.34 209.45 130.86
  C 210.02 133.02 209.92 135.29 210.37 137.53
  C 210.75 139.37 210.38 140.73 210.35 142.52
  A 0.64 0.63 -81.1 0 1 209.53 143.12
  Q 207.66 142.56 206.28 141.19
  Q 205.96 140.87 205.50 140.87
  L 201.70 140.87
  Q 201.23 140.87 200.83 141.13
  Q 199.02 142.29 197.76 144.02
  Q 197.45 144.44 196.94 144.56
  C 195.03 145.00 194.42 143.92 193.13 143.29
  Q 169.22 131.55 142.50 130.53
  Q 109.76 129.28 80.21 144.04
  A 2.03 2.02 63.3 0 1 77.50 143.14
  Q 76.70 141.56 74.59 141.38
  C 72.69 141.23 69.98 142.34 67.95 142.88
  Q 67.40 143.02 67.38 142.46
  Q 67.36 141.92 66.96 141.38
  Q 66.65 140.97 66.69 140.46
  L 67.03 135.24
  Q 67.03 135.14 66.95 135.11
  Q 66.91 135.09 66.87 135.07
  Q 66.79 135.01 66.80 134.91
  C 66.86 133.06 66.94 132.29 67.71 130.29
  C 68.08 129.35 67.79 128.18 68.00 127.25
  C 68.54 124.87 69.93 123.00 70.50 120.79
  C 71.56 116.71 73.79 112.63 75.65 108.84
  Q 77.90 104.26 81.03 100.50
  Q 88.95 91.02 95.11 86.37
  C 96.67 85.20 99.04 83.98 101.24 82.40
  C 102.82 81.26 104.76 80.70 106.28 79.60
  C 108.12 78.27 110.02 77.91 111.48 77.02
  A 0.83 0.76 26.7 0 1 111.83 76.92
  Q 113.66 76.88 115.13 75.76
  A 0.03 0.03 0.0 0 0 115.10 75.70
  Q 112.15 76.51 109.30 77.64
  C 107.31 78.43 105.09 80.07 102.77 81.09
  Q 101.21 81.77 100.18 82.50
  Q 95.95 85.50 91.64 88.39
  C 90.88 88.90 90.15 90.53 89.21 91.31
  Q 87.62 92.62 85.49 94.99
  Q 85.11 95.42 84.77 95.07
  Q 84.33 94.64 84.78 94.21
  L 88.32 90.81
  Q 88.60 90.55 88.97 90.43
  Q 89.86 90.16 89.95 88.99
  A 0.59 0.57 -15.8 0 1 90.18 88.60
  L 99.15 82.33
  Q 99.62 82.00 99.94 81.52
  Q 100.61 80.51 101.79 80.59
  Q 102.24 80.62 102.62 80.38
  Q 107.88 77.04 111.75 75.89
  Q 116.27 74.55 118.21 73.85
  Q 118.64 73.70 119.09 73.78
  Q 119.60 73.89 120.04 73.62
  C 121.53 72.74 123.58 72.39 125.29 72.34
  Q 125.55 72.33 125.65 72.09
  Q 125.72 71.89 126.00 71.86
  Q 129.49 71.48 133.00 71.42
  C 134.26 71.40 135.96 70.44 137.35 71.02
  Q 137.78 71.20 138.24 71.19
  Q 156.53 70.81 172.67 79.17
  C 173.81 79.77 174.90 80.84 176.53 81.27
  A 1.29 1.29 0.0 0 1 177.36 81.98
  Q 177.65 82.63 178.34 82.74
  Q 178.85 82.82 179.27 83.12
  Q 188.25 89.58 192.23 94.41
  C 193.98 96.53 195.69 98.31 197.11 100.40
  C 198.34 102.22 199.84 103.63 200.87 105.63
  C 201.43 106.72 202.25 107.30 202.65 108.41
  Q 203.82 111.66 205.25 113.75
  Q 206.36 115.36 206.60 117.01
  Q 206.72 117.91 206.18 117.19
  Q 205.81 116.70 205.70 116.09
  Q 205.62 115.68 205.40 115.32
  C 203.60 112.47 201.55 108.64 199.97 105.27
  Q 199.25 103.75 197.71 102.90
  Q 197.17 102.60 197.10 101.96
  Q 197.05 101.51 196.77 101.14
  Q 189.14 91.20 179.01 83.76
  Q 178.59 83.45 178.07 83.46
  Q 177.21 83.47 176.85 82.67
  A 0.93 0.90 3.6 0 0 176.47 82.25
  L 169.45 78.34
  Q 168.98 78.08 169.16 78.59
  Q 169.31 79.03 169.76 79.27
  Q 171.85 80.44 173.90 81.72
  C 175.45 82.68 177.62 83.41 179.28 84.84
  C 180.85 86.19 183.06 87.21 184.35 89.04
  Q 184.62 89.42 185.01 89.68
  Z"
/>
<path fill="#ca9e35" d="
  M 54.61 102.66
  C 39.67 139.44 49.24 179.84 78.45 205.90
  A 0.44 0.43 -38.4 0 0 78.96 205.95
  Q 89.07 200.15 99.10 194.29
  C 102.35 192.39 104.69 190.00 102.43 186.30
  Q 99.11 180.86 95.85 174.79
  Q 100.26 177.89 103.17 182.74
  Q 103.40 183.13 103.35 183.59
  C 103.21 184.83 103.40 185.65 104.14 186.81
  Q 104.43 187.27 104.46 187.79
  Q 104.50 188.47 104.58 188.75
  C 105.73 192.76 105.26 198.50 101.70 201.33
  Q 101.36 201.60 101.19 202.00
  Q 100.62 203.32 99.18 203.80
  Q 98.67 203.98 98.30 204.37
  C 96.30 206.47 93.15 207.88 91.37 209.03
  C 87.94 211.23 84.04 213.17 79.93 213.58
  C 78.24 213.75 77.02 212.89 75.60 212.14
  Q 75.40 212.03 75.36 211.81
  Q 75.33 211.66 75.20 211.55
  Q 64.97 203.06 58.97 194.27
  Q 57.71 192.42 54.61 186.32
  C 53.46 184.06 53.19 181.56 52.02 179.26
  C 49.89 175.09 49.03 171.80 49.23 168.45
  Q 49.25 168.08 49.44 167.76
  Q 49.66 167.38 49.53 167.03
  Q 49.39 166.67 49.22 167.01
  L 48.53 168.44
  Q 48.87 161.13 47.27 153.52
  Q 46.49 149.79 46.26 145.99
  C 46.19 144.83 45.62 144.00 45.66 142.82
  Q 45.74 140.21 45.74 137.59
  Q 45.75 135.22 46.38 132.45
  Q 47.14 129.17 47.43 125.78
  Q 47.47 125.33 47.67 124.92
  C 48.50 123.23 48.20 120.51 48.77 118.58
  Q 48.82 118.39 49.49 115.37
  Q 49.87 113.66 51.02 111.75
  C 51.39 111.14 51.36 109.71 51.75 108.80
  Q 53.07 105.67 54.61 102.66
  Z"
/>
<path fill="#ca9e35" d="
  M 174.62 185.70
  Q 173.43 187.50 173.38 189.65
  Q 172.49 185.27 174.62 185.70
  Z"
/>
<path fill="#ca9e35" d="
  M 195.89 261.35
  L 79.37 261.36
  C 83.78 216.40 136.14 194.33 172.02 220.42
  Q 192.29 235.16 195.89 261.35
  Z"
/>
</svg>
