<?xml version="1.0" encoding="UTF-8" standalone="no"?>
<!DOCTYPE svg PUBLIC "-//W3C//DTD SVG 1.1//EN" "http://www.w3.org/Graphics/SVG/1.1/DTD/svg11.dtd">
<svg xmlns="http://www.w3.org/2000/svg" version="1.1" viewBox="0.00 0.00 960.00 583.00">
<path fill="#231917" d="
  M 338.03 292.49
  C 334.57 301.81 325.33 306.94 315.69 307.97
  Q 314.25 308.13 304.52 308.12
  Q 264.26 308.09 224.07 308.10
  A 0.61 0.61 0.0 0 1 223.46 307.49
  L 223.46 196.48
  Q 223.46 195.84 224.10 195.84
  Q 268.53 195.87 313.00 195.94
  C 323.99 195.96 335.45 201.95 338.58 212.92
  Q 339.49 216.11 339.50 224.16
  Q 339.54 252.00 339.51 279.83
  Q 339.50 288.54 338.03 292.49
  Z
  M 307.61 288.28
  C 311.52 288.28 316.08 286.93 316.12 282.25
  Q 316.37 253.00 316.34 223.75
  C 316.33 217.20 313.00 215.69 306.89 215.69
  Q 276.99 215.65 247.15 215.62
  A 0.62 0.62 0.0 0 0 246.53 216.24
  L 246.54 287.74
  A 0.55 0.55 0.0 0 0 247.09 288.29
  Q 277.30 288.29 307.61 288.28
  Z"
/>
<path fill="#231917" d="
  M 359.77 216.33
  C 361.66 204.36 370.14 195.91 382.75 195.90
  Q 427.68 195.86 472.50 195.84
  A 0.68 0.67 -90.0 0 1 473.17 196.52
  L 473.14 214.96
  Q 473.14 215.49 472.61 215.49
  Q 430.65 215.53 388.76 215.48
  C 384.35 215.47 384.13 219.98 384.51 223.77
  Q 384.96 228.32 388.74 229.49
  Q 422.64 240.05 456.50 250.77
  C 466.51 253.93 476.94 260.07 478.08 271.24
  Q 478.41 274.44 478.30 281.78
  C 478.13 293.16 474.78 302.66 463.16 306.60
  Q 458.75 308.09 448.65 308.11
  Q 404.40 308.17 360.17 308.12
  A 0.68 0.67 -90.0 0 1 359.50 307.44
  L 359.48 288.81
  Q 359.48 288.34 359.95 288.34
  L 449.25 288.32
  Q 453.31 288.32 453.42 284.26
  Q 453.55 279.57 453.38 274.99
  Q 453.23 271.10 449.49 269.86
  Q 401.22 254.01 379.01 247.05
  C 363.98 242.34 357.28 232.18 359.77 216.33
  Z"
/>
<path fill="#231917" d="
  M 518.80 262.08
  Q 518.77 271.47 518.81 281.02
  C 518.83 285.09 519.63 288.32 524.25 288.32
  Q 565.27 288.27 606.12 288.34
  A 0.63 0.63 0.0 0 1 606.75 288.97
  L 606.76 307.76
  A 0.39 0.38 -0.0 0 1 606.37 308.14
  Q 563.35 308.05 520.25 308.06
  C 509.44 308.06 500.71 303.84 497.17 293.78
  Q 495.58 289.25 495.57 276.53
  Q 495.56 248.39 495.54 220.25
  C 495.54 210.01 499.65 200.95 509.53 197.38
  Q 513.59 195.92 522.67 195.91
  Q 564.14 195.88 605.61 195.91
  Q 606.23 195.91 606.23 196.52
  L 606.25 215.01
  Q 606.25 215.62 605.63 215.62
  Q 564.05 215.59 522.50 215.68
  C 519.93 215.69 518.62 219.68 518.71 222.13
  C 518.96 228.53 518.77 234.97 518.82 241.33
  A 0.44 0.44 0.0 0 0 519.26 241.77
  L 601.95 241.77
  A 0.28 0.28 0.0 0 1 602.23 242.05
  L 602.24 261.20
  A 0.44 0.44 0.0 0 1 601.80 261.64
  L 519.25 261.63
  A 0.45 0.45 0.0 0 0 518.80 262.08
  Z"
/>
<path fill="#231917" d="
  M 650.27 241.78
  L 732.47 241.78
  A 0.69 0.68 90.0 0 1 733.15 242.47
  L 733.13 261.22
  A 0.43 0.43 0.0 0 1 732.70 261.65
  L 650.02 261.64
  A 0.30 0.30 0.0 0 0 649.72 261.94
  Q 649.64 271.68 649.75 281.42
  C 649.79 285.18 650.80 288.32 655.00 288.32
  Q 696.02 288.29 736.88 288.34
  A 0.66 0.65 90.0 0 1 737.53 289.00
  L 737.53 307.73
  A 0.36 0.36 0.0 0 1 737.17 308.09
  Q 696.95 308.07 656.66 308.16
  Q 645.87 308.18 641.34 306.68
  C 627.44 302.07 626.52 290.62 626.50 276.60
  Q 626.43 232.23 626.50 219.50
  C 626.56 209.19 631.25 200.70 640.59 197.34
  Q 644.49 195.94 652.57 195.94
  Q 694.39 195.96 736.29 195.92
  A 0.79 0.79 0.0 0 1 737.08 196.70
  L 737.10 215.01
  A 0.63 0.62 90.0 0 1 736.48 215.64
  Q 695.24 215.64 654.25 215.69
  C 650.56 215.69 649.85 218.61 649.79 221.85
  Q 649.59 231.54 649.75 241.27
  Q 649.75 241.78 650.27 241.78
  Z"
/>
<path fill="#231917" d="
  M 329.45 366.60
  L 329.52 376.62
  A 1.95 1.94 89.7 0 0 331.46 378.55
  L 370.05 378.58
  A 0.63 0.63 0.0 0 1 370.68 379.21
  L 370.67 387.21
  Q 370.67 387.76 370.12 387.76
  Q 350.92 387.75 331.50 387.76
  Q 326.19 387.76 323.73 386.37
  Q 318.82 383.60 318.70 376.81
  Q 318.28 353.99 318.62 345.75
  C 318.98 336.88 325.02 335.32 332.98 335.28
  Q 351.48 335.18 369.67 335.44
  Q 370.49 335.46 370.48 336.28
  L 370.47 343.70
  A 0.92 0.92 0.0 0 1 369.55 344.61
  L 331.69 344.63
  A 2.17 2.16 0.3 0 0 329.52 346.77
  L 329.42 356.00
  A 0.85 0.84 -89.7 0 0 330.26 356.86
  L 367.94 356.83
  A 0.61 0.61 0.0 0 1 368.55 357.44
  L 368.50 365.74
  Q 368.50 366.22 368.01 366.22
  L 329.93 366.12
  A 0.48 0.48 0.0 0 0 329.45 366.60
  Z"
/>
<path fill="#231917" d="
  M 438.33 349.30
  L 452.50 349.28
  A 0.72 0.72 0.0 0 1 453.22 350.00
  L 453.23 356.53
  Q 453.23 357.29 452.47 357.29
  L 438.27 357.29
  Q 437.84 357.29 437.84 357.73
  L 437.85 378.64
  A 1.17 1.17 0.0 0 0 439.02 379.81
  L 451.79 379.82
  Q 452.52 379.82 452.52 380.54
  L 452.52 387.04
  Q 452.52 387.75 451.81 387.75
  Q 443.63 387.74 435.25 387.76
  C 430.84 387.77 427.10 386.33 427.10 381.50
  Q 427.10 358.71 427.10 335.92
  A 0.62 0.61 -90.0 0 1 427.71 335.30
  L 437.22 335.30
  Q 437.89 335.30 437.89 335.97
  L 437.86 348.83
  Q 437.86 349.30 438.33 349.30
  Z"
/>
<path fill="#231917" d="
  M 408.68 349.29
  L 420.41 349.26
  A 0.42 0.42 0.0 0 1 420.73 349.95
  L 405.15 368.59
  A 0.42 0.42 0.0 0 0 405.15 369.13
  L 420.32 387.09
  A 0.42 0.42 0.0 0 1 420.00 387.78
  L 408.30 387.79
  A 0.42 0.42 0.0 0 1 407.97 387.64
  L 398.90 376.72
  A 0.42 0.42 0.0 0 0 398.26 376.71
  L 389.08 387.60
  A 0.42 0.42 0.0 0 1 388.75 387.75
  L 377.06 387.75
  A 0.42 0.42 0.0 0 1 376.74 387.06
  L 391.91 368.99
  A 0.42 0.42 0.0 0 0 391.91 368.45
  L 376.38 349.94
  A 0.42 0.42 0.0 0 1 376.70 349.25
  L 388.38 349.26
  A 0.42 0.42 0.0 0 1 388.71 349.41
  L 398.16 360.77
  A 0.42 0.42 0.0 0 0 398.80 360.78
  L 408.36 349.44
  A 0.42 0.42 0.0 0 1 408.68 349.29
  Z"
/>
<path fill="#231917" d="
  M 473.44 357.27
  Q 472.50 357.27 472.50 358.21
  L 472.48 387.00
  Q 472.48 387.74 471.75 387.74
  L 462.00 387.75
  A 0.38 0.37 90.0 0 1 461.63 387.37
  Q 461.69 372.44 461.66 358.09
  C 461.65 351.80 463.57 349.33 469.80 349.28
  Q 477.20 349.21 484.63 349.30
  Q 485.37 349.31 485.36 350.04
  L 485.28 356.50
  Q 485.27 357.27 484.50 357.27
  L 473.44 357.27
  Z"
/>
<path fill="#231917" d="
  M 503.28 373.24
  Q 502.25 373.24 502.26 374.27
  L 502.30 378.70
  A 1.15 1.15 0.0 0 0 503.45 379.83
  L 527.97 379.83
  A 0.90 0.89 89.7 0 1 528.86 380.72
  L 528.96 386.96
  A 0.77 0.76 89.6 0 1 528.20 387.74
  Q 513.63 387.79 498.73 387.74
  C 495.01 387.73 491.55 385.88 491.52 382.00
  Q 491.40 361.33 491.50 356.00
  C 491.62 350.17 495.68 349.32 500.81 349.28
  Q 517.77 349.13 523.50 349.25
  C 532.36 349.43 530.48 359.14 530.46 364.79
  C 530.43 370.41 528.54 373.24 522.82 373.26
  Q 512.72 373.30 503.28 373.24
  Z
  M 519.68 358.48
  A 1.21 1.21 0.0 0 0 518.47 357.27
  L 503.49 357.27
  A 1.21 1.21 0.0 0 0 502.28 358.48
  L 502.28 364.30
  A 1.21 1.21 0.0 0 0 503.49 365.51
  L 518.47 365.51
  A 1.21 1.21 0.0 0 0 519.68 364.30
  L 519.68 358.48
  Z"
/>
<path fill="#231917" d="
  M 549.71 358.07
  L 549.72 387.27
  Q 549.72 387.75 549.23 387.75
  L 539.54 387.75
  Q 538.96 387.75 538.96 387.17
  Q 538.98 372.58 539.00 358.07
  C 539.00 351.92 540.84 349.29 547.03 349.28
  Q 567.52 349.26 588.00 349.25
  C 593.75 349.24 594.93 353.18 594.94 358.30
  Q 594.98 372.79 594.94 387.27
  Q 594.94 387.76 594.45 387.76
  L 584.70 387.74
  A 0.55 0.54 -0.0 0 1 584.15 387.20
  L 584.17 358.72
  A 1.45 1.44 0.2 0 0 582.72 357.27
  L 573.21 357.24
  A 0.83 0.82 -89.7 0 0 572.38 358.07
  L 572.39 387.31
  Q 572.39 387.75 571.95 387.75
  L 562.15 387.76
  Q 561.54 387.76 561.54 387.15
  L 561.56 357.70
  A 0.40 0.40 0.0 0 0 561.15 357.30
  L 550.43 357.34
  Q 549.71 357.35 549.71 358.07
  Z"
/>
<path fill="#231917" d="
  M 615.25 373.22
  Q 614.24 373.22 614.24 374.23
  L 614.26 378.69
  A 1.18 1.17 -0.0 0 0 615.44 379.86
  L 639.95 379.85
  Q 640.80 379.85 640.81 380.70
  L 640.91 387.03
  Q 640.92 387.74 640.21 387.74
  Q 625.56 387.74 611.04 387.75
  C 607.18 387.75 603.51 386.12 603.49 382.00
  Q 603.41 369.88 603.48 357.77
  C 603.51 351.68 605.46 349.28 611.50 349.28
  Q 623.63 349.28 635.75 349.28
  C 644.08 349.28 642.51 359.29 642.42 364.68
  C 642.34 370.27 640.65 373.23 634.76 373.25
  Q 624.51 373.29 615.25 373.22
  Z
  M 631.62 358.45
  A 1.17 1.17 0.0 0 0 630.45 357.28
  L 615.39 357.28
  A 1.17 1.17 0.0 0 0 614.22 358.45
  L 614.22 364.33
  A 1.17 1.17 0.0 0 0 615.39 365.50
  L 630.45 365.50
  A 1.17 1.17 0.0 0 0 631.62 364.33
  L 631.62 358.45
  Z"
/>
</svg>
