<?xml version="1.0" encoding="UTF-8" standalone="no"?>
<!DOCTYPE svg PUBLIC "-//W3C//DTD SVG 1.1//EN" "http://www.w3.org/Graphics/SVG/1.1/DTD/svg11.dtd">
<svg xmlns="http://www.w3.org/2000/svg" version="1.1" viewBox="0.00 0.00 720.00 438.00">
<g stroke-width="2.00" fill="none" stroke-linecap="butt">
<path stroke="#f1c856" vector-effect="non-scaling-stroke" d="
  M 240.47 98.16
  Q 239.34 98.04 239.39 98.73
  C 239.47 99.77 239.84 100.63 239.87 101.61
  Q 240.41 116.89 240.12 132.18
  Q 240.10 133.27 240.32 135.30
  C 240.58 137.71 240.18 141.13 240.18 142.58
  Q 240.22 166.06 240.34 189.54"
/>
<path stroke="#f0be37" vector-effect="non-scaling-stroke" d="
  M 240.34 189.54
  L 240.36 232.54"
/>
<path stroke="#edb00f" vector-effect="non-scaling-stroke" d="
  M 240.36 232.54
  L 240.61 288.96
  Q 240.61 289.10 240.73 289.23
  Q 240.79 289.29 240.83 289.36
  Q 240.89 289.48 240.89 289.66
  Q 240.75 297.54 241.20 305.44
  Q 241.23 306.01 241.72 305.73
  C 243.26 304.86 242.94 303.81 243.77 302.42
  Q 244.02 301.99 244.51 301.88
  Q 244.99 301.78 245.34 302.09
  Q 245.64 302.35 245.86 302.02
  L 246.09 301.65
  Q 246.37 301.23 246.87 301.33
  Q 247.02 301.36 247.17 301.41
  Q 247.54 301.52 247.58 301.13
  L 248.31 292.43"
/>
<path stroke="#835b0e" vector-effect="non-scaling-stroke" d="
  M 248.31 292.43
  L 248.27 330.74
  Q 248.27 331.25 248.78 331.25
  L 471.02 331.26
  Q 471.74 331.26 471.74 330.55
  L 471.85 241.16"
/>
<path stroke="#e8a70a" vector-effect="non-scaling-stroke" d="
  M 471.85 241.16
  Q 472.66 242.09 472.60 243.75
  Q 472.55 245.55 472.70 247.40
  Q 472.72 247.63 472.82 247.42
  Q 472.88 247.29 472.96 247.16
  Q 473.16 246.81 473.56 246.90
  L 474.83 247.21
  Q 475.32 247.33 475.80 247.19
  Q 476.99 246.85 477.42 245.75
  A 0.18 0.18 0.0 0 1 477.75 245.75
  Q 477.84 245.96 478.11 245.86
  Q 478.61 245.69 478.61 245.17
  L 478.30 210.04
  Q 478.30 209.62 478.60 209.92
  Q 478.82 210.14 478.98 210.06
  Q 479.14 209.97 479.13 209.63
  Q 478.97 205.56 479.65 201.53"
/>
<path stroke="#c08005" vector-effect="non-scaling-stroke" d="
  M 479.65 201.53
  Q 479.66 207.19 479.73 212.84
  C 479.87 222.58 479.37 232.53 479.52 242.40
  Q 479.71 254.24 479.67 260.62
  Q 479.54 283.16 480.40 305.71"
/>
<path stroke="#835b0e" vector-effect="non-scaling-stroke" d="
  M 480.40 305.71
  L 480.28 338.36
  A 0.88 0.88 0.0 0 1 479.40 339.24
  L 239.88 339.22
  Q 239.39 339.22 239.38 338.83
  L 239.15 327.45"
/>
<path stroke="#f1c856" vector-effect="non-scaling-stroke" d="
  M 314.46 98.11
  Q 320.09 98.78 322.99 98.80
  Q 363.86 99.08 404.69 99.54"
/>
<path stroke="#ffe986" vector-effect="non-scaling-stroke" d="
  M 404.69 99.54
  L 437.64 100.04
  Q 438.15 100.05 437.81 100.44
  Q 437.49 100.81 437.70 101.17
  Q 437.98 101.63 437.47 101.78
  C 434.08 102.79 430.30 104.78 427.87 105.78
  Q 425.48 106.77 423.09 107.77
  C 420.15 109.01 417.42 111.48 414.24 112.60
  Q 401.76 117.03 392.40 121.42
  Q 391.57 121.81 390.90 122.34
  Q 390.61 122.58 390.24 122.60
  Q 389.37 122.67 388.74 123.14
  Q 388.46 123.35 388.13 123.47
  L 384.64 124.77
  Q 384.31 124.88 383.97 124.89
  C 383.16 124.89 382.95 124.77 382.19 125.19
  C 380.38 126.20 377.94 127.12 376.59 128.71
  C 375.20 130.35 372.76 131.00 370.99 132.22
  Q 370.07 132.85 367.21 133.11"
/>
<path stroke="#92865d" vector-effect="non-scaling-stroke" d="
  M 367.21 133.11
  L 346.93 133.19
  A 0.43 0.43 0.0 0 0 346.51 133.62
  L 346.52 146.99"
/>
<path stroke="#ffe986" vector-effect="non-scaling-stroke" d="
  M 346.52 146.99
  Q 345.75 147.61 344.66 146.73
  Q 344.25 146.41 344.01 146.88
  Q 343.60 147.68 342.91 147.56
  Q 342.51 147.49 342.11 147.58
  Q 339.85 148.12 338.05 149.45
  Q 335.89 151.04 334.54 151.59
  Q 330.29 153.31 328.50 154.89
  Q 327.04 156.17 325.62 156.22
  A 0.93 0.91 20.8 0 0 324.98 156.50
  L 319.55 162.26"
/>
<path stroke="#92865d" vector-effect="non-scaling-stroke" d="
  M 319.55 162.26
  L 319.64 152.52
  A 0.35 0.35 0.0 0 0 319.29 152.17
  L 310.75 152.21
  A 0.30 0.30 0.0 0 0 310.45 152.51
  L 310.40 167.94"
/>
<path stroke="#ffe986" vector-effect="non-scaling-stroke" d="
  M 310.40 167.94
  L 309.82 170.73
  Q 309.71 171.26 309.16 171.30
  C 306.17 171.53 301.75 170.07 300.25 173.46"
/>
<path stroke="#92865d" vector-effect="non-scaling-stroke" d="
  M 300.25 173.46
  L 300.24 133.70
  Q 300.24 133.15 299.69 133.15
  L 291.49 133.21
  A 0.55 0.55 0.0 0 0 290.94 133.76
  L 290.94 160.92
  A 0.62 0.61 90.0 0 1 290.33 161.54
  L 270.01 161.52
  Q 269.50 161.52 269.50 161.01
  L 269.55 133.44
  Q 269.55 133.20 269.31 133.20
  L 260.62 133.17
  Q 260.41 133.17 260.41 133.37
  L 260.41 200.02"
/>
<path stroke="#ffe986" vector-effect="non-scaling-stroke" d="
  M 260.41 200.02
  Q 258.23 195.05 258.96 189.28
  Q 259.06 188.50 258.38 188.91
  Q 251.22 193.18 244.25 197.76
  Q 243.99 197.93 243.46 197.89
  Q 242.93 197.85 242.57 198.24
  L 241.13 199.74
  Q 240.95 199.94 240.93 199.66
  L 240.34 189.54"
/>
<path stroke="#896411" vector-effect="non-scaling-stroke" d="
  M 471.85 241.16
  L 471.89 239.79"
/>
<path stroke="#c68908" vector-effect="non-scaling-stroke" d="
  M 471.89 239.79
  L 472.11 214.84
  A 0.93 0.92 76.5 0 0 470.76 214.01
  Q 464.61 217.22 457.93 219.97
  C 453.95 221.60 449.99 223.56 446.09 224.96
  Q 439.28 227.41 432.45 229.82
  C 431.10 230.29 429.62 229.85 428.50 230.35
  Q 426.25 231.36 421.25 232.63
  Q 419.96 232.95 416.17 234.65"
/>
<path stroke="#f6c83a" vector-effect="non-scaling-stroke" d="
  M 416.17 234.65
  Q 415.69 234.52 415.18 234.95
  Q 414.91 235.18 414.85 235.51
  Q 414.80 235.81 414.50 235.84
  C 412.93 236.02 411.66 235.51 410.17 235.92
  C 408.03 236.50 406.11 237.16 403.88 237.39
  Q 387.03 239.18 370.16 240.93
  C 364.36 241.53 358.37 241.57 352.44 241.85
  C 351.57 241.89 351.09 242.32 350.32 242.68
  Q 349.99 242.84 350.28 243.06
  Q 350.57 243.28 350.77 243.60"
/>
<path stroke="#896411" vector-effect="non-scaling-stroke" d="
  M 350.77 243.60
  L 332.46 242.33"
/>
<path stroke="#c68908" vector-effect="non-scaling-stroke" d="
  M 332.46 242.33
  Q 334.30 240.79 337.07 240.78
  Q 337.14 240.78 337.13 240.71
  Q 337.13 240.56 337.13 240.42
  Q 337.13 240.18 336.89 240.14
  L 332.41 239.36"
/>
<path stroke="#f3ba12" vector-effect="non-scaling-stroke" d="
  M 332.41 239.36
  L 340.64 239.07
  Q 340.76 239.06 340.76 238.94
  Q 340.77 238.88 340.76 238.83
  Q 340.72 238.63 340.81 238.57
  Q 342.21 237.75 343.80 237.43
  Q 344.05 237.38 344.17 237.24
  Q 344.36 237.03 344.39 236.78
  Q 344.45 236.33 344.89 236.25
  C 346.06 236.03 346.85 236.25 347.95 235.69
  Q 350.54 234.35 353.22 233.19
  Q 353.55 233.05 353.86 233.22
  Q 354.04 233.32 354.25 233.24
  Q 355.07 232.89 355.08 232.89
  Q 356.86 231.61 358.90 231.06
  Q 361.84 230.29 362.86 229.80
  Q 367.54 227.56 372.32 225.50
  Q 375.15 224.27 380.62 221.13
  C 381.29 220.75 382.66 220.82 383.66 220.38
  C 386.54 219.12 389.65 218.33 392.35 216.97
  C 398.12 214.06 403.60 211.54 408.92 207.95
  C 409.83 207.34 410.59 207.45 411.55 207.06
  Q 412.77 206.55 413.54 206.44
  Q 417.71 205.80 421.66 204.36
  Q 423.77 203.59 426.02 203.52
  C 429.37 203.42 431.43 202.09 434.07 201.67
  Q 434.54 201.60 434.94 201.34
  Q 435.43 201.01 435.50 200.44
  Q 435.53 200.22 435.32 200.15
  L 429.61 198.13"
/>
<path stroke="#fbd13f" vector-effect="non-scaling-stroke" d="
  M 479.82 119.29
  L 478.72 137.71
  Q 478.70 137.90 478.61 137.74
  Q 478.55 137.61 478.48 137.50
  Q 478.34 137.23 478.05 137.30
  C 476.76 137.62 475.62 137.74 474.47 138.48
  C 473.18 139.31 471.58 140.40 470.11 140.83
  Q 469.67 140.96 469.43 141.39
  Q 469.25 141.73 468.91 141.91
  L 463.45 144.85
  Q 462.97 145.12 462.41 145.12
  Q 460.74 145.12 459.67 146.43
  A 0.19 0.19 0.0 0 0 459.70 146.70
  Q 459.89 146.84 459.91 147.06
  Q 459.96 147.58 459.44 147.60
  Q 459.03 147.62 458.67 147.80"
/>
<path stroke="#917c3e" vector-effect="non-scaling-stroke" d="
  M 458.67 147.80
  Q 456.20 147.22 453.66 146.69
  C 441.99 144.27 429.23 148.46 430.00 162.69
  C 430.42 170.37 436.87 174.35 443.50 177.06"
/>
<path stroke="#fbd13f" vector-effect="non-scaling-stroke" d="
  M 443.50 177.06
  Q 443.38 177.67 442.49 177.07
  Q 442.05 176.77 441.53 176.87
  Q 440.55 177.04 439.78 176.54
  Q 439.30 176.23 438.74 176.20
  Q 436.43 176.07 434.75 174.32
  A 1.38 1.36 72.0 0 0 433.98 173.92
  C 432.45 173.66 431.18 172.88 429.80 172.96
  Q 427.22 173.10 427.16 175.90
  Q 427.15 176.39 426.74 176.64
  Q 424.27 178.19 422.25 178.36
  Q 412.76 179.16 403.53 178.81
  A 2.71 2.70 6.1 0 0 400.76 181.04
  Q 400.08 184.88 403.03 186.99
  Q 403.31 187.19 403.34 187.53
  Q 403.36 187.91 403.77 188.08
  Q 405.65 188.90 407.07 190.45
  Q 407.37 190.78 406.94 190.86
  L 405.87 191.06"
/>
<path stroke="#917c3e" vector-effect="non-scaling-stroke" d="
  M 405.87 191.06
  C 400.37 188.78 397.96 182.84 397.74 177.26
  A 0.76 0.76 0.0 0 1 398.50 176.47
  L 425.02 176.54
  Q 425.46 176.54 425.50 176.11
  C 426.61 164.85 424.25 147.56 409.68 146.19
  C 398.98 145.19 391.75 152.72 389.42 162.73
  C 386.58 174.96 387.73 189.21 398.75 197.37"
/>
<path stroke="#fbd13f" vector-effect="non-scaling-stroke" d="
  M 398.75 197.37
  Q 395.58 198.41 392.87 195.57
  A 1.45 1.45 0.0 0 0 390.63 195.74
  Q 389.81 196.89 389.60 198.08
  Q 389.51 198.57 389.06 198.81
  Q 387.89 199.42 386.77 200.04
  Q 386.59 200.14 386.45 200.14
  Q 386.26 200.13 386.10 200.03
  Q 385.80 199.86 385.71 200.20
  Q 385.55 200.76 385.03 200.63
  Q 383.44 200.22 382.19 200.86
  Q 381.83 201.04 381.43 200.96
  Q 379.63 200.63 378.01 201.31
  Q 377.90 201.36 377.86 201.24
  Q 377.81 201.12 377.75 200.99
  Q 377.59 200.64 377.12 201.37
  Q 376.99 201.58 376.73 201.63
  Q 376.37 201.68 376.30 201.71
  C 372.14 203.29 368.17 205.16 363.89 206.36
  Q 359.18 207.67 357.73 208.34
  Q 354.69 209.74 352.48 210.46
  Q 348.25 211.82 347.20 212.29
  Q 341.33 214.89 335.27 217.00
  C 332.80 217.86 329.88 219.06 327.62 220.35
  C 325.63 221.49 323.36 222.16 321.48 223.43
  C 318.64 225.36 315.69 226.12 312.98 228.50
  Q 312.88 228.58 312.88 228.72
  Q 312.88 228.86 312.88 229.00
  Q 312.89 229.20 312.70 229.27
  Q 311.84 229.56 311.35 230.31
  Q 311.11 230.67 310.68 230.62
  Q 309.84 230.52 309.28 231.08
  Q 308.99 231.37 308.67 231.62
  Q 307.76 232.34 306.60 232.12
  Q 305.95 232.00 305.95 232.67
  Q 305.97 234.27 308.24 235.19"
/>
<path stroke="#cea135" vector-effect="non-scaling-stroke" d="
  M 308.24 235.19
  Q 277.59 228.61 249.76 214.19"
/>
<path stroke="#917c3e" vector-effect="non-scaling-stroke" d="
  M 249.76 214.19
  Q 249.31 213.90 248.91 213.81
  Q 248.33 213.68 248.32 214.28
  L 248.10 227.97"
/>
<path stroke="#fbd13f" vector-effect="non-scaling-stroke" d="
  M 248.10 227.97
  L 247.91 244.11
  Q 247.91 244.13 247.90 244.13
  Q 247.89 244.13 247.89 244.13
  Q 247.87 244.13 247.87 244.11
  Q 247.86 243.48 247.40 243.20
  Q 247.08 243.01 246.51 243.15
  Q 246.06 243.26 245.59 243.39
  Q 245.09 243.53 244.66 243.23
  Q 243.55 242.46 242.26 242.81
  A 0.96 0.96 0.0 0 1 241.05 241.95
  L 240.36 232.54"
/>
<path stroke="#917c3e" vector-effect="non-scaling-stroke" d="
  M 260.41 200.02
  L 269.05 200.20
  Q 269.51 200.21 269.51 199.75
  L 269.55 170.48
  A 0.22 0.22 0.0 0 1 269.77 170.26
  L 290.49 170.24
  Q 290.99 170.24 290.98 170.74
  L 290.83 199.79
  A 0.46 0.46 0.0 0 0 291.29 200.26
  L 299.72 200.25
  Q 300.29 200.25 300.28 199.68
  L 300.25 173.46"
/>
<path stroke="#917c3e" vector-effect="non-scaling-stroke" d="
  M 310.40 167.94
  L 310.34 198.96
  Q 310.34 200.37 311.75 200.33
  L 318.04 200.16
  A 1.57 1.57 0.0 0 0 319.57 198.58
  L 319.55 162.26"
/>
<path stroke="#917c3e" vector-effect="non-scaling-stroke" d="
  M 346.52 146.99
  L 346.62 199.46
  Q 346.62 200.25 347.41 200.26
  L 354.75 200.26
  Q 355.51 200.26 355.51 199.50
  L 355.50 172.02
  Q 355.50 171.55 355.96 171.53
  C 361.64 171.29 368.77 170.48 370.59 177.63
  Q 373.22 187.99 375.06 199.01
  A 1.48 1.48 0.0 0 0 376.52 200.26
  L 384.01 200.27
  Q 385.23 200.27 384.95 199.08
  Q 382.42 188.52 379.95 177.26
  C 378.97 172.80 377.60 169.19 374.01 167.21
  A 0.39 0.39 0.0 0 1 374.03 166.52
  C 381.16 163.20 383.48 155.65 382.60 148.14
  C 381.56 139.33 376.39 133.83 367.21 133.11"
/>
<path stroke="#613d0c" vector-effect="non-scaling-stroke" d="
  M 480.40 305.71
  C 480.29 301.82 480.65 297.47 480.66 294.10
  Q 480.76 225.10 480.72 156.10
  C 480.72 152.39 480.16 147.89 480.24 143.71"
/>
<path stroke="#c68908" vector-effect="non-scaling-stroke" d="
  M 479.65 201.53
  L 479.83 159.29"
/>
<path stroke="#613d0c" vector-effect="non-scaling-stroke" d="
  M 249.76 214.19
  Q 250.38 215.32 250.40 216.34
  Q 250.41 216.82 250.79 217.11
  Q 253.31 219.05 256.36 219.99
  C 257.29 220.27 257.90 221.20 258.85 221.63
  Q 294.16 237.79 332.46 242.33"
/>
<path stroke="#917c3e" vector-effect="non-scaling-stroke" d="
  M 350.77 243.60
  C 370.39 244.48 389.64 242.90 408.79 238.78
  Q 414.87 237.48 421.12 236.19"
/>
<path stroke="#613d0c" vector-effect="non-scaling-stroke" d="
  M 421.12 236.19
  Q 446.06 229.92 468.69 217.81
  A 2.00 2.00 0.0 0 1 471.63 219.55
  L 471.89 239.79"
/>
<path stroke="#8e6e16" vector-effect="non-scaling-stroke" d="
  M 248.31 292.43
  L 248.10 227.97"
/>
<path stroke="#835b0e" vector-effect="non-scaling-stroke" d="
  M 480.96 119.16
  Q 479.71 125.51 480.07 132.74"
/>
<path stroke="#edb00f" vector-effect="non-scaling-stroke" d="
  M 480.07 132.74
  L 479.82 119.29"
/>
<path stroke="#f0be37" vector-effect="non-scaling-stroke" d="
  M 479.82 119.29
  L 479.89 100.93
  Q 479.90 99.61 478.57 99.60
  L 404.69 99.54"
/>
<path stroke="#cb930d" vector-effect="non-scaling-stroke" d="
  M 332.41 239.36
  L 308.24 235.19"
/>
<path stroke="#cea135" vector-effect="non-scaling-stroke" d="
  M 421.12 236.19
  L 420.09 234.94
  Q 419.77 234.57 419.30 234.67
  Q 417.63 235.05 416.17 234.65"
/>
<path stroke="#8e6e16" vector-effect="non-scaling-stroke" d="
  M 480.07 132.74
  L 480.24 143.71"
/>
<path stroke="#cb930d" vector-effect="non-scaling-stroke" d="
  M 480.24 143.71
  L 479.83 159.29"
/>
<path stroke="#f3ba12" vector-effect="non-scaling-stroke" d="
  M 479.83 159.29
  Q 479.68 165.29 479.67 171.28
  C 479.67 173.66 478.73 175.80 478.41 178.21
  Q 478.33 178.80 477.84 179.14
  Q 475.69 180.65 473.12 181.14
  Q 472.63 181.24 472.25 181.54
  C 470.65 182.83 468.81 183.09 467.33 184.34
  Q 465.47 185.91 464.74 186.37
  Q 464.09 186.78 463.79 186.48
  Q 463.57 186.26 463.40 186.52
  Q 462.55 187.86 462.79 189.49
  Q 462.81 189.60 462.70 189.62
  Q 462.54 189.65 462.38 189.67
  A 0.27 0.27 0.0 0 0 462.16 189.88
  Q 461.83 191.56 460.62 194.23
  Q 460.16 195.25 459.34 195.50
  Q 458.89 195.63 458.60 196.00
  Q 457.09 197.91 454.70 198.38
  Q 454.20 198.48 453.78 198.80
  Q 452.53 199.75 451.01 199.42"
/>
<path stroke="#8e6e16" vector-effect="non-scaling-stroke" d="
  M 451.01 199.42
  C 464.31 194.90 465.08 178.31 453.24 171.78
  C 448.55 169.19 435.60 165.49 440.71 157.36
  C 443.61 152.75 452.62 154.72 456.59 156.24
  A 0.96 0.96 0.0 0 0 457.87 155.54
  Q 458.54 152.26 459.23 148.99
  Q 459.41 148.12 458.67 147.80"
/>
<path stroke="#896411" vector-effect="non-scaling-stroke" d="
  M 451.01 199.42
  C 443.45 201.33 437.41 200.31 429.61 198.13"
/>
<path stroke="#8e6e16" vector-effect="non-scaling-stroke" d="
  M 429.61 198.13
  L 431.02 190.39
  A 0.76 0.76 0.0 0 1 432.03 189.81
  C 436.53 191.46 446.88 194.20 450.53 189.71
  Q 452.45 187.36 451.64 184.27
  C 450.69 180.65 446.84 178.38 443.50 177.06"
/>
<path stroke="#8e6e16" vector-effect="non-scaling-stroke" d="
  M 405.87 191.06
  C 409.66 192.82 415.78 192.00 419.48 191.00
  Q 420.50 190.72 420.65 191.77
  L 421.56 197.96
  Q 421.72 199.01 420.69 199.27
  Q 414.17 200.88 409.00 200.47
  Q 403.48 200.03 398.75 197.37"
/>
<path stroke="#fff7bb" vector-effect="non-scaling-stroke" d="
  M 285.26 114.13
  Q 285.80 114.02 285.88 114.52
  A 0.58 0.58 0.0 0 0 286.81 114.89
  L 288.24 113.78
  A 0.73 0.71 -63.5 0 1 288.69 113.62
  Q 288.85 113.62 289.00 113.62
  Q 289.13 113.62 289.13 113.75
  Q 289.13 113.90 289.12 114.06
  Q 289.10 114.41 289.39 114.21
  Q 289.57 114.08 289.65 113.85
  Q 289.73 113.61 289.97 113.51
  L 310.48 104.26
  Q 310.90 104.07 311.18 103.71
  Q 311.87 102.85 312.85 102.94
  Q 313.32 102.98 313.78 102.88
  Q 315.41 102.50 315.45 100.84
  Q 315.46 100.41 315.04 100.31
  Q 313.17 99.88 311.25 99.87
  Q 299.12 99.86 287.01 99.31
  Q 276.76 98.84 266.50 98.80
  C 264.01 98.79 261.44 99.31 259.15 99.32
  Q 250.79 99.35 242.16 99.13
  A 1.74 1.74 0.0 0 0 240.38 100.87
  C 240.38 112.17 239.94 123.81 240.95 135.17
  Q 240.96 135.25 241.04 135.25
  Q 241.15 135.24 241.29 135.24
  Q 241.37 135.25 241.37 135.16
  Q 241.38 132.94 241.36 130.71
  Q 241.35 129.94 242.06 130.24
  Q 242.60 130.48 243.25 130.35
  A 1.11 0.00 -11.0 0 0 244.31 130.14
  Q 245.19 129.79 246.15 129.85
  Q 246.68 129.88 247.08 129.55
  Q 248.34 128.51 249.97 128.39
  Q 250.07 128.39 250.11 128.47
  Q 250.17 128.59 250.23 128.71
  Q 250.37 128.98 250.64 128.85
  C 253.97 127.25 257.31 127.07 260.04 124.05
  Q 260.37 123.69 260.85 123.63
  Q 262.50 123.42 264.99 121.99
  Q 266.93 120.88 271.50 120.07
  C 274.41 119.55 276.50 118.09 279.07 116.83
  Q 279.19 116.77 279.15 116.89
  L 279.04 117.23
  Q 278.93 117.59 279.30 117.54
  Q 280.93 117.31 281.73 115.95
  Q 282.00 115.51 282.48 115.34
  Q 283.55 114.98 284.74 115.06
  Q 285.00 115.08 285.00 114.82
  Q 285.00 114.64 284.99 114.48
  Q 284.97 114.19 285.26 114.13"
/>
<path stroke="#92865d" vector-effect="non-scaling-stroke" d="
  M 319.72 133.64
  A 0.55 0.55 0.0 0 0 319.17 133.09
  L 310.99 133.09
  A 0.55 0.55 0.0 0 0 310.44 133.64
  L 310.44 142.06
  A 0.55 0.55 0.0 0 0 310.99 142.61
  L 319.17 142.61
  A 0.55 0.55 0.0 0 0 319.72 142.06
  L 319.72 133.64"
/>
<path stroke="#917c3e" vector-effect="non-scaling-stroke" d="
  M 338.4053 162.1184
  A 0.60 0.60 0.0 0 0 337.8074 161.5163
  L 328.4675 161.4837
  A 0.60 0.60 0.0 0 0 327.8654 162.0816
  L 327.8347 170.8816
  A 0.60 0.60 0.0 0 0 328.4326 171.4837
  L 337.7725 171.5163
  A 0.60 0.60 0.0 0 0 338.3746 170.9184
  L 338.4053 162.1184"
/>
<path stroke="#917c3e" vector-effect="non-scaling-stroke" d="
  M 355.46 142.37
  L 355.46 162.23
  A 0.59 0.59 0.0 0 0 356.05 162.82
  L 364.12 162.82
  A 9.40 8.91 0.0 0 0 373.52 153.91
  L 373.52 150.69
  A 9.40 8.91 -0.0 0 0 364.12 141.78
  L 356.05 141.78
  A 0.59 0.59 0.0 0 0 355.46 142.37"
/>
<path stroke="#917c3e" vector-effect="non-scaling-stroke" d="
  M 398.23 168.45
  L 416.19 168.39
  A 0.26 0.26 0.0 0 0 416.44 168.13
  L 416.44 166.95
  A 13.02 8.60 89.8 0 0 407.79 153.96
  L 406.51 153.96
  A 13.02 8.60 89.8 0 0 397.96 167.01
  L 397.96 168.19
  A 0.26 0.26 0.0 0 0 398.23 168.45"
/>
<path stroke="#835b0e" vector-effect="non-scaling-stroke" d="
  M 460.87 290.87
  C 461.94 277.60 456.30 262.30 439.97 263.99
  Q 427.73 265.25 424.06 277.33
  C 420.21 289.96 423.25 308.28 438.77 310.51
  C 451.97 312.41 459.88 303.21 460.87 290.87"
/>
<path stroke="#896411" vector-effect="non-scaling-stroke" d="
  M 285.70 299.21
  A 0.68 0.68 0.0 0 1 286.34 299.68
  L 289.56 309.56
  A 0.68 0.68 0.0 0 0 290.20 310.03
  L 298.08 310.09
  A 0.68 0.68 0.0 0 0 298.73 309.20
  L 284.45 264.98
  A 0.68 0.68 0.0 0 0 283.80 264.51
  L 273.33 264.53
  A 0.68 0.68 0.0 0 0 272.69 265.00
  L 258.43 309.14
  A 0.68 0.68 0.0 0 0 259.06 310.03
  L 266.65 310.18
  A 0.68 0.68 0.0 0 0 267.31 309.71
  L 270.61 299.69
  A 0.68 0.68 0.0 0 1 271.25 299.22
  L 285.70 299.21"
/>
<path stroke="#835b0e" vector-effect="non-scaling-stroke" d="
  M 331.77 295.37
  C 331.79 306.35 316.42 304.94 316.45 297.16
  Q 316.52 281.03 316.38 265.17
  A 0.65 0.65 0.0 0 0 315.74 264.52
  L 308.25 264.49
  Q 307.60 264.48 307.60 265.13
  Q 307.44 278.03 307.59 291.49
  C 307.67 298.78 307.64 305.23 315.06 308.95
  Q 321.42 312.13 329.78 309.97
  Q 340.48 307.20 340.49 295.99
  Q 340.50 280.42 340.51 265.05
  Q 340.51 264.51 339.97 264.51
  L 332.28 264.49
  Q 331.75 264.49 331.75 265.02
  Q 331.75 279.93 331.77 295.37"
/>
<path stroke="#835b0e" vector-effect="non-scaling-stroke" d="
  M 354.00 265.27
  L 354.38 309.47
  A 0.74 0.74 0.0 0 0 355.13 310.20
  L 368.92 310.08
  A 19.82 19.79 89.5 0 0 388.54 290.09
  L 388.48 284.05
  A 19.82 19.79 89.5 0 0 368.52 264.40
  L 354.73 264.52
  A 0.74 0.74 0.0 0 0 354.00 265.27"
/>
<path stroke="#835b0e" vector-effect="non-scaling-stroke" d="
  M 409.9311 265.0626
  A 0.55 0.55 0.0 0 0 409.3802 264.5136
  L 401.9802 264.5265
  A 0.55 0.55 0.0 0 0 401.4311 265.0775
  L 401.5089 309.6174
  A 0.55 0.55 0.0 0 0 402.0598 310.1664
  L 409.4598 310.1535
  A 0.55 0.55 0.0 0 0 410.0089 309.6025
  L 409.9311 265.0626"
/>
<path stroke="#835b0e" vector-effect="non-scaling-stroke" d="
  M 437.23 272.84
  C 429.91 277.00 429.97 292.44 433.84 298.66
  C 438.25 305.73 448.12 304.31 450.88 296.61
  C 453.08 290.43 453.31 280.87 449.17 275.31
  C 446.34 271.51 441.28 270.54 437.23 272.84"
/>
<path stroke="#896411" vector-effect="non-scaling-stroke" d="
  M 272.93 290.97
  A 0.32 0.32 0.0 0 0 273.24 291.39
  L 283.62 291.44
  A 0.32 0.32 0.0 0 0 283.93 291.03
  L 278.83 273.42
  A 0.32 0.32 0.0 0 0 278.21 273.42
  L 272.93 290.97"
/>
<path stroke="#835b0e" vector-effect="non-scaling-stroke" d="
  M 362.67 273.06
  L 362.51 301.78
  A 0.74 0.74 0.0 0 0 363.25 302.53
  L 367.49 302.55
  A 13.44 12.60 -89.7 0 0 380.16 289.18
  L 380.18 285.86
  A 13.44 12.60 -89.7 0 0 367.65 272.35
  L 363.41 272.33
  A 0.74 0.74 0.0 0 0 362.67 273.06"
/>
</g>
<path fill="#e29d07" d="
  M 240.47 98.16
  Q 239.34 98.04 239.39 98.73
  C 239.47 99.77 239.84 100.63 239.87 101.61
  Q 240.41 116.89 240.12 132.18
  Q 240.10 133.27 240.32 135.30
  C 240.58 137.71 240.18 141.13 240.18 142.58
  Q 240.22 166.06 240.34 189.54
  L 240.36 232.54
  L 240.61 288.96
  Q 240.61 289.10 240.73 289.23
  Q 240.79 289.29 240.83 289.36
  Q 240.89 289.48 240.89 289.66
  Q 240.75 297.54 241.20 305.44
  Q 241.23 306.01 241.72 305.73
  C 243.26 304.86 242.94 303.81 243.77 302.42
  Q 244.02 301.99 244.51 301.88
  Q 244.99 301.78 245.34 302.09
  Q 245.64 302.35 245.86 302.02
  L 246.09 301.65
  Q 246.37 301.23 246.87 301.33
  Q 247.02 301.36 247.17 301.41
  Q 247.54 301.52 247.58 301.13
  L 248.31 292.43
  L 248.27 330.74
  Q 248.27 331.25 248.78 331.25
  L 471.02 331.26
  Q 471.74 331.26 471.74 330.55
  L 471.85 241.16
  Q 472.66 242.09 472.60 243.75
  Q 472.55 245.55 472.70 247.40
  Q 472.72 247.63 472.82 247.42
  Q 472.88 247.29 472.96 247.16
  Q 473.16 246.81 473.56 246.90
  L 474.83 247.21
  Q 475.32 247.33 475.80 247.19
  Q 476.99 246.85 477.42 245.75
  A 0.18 0.18 0.0 0 1 477.75 245.75
  Q 477.84 245.96 478.11 245.86
  Q 478.61 245.69 478.61 245.17
  L 478.30 210.04
  Q 478.30 209.62 478.60 209.92
  Q 478.82 210.14 478.98 210.06
  Q 479.14 209.97 479.13 209.63
  Q 478.97 205.56 479.65 201.53
  Q 479.66 207.19 479.73 212.84
  C 479.87 222.58 479.37 232.53 479.52 242.40
  Q 479.71 254.24 479.67 260.62
  Q 479.54 283.16 480.40 305.71
  L 480.28 338.36
  A 0.88 0.88 0.0 0 1 479.40 339.24
  L 239.88 339.22
  Q 239.39 339.22 239.38 338.83
  L 239.15 327.45
  Q 238.95 213.24 238.99 99.00
  Q 238.99 98.31 239.35 98.16
  Q 239.74 97.99 240.47 98.16
  Z"
/>
<path fill="#fff3a5" d="
  M 240.47 98.16
  L 314.46 98.11
  Q 320.09 98.78 322.99 98.80
  Q 363.86 99.08 404.69 99.54
  L 437.64 100.04
  Q 438.15 100.05 437.81 100.44
  Q 437.49 100.81 437.70 101.17
  Q 437.98 101.63 437.47 101.78
  C 434.08 102.79 430.30 104.78 427.87 105.78
  Q 425.48 106.77 423.09 107.77
  C 420.15 109.01 417.42 111.48 414.24 112.60
  Q 401.76 117.03 392.40 121.42
  Q 391.57 121.81 390.90 122.34
  Q 390.61 122.58 390.24 122.60
  Q 389.37 122.67 388.74 123.14
  Q 388.46 123.35 388.13 123.47
  L 384.64 124.77
  Q 384.31 124.88 383.97 124.89
  C 383.16 124.89 382.95 124.77 382.19 125.19
  C 380.38 126.20 377.94 127.12 376.59 128.71
  C 375.20 130.35 372.76 131.00 370.99 132.22
  Q 370.07 132.85 367.21 133.11
  L 346.93 133.19
  A 0.43 0.43 0.0 0 0 346.51 133.62
  L 346.52 146.99
  Q 345.75 147.61 344.66 146.73
  Q 344.25 146.41 344.01 146.88
  Q 343.60 147.68 342.91 147.56
  Q 342.51 147.49 342.11 147.58
  Q 339.85 148.12 338.05 149.45
  Q 335.89 151.04 334.54 151.59
  Q 330.29 153.31 328.50 154.89
  Q 327.04 156.17 325.62 156.22
  A 0.93 0.91 20.8 0 0 324.98 156.50
  L 319.55 162.26
  L 319.64 152.52
  A 0.35 0.35 0.0 0 0 319.29 152.17
  L 310.75 152.21
  A 0.30 0.30 0.0 0 0 310.45 152.51
  L 310.40 167.94
  L 309.82 170.73
  Q 309.71 171.26 309.16 171.30
  C 306.17 171.53 301.75 170.07 300.25 173.46
  L 300.24 133.70
  Q 300.24 133.15 299.69 133.15
  L 291.49 133.21
  A 0.55 0.55 0.0 0 0 290.94 133.76
  L 290.94 160.92
  A 0.62 0.61 90.0 0 1 290.33 161.54
  L 270.01 161.52
  Q 269.50 161.52 269.50 161.01
  L 269.55 133.44
  Q 269.55 133.20 269.31 133.20
  L 260.62 133.17
  Q 260.41 133.17 260.41 133.37
  L 260.41 200.02
  Q 258.23 195.05 258.96 189.28
  Q 259.06 188.50 258.38 188.91
  Q 251.22 193.18 244.25 197.76
  Q 243.99 197.93 243.46 197.89
  Q 242.93 197.85 242.57 198.24
  L 241.13 199.74
  Q 240.95 199.94 240.93 199.66
  L 240.34 189.54
  Q 240.22 166.06 240.18 142.58
  C 240.18 141.13 240.58 137.71 240.32 135.30
  Q 240.10 133.27 240.12 132.18
  Q 240.41 116.89 239.87 101.61
  C 239.84 100.63 239.47 99.77 239.39 98.73
  Q 239.34 98.04 240.47 98.16
  Z
  M 285.26 114.13
  Q 285.80 114.02 285.88 114.52
  A 0.58 0.58 0.0 0 0 286.81 114.89
  L 288.24 113.78
  A 0.73 0.71 -63.5 0 1 288.69 113.62
  Q 288.85 113.62 289.00 113.62
  Q 289.13 113.62 289.13 113.75
  Q 289.13 113.90 289.12 114.06
  Q 289.10 114.41 289.39 114.21
  Q 289.57 114.08 289.65 113.85
  Q 289.73 113.61 289.97 113.51
  L 310.48 104.26
  Q 310.90 104.07 311.18 103.71
  Q 311.87 102.85 312.85 102.94
  Q 313.32 102.98 313.78 102.88
  Q 315.41 102.50 315.45 100.84
  Q 315.46 100.41 315.04 100.31
  Q 313.17 99.88 311.25 99.87
  Q 299.12 99.86 287.01 99.31
  Q 276.76 98.84 266.50 98.80
  C 264.01 98.79 261.44 99.31 259.15 99.32
  Q 250.79 99.35 242.16 99.13
  A 1.74 1.74 0.0 0 0 240.38 100.87
  C 240.38 112.17 239.94 123.81 240.95 135.17
  Q 240.96 135.25 241.04 135.25
  Q 241.15 135.24 241.29 135.24
  Q 241.37 135.25 241.37 135.16
  Q 241.38 132.94 241.36 130.71
  Q 241.35 129.94 242.06 130.24
  Q 242.60 130.48 243.25 130.35
  A 1.11 0.00 -11.0 0 0 244.31 130.14
  Q 245.19 129.79 246.15 129.85
  Q 246.68 129.88 247.08 129.55
  Q 248.34 128.51 249.97 128.39
  Q 250.07 128.39 250.11 128.47
  Q 250.17 128.59 250.23 128.71
  Q 250.37 128.98 250.64 128.85
  C 253.97 127.25 257.31 127.07 260.04 124.05
  Q 260.37 123.69 260.85 123.63
  Q 262.50 123.42 264.99 121.99
  Q 266.93 120.88 271.50 120.07
  C 274.41 119.55 276.50 118.09 279.07 116.83
  Q 279.19 116.77 279.15 116.89
  L 279.04 117.23
  Q 278.93 117.59 279.30 117.54
  Q 280.93 117.31 281.73 115.95
  Q 282.00 115.51 282.48 115.34
  Q 283.55 114.98 284.74 115.06
  Q 285.00 115.08 285.00 114.82
  Q 285.00 114.64 284.99 114.48
  Q 284.97 114.19 285.26 114.13
  Z
  M 319.72 133.64
  A 0.55 0.55 0.0 0 0 319.17 133.09
  L 310.99 133.09
  A 0.55 0.55 0.0 0 0 310.44 133.64
  L 310.44 142.06
  A 0.55 0.55 0.0 0 0 310.99 142.61
  L 319.17 142.61
  A 0.55 0.55 0.0 0 0 319.72 142.06
  L 319.72 133.64
  Z"
/>
<path fill="#e29d07" d="
  M 314.46 98.11
  L 480.12 98.12
  A 0.84 0.83 90.0 0 1 480.95 98.96
  L 480.96 119.16
  Q 479.71 125.51 480.07 132.74
  L 479.82 119.29
  L 479.89 100.93
  Q 479.90 99.61 478.57 99.60
  L 404.69 99.54
  Q 363.86 99.08 322.99 98.80
  Q 320.09 98.78 314.46 98.11
  Z"
/>
<path fill="#fffbd0" d="
  M 284.99 114.48
  Q 285.00 114.64 285.00 114.82
  Q 285.00 115.08 284.74 115.06
  Q 283.55 114.98 282.48 115.34
  Q 282.00 115.51 281.73 115.95
  Q 280.93 117.31 279.30 117.54
  Q 278.93 117.59 279.04 117.23
  L 279.15 116.89
  Q 279.19 116.77 279.07 116.83
  C 276.50 118.09 274.41 119.55 271.50 120.07
  Q 266.93 120.88 264.99 121.99
  Q 262.50 123.42 260.85 123.63
  Q 260.37 123.69 260.04 124.05
  C 257.31 127.07 253.97 127.25 250.64 128.85
  Q 250.37 128.98 250.23 128.71
  Q 250.17 128.59 250.11 128.47
  Q 250.07 128.39 249.97 128.39
  Q 248.34 128.51 247.08 129.55
  Q 246.68 129.88 246.15 129.85
  Q 245.19 129.79 244.31 130.14
  A 1.11 0.00 -11.0 0 1 243.25 130.35
  Q 242.60 130.48 242.06 130.24
  Q 241.35 129.94 241.36 130.71
  Q 241.38 132.94 241.37 135.16
  Q 241.37 135.25 241.29 135.24
  Q 241.15 135.24 241.04 135.25
  Q 240.96 135.25 240.95 135.17
  C 239.94 123.81 240.38 112.17 240.38 100.87
  A 1.74 1.74 0.0 0 1 242.16 99.13
  Q 250.79 99.35 259.15 99.32
  C 261.44 99.31 264.01 98.79 266.50 98.80
  Q 276.76 98.84 287.01 99.31
  Q 299.12 99.86 311.25 99.87
  Q 313.17 99.88 315.04 100.31
  Q 315.46 100.41 315.45 100.84
  Q 315.41 102.50 313.78 102.88
  Q 313.32 102.98 312.85 102.94
  Q 311.87 102.85 311.18 103.71
  Q 310.90 104.07 310.48 104.26
  L 289.97 113.51
  Q 289.73 113.61 289.65 113.85
  Q 289.57 114.08 289.39 114.21
  Q 289.10 114.41 289.12 114.06
  Q 289.13 113.90 289.13 113.75
  Q 289.13 113.62 289.00 113.62
  Q 288.85 113.62 288.69 113.62
  A 0.73 0.71 -63.5 0 0 288.24 113.78
  L 286.81 114.89
  A 0.58 0.58 0.0 0 1 285.88 114.52
  Q 285.80 114.02 285.26 114.13
  Q 284.97 114.19 284.99 114.48
  Z"
/>
<path fill="#fedf67" d="
  M 479.82 119.29
  L 478.72 137.71
  Q 478.70 137.90 478.61 137.74
  Q 478.55 137.61 478.48 137.50
  Q 478.34 137.23 478.05 137.30
  C 476.76 137.62 475.62 137.74 474.47 138.48
  C 473.18 139.31 471.58 140.40 470.11 140.83
  Q 469.67 140.96 469.43 141.39
  Q 469.25 141.73 468.91 141.91
  L 463.45 144.85
  Q 462.97 145.12 462.41 145.12
  Q 460.74 145.12 459.67 146.43
  A 0.19 0.19 0.0 0 0 459.70 146.70
  Q 459.89 146.84 459.91 147.06
  Q 459.96 147.58 459.44 147.60
  Q 459.03 147.62 458.67 147.80
  Q 456.20 147.22 453.66 146.69
  C 441.99 144.27 429.23 148.46 430.00 162.69
  C 430.42 170.37 436.87 174.35 443.50 177.06
  Q 443.38 177.67 442.49 177.07
  Q 442.05 176.77 441.53 176.87
  Q 440.55 177.04 439.78 176.54
  Q 439.30 176.23 438.74 176.20
  Q 436.43 176.07 434.75 174.32
  A 1.38 1.36 72.0 0 0 433.98 173.92
  C 432.45 173.66 431.18 172.88 429.80 172.96
  Q 427.22 173.10 427.16 175.90
  Q 427.15 176.39 426.74 176.64
  Q 424.27 178.19 422.25 178.36
  Q 412.76 179.16 403.53 178.81
  A 2.71 2.70 6.1 0 0 400.76 181.04
  Q 400.08 184.88 403.03 186.99
  Q 403.31 187.19 403.34 187.53
  Q 403.36 187.91 403.77 188.08
  Q 405.65 188.90 407.07 190.45
  Q 407.37 190.78 406.94 190.86
  L 405.87 191.06
  C 400.37 188.78 397.96 182.84 397.74 177.26
  A 0.76 0.76 0.0 0 1 398.50 176.47
  L 425.02 176.54
  Q 425.46 176.54 425.50 176.11
  C 426.61 164.85 424.25 147.56 409.68 146.19
  C 398.98 145.19 391.75 152.72 389.42 162.73
  C 386.58 174.96 387.73 189.21 398.75 197.37
  Q 395.58 198.41 392.87 195.57
  A 1.45 1.45 0.0 0 0 390.63 195.74
  Q 389.81 196.89 389.60 198.08
  Q 389.51 198.57 389.06 198.81
  Q 387.89 199.42 386.77 200.04
  Q 386.59 200.14 386.45 200.14
  Q 386.26 200.13 386.10 200.03
  Q 385.80 199.86 385.71 200.20
  Q 385.55 200.76 385.03 200.63
  Q 383.44 200.22 382.19 200.86
  Q 381.83 201.04 381.43 200.96
  Q 379.63 200.63 378.01 201.31
  Q 377.90 201.36 377.86 201.24
  Q 377.81 201.12 377.75 200.99
  Q 377.59 200.64 377.12 201.37
  Q 376.99 201.58 376.73 201.63
  Q 376.37 201.68 376.30 201.71
  C 372.14 203.29 368.17 205.16 363.89 206.36
  Q 359.18 207.67 357.73 208.34
  Q 354.69 209.74 352.48 210.46
  Q 348.25 211.82 347.20 212.29
  Q 341.33 214.89 335.27 217.00
  C 332.80 217.86 329.88 219.06 327.62 220.35
  C 325.63 221.49 323.36 222.16 321.48 223.43
  C 318.64 225.36 315.69 226.12 312.98 228.50
  Q 312.88 228.58 312.88 228.72
  Q 312.88 228.86 312.88 229.00
  Q 312.89 229.20 312.70 229.27
  Q 311.84 229.56 311.35 230.31
  Q 311.11 230.67 310.68 230.62
  Q 309.84 230.52 309.28 231.08
  Q 308.99 231.37 308.67 231.62
  Q 307.76 232.34 306.60 232.12
  Q 305.95 232.00 305.95 232.67
  Q 305.97 234.27 308.24 235.19
  Q 277.59 228.61 249.76 214.19
  Q 249.31 213.90 248.91 213.81
  Q 248.33 213.68 248.32 214.28
  L 248.10 227.97
  L 247.91 244.11
  Q 247.91 244.13 247.90 244.13
  Q 247.89 244.13 247.89 244.13
  Q 247.87 244.13 247.87 244.11
  Q 247.86 243.48 247.40 243.20
  Q 247.08 243.01 246.51 243.15
  Q 246.06 243.26 245.59 243.39
  Q 245.09 243.53 244.66 243.23
  Q 243.55 242.46 242.26 242.81
  A 0.96 0.96 0.0 0 1 241.05 241.95
  L 240.36 232.54
  L 240.34 189.54
  L 240.93 199.66
  Q 240.95 199.94 241.13 199.74
  L 242.57 198.24
  Q 242.93 197.85 243.46 197.89
  Q 243.99 197.93 244.25 197.76
  Q 251.22 193.18 258.38 188.91
  Q 259.06 188.50 258.96 189.28
  Q 258.23 195.05 260.41 200.02
  L 269.05 200.20
  Q 269.51 200.21 269.51 199.75
  L 269.55 170.48
  A 0.22 0.22 0.0 0 1 269.77 170.26
  L 290.49 170.24
  Q 290.99 170.24 290.98 170.74
  L 290.83 199.79
  A 0.46 0.46 0.0 0 0 291.29 200.26
  L 299.72 200.25
  Q 300.29 200.25 300.28 199.68
  L 300.25 173.46
  C 301.75 170.07 306.17 171.53 309.16 171.30
  Q 309.71 171.26 309.82 170.73
  L 310.40 167.94
  L 310.34 198.96
  Q 310.34 200.37 311.75 200.33
  L 318.04 200.16
  A 1.57 1.57 0.0 0 0 319.57 198.58
  L 319.55 162.26
  L 324.98 156.50
  A 0.93 0.91 20.8 0 1 325.62 156.22
  Q 327.04 156.17 328.50 154.89
  Q 330.29 153.31 334.54 151.59
  Q 335.89 151.04 338.05 149.45
  Q 339.85 148.12 342.11 147.58
  Q 342.51 147.49 342.91 147.56
  Q 343.60 147.68 344.01 146.88
  Q 344.25 146.41 344.66 146.73
  Q 345.75 147.61 346.52 146.99
  L 346.62 199.46
  Q 346.62 200.25 347.41 200.26
  L 354.75 200.26
  Q 355.51 200.26 355.51 199.50
  L 355.50 172.02
  Q 355.50 171.55 355.96 171.53
  C 361.64 171.29 368.77 170.48 370.59 177.63
  Q 373.22 187.99 375.06 199.01
  A 1.48 1.48 0.0 0 0 376.52 200.26
  L 384.01 200.27
  Q 385.23 200.27 384.95 199.08
  Q 382.42 188.52 379.95 177.26
  C 378.97 172.80 377.60 169.19 374.01 167.21
  A 0.39 0.39 0.0 0 1 374.03 166.52
  C 381.16 163.20 383.48 155.65 382.60 148.14
  C 381.56 139.33 376.39 133.83 367.21 133.11
  Q 370.07 132.85 370.99 132.22
  C 372.76 131.00 375.20 130.35 376.59 128.71
  C 377.94 127.12 380.38 126.20 382.19 125.19
  C 382.95 124.77 383.16 124.89 383.97 124.89
  Q 384.31 124.88 384.64 124.77
  L 388.13 123.47
  Q 388.46 123.35 388.74 123.14
  Q 389.37 122.67 390.24 122.60
  Q 390.61 122.58 390.90 122.34
  Q 391.57 121.81 392.40 121.42
  Q 401.76 117.03 414.24 112.60
  C 417.42 111.48 420.15 109.01 423.09 107.77
  Q 425.48 106.77 427.87 105.78
  C 430.30 104.78 434.08 102.79 437.47 101.78
  Q 437.98 101.63 437.70 101.17
  Q 437.49 100.81 437.81 100.44
  Q 438.15 100.05 437.64 100.04
  L 404.69 99.54
  L 478.57 99.60
  Q 479.90 99.61 479.89 100.93
  L 479.82 119.29
  Z
  M 338.4053 162.1184
  A 0.60 0.60 0.0 0 0 337.8074 161.5163
  L 328.4675 161.4837
  A 0.60 0.60 0.0 0 0 327.8654 162.0816
  L 327.8347 170.8816
  A 0.60 0.60 0.0 0 0 328.4326 171.4837
  L 337.7725 171.5163
  A 0.60 0.60 0.0 0 0 338.3746 170.9184
  L 338.4053 162.1184
  Z"
/>
<path fill="#f8c317" d="
  M 479.82 119.29
  L 480.07 132.74
  L 480.24 143.71
  L 479.83 159.29
  Q 479.68 165.29 479.67 171.28
  C 479.67 173.66 478.73 175.80 478.41 178.21
  Q 478.33 178.80 477.84 179.14
  Q 475.69 180.65 473.12 181.14
  Q 472.63 181.24 472.25 181.54
  C 470.65 182.83 468.81 183.09 467.33 184.34
  Q 465.47 185.91 464.74 186.37
  Q 464.09 186.78 463.79 186.48
  Q 463.57 186.26 463.40 186.52
  Q 462.55 187.86 462.79 189.49
  Q 462.81 189.60 462.70 189.62
  Q 462.54 189.65 462.38 189.67
  A 0.27 0.27 0.0 0 0 462.16 189.88
  Q 461.83 191.56 460.62 194.23
  Q 460.16 195.25 459.34 195.50
  Q 458.89 195.63 458.60 196.00
  Q 457.09 197.91 454.70 198.38
  Q 454.20 198.48 453.78 198.80
  Q 452.53 199.75 451.01 199.42
  C 464.31 194.90 465.08 178.31 453.24 171.78
  C 448.55 169.19 435.60 165.49 440.71 157.36
  C 443.61 152.75 452.62 154.72 456.59 156.24
  A 0.96 0.96 0.0 0 0 457.87 155.54
  Q 458.54 152.26 459.23 148.99
  Q 459.41 148.12 458.67 147.80
  Q 459.03 147.62 459.44 147.60
  Q 459.96 147.58 459.91 147.06
  Q 459.89 146.84 459.70 146.70
  A 0.19 0.19 0.0 0 1 459.67 146.43
  Q 460.74 145.12 462.41 145.12
  Q 462.97 145.12 463.45 144.85
  L 468.91 141.91
  Q 469.25 141.73 469.43 141.39
  Q 469.67 140.96 470.11 140.83
  C 471.58 140.40 473.18 139.31 474.47 138.48
  C 475.62 137.74 476.76 137.62 478.05 137.30
  Q 478.34 137.23 478.48 137.50
  Q 478.55 137.61 478.61 137.74
  Q 478.70 137.90 478.72 137.71
  L 479.82 119.29
  Z"
/>
<path fill="#241815" d="
  M 480.96 119.16
  L 480.98 339.84
  A 0.50 0.50 0.0 0 1 480.48 340.34
  L 239.96 340.37
  Q 239.01 340.37 239.02 339.42
  L 239.15 327.45
  L 239.38 338.83
  Q 239.39 339.22 239.88 339.22
  L 479.40 339.24
  A 0.88 0.88 0.0 0 0 480.28 338.36
  L 480.40 305.71
  C 480.29 301.82 480.65 297.47 480.66 294.10
  Q 480.76 225.10 480.72 156.10
  C 480.72 152.39 480.16 147.89 480.24 143.71
  L 480.07 132.74
  Q 479.71 125.51 480.96 119.16
  Z"
/>
<path fill="#241815" d="
  M 300.25 173.46
  L 300.28 199.68
  Q 300.29 200.25 299.72 200.25
  L 291.29 200.26
  A 0.46 0.46 0.0 0 1 290.83 199.79
  L 290.98 170.74
  Q 290.99 170.24 290.49 170.24
  L 269.77 170.26
  A 0.22 0.22 0.0 0 0 269.55 170.48
  L 269.51 199.75
  Q 269.51 200.21 269.05 200.20
  L 260.41 200.02
  L 260.41 133.37
  Q 260.41 133.17 260.62 133.17
  L 269.31 133.20
  Q 269.55 133.20 269.55 133.44
  L 269.50 161.01
  Q 269.50 161.52 270.01 161.52
  L 290.33 161.54
  A 0.62 0.61 90.0 0 0 290.94 160.92
  L 290.94 133.76
  A 0.55 0.55 0.0 0 1 291.49 133.21
  L 299.69 133.15
  Q 300.24 133.15 300.24 133.70
  L 300.25 173.46
  Z"
/>
<rect fill="#241815" x="310.44" y="133.09" width="9.28" height="9.52" rx="0.55"/>
<path fill="#241815" d="
  M 367.21 133.11
  C 376.39 133.83 381.56 139.33 382.60 148.14
  C 383.48 155.65 381.16 163.20 374.03 166.52
  A 0.39 0.39 0.0 0 0 374.01 167.21
  C 377.60 169.19 378.97 172.80 379.95 177.26
  Q 382.42 188.52 384.95 199.08
  Q 385.23 200.27 384.01 200.27
  L 376.52 200.26
  A 1.48 1.48 0.0 0 1 375.06 199.01
  Q 373.22 187.99 370.59 177.63
  C 368.77 170.48 361.64 171.29 355.96 171.53
  Q 355.50 171.55 355.50 172.02
  L 355.51 199.50
  Q 355.51 200.26 354.75 200.26
  L 347.41 200.26
  Q 346.62 200.25 346.62 199.46
  L 346.52 146.99
  L 346.51 133.62
  A 0.43 0.43 0.0 0 1 346.93 133.19
  L 367.21 133.11
  Z
  M 355.46 142.37
  L 355.46 162.23
  A 0.59 0.59 0.0 0 0 356.05 162.82
  L 364.12 162.82
  A 9.40 8.91 0.0 0 0 373.52 153.91
  L 373.52 150.69
  A 9.40 8.91 -0.0 0 0 364.12 141.78
  L 356.05 141.78
  A 0.59 0.59 0.0 0 0 355.46 142.37
  Z"
/>
<path fill="#fedf67" d="
  M 355.46 142.37
  A 0.59 0.59 0.0 0 1 356.05 141.78
  L 364.12 141.78
  A 9.40 8.91 -0.0 0 1 373.52 150.69
  L 373.52 153.91
  A 9.40 8.91 -0.0 0 1 364.12 162.82
  L 356.05 162.82
  A 0.59 0.59 0.0 0 1 355.46 162.23
  L 355.46 142.37
  Z"
/>
<path fill="#9e6203" d="
  M 480.24 143.71
  C 480.16 147.89 480.72 152.39 480.72 156.10
  Q 480.76 225.10 480.66 294.10
  C 480.65 297.47 480.29 301.82 480.40 305.71
  Q 479.54 283.16 479.67 260.62
  Q 479.71 254.24 479.52 242.40
  C 479.37 232.53 479.87 222.58 479.73 212.84
  Q 479.66 207.19 479.65 201.53
  L 479.83 159.29
  L 480.24 143.71
  Z"
/>
<path fill="#241815" d="
  M 458.67 147.80
  Q 459.41 148.12 459.23 148.99
  Q 458.54 152.26 457.87 155.54
  A 0.96 0.96 0.0 0 1 456.59 156.24
  C 452.62 154.72 443.61 152.75 440.71 157.36
  C 435.60 165.49 448.55 169.19 453.24 171.78
  C 465.08 178.31 464.31 194.90 451.01 199.42
  C 443.45 201.33 437.41 200.31 429.61 198.13
  L 431.02 190.39
  A 0.76 0.76 0.0 0 1 432.03 189.81
  C 436.53 191.46 446.88 194.20 450.53 189.71
  Q 452.45 187.36 451.64 184.27
  C 450.69 180.65 446.84 178.38 443.50 177.06
  C 436.87 174.35 430.42 170.37 430.00 162.69
  C 429.23 148.46 441.99 144.27 453.66 146.69
  Q 456.20 147.22 458.67 147.80
  Z"
/>
<path fill="#241815" d="
  M 405.87 191.06
  C 409.66 192.82 415.78 192.00 419.48 191.00
  Q 420.50 190.72 420.65 191.77
  L 421.56 197.96
  Q 421.72 199.01 420.69 199.27
  Q 414.17 200.88 409.00 200.47
  Q 403.48 200.03 398.75 197.37
  C 387.73 189.21 386.58 174.96 389.42 162.73
  C 391.75 152.72 398.98 145.19 409.68 146.19
  C 424.25 147.56 426.61 164.85 425.50 176.11
  Q 425.46 176.54 425.02 176.54
  L 398.50 176.47
  A 0.76 0.76 0.0 0 0 397.74 177.26
  C 397.96 182.84 400.37 188.78 405.87 191.06
  Z
  M 398.23 168.45
  L 416.19 168.39
  A 0.26 0.26 0.0 0 0 416.44 168.13
  L 416.44 166.95
  A 13.02 8.60 89.8 0 0 407.79 153.96
  L 406.51 153.96
  A 13.02 8.60 89.8 0 0 397.96 167.01
  L 397.96 168.19
  A 0.26 0.26 0.0 0 0 398.23 168.45
  Z"
/>
<path fill="#241815" d="
  M 319.55 162.26
  L 319.57 198.58
  A 1.57 1.57 0.0 0 1 318.04 200.16
  L 311.75 200.33
  Q 310.34 200.37 310.34 198.96
  L 310.40 167.94
  L 310.45 152.51
  A 0.30 0.30 0.0 0 1 310.75 152.21
  L 319.29 152.17
  A 0.35 0.35 0.0 0 1 319.64 152.52
  L 319.55 162.26
  Z"
/>
<path fill="#fedf67" d="
  M 398.23 168.45
  A 0.26 0.26 0.0 0 1 397.96 168.19
  L 397.96 167.01
  A 13.02 8.60 89.8 0 1 406.51 153.96
  L 407.79 153.96
  A 13.02 8.60 89.8 0 1 416.44 166.95
  L 416.44 168.13
  A 0.26 0.26 0.0 0 1 416.19 168.39
  L 398.23 168.45
  Z"
/>
<path fill="#eeb00c" d="
  M 479.83 159.29
  L 479.65 201.53
  Q 478.97 205.56 479.13 209.63
  Q 479.14 209.97 478.98 210.06
  Q 478.82 210.14 478.60 209.92
  Q 478.30 209.62 478.30 210.04
  L 478.61 245.17
  Q 478.61 245.69 478.11 245.86
  Q 477.84 245.96 477.75 245.75
  A 0.18 0.18 0.0 0 0 477.42 245.75
  Q 476.99 246.85 475.80 247.19
  Q 475.32 247.33 474.83 247.21
  L 473.56 246.90
  Q 473.16 246.81 472.96 247.16
  Q 472.88 247.29 472.82 247.42
  Q 472.72 247.63 472.70 247.40
  Q 472.55 245.55 472.60 243.75
  Q 472.66 242.09 471.85 241.16
  L 471.89 239.79
  L 472.11 214.84
  A 0.93 0.92 76.5 0 0 470.76 214.01
  Q 464.61 217.22 457.93 219.97
  C 453.95 221.60 449.99 223.56 446.09 224.96
  Q 439.28 227.41 432.45 229.82
  C 431.10 230.29 429.62 229.85 428.50 230.35
  Q 426.25 231.36 421.25 232.63
  Q 419.96 232.95 416.17 234.65
  Q 415.69 234.52 415.18 234.95
  Q 414.91 235.18 414.85 235.51
  Q 414.80 235.81 414.50 235.84
  C 412.93 236.02 411.66 235.51 410.17 235.92
  C 408.03 236.50 406.11 237.16 403.88 237.39
  Q 387.03 239.18 370.16 240.93
  C 364.36 241.53 358.37 241.57 352.44 241.85
  C 351.57 241.89 351.09 242.32 350.32 242.68
  Q 349.99 242.84 350.28 243.06
  Q 350.57 243.28 350.77 243.60
  L 332.46 242.33
  Q 334.30 240.79 337.07 240.78
  Q 337.14 240.78 337.13 240.71
  Q 337.13 240.56 337.13 240.42
  Q 337.13 240.18 336.89 240.14
  L 332.41 239.36
  L 340.64 239.07
  Q 340.76 239.06 340.76 238.94
  Q 340.77 238.88 340.76 238.83
  Q 340.72 238.63 340.81 238.57
  Q 342.21 237.75 343.80 237.43
  Q 344.05 237.38 344.17 237.24
  Q 344.36 237.03 344.39 236.78
  Q 344.45 236.33 344.89 236.25
  C 346.06 236.03 346.85 236.25 347.95 235.69
  Q 350.54 234.35 353.22 233.19
  Q 353.55 233.05 353.86 233.22
  Q 354.04 233.32 354.25 233.24
  Q 355.07 232.89 355.08 232.89
  Q 356.86 231.61 358.90 231.06
  Q 361.84 230.29 362.86 229.80
  Q 367.54 227.56 372.32 225.50
  Q 375.15 224.27 380.62 221.13
  C 381.29 220.75 382.66 220.82 383.66 220.38
  C 386.54 219.12 389.65 218.33 392.35 216.97
  C 398.12 214.06 403.60 211.54 408.92 207.95
  C 409.83 207.34 410.59 207.45 411.55 207.06
  Q 412.77 206.55 413.54 206.44
  Q 417.71 205.80 421.66 204.36
  Q 423.77 203.59 426.02 203.52
  C 429.37 203.42 431.43 202.09 434.07 201.67
  Q 434.54 201.60 434.94 201.34
  Q 435.43 201.01 435.50 200.44
  Q 435.53 200.22 435.32 200.15
  L 429.61 198.13
  C 437.41 200.31 443.45 201.33 451.01 199.42
  Q 452.53 199.75 453.78 198.80
  Q 454.20 198.48 454.70 198.38
  Q 457.09 197.91 458.60 196.00
  Q 458.89 195.63 459.34 195.50
  Q 460.16 195.25 460.62 194.23
  Q 461.83 191.56 462.16 189.88
  A 0.27 0.27 0.0 0 1 462.38 189.67
  Q 462.54 189.65 462.70 189.62
  Q 462.81 189.60 462.79 189.49
  Q 462.55 187.86 463.40 186.52
  Q 463.57 186.26 463.79 186.48
  Q 464.09 186.78 464.74 186.37
  Q 465.47 185.91 467.33 184.34
  C 468.81 183.09 470.65 182.83 472.25 181.54
  Q 472.63 181.24 473.12 181.14
  Q 475.69 180.65 477.84 179.14
  Q 478.33 178.80 478.41 178.21
  C 478.73 175.80 479.67 173.66 479.67 171.28
  Q 479.68 165.29 479.83 159.29
  Z"
/>
<rect fill="#241815" x="-5.27" y="-5.00" transform="translate(333.12,166.50) rotate(0.2)" width="10.54" height="10.00" rx="0.60"/>
<path fill="#f8c317" d="
  M 443.50 177.06
  C 446.84 178.38 450.69 180.65 451.64 184.27
  Q 452.45 187.36 450.53 189.71
  C 446.88 194.20 436.53 191.46 432.03 189.81
  A 0.76 0.76 0.0 0 0 431.02 190.39
  L 429.61 198.13
  L 435.32 200.15
  Q 435.53 200.22 435.50 200.44
  Q 435.43 201.01 434.94 201.34
  Q 434.54 201.60 434.07 201.67
  C 431.43 202.09 429.37 203.42 426.02 203.52
  Q 423.77 203.59 421.66 204.36
  Q 417.71 205.80 413.54 206.44
  Q 412.77 206.55 411.55 207.06
  C 410.59 207.45 409.83 207.34 408.92 207.95
  C 403.60 211.54 398.12 214.06 392.35 216.97
  C 389.65 218.33 386.54 219.12 383.66 220.38
  C 382.66 220.82 381.29 220.75 380.62 221.13
  Q 375.15 224.27 372.32 225.50
  Q 367.54 227.56 362.86 229.80
  Q 361.84 230.29 358.90 231.06
  Q 356.86 231.61 355.08 232.89
  Q 355.07 232.89 354.25 233.24
  Q 354.04 233.32 353.86 233.22
  Q 353.55 233.05 353.22 233.19
  Q 350.54 234.35 347.95 235.69
  C 346.85 236.25 346.06 236.03 344.89 236.25
  Q 344.45 236.33 344.39 236.78
  Q 344.36 237.03 344.17 237.24
  Q 344.05 237.38 343.80 237.43
  Q 342.21 237.75 340.81 238.57
  Q 340.72 238.63 340.76 238.83
  Q 340.77 238.88 340.76 238.94
  Q 340.76 239.06 340.64 239.07
  L 332.41 239.36
  L 308.24 235.19
  Q 305.97 234.27 305.95 232.67
  Q 305.95 232.00 306.60 232.12
  Q 307.76 232.34 308.67 231.62
  Q 308.99 231.37 309.28 231.08
  Q 309.84 230.52 310.68 230.62
  Q 311.11 230.67 311.35 230.31
  Q 311.84 229.56 312.70 229.27
  Q 312.89 229.20 312.88 229.00
  Q 312.88 228.86 312.88 228.72
  Q 312.88 228.58 312.98 228.50
  C 315.69 226.12 318.64 225.36 321.48 223.43
  C 323.36 222.16 325.63 221.49 327.62 220.35
  C 329.88 219.06 332.80 217.86 335.27 217.00
  Q 341.33 214.89 347.20 212.29
  Q 348.25 211.82 352.48 210.46
  Q 354.69 209.74 357.73 208.34
  Q 359.18 207.67 363.89 206.36
  C 368.17 205.16 372.14 203.29 376.30 201.71
  Q 376.37 201.68 376.73 201.63
  Q 376.99 201.58 377.12 201.37
  Q 377.59 200.64 377.75 200.99
  Q 377.81 201.12 377.86 201.24
  Q 377.90 201.36 378.01 201.31
  Q 379.63 200.63 381.43 200.96
  Q 381.83 201.04 382.19 200.86
  Q 383.44 200.22 385.03 200.63
  Q 385.55 200.76 385.71 200.20
  Q 385.80 199.86 386.10 200.03
  Q 386.26 200.13 386.45 200.14
  Q 386.59 200.14 386.77 200.04
  Q 387.89 199.42 389.06 198.81
  Q 389.51 198.57 389.60 198.08
  Q 389.81 196.89 390.63 195.74
  A 1.45 1.45 0.0 0 1 392.87 195.57
  Q 395.58 198.41 398.75 197.37
  Q 403.48 200.03 409.00 200.47
  Q 414.17 200.88 420.69 199.27
  Q 421.72 199.01 421.56 197.96
  L 420.65 191.77
  Q 420.50 190.72 419.48 191.00
  C 415.78 192.00 409.66 192.82 405.87 191.06
  L 406.94 190.86
  Q 407.37 190.78 407.07 190.45
  Q 405.65 188.90 403.77 188.08
  Q 403.36 187.91 403.34 187.53
  Q 403.31 187.19 403.03 186.99
  Q 400.08 184.88 400.76 181.04
  A 2.71 2.70 6.1 0 1 403.53 178.81
  Q 412.76 179.16 422.25 178.36
  Q 424.27 178.19 426.74 176.64
  Q 427.15 176.39 427.16 175.90
  Q 427.22 173.10 429.80 172.96
  C 431.18 172.88 432.45 173.66 433.98 173.92
  A 1.38 1.36 72.0 0 1 434.75 174.32
  Q 436.43 176.07 438.74 176.20
  Q 439.30 176.23 439.78 176.54
  Q 440.55 177.04 441.53 176.87
  Q 442.05 176.77 442.49 177.07
  Q 443.38 177.67 443.50 177.06
  Z"
/>
<path fill="#241815" d="
  M 249.76 214.19
  Q 250.38 215.32 250.40 216.34
  Q 250.41 216.82 250.79 217.11
  Q 253.31 219.05 256.36 219.99
  C 257.29 220.27 257.90 221.20 258.85 221.63
  Q 294.16 237.79 332.46 242.33
  L 350.77 243.60
  C 370.39 244.48 389.64 242.90 408.79 238.78
  Q 414.87 237.48 421.12 236.19
  Q 446.06 229.92 468.69 217.81
  A 2.00 2.00 0.0 0 1 471.63 219.55
  L 471.89 239.79
  L 471.85 241.16
  L 471.74 330.55
  Q 471.74 331.26 471.02 331.26
  L 248.78 331.25
  Q 248.27 331.25 248.27 330.74
  L 248.31 292.43
  L 248.10 227.97
  L 248.32 214.28
  Q 248.33 213.68 248.91 213.81
  Q 249.31 213.90 249.76 214.19
  Z
  M 460.87 290.87
  C 461.94 277.60 456.30 262.30 439.97 263.99
  Q 427.73 265.25 424.06 277.33
  C 420.21 289.96 423.25 308.28 438.77 310.51
  C 451.97 312.41 459.88 303.21 460.87 290.87
  Z
  M 285.70 299.21
  A 0.68 0.68 0.0 0 1 286.34 299.68
  L 289.56 309.56
  A 0.68 0.68 0.0 0 0 290.20 310.03
  L 298.08 310.09
  A 0.68 0.68 0.0 0 0 298.73 309.20
  L 284.45 264.98
  A 0.68 0.68 0.0 0 0 283.80 264.51
  L 273.33 264.53
  A 0.68 0.68 0.0 0 0 272.69 265.00
  L 258.43 309.14
  A 0.68 0.68 0.0 0 0 259.06 310.03
  L 266.65 310.18
  A 0.68 0.68 0.0 0 0 267.31 309.71
  L 270.61 299.69
  A 0.68 0.68 0.0 0 1 271.25 299.22
  L 285.70 299.21
  Z
  M 331.77 295.37
  C 331.79 306.35 316.42 304.94 316.45 297.16
  Q 316.52 281.03 316.38 265.17
  A 0.65 0.65 0.0 0 0 315.74 264.52
  L 308.25 264.49
  Q 307.60 264.48 307.60 265.13
  Q 307.44 278.03 307.59 291.49
  C 307.67 298.78 307.64 305.23 315.06 308.95
  Q 321.42 312.13 329.78 309.97
  Q 340.48 307.20 340.49 295.99
  Q 340.50 280.42 340.51 265.05
  Q 340.51 264.51 339.97 264.51
  L 332.28 264.49
  Q 331.75 264.49 331.75 265.02
  Q 331.75 279.93 331.77 295.37
  Z
  M 354.00 265.27
  L 354.38 309.47
  A 0.74 0.74 0.0 0 0 355.13 310.20
  L 368.92 310.08
  A 19.82 19.79 89.5 0 0 388.54 290.09
  L 388.48 284.05
  A 19.82 19.79 89.5 0 0 368.52 264.40
  L 354.73 264.52
  A 0.74 0.74 0.0 0 0 354.00 265.27
  Z
  M 409.9311 265.0626
  A 0.55 0.55 0.0 0 0 409.3802 264.5136
  L 401.9802 264.5265
  A 0.55 0.55 0.0 0 0 401.4311 265.0775
  L 401.5089 309.6174
  A 0.55 0.55 0.0 0 0 402.0598 310.1664
  L 409.4598 310.1535
  A 0.55 0.55 0.0 0 0 410.0089 309.6025
  L 409.9311 265.0626
  Z"
/>
<path fill="#9e6203" d="
  M 471.89 239.79
  L 471.63 219.55
  A 2.00 2.00 0.0 0 0 468.69 217.81
  Q 446.06 229.92 421.12 236.19
  L 420.09 234.94
  Q 419.77 234.57 419.30 234.67
  Q 417.63 235.05 416.17 234.65
  Q 419.96 232.95 421.25 232.63
  Q 426.25 231.36 428.50 230.35
  C 429.62 229.85 431.10 230.29 432.45 229.82
  Q 439.28 227.41 446.09 224.96
  C 449.99 223.56 453.95 221.60 457.93 219.97
  Q 464.61 217.22 470.76 214.01
  A 0.93 0.92 76.5 0 1 472.11 214.84
  L 471.89 239.79
  Z"
/>
<path fill="#9e6203" d="
  M 249.76 214.19
  Q 277.59 228.61 308.24 235.19
  L 332.41 239.36
  L 336.89 240.14
  Q 337.13 240.18 337.13 240.42
  Q 337.13 240.56 337.13 240.71
  Q 337.14 240.78 337.07 240.78
  Q 334.30 240.79 332.46 242.33
  Q 294.16 237.79 258.85 221.63
  C 257.90 221.20 257.29 220.27 256.36 219.99
  Q 253.31 219.05 250.79 217.11
  Q 250.41 216.82 250.40 216.34
  Q 250.38 215.32 249.76 214.19
  Z"
/>
<path fill="#f8c317" d="
  M 248.10 227.97
  L 248.31 292.43
  L 247.58 301.13
  Q 247.54 301.52 247.17 301.41
  Q 247.02 301.36 246.87 301.33
  Q 246.37 301.23 246.09 301.65
  L 245.86 302.02
  Q 245.64 302.35 245.34 302.09
  Q 244.99 301.78 244.51 301.88
  Q 244.02 301.99 243.77 302.42
  C 242.94 303.81 243.26 304.86 241.72 305.73
  Q 241.23 306.01 241.20 305.44
  Q 240.75 297.54 240.89 289.66
  Q 240.89 289.48 240.83 289.36
  Q 240.79 289.29 240.73 289.23
  Q 240.61 289.10 240.61 288.96
  L 240.36 232.54
  L 241.05 241.95
  A 0.96 0.96 0.0 0 0 242.26 242.81
  Q 243.55 242.46 244.66 243.23
  Q 245.09 243.53 245.59 243.39
  Q 246.06 243.26 246.51 243.15
  Q 247.08 243.01 247.40 243.20
  Q 247.86 243.48 247.87 244.11
  Q 247.87 244.13 247.89 244.13
  Q 247.89 244.13 247.90 244.13
  Q 247.91 244.13 247.91 244.11
  L 248.10 227.97
  Z"
/>
<path fill="#fedf67" d="
  M 416.17 234.65
  Q 417.63 235.05 419.30 234.67
  Q 419.77 234.57 420.09 234.94
  L 421.12 236.19
  Q 414.87 237.48 408.79 238.78
  C 389.64 242.90 370.39 244.48 350.77 243.60
  Q 350.57 243.28 350.28 243.06
  Q 349.99 242.84 350.32 242.68
  C 351.09 242.32 351.57 241.89 352.44 241.85
  C 358.37 241.57 364.36 241.53 370.16 240.93
  Q 387.03 239.18 403.88 237.39
  C 406.11 237.16 408.03 236.50 410.17 235.92
  C 411.66 235.51 412.93 236.02 414.50 235.84
  Q 414.80 235.81 414.85 235.51
  Q 414.91 235.18 415.18 234.95
  Q 415.69 234.52 416.17 234.65
  Z"
/>
<path fill="#e29d07" d="
  M 460.87 290.87
  C 459.88 303.21 451.97 312.41 438.77 310.51
  C 423.25 308.28 420.21 289.96 424.06 277.33
  Q 427.73 265.25 439.97 263.99
  C 456.30 262.30 461.94 277.60 460.87 290.87
  Z
  M 437.23 272.84
  C 429.91 277.00 429.97 292.44 433.84 298.66
  C 438.25 305.73 448.12 304.31 450.88 296.61
  C 453.08 290.43 453.31 280.87 449.17 275.31
  C 446.34 271.51 441.28 270.54 437.23 272.84
  Z"
/>
<path fill="#eeb00c" d="
  M 285.70 299.21
  L 271.25 299.22
  A 0.68 0.68 0.0 0 0 270.61 299.69
  L 267.31 309.71
  A 0.68 0.68 0.0 0 1 266.65 310.18
  L 259.06 310.03
  A 0.68 0.68 0.0 0 1 258.43 309.14
  L 272.69 265.00
  A 0.68 0.68 0.0 0 1 273.33 264.53
  L 283.80 264.51
  A 0.68 0.68 0.0 0 1 284.45 264.98
  L 298.73 309.20
  A 0.68 0.68 0.0 0 1 298.08 310.09
  L 290.20 310.03
  A 0.68 0.68 0.0 0 1 289.56 309.56
  L 286.34 299.68
  A 0.68 0.68 0.0 0 0 285.70 299.21
  Z
  M 272.93 290.97
  A 0.32 0.32 0.0 0 0 273.24 291.39
  L 283.62 291.44
  A 0.32 0.32 0.0 0 0 283.93 291.03
  L 278.83 273.42
  A 0.32 0.32 0.0 0 0 278.21 273.42
  L 272.93 290.97
  Z"
/>
<path fill="#e29d07" d="
  M 316.45 297.16
  C 316.42 304.94 331.79 306.35 331.77 295.37
  Q 331.75 279.93 331.75 265.02
  Q 331.75 264.49 332.28 264.49
  L 339.97 264.51
  Q 340.51 264.51 340.51 265.05
  Q 340.50 280.42 340.49 295.99
  Q 340.48 307.20 329.78 309.97
  Q 321.42 312.13 315.06 308.95
  C 307.64 305.23 307.67 298.78 307.59 291.49
  Q 307.44 278.03 307.60 265.13
  Q 307.60 264.48 308.25 264.49
  L 315.74 264.52
  A 0.65 0.65 0.0 0 1 316.38 265.17
  Q 316.52 281.03 316.45 297.16
  Z"
/>
<path fill="#e29d07" d="
  M 354.00 265.27
  A 0.74 0.74 0.0 0 1 354.73 264.52
  L 368.52 264.40
  A 19.82 19.79 89.5 0 1 388.48 284.05
  L 388.54 290.09
  A 19.82 19.79 89.5 0 1 368.92 310.08
  L 355.13 310.20
  A 0.74 0.74 0.0 0 1 354.38 309.47
  L 354.00 265.27
  Z
  M 362.67 273.06
  L 362.51 301.78
  A 0.74 0.74 0.0 0 0 363.25 302.53
  L 367.49 302.55
  A 13.44 12.60 -89.7 0 0 380.16 289.18
  L 380.18 285.86
  A 13.44 12.60 -89.7 0 0 367.65 272.35
  L 363.41 272.33
  A 0.74 0.74 0.0 0 0 362.67 273.06
  Z"
/>
<rect fill="#e29d07" x="-4.25" y="-22.82" transform="translate(405.72,287.34) rotate(-0.1)" width="8.50" height="45.64" rx="0.55"/>
<path fill="#241815" d="
  M 433.84 298.66
  C 429.97 292.44 429.91 277.00 437.23 272.84
  C 441.28 270.54 446.34 271.51 449.17 275.31
  C 453.31 280.87 453.08 290.43 450.88 296.61
  C 448.12 304.31 438.25 305.73 433.84 298.66
  Z"
/>
<path fill="#241815" d="
  M 362.67 273.06
  A 0.74 0.74 0.0 0 1 363.41 272.33
  L 367.65 272.35
  A 13.44 12.60 -89.7 0 1 380.18 285.86
  L 380.16 289.18
  A 13.44 12.60 -89.7 0 1 367.49 302.55
  L 363.25 302.53
  A 0.74 0.74 0.0 0 1 362.51 301.78
  L 362.67 273.06
  Z"
/>
<path fill="#241815" d="
  M 272.93 290.97
  L 278.21 273.42
  A 0.32 0.32 0.0 0 1 278.83 273.42
  L 283.93 291.03
  A 0.32 0.32 0.0 0 1 283.62 291.44
  L 273.24 291.39
  A 0.32 0.32 0.0 0 1 272.93 290.97
  Z"
/>
</svg>
